%TF.GenerationSoftware,KiCad,Pcbnew,9.0.2*%
%TF.CreationDate,2025-06-29T11:42:18-07:00*%
%TF.ProjectId,Grid64_v3,47726964-3634-45f7-9633-2e6b69636164,rev?*%
%TF.SameCoordinates,Original*%
%TF.FileFunction,Profile,NP*%
%FSLAX46Y46*%
G04 Gerber Fmt 4.6, Leading zero omitted, Abs format (unit mm)*
G04 Created by KiCad (PCBNEW 9.0.2) date 2025-06-29 11:42:18*
%MOMM*%
%LPD*%
G01*
G04 APERTURE LIST*
%TA.AperFunction,Profile*%
%ADD10C,0.050000*%
%TD*%
%ADD11C,0.350000*%
G04 APERTURE END LIST*
D10*
X186055000Y-204946250D02*
G75*
G02*
X183673750Y-207327500I-2381300J50D01*
G01*
X183673700Y-31115000D02*
X31273750Y-31115000D01*
X28892500Y-33496250D02*
G75*
G02*
X31273750Y-31115000I2381250J0D01*
G01*
X31273750Y-207327500D02*
G75*
G02*
X28892500Y-204946250I0J2381250D01*
G01*
X28892500Y-204946250D02*
X28892500Y-33496250D01*
X183673750Y-31115000D02*
G75*
G02*
X186055000Y-33496250I-50J-2381300D01*
G01*
X183673750Y-207327500D02*
X31273750Y-207327500D01*
X186055000Y-33496250D02*
X186055000Y-204946250D01*
D11*
X134778800Y-86201200D03*
X137318800Y-86201200D03*
X92868800Y-195421200D03*
X97948800Y-195421200D03*
X103028800Y-195421200D03*
X94138800Y-192881200D03*
X100488800Y-190341200D03*
X130968800Y-100171200D03*
X136048800Y-100171200D03*
X141128800Y-100171200D03*
X132238800Y-97631200D03*
X138588800Y-95091200D03*
X130968800Y-138271200D03*
X136048800Y-138271200D03*
X141128800Y-138271200D03*
X132238800Y-135731200D03*
X138588800Y-133191200D03*
X96678800Y-181451200D03*
X99218800Y-181451200D03*
X73818800Y-157321200D03*
X78898800Y-157321200D03*
X83978800Y-157321200D03*
X75088800Y-154781200D03*
X81438800Y-152241200D03*
X134778800Y-105251200D03*
X137318800Y-105251200D03*
X169068800Y-62071200D03*
X174148800Y-62071200D03*
X179228800Y-62071200D03*
X170338800Y-59531200D03*
X176688800Y-56991200D03*
X73818800Y-138271200D03*
X78898800Y-138271200D03*
X83978800Y-138271200D03*
X75088800Y-135731200D03*
X81438800Y-133191200D03*
X35718800Y-176371200D03*
X40798800Y-176371200D03*
X45878800Y-176371200D03*
X36988800Y-173831200D03*
X43338800Y-171291200D03*
X172878800Y-200501200D03*
X175418800Y-200501200D03*
X35718800Y-81121200D03*
X40798800Y-81121200D03*
X45878800Y-81121200D03*
X36988800Y-78581200D03*
X43338800Y-76041200D03*
X155473725Y-40115000D03*
X155473725Y-41115000D03*
X155473725Y-42115000D03*
X155473725Y-43115000D03*
X155473725Y-44115000D03*
X155473725Y-45115000D03*
X155473725Y-46115000D03*
X155473725Y-47115000D03*
X58578800Y-124301200D03*
X61118800Y-124301200D03*
X96678800Y-162401200D03*
X99218800Y-162401200D03*
X111918800Y-62071200D03*
X116998800Y-62071200D03*
X122078800Y-62071200D03*
X113188800Y-59531200D03*
X119538800Y-56991200D03*
X107473800Y-128746200D03*
X153828800Y-67151200D03*
X156368800Y-67151200D03*
X50323800Y-71596200D03*
X134778800Y-67151200D03*
X137318800Y-67151200D03*
X164623800Y-71596200D03*
X77628800Y-181451200D03*
X80168800Y-181451200D03*
X73818800Y-119221200D03*
X78898800Y-119221200D03*
X83978800Y-119221200D03*
X75088800Y-116681200D03*
X81438800Y-114141200D03*
X92868800Y-81121200D03*
X97948800Y-81121200D03*
X103028800Y-81121200D03*
X94138800Y-78581200D03*
X100488800Y-76041200D03*
X153828800Y-124301200D03*
X156368800Y-124301200D03*
X153828800Y-181451200D03*
X156368800Y-181451200D03*
X96678800Y-200501200D03*
X99218800Y-200501200D03*
X169068800Y-138271200D03*
X174148800Y-138271200D03*
X179228800Y-138271200D03*
X170338800Y-135731200D03*
X176688800Y-133191200D03*
X115728800Y-200501200D03*
X118268800Y-200501200D03*
X35718800Y-100171200D03*
X40798800Y-100171200D03*
X45878800Y-100171200D03*
X36988800Y-97631200D03*
X43338800Y-95091200D03*
X58578800Y-200501200D03*
X61118800Y-200501200D03*
X54768800Y-100171200D03*
X59848800Y-100171200D03*
X64928800Y-100171200D03*
X56038800Y-97631200D03*
X62388800Y-95091200D03*
X169068800Y-81121200D03*
X174148800Y-81121200D03*
X179228800Y-81121200D03*
X170338800Y-78581200D03*
X176688800Y-76041200D03*
X77628800Y-67151200D03*
X80168800Y-67151200D03*
X35718800Y-119221200D03*
X40798800Y-119221200D03*
X45878800Y-119221200D03*
X36988800Y-116681200D03*
X43338800Y-114141200D03*
X111918800Y-195421200D03*
X116998800Y-195421200D03*
X122078800Y-195421200D03*
X113188800Y-192881200D03*
X119538800Y-190341200D03*
X54768800Y-195421200D03*
X59848800Y-195421200D03*
X64928800Y-195421200D03*
X56038800Y-192881200D03*
X62388800Y-190341200D03*
X150018800Y-119221200D03*
X155098800Y-119221200D03*
X160178800Y-119221200D03*
X151288800Y-116681200D03*
X157638800Y-114141200D03*
X39528800Y-67151200D03*
X42068800Y-67151200D03*
X172878800Y-67151200D03*
X175418800Y-67151200D03*
X134778800Y-181451200D03*
X137318800Y-181451200D03*
X169068800Y-119221200D03*
X174148800Y-119221200D03*
X179228800Y-119221200D03*
X170338800Y-116681200D03*
X176688800Y-114141200D03*
X35718800Y-157321200D03*
X40798800Y-157321200D03*
X45878800Y-157321200D03*
X36988800Y-154781200D03*
X43338800Y-152241200D03*
X134778800Y-124301200D03*
X137318800Y-124301200D03*
X58578800Y-105251200D03*
X61118800Y-105251200D03*
X107473800Y-71596200D03*
X50323800Y-128746200D03*
X39528800Y-86201200D03*
X42068800Y-86201200D03*
X50323800Y-185896200D03*
X96678800Y-105251200D03*
X99218800Y-105251200D03*
X58578800Y-143351200D03*
X61118800Y-143351200D03*
X172878800Y-124301200D03*
X175418800Y-124301200D03*
X77628800Y-124301200D03*
X80168800Y-124301200D03*
X73818800Y-176371200D03*
X78898800Y-176371200D03*
X83978800Y-176371200D03*
X75088800Y-173831200D03*
X81438800Y-171291200D03*
X39528800Y-200501200D03*
X42068800Y-200501200D03*
X150018800Y-62071200D03*
X155098800Y-62071200D03*
X160178800Y-62071200D03*
X151288800Y-59531200D03*
X157638800Y-56991200D03*
X111918800Y-138271200D03*
X116998800Y-138271200D03*
X122078800Y-138271200D03*
X113188800Y-135731200D03*
X119538800Y-133191200D03*
X77628800Y-162401200D03*
X80168800Y-162401200D03*
X130968800Y-81121200D03*
X136048800Y-81121200D03*
X141128800Y-81121200D03*
X132238800Y-78581200D03*
X138588800Y-76041200D03*
X58578800Y-67151200D03*
X61118800Y-67151200D03*
X35718800Y-62071200D03*
X40798800Y-62071200D03*
X45878800Y-62071200D03*
X36988800Y-59531200D03*
X43338800Y-56991200D03*
X39528800Y-143351200D03*
X42068800Y-143351200D03*
X134778800Y-200501200D03*
X137318800Y-200501200D03*
X54768800Y-138271200D03*
X59848800Y-138271200D03*
X64928800Y-138271200D03*
X56038800Y-135731200D03*
X62388800Y-133191200D03*
X54768800Y-62071200D03*
X59848800Y-62071200D03*
X64928800Y-62071200D03*
X56038800Y-59531200D03*
X62388800Y-56991200D03*
X150018800Y-195421200D03*
X155098800Y-195421200D03*
X160178800Y-195421200D03*
X151288800Y-192881200D03*
X157638800Y-190341200D03*
X92868800Y-100171200D03*
X97948800Y-100171200D03*
X103028800Y-100171200D03*
X94138800Y-97631200D03*
X100488800Y-95091200D03*
X111918800Y-81121200D03*
X116998800Y-81121200D03*
X122078800Y-81121200D03*
X113188800Y-78581200D03*
X119538800Y-76041200D03*
X39528800Y-162401200D03*
X42068800Y-162401200D03*
X77628800Y-105251200D03*
X80168800Y-105251200D03*
X58578800Y-162401200D03*
X61118800Y-162401200D03*
X73818800Y-62071200D03*
X78898800Y-62071200D03*
X83978800Y-62071200D03*
X75088800Y-59531200D03*
X81438800Y-56991200D03*
X115728800Y-67151200D03*
X118268800Y-67151200D03*
X77628800Y-86201200D03*
X80168800Y-86201200D03*
X39528800Y-181451200D03*
X42068800Y-181451200D03*
X172878800Y-86201200D03*
X175418800Y-86201200D03*
X145973725Y-37615000D03*
X146973725Y-37615000D03*
X147973725Y-37615000D03*
X148973725Y-37615000D03*
X149973725Y-37615000D03*
X150973725Y-37615000D03*
X151973725Y-37615000D03*
X152973725Y-37615000D03*
X172878800Y-105251200D03*
X175418800Y-105251200D03*
X169068800Y-176371200D03*
X174148800Y-176371200D03*
X179228800Y-176371200D03*
X170338800Y-173831200D03*
X176688800Y-171291200D03*
X92868800Y-176371200D03*
X97948800Y-176371200D03*
X103028800Y-176371200D03*
X94138800Y-173831200D03*
X100488800Y-171291200D03*
X150018800Y-100171200D03*
X155098800Y-100171200D03*
X160178800Y-100171200D03*
X151288800Y-97631200D03*
X157638800Y-95091200D03*
X58578800Y-181451200D03*
X61118800Y-181451200D03*
X58578800Y-86201200D03*
X61118800Y-86201200D03*
X115728800Y-124301200D03*
X118268800Y-124301200D03*
X150018800Y-176371200D03*
X155098800Y-176371200D03*
X160178800Y-176371200D03*
X151288800Y-173831200D03*
X157638800Y-171291200D03*
X115728800Y-162401200D03*
X118268800Y-162401200D03*
X92868800Y-138271200D03*
X97948800Y-138271200D03*
X103028800Y-138271200D03*
X94138800Y-135731200D03*
X100488800Y-133191200D03*
X169068800Y-195421200D03*
X174148800Y-195421200D03*
X179228800Y-195421200D03*
X170338800Y-192881200D03*
X176688800Y-190341200D03*
X150018800Y-138271200D03*
X155098800Y-138271200D03*
X160178800Y-138271200D03*
X151288800Y-135731200D03*
X157638800Y-133191200D03*
X111918800Y-119221200D03*
X116998800Y-119221200D03*
X122078800Y-119221200D03*
X113188800Y-116681200D03*
X119538800Y-114141200D03*
X35718800Y-195421200D03*
X40798800Y-195421200D03*
X45878800Y-195421200D03*
X36988800Y-192881200D03*
X43338800Y-190341200D03*
X115728800Y-143351200D03*
X118268800Y-143351200D03*
X73818800Y-100171200D03*
X78898800Y-100171200D03*
X83978800Y-100171200D03*
X75088800Y-97631200D03*
X81438800Y-95091200D03*
X172878800Y-162401200D03*
X175418800Y-162401200D03*
X115728800Y-86201200D03*
X118268800Y-86201200D03*
X107473800Y-185896200D03*
X130968800Y-119221200D03*
X136048800Y-119221200D03*
X141128800Y-119221200D03*
X132238800Y-116681200D03*
X138588800Y-114141200D03*
X169068800Y-100171200D03*
X174148800Y-100171200D03*
X179228800Y-100171200D03*
X170338800Y-97631200D03*
X176688800Y-95091200D03*
X153828800Y-86201200D03*
X156368800Y-86201200D03*
X150018800Y-157321200D03*
X155098800Y-157321200D03*
X160178800Y-157321200D03*
X151288800Y-154781200D03*
X157638800Y-152241200D03*
X153828800Y-143351200D03*
X156368800Y-143351200D03*
X77628800Y-143351200D03*
X80168800Y-143351200D03*
X73818800Y-195421200D03*
X78898800Y-195421200D03*
X83978800Y-195421200D03*
X75088800Y-192881200D03*
X81438800Y-190341200D03*
X130968800Y-195421200D03*
X136048800Y-195421200D03*
X141128800Y-195421200D03*
X132238800Y-192881200D03*
X138588800Y-190341200D03*
X150018800Y-81121200D03*
X155098800Y-81121200D03*
X160178800Y-81121200D03*
X151288800Y-78581200D03*
X157638800Y-76041200D03*
X130968800Y-157321200D03*
X136048800Y-157321200D03*
X141128800Y-157321200D03*
X132238800Y-154781200D03*
X138588800Y-152241200D03*
X164623800Y-128746200D03*
X92868800Y-62071200D03*
X97948800Y-62071200D03*
X103028800Y-62071200D03*
X94138800Y-59531200D03*
X100488800Y-56991200D03*
X111918800Y-100171200D03*
X116998800Y-100171200D03*
X122078800Y-100171200D03*
X113188800Y-97631200D03*
X119538800Y-95091200D03*
X92868800Y-119221200D03*
X97948800Y-119221200D03*
X103028800Y-119221200D03*
X94138800Y-116681200D03*
X100488800Y-114141200D03*
X92868800Y-157321200D03*
X97948800Y-157321200D03*
X103028800Y-157321200D03*
X94138800Y-154781200D03*
X100488800Y-152241200D03*
X77628800Y-200501200D03*
X80168800Y-200501200D03*
X153828800Y-162401200D03*
X156368800Y-162401200D03*
X172878800Y-143351200D03*
X175418800Y-143351200D03*
X169068800Y-157321200D03*
X174148800Y-157321200D03*
X179228800Y-157321200D03*
X170338800Y-154781200D03*
X176688800Y-152241200D03*
X35718800Y-138271200D03*
X40798800Y-138271200D03*
X45878800Y-138271200D03*
X36988800Y-135731200D03*
X43338800Y-133191200D03*
X96678800Y-124301200D03*
X99218800Y-124301200D03*
X39528800Y-124301200D03*
X42068800Y-124301200D03*
X96678800Y-86201200D03*
X99218800Y-86201200D03*
X54768800Y-81121200D03*
X59848800Y-81121200D03*
X64928800Y-81121200D03*
X56038800Y-78581200D03*
X62388800Y-76041200D03*
X111918800Y-157321200D03*
X116998800Y-157321200D03*
X122078800Y-157321200D03*
X113188800Y-154781200D03*
X119538800Y-152241200D03*
X111918800Y-176371200D03*
X116998800Y-176371200D03*
X122078800Y-176371200D03*
X113188800Y-173831200D03*
X119538800Y-171291200D03*
X115728800Y-181451200D03*
X118268800Y-181451200D03*
X130968800Y-176371200D03*
X136048800Y-176371200D03*
X141128800Y-176371200D03*
X132238800Y-173831200D03*
X138588800Y-171291200D03*
X172878800Y-181451200D03*
X175418800Y-181451200D03*
X73818800Y-81121200D03*
X78898800Y-81121200D03*
X83978800Y-81121200D03*
X75088800Y-78581200D03*
X81438800Y-76041200D03*
X134778800Y-162401200D03*
X137318800Y-162401200D03*
X54768800Y-157321200D03*
X59848800Y-157321200D03*
X64928800Y-157321200D03*
X56038800Y-154781200D03*
X62388800Y-152241200D03*
X54768800Y-119221200D03*
X59848800Y-119221200D03*
X64928800Y-119221200D03*
X56038800Y-116681200D03*
X62388800Y-114141200D03*
X153828800Y-105251200D03*
X156368800Y-105251200D03*
X164623800Y-185896200D03*
X115728800Y-105251200D03*
X118268800Y-105251200D03*
X153828800Y-200501200D03*
X156368800Y-200501200D03*
X96678800Y-143351200D03*
X99218800Y-143351200D03*
X39528800Y-105251200D03*
X42068800Y-105251200D03*
X99853725Y-34995000D03*
X99853725Y-37535000D03*
X99853725Y-40075000D03*
X99853725Y-42615000D03*
X99853725Y-45155000D03*
X99853725Y-47695000D03*
X99853725Y-50235000D03*
X115093725Y-50235000D03*
X115093725Y-47695000D03*
X115093725Y-45155000D03*
X115093725Y-42615000D03*
X115093725Y-40075000D03*
X115093725Y-37535000D03*
X115093725Y-34995000D03*
X134778800Y-143351200D03*
X137318800Y-143351200D03*
X130968800Y-62071200D03*
X136048800Y-62071200D03*
X141128800Y-62071200D03*
X132238800Y-59531200D03*
X138588800Y-56991200D03*
X54768800Y-176371200D03*
X59848800Y-176371200D03*
X64928800Y-176371200D03*
X56038800Y-173831200D03*
X62388800Y-171291200D03*
X96678800Y-67151200D03*
X99218800Y-67151200D03*
M02*
