M48
; DRILL file {KiCad 9.0.2} date 2025-06-29T11:42:18-0700
; FORMAT={-:-/ absolute / metric / decimal}
; #@! TF.CreationDate,2025-06-29T11:42:18-07:00
; #@! TF.GenerationSoftware,Kicad,Pcbnew,9.0.2
; #@! TF.FileFunction,Plated,1,2,PTH
FMAT,2
METRIC
; #@! TA.AperFunction,Plated,PTH,ViaDrill
T1C0.300
; #@! TA.AperFunction,Plated,PTH,ComponentDrill
T2C0.500
; #@! TA.AperFunction,Plated,PTH,ComponentDrill
T3C0.889
; #@! TA.AperFunction,Plated,PTH,ComponentDrill
T4C1.040
; #@! TA.AperFunction,Plated,PTH,ComponentDrill
T5C1.524
%
G90
G05
T1
X31.974Y-34.115
X31.974Y-48.615
X35.474Y-69.865
X36.224Y-53.115
X48.474Y-50.615
X54.474Y-45.615
X55.974Y-43.865
X56.474Y-40.615
X57.974Y-38.615
X57.974Y-45.615
X57.974Y-51.115
X58.474Y-44.115
X60.974Y-51.115
X62.474Y-45.615
X62.474Y-51.615
X62.974Y-38.615
X63.474Y-49.115
X63.924Y-52.165
X67.224Y-52.165
X68.474Y-46.615
X69.474Y-50.817
X72.474Y-38.615
X72.474Y-48.115
X73.474Y-49.115
X77.474Y-36.615
X79.474Y-58.115
X81.474Y-45.115
X83.474Y-48.115
X84.974Y-53.615
X85.974Y-40.115
X85.974Y-45.115
X87.974Y-49.865
X91.474Y-40.615
X91.974Y-46.115
X95.474Y-44.115
X95.474Y-49.615
X96.474Y-34.869
X98.474Y-58.115
X103.474Y-39.115
X106.474Y-54.115
X106.974Y-38.615
X110.474Y-40.115
X117.474Y-58.115
X119.474Y-49.615
X119.974Y-37.115
X122.974Y-86.115
X123.474Y-35.115
X123.974Y-87.115
X124.974Y-43.615
X124.974Y-88.115
X125.974Y-41.615
X125.974Y-89.115
X126.474Y-47.615
X126.974Y-90.115
X130.474Y-38.615
X130.474Y-40.615
X130.474Y-42.115
X130.474Y-45.016
X130.974Y-43.746
X134.974Y-49.615
X136.474Y-58.115
X136.974Y-40.115
X140.474Y-49.115
X141.474Y-64.721
X141.474Y-83.771
X141.474Y-102.821
X141.474Y-121.871
X141.474Y-140.921
X141.474Y-159.971
X141.474Y-179.021
X141.474Y-198.071
X142.474Y-41.115
X142.474Y-43.115
X142.474Y-45.115
X142.474Y-47.115
X142.974Y-53.615
X143.974Y-35.615
X143.974Y-53.615
X144.974Y-53.615
X145.974Y-53.615
X148.474Y-36.115
X157.224Y-59.615
X159.974Y-37.565
X160.974Y-50.115
X164.474Y-36.115
X164.474Y-46.115
X166.974Y-42.615
X168.974Y-37.615
X170.974Y-53.115
X171.974Y-34.115
X174.224Y-55.865
X175.474Y-44.615
X177.974Y-38.615
X180.974Y-35.115
X182.474Y-52.615
T2
X145.974Y-37.615
X146.974Y-37.615
X147.974Y-37.615
X148.974Y-37.615
X149.974Y-37.615
X150.974Y-37.615
X151.974Y-37.615
X152.974Y-37.615
X155.474Y-40.115
X155.474Y-41.115
X155.474Y-42.115
X155.474Y-43.115
X155.474Y-44.115
X155.474Y-45.115
X155.474Y-46.115
X155.474Y-47.115
T3
X99.854Y-34.995
X99.854Y-37.535
X99.854Y-40.075
X99.854Y-42.615
X99.854Y-45.155
X99.854Y-47.695
X99.854Y-50.235
X115.094Y-34.995
X115.094Y-37.535
X115.094Y-40.075
X115.094Y-42.615
X115.094Y-45.155
X115.094Y-47.695
X115.094Y-50.235
T4
X39.529Y-67.151
X39.529Y-86.201
X39.529Y-105.251
X39.529Y-124.301
X39.529Y-143.351
X39.529Y-162.401
X39.529Y-181.451
X39.529Y-200.501
X42.069Y-67.151
X42.069Y-86.201
X42.069Y-105.251
X42.069Y-124.301
X42.069Y-143.351
X42.069Y-162.401
X42.069Y-181.451
X42.069Y-200.501
X58.579Y-67.151
X58.579Y-86.201
X58.579Y-105.251
X58.579Y-124.301
X58.579Y-143.351
X58.579Y-162.401
X58.579Y-181.451
X58.579Y-200.501
X61.119Y-67.151
X61.119Y-86.201
X61.119Y-105.251
X61.119Y-124.301
X61.119Y-143.351
X61.119Y-162.401
X61.119Y-181.451
X61.119Y-200.501
X77.629Y-67.151
X77.629Y-86.201
X77.629Y-105.251
X77.629Y-124.301
X77.629Y-143.351
X77.629Y-162.401
X77.629Y-181.451
X77.629Y-200.501
X80.169Y-67.151
X80.169Y-86.201
X80.169Y-105.251
X80.169Y-124.301
X80.169Y-143.351
X80.169Y-162.401
X80.169Y-181.451
X80.169Y-200.501
X96.679Y-67.151
X96.679Y-86.201
X96.679Y-105.251
X96.679Y-124.301
X96.679Y-143.351
X96.679Y-162.401
X96.679Y-181.451
X96.679Y-200.501
X99.219Y-67.151
X99.219Y-86.201
X99.219Y-105.251
X99.219Y-124.301
X99.219Y-143.351
X99.219Y-162.401
X99.219Y-181.451
X99.219Y-200.501
X115.729Y-67.151
X115.729Y-86.201
X115.729Y-105.251
X115.729Y-124.301
X115.729Y-143.351
X115.729Y-162.401
X115.729Y-181.451
X115.729Y-200.501
X118.269Y-67.151
X118.269Y-86.201
X118.269Y-105.251
X118.269Y-124.301
X118.269Y-143.351
X118.269Y-162.401
X118.269Y-181.451
X118.269Y-200.501
X134.779Y-67.151
X134.779Y-86.201
X134.779Y-105.251
X134.779Y-124.301
X134.779Y-143.351
X134.779Y-162.401
X134.779Y-181.451
X134.779Y-200.501
X137.319Y-67.151
X137.319Y-86.201
X137.319Y-105.251
X137.319Y-124.301
X137.319Y-143.351
X137.319Y-162.401
X137.319Y-181.451
X137.319Y-200.501
X153.829Y-67.151
X153.829Y-86.201
X153.829Y-105.251
X153.829Y-124.301
X153.829Y-143.351
X153.829Y-162.401
X153.829Y-181.451
X153.829Y-200.501
X156.369Y-67.151
X156.369Y-86.201
X156.369Y-105.251
X156.369Y-124.301
X156.369Y-143.351
X156.369Y-162.401
X156.369Y-181.451
X156.369Y-200.501
X172.879Y-67.151
X172.879Y-86.201
X172.879Y-105.251
X172.879Y-124.301
X172.879Y-143.351
X172.879Y-162.401
X172.879Y-181.451
X172.879Y-200.501
X175.419Y-67.151
X175.419Y-86.201
X175.419Y-105.251
X175.419Y-124.301
X175.419Y-143.351
X175.419Y-162.401
X175.419Y-181.451
X175.419Y-200.501
T5
X36.989Y-59.531
X36.989Y-78.581
X36.989Y-97.631
X36.989Y-116.681
X36.989Y-135.731
X36.989Y-154.781
X36.989Y-173.831
X36.989Y-192.881
X43.339Y-56.991
X43.339Y-76.041
X43.339Y-95.091
X43.339Y-114.141
X43.339Y-133.191
X43.339Y-152.241
X43.339Y-171.291
X43.339Y-190.341
X56.039Y-59.531
X56.039Y-78.581
X56.039Y-97.631
X56.039Y-116.681
X56.039Y-135.731
X56.039Y-154.781
X56.039Y-173.831
X56.039Y-192.881
X62.389Y-56.991
X62.389Y-76.041
X62.389Y-95.091
X62.389Y-114.141
X62.389Y-133.191
X62.389Y-152.241
X62.389Y-171.291
X62.389Y-190.341
X75.089Y-59.531
X75.089Y-78.581
X75.089Y-97.631
X75.089Y-116.681
X75.089Y-135.731
X75.089Y-154.781
X75.089Y-173.831
X75.089Y-192.881
X81.439Y-56.991
X81.439Y-76.041
X81.439Y-95.091
X81.439Y-114.141
X81.439Y-133.191
X81.439Y-152.241
X81.439Y-171.291
X81.439Y-190.341
X94.139Y-59.531
X94.139Y-78.581
X94.139Y-97.631
X94.139Y-116.681
X94.139Y-135.731
X94.139Y-154.781
X94.139Y-173.831
X94.139Y-192.881
X100.489Y-56.991
X100.489Y-76.041
X100.489Y-95.091
X100.489Y-114.141
X100.489Y-133.191
X100.489Y-152.241
X100.489Y-171.291
X100.489Y-190.341
X113.189Y-59.531
X113.189Y-78.581
X113.189Y-97.631
X113.189Y-116.681
X113.189Y-135.731
X113.189Y-154.781
X113.189Y-173.831
X113.189Y-192.881
X119.539Y-56.991
X119.539Y-76.041
X119.539Y-95.091
X119.539Y-114.141
X119.539Y-133.191
X119.539Y-152.241
X119.539Y-171.291
X119.539Y-190.341
X132.239Y-59.531
X132.239Y-78.581
X132.239Y-97.631
X132.239Y-116.681
X132.239Y-135.731
X132.239Y-154.781
X132.239Y-173.831
X132.239Y-192.881
X138.589Y-56.991
X138.589Y-76.041
X138.589Y-95.091
X138.589Y-114.141
X138.589Y-133.191
X138.589Y-152.241
X138.589Y-171.291
X138.589Y-190.341
X151.289Y-59.531
X151.289Y-78.581
X151.289Y-97.631
X151.289Y-116.681
X151.289Y-135.731
X151.289Y-154.781
X151.289Y-173.831
X151.289Y-192.881
X157.639Y-56.991
X157.639Y-76.041
X157.639Y-95.091
X157.639Y-114.141
X157.639Y-133.191
X157.639Y-152.241
X157.639Y-171.291
X157.639Y-190.341
X170.339Y-59.531
X170.339Y-78.581
X170.339Y-97.631
X170.339Y-116.681
X170.339Y-135.731
X170.339Y-154.781
X170.339Y-173.831
X170.339Y-192.881
X176.689Y-56.991
X176.689Y-76.041
X176.689Y-95.091
X176.689Y-114.141
X176.689Y-133.191
X176.689Y-152.241
X176.689Y-171.291
X176.689Y-190.341
M30
