%TF.GenerationSoftware,KiCad,Pcbnew,9.0.2*%
%TF.CreationDate,2025-06-29T11:42:18-07:00*%
%TF.ProjectId,Grid64_v3,47726964-3634-45f7-9633-2e6b69636164,rev?*%
%TF.SameCoordinates,Original*%
%TF.FileFunction,Paste,Top*%
%TF.FilePolarity,Positive*%
%FSLAX46Y46*%
G04 Gerber Fmt 4.6, Leading zero omitted, Abs format (unit mm)*
G04 Created by KiCad (PCBNEW 9.0.2) date 2025-06-29 11:42:18*
%MOMM*%
%LPD*%
G01*
G04 APERTURE LIST*
G04 Aperture macros list*
%AMRoundRect*
0 Rectangle with rounded corners*
0 $1 Rounding radius*
0 $2 $3 $4 $5 $6 $7 $8 $9 X,Y pos of 4 corners*
0 Add a 4 corners polygon primitive as box body*
4,1,4,$2,$3,$4,$5,$6,$7,$8,$9,$2,$3,0*
0 Add four circle primitives for the rounded corners*
1,1,$1+$1,$2,$3*
1,1,$1+$1,$4,$5*
1,1,$1+$1,$6,$7*
1,1,$1+$1,$8,$9*
0 Add four rect primitives between the rounded corners*
20,1,$1+$1,$2,$3,$4,$5,0*
20,1,$1+$1,$4,$5,$6,$7,0*
20,1,$1+$1,$6,$7,$8,$9,0*
20,1,$1+$1,$8,$9,$2,$3,0*%
G04 Aperture macros list end*
%ADD10RoundRect,0.225000X-0.375000X0.225000X-0.375000X-0.225000X0.375000X-0.225000X0.375000X0.225000X0*%
%ADD11RoundRect,0.250000X-0.262500X-0.450000X0.262500X-0.450000X0.262500X0.450000X-0.262500X0.450000X0*%
%ADD12RoundRect,0.250000X0.262500X0.450000X-0.262500X0.450000X-0.262500X-0.450000X0.262500X-0.450000X0*%
%ADD13RoundRect,0.250000X-0.475000X0.250000X-0.475000X-0.250000X0.475000X-0.250000X0.475000X0.250000X0*%
%ADD14RoundRect,0.087500X0.537500X0.087500X-0.537500X0.087500X-0.537500X-0.087500X0.537500X-0.087500X0*%
%ADD15RoundRect,0.250000X0.475000X-0.250000X0.475000X0.250000X-0.475000X0.250000X-0.475000X-0.250000X0*%
%ADD16RoundRect,0.250000X0.550000X-1.050000X0.550000X1.050000X-0.550000X1.050000X-0.550000X-1.050000X0*%
%ADD17RoundRect,0.150000X-0.875000X-0.150000X0.875000X-0.150000X0.875000X0.150000X-0.875000X0.150000X0*%
%ADD18RoundRect,0.150000X-0.825000X-0.150000X0.825000X-0.150000X0.825000X0.150000X-0.825000X0.150000X0*%
%ADD19RoundRect,0.150000X0.150000X-0.825000X0.150000X0.825000X-0.150000X0.825000X-0.150000X-0.825000X0*%
%ADD20RoundRect,0.250000X-0.250000X-0.475000X0.250000X-0.475000X0.250000X0.475000X-0.250000X0.475000X0*%
G04 APERTURE END LIST*
D10*
%TO.C,D47*%
X164623800Y-156671200D03*
X164623800Y-159971200D03*
%TD*%
%TO.C,D30*%
X145573800Y-118571200D03*
X145573800Y-121871200D03*
%TD*%
%TO.C,D3*%
X88423800Y-61421200D03*
X88423800Y-64721200D03*
%TD*%
%TO.C,D10*%
X69373800Y-80471200D03*
X69373800Y-83771200D03*
%TD*%
D11*
%TO.C,R2*%
X88661225Y-39615000D03*
X90486225Y-39615000D03*
%TD*%
D10*
%TO.C,D8*%
X183673800Y-61421200D03*
X183673800Y-64721200D03*
%TD*%
%TO.C,D28*%
X107473800Y-118571200D03*
X107473800Y-121871200D03*
%TD*%
%TO.C,D43*%
X88423800Y-156671200D03*
X88423800Y-159971200D03*
%TD*%
D12*
%TO.C,R7*%
X162386225Y-47115000D03*
X160561225Y-47115000D03*
%TD*%
D13*
%TO.C,C2*%
X85473725Y-47165000D03*
X85473725Y-49065000D03*
%TD*%
D10*
%TO.C,D58*%
X69373800Y-194771200D03*
X69373800Y-198071200D03*
%TD*%
D12*
%TO.C,R1*%
X80886225Y-42615000D03*
X79061225Y-42615000D03*
%TD*%
D14*
%TO.C,U3*%
X90973725Y-48815000D03*
X90973725Y-48315000D03*
X90973725Y-47815000D03*
X90973725Y-47315000D03*
X88173725Y-47315000D03*
X88173725Y-47815000D03*
X88173725Y-48315000D03*
X88173725Y-48815000D03*
%TD*%
D10*
%TO.C,D45*%
X126523800Y-156671200D03*
X126523800Y-159971200D03*
%TD*%
%TO.C,D5*%
X126523800Y-61421200D03*
X126523800Y-64721200D03*
%TD*%
D15*
%TO.C,C1*%
X93973725Y-47115000D03*
X93973725Y-49015000D03*
%TD*%
D10*
%TO.C,D36*%
X107473800Y-137621200D03*
X107473800Y-140921200D03*
%TD*%
%TO.C,D59*%
X88423800Y-194771200D03*
X88423800Y-198071200D03*
%TD*%
%TO.C,D18*%
X69373800Y-99521200D03*
X69373800Y-102821200D03*
%TD*%
%TO.C,D6*%
X145573800Y-61421200D03*
X145573800Y-64721200D03*
%TD*%
%TO.C,D27*%
X88423800Y-118571200D03*
X88423800Y-121871200D03*
%TD*%
D15*
%TO.C,C7*%
X85473725Y-43065000D03*
X85473725Y-41165000D03*
%TD*%
D10*
%TO.C,D51*%
X88423800Y-175721200D03*
X88423800Y-179021200D03*
%TD*%
%TO.C,D19*%
X88423800Y-99521200D03*
X88423800Y-102821200D03*
%TD*%
%TO.C,D42*%
X69373800Y-156671200D03*
X69373800Y-159971200D03*
%TD*%
%TO.C,D37*%
X126523800Y-137621200D03*
X126523800Y-140921200D03*
%TD*%
D12*
%TO.C,R5*%
X162386225Y-43115000D03*
X160561225Y-43115000D03*
%TD*%
D10*
%TO.C,D34*%
X69373800Y-137621200D03*
X69373800Y-140921200D03*
%TD*%
%TO.C,D50*%
X69373800Y-175721200D03*
X69373800Y-179021200D03*
%TD*%
%TO.C,D35*%
X88423800Y-137621200D03*
X88423800Y-140921200D03*
%TD*%
D16*
%TO.C,C9*%
X121473725Y-39915000D03*
X121473725Y-36315000D03*
%TD*%
D15*
%TO.C,C5*%
X72473725Y-41565000D03*
X72473725Y-39665000D03*
%TD*%
D10*
%TO.C,D21*%
X126523800Y-99521200D03*
X126523800Y-102821200D03*
%TD*%
D11*
%TO.C,R3*%
X88661225Y-45565000D03*
X90486225Y-45565000D03*
%TD*%
D10*
%TO.C,D44*%
X107473800Y-156671200D03*
X107473800Y-159971200D03*
%TD*%
%TO.C,D41*%
X50323800Y-156671200D03*
X50323800Y-159971200D03*
%TD*%
%TO.C,D54*%
X145573800Y-175721200D03*
X145573800Y-179021200D03*
%TD*%
D17*
%TO.C,LED1*%
X60823725Y-35130000D03*
X60823725Y-36400000D03*
X60823725Y-37670000D03*
X60823725Y-38940000D03*
X60823725Y-40210000D03*
X60823725Y-41480000D03*
X60823725Y-42750000D03*
X60823725Y-44020000D03*
X60823725Y-45290000D03*
X60823725Y-46560000D03*
X60823725Y-47830000D03*
X60823725Y-49100000D03*
X70123725Y-49100000D03*
X70123725Y-47830000D03*
X70123725Y-46560000D03*
X70123725Y-45290000D03*
X70123725Y-44020000D03*
X70123725Y-42750000D03*
X70123725Y-41480000D03*
X70123725Y-40210000D03*
X70123725Y-38940000D03*
X70123725Y-37670000D03*
X70123725Y-36400000D03*
X70123725Y-35130000D03*
%TD*%
D12*
%TO.C,R6*%
X162386225Y-45115000D03*
X160561225Y-45115000D03*
%TD*%
D10*
%TO.C,D57*%
X50323800Y-194771200D03*
X50323800Y-198071200D03*
%TD*%
%TO.C,D33*%
X50323800Y-137621200D03*
X50323800Y-140921200D03*
%TD*%
%TO.C,D62*%
X145573800Y-194771200D03*
X145573800Y-198071200D03*
%TD*%
%TO.C,D15*%
X164623800Y-80471200D03*
X164623800Y-83771200D03*
%TD*%
%TO.C,D7*%
X164623800Y-61421200D03*
X164623800Y-64721200D03*
%TD*%
D16*
%TO.C,C8*%
X75973725Y-41415000D03*
X75973725Y-37815000D03*
%TD*%
D10*
%TO.C,D56*%
X183673800Y-175721200D03*
X183673800Y-179021200D03*
%TD*%
D11*
%TO.C,R10*%
X139061225Y-45115000D03*
X140886225Y-45115000D03*
%TD*%
D10*
%TO.C,D4*%
X107473800Y-61421200D03*
X107473800Y-64721200D03*
%TD*%
%TO.C,D32*%
X183673800Y-118571200D03*
X183673800Y-121871200D03*
%TD*%
%TO.C,D29*%
X126523800Y-118571200D03*
X126523800Y-121871200D03*
%TD*%
D13*
%TO.C,C3*%
X135448725Y-38165000D03*
X135448725Y-40065000D03*
%TD*%
D10*
%TO.C,D9*%
X50323800Y-80471200D03*
X50323800Y-83771200D03*
%TD*%
%TO.C,D20*%
X107473800Y-99521200D03*
X107473800Y-102821200D03*
%TD*%
%TO.C,D25*%
X50323800Y-118571200D03*
X50323800Y-121871200D03*
%TD*%
D18*
%TO.C,PISO1*%
X127973725Y-38115000D03*
X127973725Y-39385000D03*
X127973725Y-40655000D03*
X127973725Y-41925000D03*
X127973725Y-43195000D03*
X127973725Y-44465000D03*
X127973725Y-45735000D03*
X127973725Y-47005000D03*
X132923725Y-47005000D03*
X132923725Y-45735000D03*
X132923725Y-44465000D03*
X132923725Y-43195000D03*
X132923725Y-41925000D03*
X132923725Y-40655000D03*
X132923725Y-39385000D03*
X132923725Y-38115000D03*
%TD*%
D15*
%TO.C,C6*%
X93973725Y-41165000D03*
X93973725Y-43065000D03*
%TD*%
D10*
%TO.C,D39*%
X164623800Y-137621200D03*
X164623800Y-140921200D03*
%TD*%
%TO.C,D22*%
X145573800Y-99521200D03*
X145573800Y-102821200D03*
%TD*%
%TO.C,D48*%
X183673800Y-156671200D03*
X183673800Y-159971200D03*
%TD*%
D12*
%TO.C,R4*%
X162386225Y-41115000D03*
X160561225Y-41115000D03*
%TD*%
D10*
%TO.C,D12*%
X107473800Y-80471200D03*
X107473800Y-83771200D03*
%TD*%
%TO.C,D40*%
X183673800Y-137621200D03*
X183673800Y-140921200D03*
%TD*%
%TO.C,D2*%
X69373800Y-61421200D03*
X69373800Y-64721200D03*
%TD*%
%TO.C,D53*%
X126523800Y-175721200D03*
X126523800Y-179021200D03*
%TD*%
D19*
%TO.C,SIPO1*%
X168163725Y-46590000D03*
X169433725Y-46590000D03*
X170703725Y-46590000D03*
X171973725Y-46590000D03*
X173243725Y-46590000D03*
X174513725Y-46590000D03*
X175783725Y-46590000D03*
X175783725Y-41640000D03*
X174513725Y-41640000D03*
X173243725Y-41640000D03*
X171973725Y-41640000D03*
X170703725Y-41640000D03*
X169433725Y-41640000D03*
X168163725Y-41640000D03*
%TD*%
D10*
%TO.C,D31*%
X164623800Y-118571200D03*
X164623800Y-121871200D03*
%TD*%
%TO.C,D14*%
X145573800Y-80471200D03*
X145573800Y-83771200D03*
%TD*%
D11*
%TO.C,R11*%
X139061225Y-47115000D03*
X140886225Y-47115000D03*
%TD*%
%TO.C,R8*%
X139061225Y-41115000D03*
X140886225Y-41115000D03*
%TD*%
D10*
%TO.C,D64*%
X183673800Y-194771200D03*
X183673800Y-198071200D03*
%TD*%
%TO.C,D60*%
X107473800Y-194771200D03*
X107473800Y-198071200D03*
%TD*%
%TO.C,D63*%
X164623800Y-194771200D03*
X164623800Y-198071200D03*
%TD*%
%TO.C,D17*%
X50323800Y-99521200D03*
X50323800Y-102821200D03*
%TD*%
%TO.C,D24*%
X183673800Y-99521200D03*
X183673800Y-102821200D03*
%TD*%
%TO.C,D61*%
X126523800Y-194771200D03*
X126523800Y-198071200D03*
%TD*%
D11*
%TO.C,R9*%
X139061225Y-43115000D03*
X140886225Y-43115000D03*
%TD*%
D10*
%TO.C,D26*%
X69373800Y-118571200D03*
X69373800Y-121871200D03*
%TD*%
%TO.C,D23*%
X164623800Y-99521200D03*
X164623800Y-102821200D03*
%TD*%
%TO.C,D46*%
X145573800Y-156671200D03*
X145573800Y-159971200D03*
%TD*%
%TO.C,D55*%
X164623800Y-175721200D03*
X164623800Y-179021200D03*
%TD*%
%TO.C,D49*%
X50323800Y-175721200D03*
X50323800Y-179021200D03*
%TD*%
%TO.C,D11*%
X88423800Y-80471200D03*
X88423800Y-83771200D03*
%TD*%
%TO.C,D13*%
X126523800Y-80471200D03*
X126523800Y-83771200D03*
%TD*%
%TO.C,D1*%
X50323800Y-61421200D03*
X50323800Y-64721200D03*
%TD*%
D14*
%TO.C,U2*%
X90973725Y-42865000D03*
X90973725Y-42365000D03*
X90973725Y-41865000D03*
X90973725Y-41365000D03*
X88173725Y-41365000D03*
X88173725Y-41865000D03*
X88173725Y-42365000D03*
X88173725Y-42865000D03*
%TD*%
D10*
%TO.C,D16*%
X183673800Y-80471200D03*
X183673800Y-83771200D03*
%TD*%
%TO.C,D52*%
X107473800Y-175721200D03*
X107473800Y-179021200D03*
%TD*%
D20*
%TO.C,C4*%
X168023725Y-39115000D03*
X169923725Y-39115000D03*
%TD*%
D10*
%TO.C,D38*%
X145573800Y-137621200D03*
X145573800Y-140921200D03*
%TD*%
M02*
