%TF.GenerationSoftware,KiCad,Pcbnew,9.0.2*%
%TF.CreationDate,2025-06-29T11:42:18-07:00*%
%TF.ProjectId,Grid64_v3,47726964-3634-45f7-9633-2e6b69636164,rev?*%
%TF.SameCoordinates,Original*%
%TF.FileFunction,Legend,Bot*%
%TF.FilePolarity,Positive*%
%FSLAX46Y46*%
G04 Gerber Fmt 4.6, Leading zero omitted, Abs format (unit mm)*
G04 Created by KiCad (PCBNEW 9.0.2) date 2025-06-29 11:42:18*
%MOMM*%
%LPD*%
G01*
G04 APERTURE LIST*
%ADD10C,0.000000*%
%ADD11C,0.200000*%
%ADD12C,0.100000*%
%ADD13C,0.120000*%
%ADD14C,0.350000*%
G04 APERTURE END LIST*
D10*
G36*
X149807059Y-134037907D02*
G01*
X149807059Y-137037982D01*
X149807059Y-141621164D01*
X149807059Y-144621240D01*
X144515391Y-144621240D01*
X144515391Y-141621164D01*
X144515391Y-137037982D01*
X144515391Y-134037906D01*
X149807059Y-134037907D01*
G37*
G36*
X149807059Y-157850406D02*
G01*
X149807059Y-160496246D01*
X149807059Y-163142074D01*
X144515391Y-163142074D01*
X144515391Y-160496244D01*
X144515391Y-157850404D01*
X149807059Y-157850406D01*
G37*
G36*
X178911225Y-147267074D02*
G01*
X176265392Y-147267074D01*
X176265392Y-149912906D01*
X173619559Y-149912906D01*
X173619559Y-152558738D01*
X176265392Y-152558738D01*
X176265392Y-152558740D01*
X176265392Y-155204572D01*
X178911225Y-155204572D01*
X178911225Y-157850410D01*
X178911225Y-171079570D01*
X176265392Y-171079570D01*
X176265392Y-173725398D01*
X173619559Y-173725398D01*
X173619559Y-173725406D01*
X173619559Y-176371238D01*
X178911225Y-176371238D01*
X178911225Y-194892093D01*
X178911225Y-197537906D01*
X176265392Y-197537906D01*
X176265392Y-200183750D01*
X102182059Y-200183750D01*
X102182059Y-184308750D01*
X104827887Y-184308750D01*
X104827887Y-181662910D01*
X107473731Y-181662910D01*
X107473731Y-184308750D01*
X112765387Y-184308750D01*
X112765387Y-181662910D01*
X118057059Y-181662910D01*
X118057059Y-192246250D01*
X112765387Y-192246250D01*
X112765387Y-189600410D01*
X115411227Y-189600421D01*
X115411227Y-186954593D01*
X107473723Y-186954582D01*
X107473723Y-194892093D01*
X120702883Y-194892093D01*
X160390391Y-194892093D01*
X176265392Y-194892093D01*
X176265392Y-179017078D01*
X170973724Y-179017078D01*
X170973724Y-192246250D01*
X160390391Y-192246250D01*
X160390391Y-194892086D01*
X160390391Y-194892093D01*
X120702883Y-194892093D01*
X120702883Y-192246253D01*
X123348723Y-192246253D01*
X123348723Y-181662914D01*
X120702887Y-181662914D01*
X120702887Y-179017085D01*
X110119559Y-179017085D01*
X110119559Y-181662906D01*
X107473731Y-181662906D01*
X107473731Y-179017078D01*
X110119559Y-179017078D01*
X125994563Y-179017078D01*
X128640387Y-179017078D01*
X128640391Y-179017078D01*
X128640391Y-194892086D01*
X133932059Y-194892086D01*
X133932059Y-189600406D01*
X136577895Y-189600406D01*
X136577895Y-186954578D01*
X139223727Y-186954578D01*
X139223727Y-194892086D01*
X144515391Y-194892086D01*
X144515391Y-179017078D01*
X149807055Y-179017078D01*
X149807055Y-194892086D01*
X155098725Y-194892086D01*
X155098724Y-189600406D01*
X157744559Y-189600406D01*
X165682059Y-189600406D01*
X165682059Y-179017078D01*
X168327891Y-179017078D01*
X168327891Y-176371246D01*
X157744559Y-176371246D01*
X157744559Y-189600406D01*
X155098724Y-189600406D01*
X155098723Y-179017078D01*
X149807055Y-179017078D01*
X144515391Y-179017078D01*
X139223723Y-179017078D01*
X139223723Y-181662906D01*
X136577891Y-181662906D01*
X136577891Y-184308746D01*
X133932059Y-184308746D01*
X133932059Y-179017078D01*
X128640391Y-179017078D01*
X128640387Y-179017078D01*
X128640387Y-176371246D01*
X125994563Y-176371246D01*
X125994563Y-179017078D01*
X110119559Y-179017078D01*
X110119559Y-176371253D01*
X118057059Y-176371253D01*
X118057059Y-173725406D01*
X128640391Y-173725406D01*
X128640391Y-176371246D01*
X133932059Y-176371246D01*
X133932059Y-173725406D01*
X155098727Y-173725406D01*
X155098727Y-176371246D01*
X157744557Y-176371246D01*
X157744559Y-173725406D01*
X155098727Y-173725406D01*
X133932059Y-173725406D01*
X133932059Y-163142078D01*
X131286227Y-163142078D01*
X131286227Y-173725406D01*
X128640391Y-173725406D01*
X118057059Y-173725406D01*
X118057059Y-163142086D01*
X112765387Y-163142086D01*
X112765387Y-155204586D01*
X115411227Y-155204586D01*
X115411227Y-155204574D01*
X118057059Y-155204574D01*
X118057059Y-157850406D01*
X123348723Y-157850406D01*
X123348723Y-171079578D01*
X128640387Y-171079578D01*
X128640387Y-157850406D01*
X139223727Y-157850406D01*
X139223727Y-171079578D01*
X144515391Y-171079578D01*
X144515391Y-165787906D01*
X149807057Y-165787906D01*
X149807057Y-171079578D01*
X155098725Y-171079578D01*
X155098725Y-160496246D01*
X160390391Y-160496246D01*
X165682058Y-160496246D01*
X165682058Y-157850406D01*
X170973724Y-157850406D01*
X170973724Y-168433746D01*
X165682058Y-168433746D01*
X165682058Y-165787906D01*
X168327891Y-165787906D01*
X168327891Y-163142078D01*
X160390391Y-163142078D01*
X160390391Y-171079578D01*
X173619558Y-171079578D01*
X173619558Y-168433750D01*
X176265392Y-168433750D01*
X176265392Y-157850410D01*
X173619559Y-157850410D01*
X173619558Y-155204574D01*
X163036223Y-155204574D01*
X163036223Y-157850406D01*
X160390391Y-157850406D01*
X160390391Y-157850408D01*
X160390391Y-160496246D01*
X155098725Y-160496246D01*
X155098725Y-157850408D01*
X152452891Y-157850408D01*
X152452891Y-155204574D01*
X141869559Y-155204574D01*
X141869559Y-157850404D01*
X141869559Y-157850406D01*
X139223727Y-157850406D01*
X128640387Y-157850406D01*
X128640387Y-157850404D01*
X133932059Y-157850404D01*
X133932059Y-155204574D01*
X118057059Y-155204574D01*
X115411227Y-155204574D01*
X115411227Y-152558751D01*
X112765387Y-152558751D01*
X112765387Y-149912906D01*
X133932059Y-149912906D01*
X133932059Y-152558740D01*
X136577891Y-152558740D01*
X136577891Y-155204574D01*
X139223723Y-155204574D01*
X139223723Y-152558740D01*
X136577891Y-152558740D01*
X136577891Y-149912906D01*
X152452893Y-149912906D01*
X152452893Y-152558740D01*
X155098727Y-152558740D01*
X155098727Y-155204574D01*
X160390391Y-155204574D01*
X160390391Y-152558740D01*
X157744559Y-152558740D01*
X157744559Y-149912906D01*
X152452893Y-149912906D01*
X136577891Y-149912906D01*
X133932059Y-149912906D01*
X112765387Y-149912906D01*
X112765387Y-144621252D01*
X115411227Y-144621252D01*
X115411227Y-141975418D01*
X118057055Y-141975418D01*
X118057055Y-139329585D01*
X112765387Y-139329585D01*
X112765387Y-134037907D01*
X118057059Y-134037907D01*
X128640387Y-134037907D01*
X128640387Y-136683741D01*
X123348723Y-136683741D01*
X123348723Y-141975406D01*
X128640387Y-141975406D01*
X128640387Y-144621240D01*
X118057059Y-144621240D01*
X118057059Y-147267074D01*
X133932059Y-147267074D01*
X133932059Y-134037907D01*
X139223727Y-134037907D01*
X139223727Y-144621240D01*
X141869559Y-144621240D01*
X141869559Y-147267074D01*
X152452891Y-147267074D01*
X152452891Y-144621240D01*
X155098725Y-144621240D01*
X160390391Y-144621240D01*
X163036224Y-144621240D01*
X163036224Y-147267074D01*
X173619558Y-147267074D01*
X173619558Y-144621240D01*
X176265392Y-144621240D01*
X176265392Y-139329574D01*
X170973724Y-139329574D01*
X170973724Y-144621240D01*
X165682058Y-144621240D01*
X165682058Y-131392074D01*
X160390391Y-131392074D01*
X160390391Y-134037907D01*
X160390391Y-144621240D01*
X155098725Y-144621240D01*
X155098725Y-134037907D01*
X152452891Y-134037907D01*
X152452891Y-131392074D01*
X141869559Y-131392074D01*
X141869559Y-134037907D01*
X139223727Y-134037907D01*
X133932059Y-134037907D01*
X133932059Y-131392074D01*
X118057059Y-131392074D01*
X118057059Y-134037907D01*
X112765387Y-134037907D01*
X112765387Y-131392074D01*
X115411227Y-131392074D01*
X115411227Y-128746241D01*
X136577891Y-128746241D01*
X136577891Y-131392074D01*
X139223723Y-131392074D01*
X139223723Y-128746241D01*
X155098723Y-128746241D01*
X155098723Y-131392074D01*
X157744557Y-131392074D01*
X157744557Y-128746241D01*
X168327891Y-128746241D01*
X168327891Y-136683741D01*
X178911225Y-136683741D01*
X178911225Y-139329574D01*
X178911225Y-147267074D01*
G37*
D11*
X92473725Y-34115000D02*
X92473725Y-46115000D01*
D12*
X33473725Y-37115000D02*
X55473725Y-37115000D01*
X55473725Y-43115000D01*
X33473725Y-43115000D01*
X33473725Y-37115000D01*
G36*
X33473725Y-37115000D02*
G01*
X55473725Y-37115000D01*
X55473725Y-43115000D01*
X33473725Y-43115000D01*
X33473725Y-37115000D01*
G37*
G36*
X55401276Y-36354692D02*
G01*
X54953854Y-36326390D01*
X54939530Y-36399133D01*
X54919747Y-36453529D01*
X54895693Y-36493360D01*
X54856995Y-36532794D01*
X54811369Y-36560905D01*
X54757432Y-36578341D01*
X54693094Y-36584494D01*
X54629056Y-36578760D01*
X54579774Y-36563136D01*
X54541969Y-36538973D01*
X54511758Y-36505835D01*
X54494676Y-36471103D01*
X54489029Y-36433551D01*
X54494352Y-36397828D01*
X54510531Y-36364317D01*
X54539221Y-36331885D01*
X54577319Y-36307276D01*
X54650495Y-36278545D01*
X54775709Y-36245881D01*
X54933669Y-36203895D01*
X55054919Y-36158778D01*
X55145941Y-36111713D01*
X55212415Y-36063432D01*
X55270673Y-36001768D01*
X55311412Y-35933653D01*
X55336079Y-35857700D01*
X55344581Y-35771806D01*
X55337172Y-35696088D01*
X55314924Y-35623172D01*
X55276987Y-35551804D01*
X55225991Y-35489271D01*
X55159209Y-35435099D01*
X55074021Y-35389139D01*
X54981602Y-35358474D01*
X54860260Y-35337775D01*
X54703260Y-35330062D01*
X54555697Y-35338126D01*
X54436047Y-35360292D01*
X54339626Y-35394132D01*
X54262433Y-35438140D01*
X54196413Y-35497632D01*
X54144105Y-35573112D01*
X54105232Y-35667512D01*
X54081082Y-35784995D01*
X54524383Y-35810915D01*
X54541782Y-35744766D01*
X54566332Y-35696702D01*
X54597106Y-35662721D01*
X54636190Y-35638493D01*
X54685990Y-35622949D01*
X54749422Y-35617292D01*
X54822706Y-35626594D01*
X54869407Y-35650631D01*
X54899666Y-35688008D01*
X54909432Y-35731506D01*
X54901711Y-35763265D01*
X54876642Y-35793513D01*
X54832070Y-35817882D01*
X54722128Y-35847918D01*
X54517660Y-35897194D01*
X54376998Y-35941312D01*
X54285239Y-35980267D01*
X54201888Y-36030810D01*
X54138716Y-36086250D01*
X54092623Y-36146688D01*
X54059267Y-36215154D01*
X54039133Y-36288894D01*
X54032264Y-36369255D01*
X54041224Y-36463219D01*
X54067834Y-36551493D01*
X54112681Y-36635693D01*
X54172747Y-36709778D01*
X54246982Y-36771176D01*
X54337263Y-36820524D01*
X54435361Y-36853898D01*
X54554983Y-36875602D01*
X54700238Y-36883447D01*
X54863648Y-36875689D01*
X54993174Y-36854621D01*
X55094663Y-36823015D01*
X55173215Y-36782812D01*
X55233023Y-36734978D01*
X55298494Y-36656497D01*
X55348175Y-36568097D01*
X55382598Y-36468205D01*
X55401276Y-36354692D01*
G37*
G36*
X53801638Y-35353510D02*
G01*
X53363741Y-35353510D01*
X52802563Y-36176913D01*
X52802563Y-35353510D01*
X52359170Y-35353510D01*
X52359170Y-36860000D01*
X52801189Y-36860000D01*
X53359253Y-36041267D01*
X53359253Y-36860000D01*
X53801638Y-36860000D01*
X53801638Y-35353510D01*
G37*
G36*
X91171535Y-34513185D02*
G01*
X91102964Y-34513185D01*
X91045628Y-34508972D01*
X91018565Y-34502749D01*
X90994520Y-34492852D01*
X90973700Y-34478429D01*
X90957456Y-34459146D01*
X90947251Y-34435126D01*
X90943473Y-34402177D01*
X90947458Y-34373879D01*
X90959149Y-34349414D01*
X90979194Y-34327744D01*
X91004359Y-34311551D01*
X91033180Y-34301684D01*
X91066633Y-34298251D01*
X91112229Y-34305181D01*
X91147782Y-34324874D01*
X91174413Y-34354713D01*
X91189731Y-34390575D01*
X91420541Y-34343009D01*
X91399041Y-34282477D01*
X91370227Y-34233771D01*
X91333287Y-34192805D01*
X91290481Y-34160926D01*
X91242131Y-34136978D01*
X91187655Y-34119954D01*
X91129995Y-34110126D01*
X91068037Y-34106765D01*
X91003166Y-34110837D01*
X90941397Y-34122885D01*
X90883607Y-34143787D01*
X90834358Y-34173260D01*
X90793007Y-34211804D01*
X90760963Y-34259295D01*
X90746179Y-34294786D01*
X90736921Y-34335512D01*
X90733669Y-34382454D01*
X90738723Y-34436097D01*
X90753264Y-34482776D01*
X90777022Y-34523871D01*
X90809551Y-34557789D01*
X90850886Y-34582938D01*
X90902929Y-34599403D01*
X90902929Y-34603616D01*
X90860230Y-34613257D01*
X90823916Y-34630177D01*
X90792123Y-34653684D01*
X90765848Y-34681896D01*
X90744964Y-34714529D01*
X90729455Y-34751810D01*
X90720061Y-34791731D01*
X90716877Y-34834242D01*
X90720257Y-34882978D01*
X90729957Y-34926038D01*
X90745576Y-34964302D01*
X90779273Y-35015645D01*
X90822512Y-35057236D01*
X90874231Y-35089225D01*
X90935841Y-35112496D01*
X91002171Y-35126015D01*
X91073594Y-35130631D01*
X91160437Y-35123445D01*
X91236032Y-35102859D01*
X91302388Y-35069570D01*
X91345227Y-35035571D01*
X91380457Y-34992930D01*
X91408470Y-34940414D01*
X91428967Y-34876191D01*
X91207927Y-34824412D01*
X91190456Y-34872873D01*
X91162437Y-34908370D01*
X91137771Y-34924619D01*
X91104797Y-34935219D01*
X91061015Y-34939145D01*
X91016726Y-34934619D01*
X90983847Y-34922391D01*
X90959593Y-34903424D01*
X90941590Y-34877899D01*
X90930558Y-34847754D01*
X90926682Y-34811711D01*
X90931500Y-34772860D01*
X90944206Y-34746620D01*
X90964188Y-34726551D01*
X90989635Y-34712304D01*
X91018764Y-34703485D01*
X91052589Y-34698993D01*
X91122564Y-34696856D01*
X91171535Y-34696856D01*
X91171535Y-34513185D01*
G37*
G36*
X90566912Y-34993855D02*
G01*
X90564449Y-34967832D01*
X90557142Y-34943419D01*
X90545332Y-34921024D01*
X90529848Y-34902020D01*
X90510856Y-34886493D01*
X90488571Y-34874726D01*
X90464164Y-34867371D01*
X90438196Y-34864895D01*
X90412237Y-34867372D01*
X90387882Y-34874726D01*
X90365557Y-34886500D01*
X90346605Y-34902020D01*
X90331086Y-34921031D01*
X90319311Y-34943419D01*
X90311957Y-34967834D01*
X90309480Y-34993855D01*
X90311956Y-35019884D01*
X90319311Y-35044352D01*
X90331082Y-35066689D01*
X90346605Y-35085690D01*
X90365554Y-35101224D01*
X90387882Y-35113046D01*
X90412234Y-35120353D01*
X90438196Y-35122815D01*
X90464166Y-35120354D01*
X90488571Y-35113046D01*
X90510858Y-35101231D01*
X90529848Y-35085690D01*
X90545336Y-35066695D01*
X90557142Y-35044352D01*
X90564451Y-35019887D01*
X90566912Y-34993855D01*
G37*
G36*
X89889292Y-34112479D02*
G01*
X89949152Y-34128464D01*
X89998803Y-34153660D01*
X90043133Y-34188026D01*
X90080503Y-34228184D01*
X90111399Y-34274621D01*
X90146090Y-34352095D01*
X90168796Y-34439668D01*
X90180885Y-34530391D01*
X90184855Y-34618698D01*
X90180885Y-34707005D01*
X90168796Y-34797728D01*
X90146090Y-34885301D01*
X90111399Y-34962775D01*
X90080505Y-35009215D01*
X90043136Y-35049395D01*
X89998803Y-35083797D01*
X89949156Y-35108958D01*
X89889296Y-35124924D01*
X89816903Y-35130631D01*
X89744511Y-35124923D01*
X89684672Y-35108956D01*
X89635064Y-35083797D01*
X89590693Y-35049391D01*
X89553305Y-35009211D01*
X89522407Y-34962775D01*
X89487731Y-34885300D01*
X89465071Y-34797728D01*
X89452936Y-34707004D01*
X89448951Y-34618698D01*
X89658817Y-34618698D01*
X89662358Y-34712854D01*
X89668859Y-34766872D01*
X89681226Y-34818306D01*
X89701114Y-34865561D01*
X89728793Y-34904035D01*
X89752311Y-34923203D01*
X89781154Y-34934970D01*
X89816903Y-34939145D01*
X89853578Y-34934919D01*
X89882603Y-34923110D01*
X89905746Y-34904035D01*
X89932850Y-34865616D01*
X89952580Y-34818306D01*
X89964963Y-34766873D01*
X89971509Y-34712854D01*
X89974989Y-34618698D01*
X89971509Y-34524542D01*
X89964962Y-34470532D01*
X89952580Y-34419152D01*
X89932843Y-34371799D01*
X89905746Y-34333422D01*
X89882598Y-34314311D01*
X89853574Y-34302484D01*
X89816903Y-34298251D01*
X89781159Y-34302432D01*
X89752316Y-34314218D01*
X89728793Y-34333422D01*
X89701120Y-34371855D01*
X89681226Y-34419152D01*
X89668860Y-34470532D01*
X89662358Y-34524542D01*
X89658817Y-34618698D01*
X89448951Y-34618698D01*
X89452936Y-34530392D01*
X89465071Y-34439668D01*
X89487731Y-34352096D01*
X89522407Y-34274621D01*
X89553307Y-34228189D01*
X89590696Y-34188030D01*
X89635064Y-34153660D01*
X89684677Y-34128467D01*
X89744515Y-34112480D01*
X89816903Y-34106765D01*
X89889292Y-34112479D01*
G37*
G36*
X88609183Y-34849263D02*
G01*
X88953321Y-34849263D01*
X88953321Y-34681224D01*
X88609183Y-34681224D01*
X88609183Y-34849263D01*
G37*
G36*
X87547093Y-34782951D02*
G01*
X87550104Y-34850598D01*
X87559000Y-34915392D01*
X87576520Y-34976454D01*
X87604429Y-35029026D01*
X87629388Y-35059215D01*
X87661026Y-35085664D01*
X87700295Y-35108466D01*
X87742873Y-35124256D01*
X87796412Y-35134647D01*
X87863266Y-35138447D01*
X87939888Y-35131861D01*
X88005412Y-35113117D01*
X88061896Y-35082943D01*
X88097877Y-35052338D01*
X88127304Y-35014049D01*
X88150422Y-34966891D01*
X88166860Y-34909164D01*
X87966764Y-34860193D01*
X87956530Y-34893632D01*
X87933913Y-34921803D01*
X87903094Y-34940747D01*
X87868822Y-34946960D01*
X87834157Y-34941894D01*
X87810082Y-34928154D01*
X87791973Y-34907159D01*
X87779307Y-34881381D01*
X87771538Y-34852649D01*
X87767461Y-34820687D01*
X87765324Y-34759931D01*
X87765324Y-34126304D01*
X87547093Y-34126304D01*
X87547093Y-34782951D01*
G37*
G36*
X86524387Y-34732759D02*
G01*
X86531226Y-34818201D01*
X86551010Y-34894509D01*
X86571779Y-34941948D01*
X86598069Y-34984526D01*
X86630022Y-35022737D01*
X86667214Y-35055843D01*
X86710563Y-35084193D01*
X86760815Y-35107794D01*
X86813889Y-35124393D01*
X86873720Y-35134805D01*
X86941310Y-35138447D01*
X87009816Y-35134789D01*
X87070069Y-35124361D01*
X87123149Y-35107794D01*
X87173401Y-35084193D01*
X87216749Y-35055843D01*
X87253941Y-35022737D01*
X87285900Y-34984528D01*
X87312210Y-34941950D01*
X87333014Y-34894509D01*
X87352753Y-34818204D01*
X87359576Y-34732759D01*
X87359576Y-34126304D01*
X87141345Y-34126304D01*
X87141345Y-34722562D01*
X87137594Y-34767197D01*
X87126690Y-34807376D01*
X87108850Y-34843943D01*
X87085413Y-34874787D01*
X87056317Y-34900031D01*
X87021727Y-34919239D01*
X86983441Y-34931167D01*
X86941310Y-34935237D01*
X86899229Y-34931149D01*
X86861565Y-34919239D01*
X86827550Y-34900070D01*
X86798611Y-34874787D01*
X86775140Y-34843936D01*
X86757334Y-34807376D01*
X86746385Y-34767194D01*
X86742618Y-34722562D01*
X86742618Y-34126304D01*
X86524387Y-34126304D01*
X86524387Y-34732759D01*
G37*
G36*
X86314644Y-34126304D02*
G01*
X86096413Y-34126304D01*
X86096413Y-34911789D01*
X85692069Y-34911789D01*
X85692069Y-35115000D01*
X86314644Y-35115000D01*
X86314644Y-34126304D01*
G37*
G36*
X85189661Y-34891884D02*
G01*
X84804979Y-34545242D01*
X84746177Y-34484914D01*
X84724157Y-34448434D01*
X84716807Y-34406329D01*
X84721038Y-34374385D01*
X84733102Y-34348428D01*
X84753199Y-34327011D01*
X84792393Y-34305542D01*
X84838501Y-34298251D01*
X84876059Y-34302608D01*
X84906026Y-34314829D01*
X84930153Y-34334644D01*
X84948715Y-34360483D01*
X84961061Y-34390034D01*
X84967217Y-34424159D01*
X85177083Y-34408771D01*
X85166514Y-34335285D01*
X85144904Y-34275537D01*
X85112131Y-34223584D01*
X85070776Y-34181748D01*
X85021178Y-34149251D01*
X84962332Y-34125511D01*
X84898369Y-34111581D01*
X84827327Y-34106765D01*
X84761617Y-34111595D01*
X84701420Y-34125694D01*
X84645992Y-34149456D01*
X84599265Y-34181809D01*
X84560921Y-34223281D01*
X84531427Y-34275048D01*
X84513365Y-34334124D01*
X84506942Y-34405474D01*
X84509514Y-34451883D01*
X84516772Y-34491753D01*
X84528642Y-34528955D01*
X84544066Y-34561851D01*
X84563135Y-34592177D01*
X84585343Y-34620041D01*
X84637062Y-34671882D01*
X84937847Y-34931329D01*
X84498576Y-34931329D01*
X84498576Y-35115000D01*
X85189661Y-35115000D01*
X85189661Y-34891884D01*
G37*
G36*
X84088036Y-34112479D02*
G01*
X84147896Y-34128464D01*
X84197547Y-34153660D01*
X84241877Y-34188026D01*
X84279247Y-34228184D01*
X84310143Y-34274621D01*
X84344834Y-34352095D01*
X84367540Y-34439668D01*
X84379629Y-34530391D01*
X84383599Y-34618698D01*
X84379629Y-34707005D01*
X84367540Y-34797728D01*
X84344834Y-34885301D01*
X84310143Y-34962775D01*
X84279249Y-35009215D01*
X84241880Y-35049395D01*
X84197547Y-35083797D01*
X84147900Y-35108958D01*
X84088040Y-35124924D01*
X84015647Y-35130631D01*
X83943255Y-35124923D01*
X83883416Y-35108956D01*
X83833808Y-35083797D01*
X83789437Y-35049391D01*
X83752048Y-35009211D01*
X83721151Y-34962775D01*
X83686475Y-34885300D01*
X83663815Y-34797728D01*
X83651680Y-34707004D01*
X83647695Y-34618698D01*
X83857561Y-34618698D01*
X83861102Y-34712854D01*
X83867602Y-34766872D01*
X83879970Y-34818306D01*
X83899858Y-34865561D01*
X83927536Y-34904035D01*
X83951055Y-34923203D01*
X83979898Y-34934970D01*
X84015647Y-34939145D01*
X84052322Y-34934919D01*
X84081346Y-34923110D01*
X84104490Y-34904035D01*
X84131593Y-34865616D01*
X84151324Y-34818306D01*
X84163707Y-34766873D01*
X84170253Y-34712854D01*
X84173733Y-34618698D01*
X84170253Y-34524542D01*
X84163705Y-34470532D01*
X84151324Y-34419152D01*
X84131587Y-34371799D01*
X84104490Y-34333422D01*
X84081342Y-34314311D01*
X84052317Y-34302484D01*
X84015647Y-34298251D01*
X83979902Y-34302432D01*
X83951060Y-34314218D01*
X83927536Y-34333422D01*
X83899864Y-34371855D01*
X83879970Y-34419152D01*
X83867604Y-34470532D01*
X83861102Y-34524542D01*
X83857561Y-34618698D01*
X83647695Y-34618698D01*
X83651680Y-34530392D01*
X83663815Y-34439668D01*
X83686475Y-34352096D01*
X83721151Y-34274621D01*
X83752051Y-34228189D01*
X83789440Y-34188030D01*
X83833808Y-34153660D01*
X83883420Y-34128467D01*
X83943259Y-34112480D01*
X84015647Y-34106765D01*
X84088036Y-34112479D01*
G37*
G36*
X83532718Y-34891884D02*
G01*
X83148035Y-34545242D01*
X83089234Y-34484914D01*
X83067213Y-34448434D01*
X83059864Y-34406329D01*
X83064095Y-34374385D01*
X83076159Y-34348428D01*
X83096256Y-34327011D01*
X83135449Y-34305542D01*
X83181558Y-34298251D01*
X83219115Y-34302608D01*
X83249083Y-34314829D01*
X83273210Y-34334644D01*
X83291772Y-34360483D01*
X83304117Y-34390034D01*
X83310274Y-34424159D01*
X83520139Y-34408771D01*
X83509570Y-34335285D01*
X83487960Y-34275537D01*
X83455188Y-34223584D01*
X83413833Y-34181748D01*
X83364235Y-34149251D01*
X83305389Y-34125511D01*
X83241425Y-34111581D01*
X83170384Y-34106765D01*
X83104674Y-34111595D01*
X83044476Y-34125694D01*
X82989048Y-34149456D01*
X82942322Y-34181809D01*
X82903978Y-34223281D01*
X82874483Y-34275048D01*
X82856422Y-34334124D01*
X82849998Y-34405474D01*
X82852571Y-34451883D01*
X82859829Y-34491753D01*
X82871699Y-34528955D01*
X82887123Y-34561851D01*
X82906192Y-34592177D01*
X82928400Y-34620041D01*
X82980118Y-34671882D01*
X83280903Y-34931329D01*
X82841633Y-34931329D01*
X82841633Y-35115000D01*
X83532718Y-35115000D01*
X83532718Y-34891884D01*
G37*
G36*
X82049553Y-34309975D02*
G01*
X82442662Y-34309975D01*
X82446875Y-34461772D01*
X82411624Y-34453816D01*
X82358704Y-34450659D01*
X82285267Y-34456417D01*
X82220218Y-34473007D01*
X82161183Y-34500701D01*
X82111835Y-34537976D01*
X82071661Y-34584743D01*
X82041188Y-34641290D01*
X82022491Y-34704506D01*
X82015970Y-34777395D01*
X82019337Y-34832657D01*
X82029038Y-34882199D01*
X82044668Y-34926810D01*
X82078998Y-34987714D01*
X82123681Y-35037819D01*
X82178171Y-35077452D01*
X82243299Y-35106939D01*
X82314566Y-35124557D01*
X82393691Y-35130631D01*
X82457861Y-35126390D01*
X82514445Y-35114241D01*
X82564573Y-35094744D01*
X82609175Y-35068044D01*
X82647978Y-35033920D01*
X82680690Y-34991767D01*
X82707488Y-34940446D01*
X82728060Y-34878389D01*
X82508424Y-34828014D01*
X82499468Y-34861838D01*
X82484578Y-34890222D01*
X82463667Y-34914110D01*
X82437760Y-34932165D01*
X82407810Y-34943138D01*
X82372686Y-34946960D01*
X82329715Y-34941984D01*
X82294632Y-34927899D01*
X82265647Y-34904890D01*
X82243724Y-34874777D01*
X82230416Y-34839731D01*
X82225774Y-34798339D01*
X82231214Y-34752307D01*
X82246108Y-34717800D01*
X82269501Y-34689428D01*
X82299291Y-34667302D01*
X82333708Y-34651482D01*
X82372748Y-34641352D01*
X82453836Y-34634330D01*
X82505595Y-34636770D01*
X82558067Y-34644160D01*
X82659489Y-34670722D01*
X82648315Y-34126304D01*
X82049553Y-34126304D01*
X82049553Y-34309975D01*
G37*
G36*
X81150984Y-34849263D02*
G01*
X81495122Y-34849263D01*
X81495122Y-34681224D01*
X81150984Y-34681224D01*
X81150984Y-34849263D01*
G37*
G36*
X80603697Y-34126304D02*
G01*
X80385466Y-34126304D01*
X80385466Y-35115000D01*
X80603697Y-35115000D01*
X80603697Y-34126304D01*
G37*
G36*
X80213274Y-34435027D02*
G01*
X80011774Y-34435027D01*
X80011774Y-34527473D01*
X80009026Y-34527473D01*
X79981061Y-34488700D01*
X79937707Y-34454078D01*
X79911220Y-34440408D01*
X79880310Y-34429105D01*
X79847234Y-34421894D01*
X79810335Y-34419396D01*
X79757464Y-34422498D01*
X79715192Y-34430980D01*
X79681619Y-34443881D01*
X79637764Y-34473306D01*
X79605415Y-34511598D01*
X79582850Y-34557784D01*
X79568351Y-34613569D01*
X79561069Y-34673485D01*
X79558520Y-34740636D01*
X79558520Y-35115000D01*
X79768386Y-35115000D01*
X79768386Y-34782096D01*
X79770523Y-34721280D01*
X79774783Y-34690652D01*
X79783102Y-34663211D01*
X79796443Y-34638990D01*
X79815281Y-34619858D01*
X79840086Y-34607708D01*
X79877502Y-34603066D01*
X79915608Y-34607065D01*
X79943264Y-34617782D01*
X79965563Y-34635000D01*
X79981732Y-34656922D01*
X79992652Y-34682612D01*
X79999257Y-34712182D01*
X80003409Y-34776479D01*
X80003409Y-35115000D01*
X80213274Y-35115000D01*
X80213274Y-34435027D01*
G37*
G36*
X79407395Y-34435027D02*
G01*
X79197529Y-34435027D01*
X79197529Y-35115000D01*
X79407395Y-35115000D01*
X79407395Y-34435027D01*
G37*
G36*
X79424187Y-34220094D02*
G01*
X79420183Y-34188145D01*
X79408439Y-34159937D01*
X79388527Y-34134487D01*
X79362931Y-34114650D01*
X79334579Y-34102941D01*
X79302493Y-34098949D01*
X79270368Y-34102944D01*
X79242018Y-34114655D01*
X79216458Y-34134487D01*
X79196510Y-34159941D01*
X79184747Y-34188149D01*
X79180738Y-34220094D01*
X79184746Y-34252041D01*
X79196508Y-34280269D01*
X79216458Y-34305762D01*
X79242014Y-34325557D01*
X79270364Y-34337249D01*
X79302493Y-34341238D01*
X79334583Y-34337252D01*
X79362935Y-34325562D01*
X79388527Y-34305762D01*
X79408441Y-34280274D01*
X79420185Y-34252045D01*
X79424187Y-34220094D01*
G37*
G36*
X78583686Y-34603066D02*
G01*
X78768334Y-34603066D01*
X78768334Y-34829174D01*
X78765586Y-34880099D01*
X78760896Y-34902003D01*
X78753007Y-34919911D01*
X78740823Y-34934512D01*
X78722905Y-34945739D01*
X78700715Y-34952265D01*
X78668988Y-34954776D01*
X78624963Y-34951296D01*
X78599988Y-34945059D01*
X78583686Y-34935054D01*
X78583686Y-35109687D01*
X78619278Y-35120137D01*
X78656470Y-35126418D01*
X78730598Y-35130631D01*
X78782506Y-35127738D01*
X78828540Y-35119457D01*
X78871009Y-35104740D01*
X78906880Y-35083859D01*
X78936607Y-35055949D01*
X78959332Y-35020355D01*
X78973174Y-34978615D01*
X78978199Y-34925467D01*
X78978199Y-34603066D01*
X79112533Y-34603066D01*
X79112533Y-34435027D01*
X78978199Y-34435027D01*
X78978199Y-34233527D01*
X78768334Y-34233527D01*
X78768334Y-34435027D01*
X78583686Y-34435027D01*
X78583686Y-34603066D01*
G37*
G36*
X78474387Y-34435027D02*
G01*
X78264522Y-34435027D01*
X78264522Y-35115000D01*
X78474387Y-35115000D01*
X78474387Y-34435027D01*
G37*
G36*
X78491179Y-34220094D02*
G01*
X78487176Y-34188145D01*
X78475431Y-34159937D01*
X78455520Y-34134487D01*
X78429923Y-34114650D01*
X78401572Y-34102941D01*
X78369485Y-34098949D01*
X78337360Y-34102944D01*
X78309010Y-34114655D01*
X78283451Y-34134487D01*
X78263502Y-34159941D01*
X78251739Y-34188149D01*
X78247730Y-34220094D01*
X78251738Y-34252041D01*
X78263500Y-34280269D01*
X78283451Y-34305762D01*
X78309006Y-34325557D01*
X78337356Y-34337249D01*
X78369485Y-34341238D01*
X78401576Y-34337252D01*
X78429928Y-34325562D01*
X78455520Y-34305762D01*
X78475433Y-34280274D01*
X78487177Y-34252045D01*
X78491179Y-34220094D01*
G37*
G36*
X77887208Y-34426329D02*
G01*
X77966851Y-34447056D01*
X78017199Y-34468690D01*
X78062730Y-34496273D01*
X78103932Y-34529977D01*
X77992008Y-34645137D01*
X77955907Y-34611169D01*
X77915804Y-34585664D01*
X77871304Y-34569512D01*
X77821343Y-34563988D01*
X77786128Y-34567727D01*
X77754967Y-34578611D01*
X77726943Y-34596716D01*
X77704899Y-34620924D01*
X77691687Y-34649893D01*
X77687071Y-34685132D01*
X77781532Y-34686536D01*
X77883625Y-34694841D01*
X77934008Y-34703755D01*
X77982238Y-34716395D01*
X78027649Y-34734109D01*
X78066929Y-34757306D01*
X78100130Y-34787130D01*
X78125670Y-34823923D01*
X78141586Y-34867156D01*
X78147346Y-34922475D01*
X78142241Y-34971632D01*
X78127746Y-35012662D01*
X78104601Y-35048460D01*
X78074623Y-35077875D01*
X78038767Y-35100775D01*
X77996954Y-35117442D01*
X77952180Y-35127307D01*
X77905302Y-35130631D01*
X77842341Y-35124582D01*
X77782875Y-35106573D01*
X77746836Y-35087102D01*
X77715996Y-35060849D01*
X77689818Y-35027133D01*
X77687071Y-35027133D01*
X77687071Y-35115000D01*
X77493997Y-35115000D01*
X77493997Y-34861720D01*
X77687071Y-34861720D01*
X77690535Y-34891658D01*
X77700382Y-34916369D01*
X77715898Y-34937516D01*
X77736041Y-34954654D01*
X77759655Y-34967819D01*
X77787088Y-34977857D01*
X77816196Y-34983979D01*
X77846561Y-34986039D01*
X77880590Y-34981653D01*
X77913667Y-34968271D01*
X77931694Y-34954132D01*
X77942186Y-34936323D01*
X77945846Y-34913621D01*
X77939875Y-34882787D01*
X77922765Y-34860376D01*
X77897694Y-34843848D01*
X77866833Y-34831678D01*
X77833404Y-34824013D01*
X77798262Y-34820076D01*
X77738850Y-34818000D01*
X77687071Y-34818000D01*
X77687071Y-34861720D01*
X77493997Y-34861720D01*
X77493997Y-34770006D01*
X77497727Y-34687378D01*
X77507980Y-34619858D01*
X77527862Y-34558937D01*
X77557683Y-34510193D01*
X77583652Y-34483192D01*
X77615106Y-34460648D01*
X77652816Y-34442477D01*
X77716769Y-34425744D01*
X77804551Y-34419396D01*
X77887208Y-34426329D01*
G37*
G36*
X77359663Y-34057367D02*
G01*
X77149797Y-34057367D01*
X77149797Y-35115000D01*
X77359663Y-35115000D01*
X77359663Y-34057367D01*
G37*
G36*
X76558180Y-35115000D02*
G01*
X76201464Y-35115000D01*
X76128301Y-35111374D01*
X76058013Y-35100636D01*
X75990193Y-35082882D01*
X75924922Y-35057797D01*
X75865897Y-35026397D01*
X75812507Y-34988665D01*
X75764873Y-34944138D01*
X75724184Y-34893132D01*
X75690141Y-34835036D01*
X75665376Y-34772552D01*
X75650002Y-34702478D01*
X75644651Y-34623461D01*
X75645357Y-34612348D01*
X75871308Y-34612348D01*
X75874635Y-34667302D01*
X75883973Y-34713778D01*
X75898602Y-34753093D01*
X75931295Y-34805479D01*
X75973463Y-34845966D01*
X76024518Y-34875870D01*
X76086059Y-34896524D01*
X76152633Y-34907855D01*
X76226621Y-34911789D01*
X76339949Y-34911789D01*
X76339949Y-34329515D01*
X76211233Y-34329515D01*
X76143830Y-34333912D01*
X76080502Y-34346856D01*
X76021497Y-34368895D01*
X75972058Y-34398879D01*
X75930784Y-34437983D01*
X75898602Y-34486868D01*
X75883791Y-34523386D01*
X75874545Y-34564907D01*
X75871308Y-34612348D01*
X75645357Y-34612348D01*
X75650329Y-34534074D01*
X75666331Y-34457950D01*
X75691546Y-34393018D01*
X75726900Y-34332992D01*
X75768997Y-34281847D01*
X75818124Y-34238717D01*
X75873402Y-34203302D01*
X75935381Y-34174644D01*
X76004909Y-34152866D01*
X76113831Y-34133069D01*
X76230834Y-34126304D01*
X76558180Y-34126304D01*
X76558180Y-35115000D01*
G37*
G36*
X75242676Y-34425764D02*
G01*
X75313641Y-34444492D01*
X75378802Y-34475262D01*
X75433991Y-34516299D01*
X75479434Y-34567470D01*
X75514408Y-34628590D01*
X75530489Y-34673131D01*
X75540375Y-34721713D01*
X75543779Y-34775013D01*
X75540376Y-34828314D01*
X75530491Y-34876917D01*
X75514408Y-34921498D01*
X75479438Y-34982567D01*
X75433991Y-35033728D01*
X75378852Y-35074762D01*
X75313702Y-35105535D01*
X75242685Y-35124264D01*
X75166057Y-35130631D01*
X75111767Y-35126748D01*
X75058773Y-35115113D01*
X75006566Y-35095521D01*
X74957899Y-35068580D01*
X74915668Y-35035407D01*
X74879255Y-34995687D01*
X75026167Y-34887854D01*
X75055236Y-34921126D01*
X75088449Y-34947327D01*
X75127037Y-34964346D01*
X75175827Y-34970408D01*
X75215627Y-34966324D01*
X75249749Y-34954609D01*
X75279386Y-34935420D01*
X75303824Y-34909790D01*
X75321979Y-34878809D01*
X75333974Y-34841448D01*
X74847076Y-34841448D01*
X74847076Y-34775746D01*
X74852897Y-34697133D01*
X74852964Y-34696856D01*
X75056942Y-34696856D01*
X75333974Y-34696856D01*
X75330302Y-34672915D01*
X75322067Y-34649961D01*
X75309518Y-34628971D01*
X75292697Y-34610577D01*
X75272245Y-34595292D01*
X75247268Y-34582672D01*
X75219315Y-34574657D01*
X75185658Y-34571803D01*
X75148966Y-34576076D01*
X75118170Y-34588310D01*
X75091929Y-34608501D01*
X75071770Y-34634798D01*
X75060250Y-34663890D01*
X75056942Y-34696856D01*
X74852964Y-34696856D01*
X74869485Y-34629017D01*
X74896983Y-34567312D01*
X74933110Y-34516543D01*
X74978729Y-34475278D01*
X75033861Y-34444553D01*
X75095634Y-34425874D01*
X75166057Y-34419396D01*
X75242676Y-34425764D01*
G37*
G36*
X74335021Y-34636955D02*
G01*
X74369172Y-34605025D01*
X74409094Y-34586145D01*
X74456715Y-34579619D01*
X74482800Y-34582707D01*
X74508494Y-34592137D01*
X74527208Y-34608925D01*
X74533651Y-34635307D01*
X74527412Y-34656707D01*
X74507761Y-34672187D01*
X74442060Y-34693009D01*
X74356697Y-34712487D01*
X74312510Y-34725935D01*
X74271395Y-34745216D01*
X74235068Y-34771411D01*
X74205633Y-34805727D01*
X74191865Y-34832467D01*
X74182973Y-34866005D01*
X74179743Y-34908004D01*
X74183225Y-34950775D01*
X74192990Y-34986266D01*
X74208442Y-35015837D01*
X74241070Y-35054070D01*
X74281837Y-35084042D01*
X74328796Y-35105713D01*
X74382587Y-35120190D01*
X74438458Y-35128047D01*
X74493107Y-35130631D01*
X74564286Y-35125604D01*
X74637210Y-35110237D01*
X74683624Y-35092936D01*
X74724415Y-35068890D01*
X74760309Y-35037880D01*
X74632997Y-34896280D01*
X74601464Y-34928760D01*
X74567967Y-34951540D01*
X74530135Y-34965496D01*
X74484681Y-34970408D01*
X74449462Y-34967697D01*
X74418979Y-34959966D01*
X74402144Y-34950664D01*
X74392774Y-34938212D01*
X74389548Y-34921681D01*
X74395851Y-34898816D01*
X74415438Y-34882053D01*
X74443347Y-34870361D01*
X74481200Y-34859766D01*
X74566563Y-34840287D01*
X74610786Y-34827184D01*
X74651865Y-34809024D01*
X74688135Y-34783887D01*
X74717627Y-34749856D01*
X74731395Y-34723117D01*
X74740287Y-34689579D01*
X74743517Y-34647580D01*
X74737102Y-34590706D01*
X74719032Y-34544631D01*
X74690617Y-34505217D01*
X74654674Y-34473679D01*
X74612360Y-34449733D01*
X74563082Y-34432646D01*
X74510921Y-34422704D01*
X74458119Y-34419396D01*
X74391104Y-34424241D01*
X74322442Y-34439057D01*
X74278776Y-34455745D01*
X74240285Y-34479079D01*
X74206305Y-34509338D01*
X74335021Y-34636955D01*
G37*
G36*
X74069223Y-34435027D02*
G01*
X73859358Y-34435027D01*
X73859358Y-35115000D01*
X74069223Y-35115000D01*
X74069223Y-34435027D01*
G37*
G36*
X74086015Y-34220094D02*
G01*
X74082012Y-34188145D01*
X74070267Y-34159937D01*
X74050356Y-34134487D01*
X74024759Y-34114650D01*
X73996408Y-34102941D01*
X73964321Y-34098949D01*
X73932196Y-34102944D01*
X73903846Y-34114655D01*
X73878287Y-34134487D01*
X73858338Y-34159941D01*
X73846575Y-34188149D01*
X73842566Y-34220094D01*
X73846574Y-34252041D01*
X73858336Y-34280269D01*
X73878287Y-34305762D01*
X73903842Y-34325557D01*
X73932192Y-34337249D01*
X73964321Y-34341238D01*
X73996412Y-34337252D01*
X74024764Y-34325562D01*
X74050356Y-34305762D01*
X74070269Y-34280274D01*
X74082013Y-34252045D01*
X74086015Y-34220094D01*
G37*
G36*
X73470915Y-34422878D02*
G01*
X73514058Y-34432977D01*
X73553321Y-34449438D01*
X73606444Y-34484259D01*
X73650530Y-34528267D01*
X73685582Y-34580464D01*
X73712079Y-34641352D01*
X73728351Y-34706317D01*
X73733756Y-34772510D01*
X73727650Y-34847122D01*
X73710003Y-34913499D01*
X73680861Y-34973749D01*
X73642104Y-35024446D01*
X73593899Y-35065767D01*
X73536469Y-35096987D01*
X73472469Y-35116160D01*
X73399387Y-35122815D01*
X73351462Y-35118016D01*
X73297966Y-35102665D01*
X73264198Y-35086151D01*
X73234258Y-35063384D01*
X73207718Y-35033789D01*
X73204909Y-35033789D01*
X73204909Y-35099918D01*
X73210215Y-35146883D01*
X73225402Y-35186449D01*
X73250399Y-35220268D01*
X73283783Y-35245126D01*
X73329736Y-35261353D01*
X73392365Y-35267407D01*
X73454741Y-35261323D01*
X73510579Y-35243593D01*
X73562731Y-35215944D01*
X73613405Y-35179296D01*
X73729543Y-35352281D01*
X73678108Y-35387252D01*
X73624197Y-35413295D01*
X73567304Y-35430867D01*
X73478500Y-35446019D01*
X73388213Y-35451078D01*
X73306597Y-35446342D01*
X73238059Y-35433100D01*
X73180587Y-35412465D01*
X73132470Y-35385064D01*
X73092374Y-35350999D01*
X73051810Y-35298464D01*
X73021550Y-35233894D01*
X73002110Y-35154749D01*
X72995104Y-35057786D01*
X72995104Y-34771106D01*
X73188117Y-34771106D01*
X73191298Y-34803937D01*
X73200757Y-34834853D01*
X73215960Y-34863199D01*
X73236416Y-34888037D01*
X73261305Y-34908778D01*
X73290272Y-34925162D01*
X73321962Y-34935620D01*
X73356034Y-34939145D01*
X73391230Y-34935569D01*
X73422529Y-34925162D01*
X73450882Y-34908823D01*
X73475652Y-34888037D01*
X73496109Y-34863199D01*
X73511312Y-34834853D01*
X73520725Y-34803939D01*
X73523890Y-34771106D01*
X73520723Y-34738281D01*
X73511312Y-34707419D01*
X73496105Y-34679022D01*
X73475652Y-34654174D01*
X73450879Y-34633402D01*
X73422529Y-34617110D01*
X73391227Y-34606657D01*
X73356034Y-34603066D01*
X73321965Y-34606606D01*
X73290272Y-34617110D01*
X73261307Y-34633446D01*
X73236416Y-34654174D01*
X73215964Y-34679022D01*
X73200757Y-34707419D01*
X73191299Y-34738283D01*
X73188117Y-34771106D01*
X72995104Y-34771106D01*
X72995104Y-34435027D01*
X73188117Y-34435027D01*
X73188117Y-34525153D01*
X73190926Y-34525153D01*
X73224510Y-34488272D01*
X73247052Y-34470706D01*
X73274885Y-34454200D01*
X73305566Y-34440510D01*
X73341319Y-34429166D01*
X73379505Y-34421935D01*
X73423140Y-34419396D01*
X73470915Y-34422878D01*
G37*
G36*
X72827371Y-34435027D02*
G01*
X72625870Y-34435027D01*
X72625870Y-34527473D01*
X72623123Y-34527473D01*
X72595157Y-34488700D01*
X72551804Y-34454078D01*
X72525316Y-34440408D01*
X72494407Y-34429105D01*
X72461330Y-34421894D01*
X72424431Y-34419396D01*
X72371560Y-34422498D01*
X72329289Y-34430980D01*
X72295715Y-34443881D01*
X72251860Y-34473306D01*
X72219511Y-34511598D01*
X72196947Y-34557784D01*
X72182447Y-34613569D01*
X72175165Y-34673485D01*
X72172617Y-34740636D01*
X72172617Y-35115000D01*
X72382482Y-35115000D01*
X72382482Y-34782096D01*
X72384619Y-34721280D01*
X72388880Y-34690652D01*
X72397198Y-34663211D01*
X72410540Y-34638990D01*
X72429377Y-34619858D01*
X72454182Y-34607708D01*
X72491598Y-34603066D01*
X72529704Y-34607065D01*
X72557360Y-34617782D01*
X72579660Y-34635000D01*
X72595828Y-34656922D01*
X72606748Y-34682612D01*
X72613353Y-34712182D01*
X72617505Y-34776479D01*
X72617505Y-35115000D01*
X72827371Y-35115000D01*
X72827371Y-34435027D01*
G37*
D13*
%TO.C,L1*%
X39020800Y-65246200D02*
X40036800Y-65246200D01*
X39528800Y-65754200D02*
X39528800Y-64738200D01*
%TD*%
D14*
X134778800Y-86201200D03*
X137318800Y-86201200D03*
X92868800Y-195421200D03*
X97948800Y-195421200D03*
X103028800Y-195421200D03*
X94138800Y-192881200D03*
X100488800Y-190341200D03*
X130968800Y-100171200D03*
X136048800Y-100171200D03*
X141128800Y-100171200D03*
X132238800Y-97631200D03*
X138588800Y-95091200D03*
X130968800Y-138271200D03*
X136048800Y-138271200D03*
X141128800Y-138271200D03*
X132238800Y-135731200D03*
X138588800Y-133191200D03*
X96678800Y-181451200D03*
X99218800Y-181451200D03*
X73818800Y-157321200D03*
X78898800Y-157321200D03*
X83978800Y-157321200D03*
X75088800Y-154781200D03*
X81438800Y-152241200D03*
X134778800Y-105251200D03*
X137318800Y-105251200D03*
X169068800Y-62071200D03*
X174148800Y-62071200D03*
X179228800Y-62071200D03*
X170338800Y-59531200D03*
X176688800Y-56991200D03*
X73818800Y-138271200D03*
X78898800Y-138271200D03*
X83978800Y-138271200D03*
X75088800Y-135731200D03*
X81438800Y-133191200D03*
X35718800Y-176371200D03*
X40798800Y-176371200D03*
X45878800Y-176371200D03*
X36988800Y-173831200D03*
X43338800Y-171291200D03*
X172878800Y-200501200D03*
X175418800Y-200501200D03*
X35718800Y-81121200D03*
X40798800Y-81121200D03*
X45878800Y-81121200D03*
X36988800Y-78581200D03*
X43338800Y-76041200D03*
X155473725Y-40115000D03*
X155473725Y-41115000D03*
X155473725Y-42115000D03*
X155473725Y-43115000D03*
X155473725Y-44115000D03*
X155473725Y-45115000D03*
X155473725Y-46115000D03*
X155473725Y-47115000D03*
X58578800Y-124301200D03*
X61118800Y-124301200D03*
X96678800Y-162401200D03*
X99218800Y-162401200D03*
X111918800Y-62071200D03*
X116998800Y-62071200D03*
X122078800Y-62071200D03*
X113188800Y-59531200D03*
X119538800Y-56991200D03*
X107473800Y-128746200D03*
X153828800Y-67151200D03*
X156368800Y-67151200D03*
X50323800Y-71596200D03*
X134778800Y-67151200D03*
X137318800Y-67151200D03*
X164623800Y-71596200D03*
X77628800Y-181451200D03*
X80168800Y-181451200D03*
X73818800Y-119221200D03*
X78898800Y-119221200D03*
X83978800Y-119221200D03*
X75088800Y-116681200D03*
X81438800Y-114141200D03*
X92868800Y-81121200D03*
X97948800Y-81121200D03*
X103028800Y-81121200D03*
X94138800Y-78581200D03*
X100488800Y-76041200D03*
X153828800Y-124301200D03*
X156368800Y-124301200D03*
X153828800Y-181451200D03*
X156368800Y-181451200D03*
X96678800Y-200501200D03*
X99218800Y-200501200D03*
X169068800Y-138271200D03*
X174148800Y-138271200D03*
X179228800Y-138271200D03*
X170338800Y-135731200D03*
X176688800Y-133191200D03*
X115728800Y-200501200D03*
X118268800Y-200501200D03*
X35718800Y-100171200D03*
X40798800Y-100171200D03*
X45878800Y-100171200D03*
X36988800Y-97631200D03*
X43338800Y-95091200D03*
X58578800Y-200501200D03*
X61118800Y-200501200D03*
X54768800Y-100171200D03*
X59848800Y-100171200D03*
X64928800Y-100171200D03*
X56038800Y-97631200D03*
X62388800Y-95091200D03*
X169068800Y-81121200D03*
X174148800Y-81121200D03*
X179228800Y-81121200D03*
X170338800Y-78581200D03*
X176688800Y-76041200D03*
X77628800Y-67151200D03*
X80168800Y-67151200D03*
X35718800Y-119221200D03*
X40798800Y-119221200D03*
X45878800Y-119221200D03*
X36988800Y-116681200D03*
X43338800Y-114141200D03*
X111918800Y-195421200D03*
X116998800Y-195421200D03*
X122078800Y-195421200D03*
X113188800Y-192881200D03*
X119538800Y-190341200D03*
X54768800Y-195421200D03*
X59848800Y-195421200D03*
X64928800Y-195421200D03*
X56038800Y-192881200D03*
X62388800Y-190341200D03*
X150018800Y-119221200D03*
X155098800Y-119221200D03*
X160178800Y-119221200D03*
X151288800Y-116681200D03*
X157638800Y-114141200D03*
X39528800Y-67151200D03*
X42068800Y-67151200D03*
X172878800Y-67151200D03*
X175418800Y-67151200D03*
X134778800Y-181451200D03*
X137318800Y-181451200D03*
X169068800Y-119221200D03*
X174148800Y-119221200D03*
X179228800Y-119221200D03*
X170338800Y-116681200D03*
X176688800Y-114141200D03*
X35718800Y-157321200D03*
X40798800Y-157321200D03*
X45878800Y-157321200D03*
X36988800Y-154781200D03*
X43338800Y-152241200D03*
X134778800Y-124301200D03*
X137318800Y-124301200D03*
X58578800Y-105251200D03*
X61118800Y-105251200D03*
X107473800Y-71596200D03*
X50323800Y-128746200D03*
X39528800Y-86201200D03*
X42068800Y-86201200D03*
X50323800Y-185896200D03*
X96678800Y-105251200D03*
X99218800Y-105251200D03*
X58578800Y-143351200D03*
X61118800Y-143351200D03*
X172878800Y-124301200D03*
X175418800Y-124301200D03*
X77628800Y-124301200D03*
X80168800Y-124301200D03*
X73818800Y-176371200D03*
X78898800Y-176371200D03*
X83978800Y-176371200D03*
X75088800Y-173831200D03*
X81438800Y-171291200D03*
X39528800Y-200501200D03*
X42068800Y-200501200D03*
X150018800Y-62071200D03*
X155098800Y-62071200D03*
X160178800Y-62071200D03*
X151288800Y-59531200D03*
X157638800Y-56991200D03*
X111918800Y-138271200D03*
X116998800Y-138271200D03*
X122078800Y-138271200D03*
X113188800Y-135731200D03*
X119538800Y-133191200D03*
X77628800Y-162401200D03*
X80168800Y-162401200D03*
X130968800Y-81121200D03*
X136048800Y-81121200D03*
X141128800Y-81121200D03*
X132238800Y-78581200D03*
X138588800Y-76041200D03*
X58578800Y-67151200D03*
X61118800Y-67151200D03*
X35718800Y-62071200D03*
X40798800Y-62071200D03*
X45878800Y-62071200D03*
X36988800Y-59531200D03*
X43338800Y-56991200D03*
X39528800Y-143351200D03*
X42068800Y-143351200D03*
X134778800Y-200501200D03*
X137318800Y-200501200D03*
X54768800Y-138271200D03*
X59848800Y-138271200D03*
X64928800Y-138271200D03*
X56038800Y-135731200D03*
X62388800Y-133191200D03*
X54768800Y-62071200D03*
X59848800Y-62071200D03*
X64928800Y-62071200D03*
X56038800Y-59531200D03*
X62388800Y-56991200D03*
X150018800Y-195421200D03*
X155098800Y-195421200D03*
X160178800Y-195421200D03*
X151288800Y-192881200D03*
X157638800Y-190341200D03*
X92868800Y-100171200D03*
X97948800Y-100171200D03*
X103028800Y-100171200D03*
X94138800Y-97631200D03*
X100488800Y-95091200D03*
X111918800Y-81121200D03*
X116998800Y-81121200D03*
X122078800Y-81121200D03*
X113188800Y-78581200D03*
X119538800Y-76041200D03*
X39528800Y-162401200D03*
X42068800Y-162401200D03*
X77628800Y-105251200D03*
X80168800Y-105251200D03*
X58578800Y-162401200D03*
X61118800Y-162401200D03*
X73818800Y-62071200D03*
X78898800Y-62071200D03*
X83978800Y-62071200D03*
X75088800Y-59531200D03*
X81438800Y-56991200D03*
X115728800Y-67151200D03*
X118268800Y-67151200D03*
X77628800Y-86201200D03*
X80168800Y-86201200D03*
X39528800Y-181451200D03*
X42068800Y-181451200D03*
X172878800Y-86201200D03*
X175418800Y-86201200D03*
X145973725Y-37615000D03*
X146973725Y-37615000D03*
X147973725Y-37615000D03*
X148973725Y-37615000D03*
X149973725Y-37615000D03*
X150973725Y-37615000D03*
X151973725Y-37615000D03*
X152973725Y-37615000D03*
X172878800Y-105251200D03*
X175418800Y-105251200D03*
X169068800Y-176371200D03*
X174148800Y-176371200D03*
X179228800Y-176371200D03*
X170338800Y-173831200D03*
X176688800Y-171291200D03*
X92868800Y-176371200D03*
X97948800Y-176371200D03*
X103028800Y-176371200D03*
X94138800Y-173831200D03*
X100488800Y-171291200D03*
X150018800Y-100171200D03*
X155098800Y-100171200D03*
X160178800Y-100171200D03*
X151288800Y-97631200D03*
X157638800Y-95091200D03*
X58578800Y-181451200D03*
X61118800Y-181451200D03*
X58578800Y-86201200D03*
X61118800Y-86201200D03*
X115728800Y-124301200D03*
X118268800Y-124301200D03*
X150018800Y-176371200D03*
X155098800Y-176371200D03*
X160178800Y-176371200D03*
X151288800Y-173831200D03*
X157638800Y-171291200D03*
X115728800Y-162401200D03*
X118268800Y-162401200D03*
X92868800Y-138271200D03*
X97948800Y-138271200D03*
X103028800Y-138271200D03*
X94138800Y-135731200D03*
X100488800Y-133191200D03*
X169068800Y-195421200D03*
X174148800Y-195421200D03*
X179228800Y-195421200D03*
X170338800Y-192881200D03*
X176688800Y-190341200D03*
X150018800Y-138271200D03*
X155098800Y-138271200D03*
X160178800Y-138271200D03*
X151288800Y-135731200D03*
X157638800Y-133191200D03*
X111918800Y-119221200D03*
X116998800Y-119221200D03*
X122078800Y-119221200D03*
X113188800Y-116681200D03*
X119538800Y-114141200D03*
X35718800Y-195421200D03*
X40798800Y-195421200D03*
X45878800Y-195421200D03*
X36988800Y-192881200D03*
X43338800Y-190341200D03*
X115728800Y-143351200D03*
X118268800Y-143351200D03*
X73818800Y-100171200D03*
X78898800Y-100171200D03*
X83978800Y-100171200D03*
X75088800Y-97631200D03*
X81438800Y-95091200D03*
X172878800Y-162401200D03*
X175418800Y-162401200D03*
X115728800Y-86201200D03*
X118268800Y-86201200D03*
X107473800Y-185896200D03*
X130968800Y-119221200D03*
X136048800Y-119221200D03*
X141128800Y-119221200D03*
X132238800Y-116681200D03*
X138588800Y-114141200D03*
X169068800Y-100171200D03*
X174148800Y-100171200D03*
X179228800Y-100171200D03*
X170338800Y-97631200D03*
X176688800Y-95091200D03*
X153828800Y-86201200D03*
X156368800Y-86201200D03*
X150018800Y-157321200D03*
X155098800Y-157321200D03*
X160178800Y-157321200D03*
X151288800Y-154781200D03*
X157638800Y-152241200D03*
X153828800Y-143351200D03*
X156368800Y-143351200D03*
X77628800Y-143351200D03*
X80168800Y-143351200D03*
X73818800Y-195421200D03*
X78898800Y-195421200D03*
X83978800Y-195421200D03*
X75088800Y-192881200D03*
X81438800Y-190341200D03*
X130968800Y-195421200D03*
X136048800Y-195421200D03*
X141128800Y-195421200D03*
X132238800Y-192881200D03*
X138588800Y-190341200D03*
X150018800Y-81121200D03*
X155098800Y-81121200D03*
X160178800Y-81121200D03*
X151288800Y-78581200D03*
X157638800Y-76041200D03*
X130968800Y-157321200D03*
X136048800Y-157321200D03*
X141128800Y-157321200D03*
X132238800Y-154781200D03*
X138588800Y-152241200D03*
X164623800Y-128746200D03*
X92868800Y-62071200D03*
X97948800Y-62071200D03*
X103028800Y-62071200D03*
X94138800Y-59531200D03*
X100488800Y-56991200D03*
X111918800Y-100171200D03*
X116998800Y-100171200D03*
X122078800Y-100171200D03*
X113188800Y-97631200D03*
X119538800Y-95091200D03*
X92868800Y-119221200D03*
X97948800Y-119221200D03*
X103028800Y-119221200D03*
X94138800Y-116681200D03*
X100488800Y-114141200D03*
X92868800Y-157321200D03*
X97948800Y-157321200D03*
X103028800Y-157321200D03*
X94138800Y-154781200D03*
X100488800Y-152241200D03*
X77628800Y-200501200D03*
X80168800Y-200501200D03*
X153828800Y-162401200D03*
X156368800Y-162401200D03*
X172878800Y-143351200D03*
X175418800Y-143351200D03*
X169068800Y-157321200D03*
X174148800Y-157321200D03*
X179228800Y-157321200D03*
X170338800Y-154781200D03*
X176688800Y-152241200D03*
X35718800Y-138271200D03*
X40798800Y-138271200D03*
X45878800Y-138271200D03*
X36988800Y-135731200D03*
X43338800Y-133191200D03*
X96678800Y-124301200D03*
X99218800Y-124301200D03*
X39528800Y-124301200D03*
X42068800Y-124301200D03*
X96678800Y-86201200D03*
X99218800Y-86201200D03*
X54768800Y-81121200D03*
X59848800Y-81121200D03*
X64928800Y-81121200D03*
X56038800Y-78581200D03*
X62388800Y-76041200D03*
X111918800Y-157321200D03*
X116998800Y-157321200D03*
X122078800Y-157321200D03*
X113188800Y-154781200D03*
X119538800Y-152241200D03*
X111918800Y-176371200D03*
X116998800Y-176371200D03*
X122078800Y-176371200D03*
X113188800Y-173831200D03*
X119538800Y-171291200D03*
X115728800Y-181451200D03*
X118268800Y-181451200D03*
X130968800Y-176371200D03*
X136048800Y-176371200D03*
X141128800Y-176371200D03*
X132238800Y-173831200D03*
X138588800Y-171291200D03*
X172878800Y-181451200D03*
X175418800Y-181451200D03*
X73818800Y-81121200D03*
X78898800Y-81121200D03*
X83978800Y-81121200D03*
X75088800Y-78581200D03*
X81438800Y-76041200D03*
X134778800Y-162401200D03*
X137318800Y-162401200D03*
X54768800Y-157321200D03*
X59848800Y-157321200D03*
X64928800Y-157321200D03*
X56038800Y-154781200D03*
X62388800Y-152241200D03*
X54768800Y-119221200D03*
X59848800Y-119221200D03*
X64928800Y-119221200D03*
X56038800Y-116681200D03*
X62388800Y-114141200D03*
X153828800Y-105251200D03*
X156368800Y-105251200D03*
X164623800Y-185896200D03*
X115728800Y-105251200D03*
X118268800Y-105251200D03*
X153828800Y-200501200D03*
X156368800Y-200501200D03*
X96678800Y-143351200D03*
X99218800Y-143351200D03*
X39528800Y-105251200D03*
X42068800Y-105251200D03*
X99853725Y-34995000D03*
X99853725Y-37535000D03*
X99853725Y-40075000D03*
X99853725Y-42615000D03*
X99853725Y-45155000D03*
X99853725Y-47695000D03*
X99853725Y-50235000D03*
X115093725Y-50235000D03*
X115093725Y-47695000D03*
X115093725Y-45155000D03*
X115093725Y-42615000D03*
X115093725Y-40075000D03*
X115093725Y-37535000D03*
X115093725Y-34995000D03*
X134778800Y-143351200D03*
X137318800Y-143351200D03*
X130968800Y-62071200D03*
X136048800Y-62071200D03*
X141128800Y-62071200D03*
X132238800Y-59531200D03*
X138588800Y-56991200D03*
X54768800Y-176371200D03*
X59848800Y-176371200D03*
X64928800Y-176371200D03*
X56038800Y-173831200D03*
X62388800Y-171291200D03*
X96678800Y-67151200D03*
X99218800Y-67151200D03*
M02*
