%TF.GenerationSoftware,KiCad,Pcbnew,9.0.2*%
%TF.CreationDate,2025-06-29T11:42:18-07:00*%
%TF.ProjectId,Grid64_v3,47726964-3634-45f7-9633-2e6b69636164,rev?*%
%TF.SameCoordinates,Original*%
%TF.FileFunction,Legend,Top*%
%TF.FilePolarity,Positive*%
%FSLAX46Y46*%
G04 Gerber Fmt 4.6, Leading zero omitted, Abs format (unit mm)*
G04 Created by KiCad (PCBNEW 9.0.2) date 2025-06-29 11:42:18*
%MOMM*%
%LPD*%
G01*
G04 APERTURE LIST*
%ADD10C,0.100000*%
%ADD11C,0.000000*%
%ADD12C,0.200000*%
%ADD13C,0.150000*%
%ADD14C,0.120000*%
%ADD15C,0.127000*%
%ADD16C,0.504000*%
%ADD17C,0.350000*%
G04 APERTURE END LIST*
D10*
X147723725Y-40865000D02*
X148223725Y-40865000D01*
X148223725Y-41365000D01*
X147723725Y-41365000D01*
X147723725Y-40865000D01*
X145723725Y-46865000D02*
X146223725Y-46865000D01*
X146223725Y-47365000D01*
X145723725Y-47365000D01*
X145723725Y-46865000D01*
X150723725Y-45865000D02*
X151223725Y-45865000D01*
X151223725Y-46365000D01*
X150723725Y-46365000D01*
X150723725Y-45865000D01*
X147723725Y-45865000D02*
X148223725Y-45865000D01*
X148223725Y-46365000D01*
X147723725Y-46365000D01*
X147723725Y-45865000D01*
X146723725Y-40865000D02*
X147223725Y-40865000D01*
X147223725Y-41365000D01*
X146723725Y-41365000D01*
X146723725Y-40865000D01*
X150723725Y-46865000D02*
X151223725Y-46865000D01*
X151223725Y-47365000D01*
X150723725Y-47365000D01*
X150723725Y-46865000D01*
X147723725Y-42865000D02*
X148223725Y-42865000D01*
X148223725Y-43365000D01*
X147723725Y-43365000D01*
X147723725Y-42865000D01*
X147723725Y-46865000D02*
X148223725Y-46865000D01*
X148223725Y-47365000D01*
X147723725Y-47365000D01*
X147723725Y-46865000D01*
X146723725Y-45865000D02*
X147223725Y-45865000D01*
X147223725Y-46365000D01*
X146723725Y-46365000D01*
X146723725Y-45865000D01*
X146723725Y-41865000D02*
X147223725Y-41865000D01*
X147223725Y-42365000D01*
X146723725Y-42365000D01*
X146723725Y-41865000D01*
X149723725Y-40865000D02*
X150223725Y-40865000D01*
X150223725Y-41365000D01*
X149723725Y-41365000D01*
X149723725Y-40865000D01*
X149723725Y-46865000D02*
X150223725Y-46865000D01*
X150223725Y-47365000D01*
X149723725Y-47365000D01*
X149723725Y-46865000D01*
X148973725Y-39615000D02*
X148973725Y-39115000D01*
X148723725Y-41865000D02*
X149223725Y-41865000D01*
X149223725Y-42365000D01*
X148723725Y-42365000D01*
X148723725Y-41865000D01*
X149723725Y-44865000D02*
X150223725Y-44865000D01*
X150223725Y-45365000D01*
X149723725Y-45365000D01*
X149723725Y-44865000D01*
X149723725Y-42865000D02*
X150223725Y-42865000D01*
X150223725Y-43365000D01*
X149723725Y-43365000D01*
X149723725Y-42865000D01*
X148723725Y-42865000D02*
X149223725Y-42865000D01*
X149223725Y-43365000D01*
X148723725Y-43365000D01*
X148723725Y-42865000D01*
X150723725Y-43865000D02*
X151223725Y-43865000D01*
X151223725Y-44365000D01*
X150723725Y-44365000D01*
X150723725Y-43865000D01*
X148723725Y-45865000D02*
X149223725Y-45865000D01*
X149223725Y-46365000D01*
X148723725Y-46365000D01*
X148723725Y-45865000D01*
X148723725Y-44865000D02*
X149223725Y-44865000D01*
X149223725Y-45365000D01*
X148723725Y-45365000D01*
X148723725Y-44865000D01*
X145973725Y-39615000D02*
X145973725Y-39115000D01*
X148723725Y-39865000D02*
X149223725Y-39865000D01*
X149223725Y-40365000D01*
X148723725Y-40365000D01*
X148723725Y-39865000D01*
X153473725Y-45115000D02*
X153973725Y-45115000D01*
X151723725Y-44865000D02*
X152223725Y-44865000D01*
X152223725Y-45365000D01*
X151723725Y-45365000D01*
X151723725Y-44865000D01*
X145723725Y-45865000D02*
X146223725Y-45865000D01*
X146223725Y-46365000D01*
X145723725Y-46365000D01*
X145723725Y-45865000D01*
X147723725Y-41865000D02*
X148223725Y-41865000D01*
X148223725Y-42365000D01*
X147723725Y-42365000D01*
X147723725Y-41865000D01*
X146723725Y-39865000D02*
X147223725Y-39865000D01*
X147223725Y-40365000D01*
X146723725Y-40365000D01*
X146723725Y-39865000D01*
D11*
G36*
X37677891Y-34554584D02*
G01*
X38207058Y-34554584D01*
X38207058Y-34025417D01*
X41382058Y-34025417D01*
X41382058Y-34554584D01*
X41911224Y-34554584D01*
X41911224Y-34025417D01*
X46144558Y-34025417D01*
X46144558Y-34554584D01*
X46673725Y-34554584D01*
X46673725Y-36142084D01*
X45615391Y-36142084D01*
X45615391Y-36671250D01*
X46144558Y-36671250D01*
X46144558Y-37200417D01*
X46673725Y-37200417D01*
X46673725Y-38787917D01*
X46144558Y-38787917D01*
X46144558Y-39317084D01*
X46673725Y-39317084D01*
X46673725Y-40904583D01*
X45615391Y-40904583D01*
X45615391Y-43550417D01*
X47202891Y-43550417D01*
X47202891Y-44079584D01*
X45086225Y-44079584D01*
X45086225Y-44608750D01*
X44557058Y-44608750D01*
X44557058Y-46725417D01*
X45086225Y-46725417D01*
X45086225Y-47254584D01*
X47732058Y-47254584D01*
X47732058Y-45667084D01*
X46673725Y-45667084D01*
X46673725Y-46725417D01*
X45615391Y-46725417D01*
X45615391Y-44608750D01*
X46673725Y-44608750D01*
X46673725Y-45137917D01*
X47732058Y-45137917D01*
X47732058Y-44608750D01*
X48261225Y-44608750D01*
X48261225Y-45137917D01*
X48790391Y-45137917D01*
X48790391Y-48312917D01*
X33973725Y-48312917D01*
X33973725Y-47783750D01*
X33444558Y-47783750D01*
X33444558Y-47254584D01*
X33444558Y-44079584D01*
X33973725Y-44079584D01*
X33973725Y-47254584D01*
X37148725Y-47254584D01*
X37148725Y-46725417D01*
X35032058Y-46725417D01*
X35032058Y-44079584D01*
X35561225Y-44079584D01*
X36090391Y-44079584D01*
X36090391Y-46196250D01*
X37677891Y-46196250D01*
X37677891Y-44079584D01*
X38207058Y-44079584D01*
X38207058Y-47254584D01*
X39265391Y-47254584D01*
X39265391Y-44079584D01*
X40323724Y-44079584D01*
X40323724Y-47254584D01*
X41382058Y-47254584D01*
X41382058Y-45667084D01*
X41911224Y-45667084D01*
X41911224Y-46196250D01*
X42440392Y-46196250D01*
X42440392Y-47254584D01*
X43498725Y-47254584D01*
X43498725Y-44079584D01*
X44027891Y-44079584D01*
X44027891Y-43550417D01*
X43498725Y-43550417D01*
X43498725Y-44079584D01*
X42440392Y-44079584D01*
X42440392Y-45137917D01*
X41911224Y-45137917D01*
X41911224Y-44608750D01*
X41382058Y-44608750D01*
X41382058Y-44079584D01*
X40323724Y-44079584D01*
X39265391Y-44079584D01*
X38207058Y-44079584D01*
X37677891Y-44079584D01*
X37677891Y-43550417D01*
X38207058Y-43550417D01*
X38207058Y-43021251D01*
X37677891Y-43021251D01*
X37677891Y-43550417D01*
X35561225Y-43550417D01*
X35561225Y-44079584D01*
X35032058Y-44079584D01*
X33973725Y-44079584D01*
X33444558Y-44079584D01*
X33444558Y-43550417D01*
X34502891Y-43550417D01*
X34502891Y-43021251D01*
X33973725Y-43021251D01*
X33973725Y-42492083D01*
X33444558Y-42492083D01*
X33444558Y-41962917D01*
X33973725Y-41962917D01*
X34502891Y-41962917D01*
X34502891Y-42492083D01*
X37148725Y-42492083D01*
X38207058Y-42492083D01*
X39265391Y-42492083D01*
X39265391Y-41433751D01*
X40323724Y-41433751D01*
X40323724Y-42492083D01*
X41382058Y-42492083D01*
X41382058Y-40904583D01*
X42440392Y-40904583D01*
X42440392Y-43550417D01*
X43498725Y-43550417D01*
X43498725Y-43021251D01*
X42969558Y-43021251D01*
X42969558Y-40904583D01*
X42440392Y-40904583D01*
X41382058Y-40904583D01*
X41382058Y-39846250D01*
X40852892Y-39846250D01*
X40852892Y-39317084D01*
X41382058Y-39317084D01*
X41911224Y-39317084D01*
X42440392Y-39317084D01*
X42440392Y-39846250D01*
X43498725Y-39846250D01*
X43498725Y-42492083D01*
X44557058Y-42492083D01*
X44557058Y-39846250D01*
X45615391Y-39846250D01*
X45615391Y-39317084D01*
X42440392Y-39317084D01*
X41911224Y-39317084D01*
X41911224Y-38787917D01*
X42440392Y-38787917D01*
X42440392Y-38258750D01*
X41911224Y-38258750D01*
X41911224Y-38787917D01*
X41382058Y-38787917D01*
X41382058Y-39317084D01*
X40852892Y-39317084D01*
X38736225Y-39317084D01*
X38736225Y-39846250D01*
X38207058Y-39846250D01*
X38207058Y-42492083D01*
X37148725Y-42492083D01*
X37148725Y-40904583D01*
X35561225Y-40904583D01*
X35561225Y-41433751D01*
X36090391Y-41433751D01*
X36090391Y-41962917D01*
X35032058Y-41962917D01*
X35032058Y-39846250D01*
X36090391Y-39846250D01*
X36090391Y-40375417D01*
X37148725Y-40375417D01*
X37148725Y-39846250D01*
X36619558Y-39846250D01*
X36619558Y-39317084D01*
X37148725Y-39317084D01*
X38207058Y-39317084D01*
X38207058Y-38787917D01*
X38736225Y-38787917D01*
X38736225Y-38258750D01*
X37677891Y-38258750D01*
X37677891Y-38787917D01*
X37148725Y-38787917D01*
X37148725Y-39317084D01*
X36619558Y-39317084D01*
X34502891Y-39317084D01*
X34502891Y-39846250D01*
X33973725Y-39846250D01*
X33973725Y-41962917D01*
X33444558Y-41962917D01*
X33444558Y-39846250D01*
X33444558Y-39317084D01*
X33973725Y-39317084D01*
X33973725Y-38787917D01*
X34502891Y-38787917D01*
X34502891Y-38258750D01*
X33973725Y-38258750D01*
X33973725Y-37729584D01*
X33444558Y-37729584D01*
X33444558Y-36142084D01*
X33973725Y-36142084D01*
X33973725Y-37200417D01*
X34502891Y-37200417D01*
X34502891Y-37729584D01*
X36619558Y-37729584D01*
X36619558Y-37200417D01*
X37148725Y-37200417D01*
X38207058Y-37200417D01*
X38736225Y-37200417D01*
X38736225Y-37729584D01*
X40852892Y-37729584D01*
X42440392Y-37729584D01*
X45615391Y-37729584D01*
X45615391Y-37200417D01*
X43498725Y-37200417D01*
X43498725Y-36671250D01*
X44557058Y-36671250D01*
X44557058Y-35612917D01*
X43498725Y-35612917D01*
X43498725Y-35083750D01*
X45615391Y-35083750D01*
X45615391Y-34554584D01*
X42440392Y-34554584D01*
X42440392Y-37729584D01*
X40852892Y-37729584D01*
X40852892Y-37200417D01*
X41382058Y-37200417D01*
X41382058Y-35083750D01*
X40852892Y-35083750D01*
X40852892Y-34554584D01*
X38736225Y-34554584D01*
X38736225Y-35083750D01*
X38207058Y-35083750D01*
X38207058Y-37200417D01*
X37148725Y-37200417D01*
X37148725Y-35083750D01*
X37148725Y-34554584D01*
X36090391Y-34554584D01*
X36090391Y-37200417D01*
X35032058Y-37200417D01*
X35032058Y-36142084D01*
X33973725Y-36142084D01*
X33444558Y-36142084D01*
X33444558Y-35612917D01*
X35561225Y-35612917D01*
X35561225Y-34025417D01*
X37677891Y-34025417D01*
X37677891Y-34554584D01*
G37*
D10*
X145723725Y-41865000D02*
X146223725Y-41865000D01*
X146223725Y-42365000D01*
X145723725Y-42365000D01*
X145723725Y-41865000D01*
X149723725Y-43865000D02*
X150223725Y-43865000D01*
X150223725Y-44365000D01*
X149723725Y-44365000D01*
X149723725Y-43865000D01*
X145723725Y-44865000D02*
X146223725Y-44865000D01*
X146223725Y-45365000D01*
X145723725Y-45365000D01*
X145723725Y-44865000D01*
X149723725Y-45865000D02*
X150223725Y-45865000D01*
X150223725Y-46365000D01*
X149723725Y-46365000D01*
X149723725Y-45865000D01*
X147723725Y-39865000D02*
X148223725Y-39865000D01*
X148223725Y-40365000D01*
X147723725Y-40365000D01*
X147723725Y-39865000D01*
D11*
G36*
X47732058Y-44608750D02*
G01*
X47202891Y-44608750D01*
X47202891Y-44079584D01*
X47732058Y-44079584D01*
X47732058Y-44608750D01*
G37*
D10*
X151723725Y-46865000D02*
X152223725Y-46865000D01*
X152223725Y-47365000D01*
X151723725Y-47365000D01*
X151723725Y-46865000D01*
X152723725Y-40865000D02*
X153223725Y-40865000D01*
X153223725Y-41365000D01*
X152723725Y-41365000D01*
X152723725Y-40865000D01*
X150723725Y-42865000D02*
X151223725Y-42865000D01*
X151223725Y-43365000D01*
X150723725Y-43365000D01*
X150723725Y-42865000D01*
X152723725Y-46865000D02*
X153223725Y-46865000D01*
X153223725Y-47365000D01*
X152723725Y-47365000D01*
X152723725Y-46865000D01*
X152973725Y-39615000D02*
X152973725Y-39115000D01*
X151723725Y-40865000D02*
X152223725Y-40865000D01*
X152223725Y-41365000D01*
X151723725Y-41365000D01*
X151723725Y-40865000D01*
X148723725Y-46865000D02*
X149223725Y-46865000D01*
X149223725Y-47365000D01*
X148723725Y-47365000D01*
X148723725Y-46865000D01*
X151723725Y-41865000D02*
X152223725Y-41865000D01*
X152223725Y-42365000D01*
X151723725Y-42365000D01*
X151723725Y-41865000D01*
X152723725Y-41865000D02*
X153223725Y-41865000D01*
X153223725Y-42365000D01*
X152723725Y-42365000D01*
X152723725Y-41865000D01*
X152723725Y-39865000D02*
X153223725Y-39865000D01*
X153223725Y-40365000D01*
X152723725Y-40365000D01*
X152723725Y-39865000D01*
X148723725Y-43865000D02*
X149223725Y-43865000D01*
X149223725Y-44365000D01*
X148723725Y-44365000D01*
X148723725Y-43865000D01*
X151973725Y-39615000D02*
X151973725Y-39115000D01*
X149723725Y-39865000D02*
X150223725Y-39865000D01*
X150223725Y-40365000D01*
X149723725Y-40365000D01*
X149723725Y-39865000D01*
X151723725Y-45865000D02*
X152223725Y-45865000D01*
X152223725Y-46365000D01*
X151723725Y-46365000D01*
X151723725Y-45865000D01*
X149723725Y-41865000D02*
X150223725Y-41865000D01*
X150223725Y-42365000D01*
X149723725Y-42365000D01*
X149723725Y-41865000D01*
X147723725Y-44865000D02*
X148223725Y-44865000D01*
X148223725Y-45365000D01*
X147723725Y-45365000D01*
X147723725Y-44865000D01*
X150723725Y-41865000D02*
X151223725Y-41865000D01*
X151223725Y-42365000D01*
X150723725Y-42365000D01*
X150723725Y-41865000D01*
X150723725Y-39865000D02*
X151223725Y-39865000D01*
X151223725Y-40365000D01*
X150723725Y-40365000D01*
X150723725Y-39865000D01*
X146973725Y-39615000D02*
X146973725Y-39115000D01*
X147973725Y-39615000D02*
X147973725Y-39115000D01*
X146723725Y-42865000D02*
X147223725Y-42865000D01*
X147223725Y-43365000D01*
X146723725Y-43365000D01*
X146723725Y-42865000D01*
D11*
G36*
X40323724Y-35683765D02*
G01*
X40323724Y-36600402D01*
X40323724Y-37200417D01*
X39265391Y-37200417D01*
X39265391Y-36600402D01*
X39265391Y-35683765D01*
X39265391Y-35083750D01*
X40323724Y-35083750D01*
X40323724Y-35683765D01*
G37*
D10*
X146723725Y-43865000D02*
X147223725Y-43865000D01*
X147223725Y-44365000D01*
X146723725Y-44365000D01*
X146723725Y-43865000D01*
X145723725Y-40865000D02*
X146223725Y-40865000D01*
X146223725Y-41365000D01*
X145723725Y-41365000D01*
X145723725Y-40865000D01*
X146723725Y-46865000D02*
X147223725Y-46865000D01*
X147223725Y-47365000D01*
X146723725Y-47365000D01*
X146723725Y-46865000D01*
X152723725Y-44865000D02*
X153223725Y-44865000D01*
X153223725Y-45365000D01*
X152723725Y-45365000D01*
X152723725Y-44865000D01*
X153473725Y-46115000D02*
X153973725Y-46115000D01*
X153473725Y-43115000D02*
X153973725Y-43115000D01*
X150723725Y-40865000D02*
X151223725Y-40865000D01*
X151223725Y-41365000D01*
X150723725Y-41365000D01*
X150723725Y-40865000D01*
X153473725Y-44115000D02*
X153973725Y-44115000D01*
X151723725Y-43865000D02*
X152223725Y-43865000D01*
X152223725Y-44365000D01*
X151723725Y-44365000D01*
X151723725Y-43865000D01*
X153473725Y-47115000D02*
X153973725Y-47115000D01*
X152723725Y-43865000D02*
X153223725Y-43865000D01*
X153223725Y-44365000D01*
X152723725Y-44365000D01*
X152723725Y-43865000D01*
X153473725Y-41115000D02*
X153973725Y-41115000D01*
X151723725Y-42865000D02*
X152223725Y-42865000D01*
X152223725Y-43365000D01*
X151723725Y-43365000D01*
X151723725Y-42865000D01*
X153473725Y-42115000D02*
X153973725Y-42115000D01*
X145723725Y-43865000D02*
X146223725Y-43865000D01*
X146223725Y-44365000D01*
X145723725Y-44365000D01*
X145723725Y-43865000D01*
X150723725Y-44865000D02*
X151223725Y-44865000D01*
X151223725Y-45365000D01*
X150723725Y-45365000D01*
X150723725Y-44865000D01*
X145723725Y-39865000D02*
X146223725Y-39865000D01*
X146223725Y-40365000D01*
X145723725Y-40365000D01*
X145723725Y-39865000D01*
X150973725Y-39615000D02*
X150973725Y-39115000D01*
X151723725Y-39865000D02*
X152223725Y-39865000D01*
X152223725Y-40365000D01*
X151723725Y-40365000D01*
X151723725Y-39865000D01*
X152723725Y-45865000D02*
X153223725Y-45865000D01*
X153223725Y-46365000D01*
X152723725Y-46365000D01*
X152723725Y-45865000D01*
D11*
G36*
X40323724Y-40375417D02*
G01*
X40323724Y-40904583D01*
X39265391Y-40904583D01*
X39265391Y-40375417D01*
X39265391Y-39846250D01*
X40323724Y-39846250D01*
X40323724Y-40375417D01*
G37*
D10*
X148723725Y-40865000D02*
X149223725Y-40865000D01*
X149223725Y-41365000D01*
X148723725Y-41365000D01*
X148723725Y-40865000D01*
X146723725Y-44865000D02*
X147223725Y-44865000D01*
X147223725Y-45365000D01*
X146723725Y-45365000D01*
X146723725Y-44865000D01*
X153473725Y-40115000D02*
X153973725Y-40115000D01*
X147723725Y-43865000D02*
X148223725Y-43865000D01*
X148223725Y-44365000D01*
X147723725Y-44365000D01*
X147723725Y-43865000D01*
X152723725Y-42865000D02*
X153223725Y-42865000D01*
X153223725Y-43365000D01*
X152723725Y-43365000D01*
X152723725Y-42865000D01*
X149973725Y-39615000D02*
X149973725Y-39115000D01*
X145723725Y-42865000D02*
X146223725Y-42865000D01*
X146223725Y-43365000D01*
X145723725Y-43365000D01*
X145723725Y-42865000D01*
X102854676Y-37237419D02*
X102854676Y-37951704D01*
X102854676Y-37951704D02*
X102807057Y-38094561D01*
X102807057Y-38094561D02*
X102711819Y-38189800D01*
X102711819Y-38189800D02*
X102568962Y-38237419D01*
X102568962Y-38237419D02*
X102473724Y-38237419D01*
X103807057Y-38237419D02*
X103330867Y-38237419D01*
X103330867Y-38237419D02*
X103330867Y-37237419D01*
X104711819Y-38142180D02*
X104664200Y-38189800D01*
X104664200Y-38189800D02*
X104521343Y-38237419D01*
X104521343Y-38237419D02*
X104426105Y-38237419D01*
X104426105Y-38237419D02*
X104283248Y-38189800D01*
X104283248Y-38189800D02*
X104188010Y-38094561D01*
X104188010Y-38094561D02*
X104140391Y-37999323D01*
X104140391Y-37999323D02*
X104092772Y-37808847D01*
X104092772Y-37808847D02*
X104092772Y-37665990D01*
X104092772Y-37665990D02*
X104140391Y-37475514D01*
X104140391Y-37475514D02*
X104188010Y-37380276D01*
X104188010Y-37380276D02*
X104283248Y-37285038D01*
X104283248Y-37285038D02*
X104426105Y-37237419D01*
X104426105Y-37237419D02*
X104521343Y-37237419D01*
X104521343Y-37237419D02*
X104664200Y-37285038D01*
X104664200Y-37285038D02*
X104711819Y-37332657D01*
X105426105Y-37237419D02*
X105426105Y-37951704D01*
X105426105Y-37951704D02*
X105378486Y-38094561D01*
X105378486Y-38094561D02*
X105283248Y-38189800D01*
X105283248Y-38189800D02*
X105140391Y-38237419D01*
X105140391Y-38237419D02*
X105045153Y-38237419D01*
X106378486Y-38237419D02*
X105902296Y-38237419D01*
X105902296Y-38237419D02*
X105902296Y-37237419D01*
X107283248Y-38142180D02*
X107235629Y-38189800D01*
X107235629Y-38189800D02*
X107092772Y-38237419D01*
X107092772Y-38237419D02*
X106997534Y-38237419D01*
X106997534Y-38237419D02*
X106854677Y-38189800D01*
X106854677Y-38189800D02*
X106759439Y-38094561D01*
X106759439Y-38094561D02*
X106711820Y-37999323D01*
X106711820Y-37999323D02*
X106664201Y-37808847D01*
X106664201Y-37808847D02*
X106664201Y-37665990D01*
X106664201Y-37665990D02*
X106711820Y-37475514D01*
X106711820Y-37475514D02*
X106759439Y-37380276D01*
X106759439Y-37380276D02*
X106854677Y-37285038D01*
X106854677Y-37285038D02*
X106997534Y-37237419D01*
X106997534Y-37237419D02*
X107092772Y-37237419D01*
X107092772Y-37237419D02*
X107235629Y-37285038D01*
X107235629Y-37285038D02*
X107283248Y-37332657D01*
X107997534Y-37237419D02*
X107997534Y-37951704D01*
X107997534Y-37951704D02*
X107949915Y-38094561D01*
X107949915Y-38094561D02*
X107854677Y-38189800D01*
X107854677Y-38189800D02*
X107711820Y-38237419D01*
X107711820Y-38237419D02*
X107616582Y-38237419D01*
X108949915Y-38237419D02*
X108473725Y-38237419D01*
X108473725Y-38237419D02*
X108473725Y-37237419D01*
X109854677Y-38142180D02*
X109807058Y-38189800D01*
X109807058Y-38189800D02*
X109664201Y-38237419D01*
X109664201Y-38237419D02*
X109568963Y-38237419D01*
X109568963Y-38237419D02*
X109426106Y-38189800D01*
X109426106Y-38189800D02*
X109330868Y-38094561D01*
X109330868Y-38094561D02*
X109283249Y-37999323D01*
X109283249Y-37999323D02*
X109235630Y-37808847D01*
X109235630Y-37808847D02*
X109235630Y-37665990D01*
X109235630Y-37665990D02*
X109283249Y-37475514D01*
X109283249Y-37475514D02*
X109330868Y-37380276D01*
X109330868Y-37380276D02*
X109426106Y-37285038D01*
X109426106Y-37285038D02*
X109568963Y-37237419D01*
X109568963Y-37237419D02*
X109664201Y-37237419D01*
X109664201Y-37237419D02*
X109807058Y-37285038D01*
X109807058Y-37285038D02*
X109854677Y-37332657D01*
X110568963Y-37237419D02*
X110568963Y-37951704D01*
X110568963Y-37951704D02*
X110521344Y-38094561D01*
X110521344Y-38094561D02*
X110426106Y-38189800D01*
X110426106Y-38189800D02*
X110283249Y-38237419D01*
X110283249Y-38237419D02*
X110188011Y-38237419D01*
X111521344Y-38237419D02*
X111045154Y-38237419D01*
X111045154Y-38237419D02*
X111045154Y-37237419D01*
X112426106Y-38142180D02*
X112378487Y-38189800D01*
X112378487Y-38189800D02*
X112235630Y-38237419D01*
X112235630Y-38237419D02*
X112140392Y-38237419D01*
X112140392Y-38237419D02*
X111997535Y-38189800D01*
X111997535Y-38189800D02*
X111902297Y-38094561D01*
X111902297Y-38094561D02*
X111854678Y-37999323D01*
X111854678Y-37999323D02*
X111807059Y-37808847D01*
X111807059Y-37808847D02*
X111807059Y-37665990D01*
X111807059Y-37665990D02*
X111854678Y-37475514D01*
X111854678Y-37475514D02*
X111902297Y-37380276D01*
X111902297Y-37380276D02*
X111997535Y-37285038D01*
X111997535Y-37285038D02*
X112140392Y-37237419D01*
X112140392Y-37237419D02*
X112235630Y-37237419D01*
X112235630Y-37237419D02*
X112378487Y-37285038D01*
X112378487Y-37285038D02*
X112426106Y-37332657D01*
D12*
G36*
X37165525Y-50600716D02*
G01*
X37226219Y-50624757D01*
X37274595Y-50663449D01*
X37310622Y-50714475D01*
X37332860Y-50775727D01*
X37340724Y-50850020D01*
X37332862Y-50924316D01*
X37310626Y-50985601D01*
X37274595Y-51036683D01*
X37226226Y-51075322D01*
X37165533Y-51099334D01*
X37088849Y-51107941D01*
X37012165Y-51099334D01*
X36951471Y-51075322D01*
X36903102Y-51036683D01*
X36867125Y-50985608D01*
X36844918Y-50924323D01*
X36837065Y-50850020D01*
X36844920Y-50775720D01*
X36867128Y-50714468D01*
X36903102Y-50663449D01*
X36951478Y-50624757D01*
X37012172Y-50600716D01*
X37088849Y-50592100D01*
X37165525Y-50600716D01*
G37*
G36*
X38456274Y-50640880D02*
G01*
X38513096Y-50662893D01*
X38560717Y-50698895D01*
X38597264Y-50746169D01*
X38619230Y-50800694D01*
X38626846Y-50864675D01*
X38619232Y-50928659D01*
X38597268Y-50983216D01*
X38560717Y-51030546D01*
X38513103Y-51066494D01*
X38456281Y-51088479D01*
X38387610Y-51096217D01*
X38318937Y-51088481D01*
X38262082Y-51066498D01*
X38214411Y-51030546D01*
X38177915Y-50983223D01*
X38155979Y-50928665D01*
X38148374Y-50864675D01*
X38155981Y-50800687D01*
X38177918Y-50746162D01*
X38214411Y-50698895D01*
X38262089Y-50662890D01*
X38318943Y-50640878D01*
X38387610Y-50633133D01*
X38456274Y-50640880D01*
G37*
G36*
X39712200Y-50797264D02*
G01*
X39378534Y-50797264D01*
X39707987Y-50287560D01*
X39712200Y-50287560D01*
X39712200Y-50797264D01*
G37*
G36*
X43656541Y-51561837D02*
G01*
X33321462Y-51561837D01*
X33321462Y-50615547D01*
X33488129Y-50615547D01*
X33495080Y-50733117D01*
X33515243Y-50840241D01*
X33547938Y-50938314D01*
X33593612Y-51030921D01*
X33649132Y-51112667D01*
X33714725Y-51184603D01*
X33789870Y-51246615D01*
X33874197Y-51298588D01*
X33968707Y-51340674D01*
X34068000Y-51370559D01*
X34174656Y-51388890D01*
X34289734Y-51395170D01*
X34452154Y-51386733D01*
X34610761Y-51361557D01*
X34764780Y-51317529D01*
X34913011Y-51252288D01*
X34913011Y-50474863D01*
X34331774Y-50474863D01*
X34331774Y-50779678D01*
X34598213Y-50779678D01*
X34598213Y-51017907D01*
X34547674Y-51041091D01*
X34474382Y-51066542D01*
X34392770Y-51083962D01*
X34289734Y-51090355D01*
X34188302Y-51081230D01*
X34099866Y-51055001D01*
X34020485Y-51012273D01*
X33953961Y-50956083D01*
X33900492Y-50887254D01*
X33860630Y-50806148D01*
X33836486Y-50716675D01*
X33828115Y-50615547D01*
X33836422Y-50516122D01*
X33860630Y-50426045D01*
X33900560Y-50344026D01*
X33903648Y-50340041D01*
X35160490Y-50340041D01*
X35160490Y-51360000D01*
X35475289Y-51360000D01*
X36019065Y-51360000D01*
X36333863Y-51360000D01*
X36333863Y-50858355D01*
X36522266Y-50858355D01*
X36531427Y-50970261D01*
X36557895Y-51069747D01*
X36601589Y-51160034D01*
X36659653Y-51235985D01*
X36731960Y-51297967D01*
X36818105Y-51344795D01*
X36914180Y-51373488D01*
X37023819Y-51383447D01*
X37075625Y-51379765D01*
X37125577Y-51368792D01*
X37215794Y-51331331D01*
X37287143Y-51280132D01*
X37336511Y-51224811D01*
X37340724Y-51224811D01*
X37340724Y-51360000D01*
X37630243Y-51360000D01*
X37630243Y-50875025D01*
X37833576Y-50875025D01*
X37838547Y-50950760D01*
X37852996Y-51019826D01*
X37876532Y-51083211D01*
X37927602Y-51169971D01*
X37994043Y-51243221D01*
X38074427Y-51302169D01*
X38169348Y-51346810D01*
X38273065Y-51374081D01*
X38387610Y-51383447D01*
X38500462Y-51374165D01*
X38604772Y-51346902D01*
X38700618Y-51302213D01*
X38781085Y-51243404D01*
X38847581Y-51170234D01*
X38898596Y-51083578D01*
X38922184Y-51020248D01*
X38936663Y-50951244D01*
X38941644Y-50875574D01*
X38934860Y-50797447D01*
X39063735Y-50797447D01*
X39063735Y-51061046D01*
X39712200Y-51061046D01*
X39712200Y-51360000D01*
X40014359Y-51360000D01*
X40014359Y-51061046D01*
X40205326Y-51061046D01*
X40205326Y-50797264D01*
X40014359Y-50797264D01*
X40014359Y-49876957D01*
X40881635Y-49876957D01*
X41475511Y-51360000D01*
X41737828Y-51360000D01*
X41885830Y-51001787D01*
X42421739Y-51001787D01*
X42452484Y-51098122D01*
X42494503Y-51176895D01*
X42547348Y-51240857D01*
X42611607Y-51291856D01*
X42711141Y-51341789D01*
X42824533Y-51372667D01*
X42954799Y-51383447D01*
X43061932Y-51376523D01*
X43161428Y-51356244D01*
X43253842Y-51321338D01*
X43331421Y-51273354D01*
X43396280Y-51210967D01*
X43446826Y-51133953D01*
X43470253Y-51076557D01*
X43484804Y-51011967D01*
X43489874Y-50938864D01*
X43485097Y-50875097D01*
X43471006Y-50815216D01*
X43447743Y-50759294D01*
X43416417Y-50710344D01*
X43377004Y-50668026D01*
X43329314Y-50632766D01*
X43274844Y-50607385D01*
X43210796Y-50592924D01*
X43210796Y-50586605D01*
X43288860Y-50561907D01*
X43350863Y-50524183D01*
X43399656Y-50473306D01*
X43435293Y-50411664D01*
X43457104Y-50341646D01*
X43464686Y-50261181D01*
X43459808Y-50190768D01*
X43445920Y-50129680D01*
X43423745Y-50076442D01*
X43375679Y-50005206D01*
X43313652Y-49947390D01*
X43239778Y-49903181D01*
X43153093Y-49871828D01*
X43060440Y-49853756D01*
X42963133Y-49847648D01*
X42870197Y-49852690D01*
X42783706Y-49867431D01*
X42701993Y-49892968D01*
X42629467Y-49928889D01*
X42565258Y-49976708D01*
X42509849Y-50038157D01*
X42466628Y-50111216D01*
X42434378Y-50202014D01*
X42780592Y-50273363D01*
X42803569Y-50219569D01*
X42843515Y-50174811D01*
X42896846Y-50145271D01*
X42965240Y-50134877D01*
X43015419Y-50140026D01*
X43058650Y-50154827D01*
X43096398Y-50179116D01*
X43126465Y-50211621D01*
X43144001Y-50248319D01*
X43149979Y-50290765D01*
X43144312Y-50340189D01*
X43129005Y-50376220D01*
X43104639Y-50405144D01*
X43073409Y-50426778D01*
X43037341Y-50441624D01*
X42996747Y-50450958D01*
X42910743Y-50457278D01*
X42807886Y-50457278D01*
X42807886Y-50732784D01*
X42881342Y-50732784D01*
X42986306Y-50735990D01*
X43037044Y-50742728D01*
X43080736Y-50755956D01*
X43118907Y-50777327D01*
X43148880Y-50807431D01*
X43167940Y-50846791D01*
X43175167Y-50905067D01*
X43169353Y-50959131D01*
X43152803Y-51004349D01*
X43125799Y-51042636D01*
X43089418Y-51071087D01*
X43040100Y-51089429D01*
X42973666Y-51096217D01*
X42907993Y-51090328D01*
X42858533Y-51074429D01*
X42821534Y-51050055D01*
X42779505Y-50996810D01*
X42753298Y-50924118D01*
X42421739Y-51001787D01*
X41885830Y-51001787D01*
X42350572Y-49876957D01*
X42000145Y-49876957D01*
X41626636Y-50848921D01*
X41622423Y-50848921D01*
X41255143Y-49876957D01*
X40881635Y-49876957D01*
X40014359Y-49876957D01*
X39670160Y-49876957D01*
X39063856Y-50797264D01*
X39063735Y-50797447D01*
X38934860Y-50797447D01*
X38933130Y-50777521D01*
X38908030Y-50686439D01*
X38867282Y-50603001D01*
X38813600Y-50532841D01*
X38746955Y-50475161D01*
X38666688Y-50430442D01*
X38577267Y-50402467D01*
X38475812Y-50392798D01*
X38423330Y-50397011D01*
X38372955Y-50407544D01*
X38721276Y-49876957D01*
X38337235Y-49876957D01*
X38011995Y-50383272D01*
X37943760Y-50493182D01*
X37887065Y-50605106D01*
X37848230Y-50729670D01*
X37837395Y-50797405D01*
X37834085Y-50864675D01*
X37833576Y-50875025D01*
X37630243Y-50875025D01*
X37630243Y-49774467D01*
X37315536Y-49774467D01*
X37315536Y-50450134D01*
X37311323Y-50450134D01*
X37271343Y-50406031D01*
X37225095Y-50371855D01*
X37171739Y-50346911D01*
X37084340Y-50324337D01*
X36988190Y-50316594D01*
X36916524Y-50321807D01*
X36851808Y-50336925D01*
X36792918Y-50361565D01*
X36713387Y-50414201D01*
X36647105Y-50481916D01*
X36594481Y-50562024D01*
X36554781Y-50654474D01*
X36530471Y-50753602D01*
X36522919Y-50850020D01*
X36522266Y-50858355D01*
X36333863Y-50858355D01*
X36333863Y-50340041D01*
X36019065Y-50340041D01*
X36019065Y-51360000D01*
X35475289Y-51360000D01*
X35475289Y-50934101D01*
X35483624Y-50795615D01*
X35497427Y-50735966D01*
X35520352Y-50687629D01*
X35554328Y-50647850D01*
X35601226Y-50617288D01*
X35659038Y-50599148D01*
X35743925Y-50592100D01*
X35812069Y-50597595D01*
X35878198Y-50614082D01*
X35878198Y-50322456D01*
X35827823Y-50317785D01*
X35773326Y-50316594D01*
X35704731Y-50322261D01*
X35647357Y-50338216D01*
X35599120Y-50363580D01*
X35536449Y-50420076D01*
X35479502Y-50504447D01*
X35475289Y-50504447D01*
X35475289Y-50340041D01*
X35160490Y-50340041D01*
X33903648Y-50340041D01*
X33953961Y-50275103D01*
X34020495Y-50218861D01*
X34099866Y-50176185D01*
X34188307Y-50149888D01*
X34289734Y-50140739D01*
X34409561Y-50150437D01*
X34499569Y-50176460D01*
X34578834Y-50220138D01*
X34650694Y-50281331D01*
X34881595Y-50028540D01*
X34867940Y-50017641D01*
X35993877Y-50017641D01*
X35999881Y-50065568D01*
X36017496Y-50107911D01*
X36047367Y-50146143D01*
X36085754Y-50175843D01*
X36128283Y-50193379D01*
X36176418Y-50199357D01*
X36224612Y-50193374D01*
X36267137Y-50175835D01*
X36305470Y-50146143D01*
X36335396Y-50107904D01*
X36353039Y-50065561D01*
X36359051Y-50017641D01*
X36353037Y-49969723D01*
X36335392Y-49927412D01*
X36305470Y-49889230D01*
X36267131Y-49859483D01*
X36224606Y-49841916D01*
X36176418Y-49835924D01*
X36128289Y-49841912D01*
X36085761Y-49859475D01*
X36047367Y-49889230D01*
X36017499Y-49927406D01*
X35999883Y-49969717D01*
X35993877Y-50017641D01*
X34867940Y-50017641D01*
X34801863Y-49964899D01*
X34714414Y-49915345D01*
X34618180Y-49879338D01*
X34517276Y-49855633D01*
X34408099Y-49840971D01*
X34289734Y-49835924D01*
X34174656Y-49842204D01*
X34068000Y-49860536D01*
X33968707Y-49890421D01*
X33874203Y-49932514D01*
X33789876Y-49984516D01*
X33714725Y-50046584D01*
X33649136Y-50118463D01*
X33593615Y-50200178D01*
X33547938Y-50292780D01*
X33515243Y-50390854D01*
X33495080Y-50497977D01*
X33488129Y-50615547D01*
X33321462Y-50615547D01*
X33321462Y-49607800D01*
X43656541Y-49607800D01*
X43656541Y-51561837D01*
G37*
G36*
X183329433Y-40014947D02*
G01*
X183437470Y-40027947D01*
X183540337Y-40052683D01*
X183634847Y-40092458D01*
X183711795Y-40147815D01*
X183750132Y-40194853D01*
X183773665Y-40252538D01*
X183782015Y-40324036D01*
X183773563Y-40397387D01*
X183749945Y-40455435D01*
X183711795Y-40501723D01*
X183634957Y-40555929D01*
X183540337Y-40595390D01*
X183437471Y-40620156D01*
X183329433Y-40633248D01*
X183141122Y-40640209D01*
X182952810Y-40633248D01*
X182844789Y-40620153D01*
X182742029Y-40595390D01*
X182647324Y-40555917D01*
X182570570Y-40501723D01*
X182532348Y-40455426D01*
X182508693Y-40397377D01*
X182500228Y-40324036D01*
X182508590Y-40252547D01*
X182532161Y-40194862D01*
X182570570Y-40147815D01*
X182647435Y-40092471D01*
X182742029Y-40052683D01*
X182844790Y-40027950D01*
X182952810Y-40014947D01*
X183141122Y-40007864D01*
X183329433Y-40014947D01*
G37*
G36*
X184402841Y-50351265D02*
G01*
X181895034Y-50351265D01*
X181895034Y-49325973D01*
X182156334Y-49325973D01*
X183423588Y-49325973D01*
X183545099Y-49330247D01*
X183609024Y-49338401D01*
X183666488Y-49353939D01*
X183718044Y-49379270D01*
X183760033Y-49415488D01*
X183787513Y-49463639D01*
X183797646Y-49532969D01*
X183785220Y-49601512D01*
X183747332Y-49663150D01*
X183690989Y-49708384D01*
X183624112Y-49728852D01*
X183722053Y-50129043D01*
X183837508Y-50096169D01*
X183931823Y-50049933D01*
X184008401Y-49991078D01*
X184069611Y-49919117D01*
X184129960Y-49806149D01*
X184167448Y-49675101D01*
X184180619Y-49521856D01*
X184173019Y-49388148D01*
X184152238Y-49281071D01*
X184120658Y-49195914D01*
X184075053Y-49117376D01*
X184022156Y-49054100D01*
X183961778Y-49004183D01*
X183856634Y-48948364D01*
X183734510Y-48913325D01*
X183604922Y-48895532D01*
X183469628Y-48889511D01*
X182156334Y-48889511D01*
X182156334Y-49325973D01*
X181895034Y-49325973D01*
X181895034Y-47280561D01*
X182156334Y-47280561D01*
X183348850Y-47280561D01*
X183438114Y-47288094D01*
X183518477Y-47309993D01*
X183591598Y-47345605D01*
X183653299Y-47392547D01*
X183703866Y-47450424D01*
X183742203Y-47518454D01*
X183766024Y-47593783D01*
X183774199Y-47677944D01*
X183766060Y-47762206D01*
X183742203Y-47838778D01*
X183703788Y-47907959D01*
X183653299Y-47966151D01*
X183591611Y-48013024D01*
X183518477Y-48048705D01*
X183438119Y-48070512D01*
X183348850Y-48078014D01*
X182156334Y-48078014D01*
X182156334Y-48514476D01*
X183369244Y-48514476D01*
X183540134Y-48500830D01*
X183692744Y-48461353D01*
X183787625Y-48419744D01*
X183872782Y-48367124D01*
X183949199Y-48303206D01*
X184015412Y-48228822D01*
X184072111Y-48142126D01*
X184119314Y-48041622D01*
X184152448Y-47935463D01*
X184173303Y-47814956D01*
X184180619Y-47677944D01*
X184173336Y-47542764D01*
X184152512Y-47423102D01*
X184119314Y-47316953D01*
X184072111Y-47216450D01*
X184015412Y-47129753D01*
X183949199Y-47055369D01*
X183872778Y-46991462D01*
X183787621Y-46938883D01*
X183692744Y-46897344D01*
X183540128Y-46857776D01*
X183369244Y-46844099D01*
X182156334Y-46844099D01*
X182156334Y-47280561D01*
X181895034Y-47280561D01*
X181895034Y-45988150D01*
X182156334Y-45988150D01*
X182156334Y-46424612D01*
X184133725Y-46424612D01*
X184133725Y-45179462D01*
X183727304Y-45179462D01*
X183727304Y-45988150D01*
X182156334Y-45988150D01*
X181895034Y-45988150D01*
X181895034Y-44099542D01*
X182156334Y-44099542D01*
X182896512Y-44544431D01*
X182156334Y-44964040D01*
X182156334Y-45506870D01*
X183290232Y-44762662D01*
X184133725Y-44762662D01*
X184133725Y-44326078D01*
X183290232Y-44326078D01*
X182156334Y-43581870D01*
X182156334Y-44099542D01*
X181895034Y-44099542D01*
X181895034Y-41947397D01*
X182117256Y-41947397D01*
X182126888Y-42089480D01*
X182154747Y-42217407D01*
X182202228Y-42335099D01*
X182267221Y-42434295D01*
X182350894Y-42517004D01*
X182454799Y-42582550D01*
X182574295Y-42625770D01*
X182721268Y-42646908D01*
X182752043Y-42227177D01*
X182683794Y-42214864D01*
X182624692Y-42190173D01*
X182573013Y-42153049D01*
X182533383Y-42104795D01*
X182508942Y-42044860D01*
X182500228Y-41969745D01*
X182514810Y-41877528D01*
X182557748Y-41799141D01*
X182600581Y-41758947D01*
X182652496Y-41734819D01*
X182716383Y-41726357D01*
X182800594Y-41741056D01*
X182873554Y-41785097D01*
X182994209Y-41902700D01*
X183687493Y-42672065D01*
X184133725Y-42672065D01*
X184133725Y-41289895D01*
X183766383Y-41289895D01*
X183766383Y-42168436D01*
X183247489Y-41566866D01*
X183143808Y-41463429D01*
X183088079Y-41419013D01*
X183027427Y-41380875D01*
X182961636Y-41350027D01*
X182887231Y-41326287D01*
X182807492Y-41311771D01*
X182714674Y-41306625D01*
X182571973Y-41319473D01*
X182453822Y-41355596D01*
X182350287Y-41414584D01*
X182267343Y-41491273D01*
X182202637Y-41584726D01*
X182155113Y-41695582D01*
X182126916Y-41815977D01*
X182117256Y-41947397D01*
X181895034Y-41947397D01*
X181895034Y-40324036D01*
X182117256Y-40324036D01*
X182128684Y-40468814D01*
X182160654Y-40588535D01*
X182211045Y-40687836D01*
X182279778Y-40776497D01*
X182360094Y-40851236D01*
X182452967Y-40913028D01*
X182607916Y-40982410D01*
X182783062Y-41027822D01*
X182964507Y-41052001D01*
X183141122Y-41059940D01*
X183317736Y-41052001D01*
X183499182Y-41027822D01*
X183674327Y-40982410D01*
X183829276Y-40913028D01*
X183922156Y-40851241D01*
X184002515Y-40776502D01*
X184071320Y-40687836D01*
X184121642Y-40588543D01*
X184153573Y-40468822D01*
X184164988Y-40324036D01*
X184153571Y-40179252D01*
X184121638Y-40059575D01*
X184071320Y-39960359D01*
X184002507Y-39871617D01*
X183922148Y-39796839D01*
X183829276Y-39735045D01*
X183674325Y-39665692D01*
X183499182Y-39620373D01*
X183317734Y-39596102D01*
X183141122Y-39588133D01*
X182964510Y-39596102D01*
X182783062Y-39620373D01*
X182607918Y-39665692D01*
X182452967Y-39735045D01*
X182360103Y-39796844D01*
X182279786Y-39871622D01*
X182211045Y-39960359D01*
X182160659Y-40059583D01*
X182128686Y-40179260D01*
X182117256Y-40324036D01*
X181895034Y-40324036D01*
X181895034Y-38633510D01*
X182117256Y-38633510D01*
X182126888Y-38775593D01*
X182154747Y-38903520D01*
X182202228Y-39021212D01*
X182267221Y-39120408D01*
X182350894Y-39203117D01*
X182454799Y-39268663D01*
X182574295Y-39311883D01*
X182721268Y-39333021D01*
X182752043Y-38913290D01*
X182683794Y-38900977D01*
X182624692Y-38876286D01*
X182573013Y-38839162D01*
X182533383Y-38790908D01*
X182508942Y-38730973D01*
X182500228Y-38655858D01*
X182514810Y-38563641D01*
X182557748Y-38485254D01*
X182600581Y-38445060D01*
X182652496Y-38420932D01*
X182716383Y-38412470D01*
X182800594Y-38427169D01*
X182873554Y-38471210D01*
X182994209Y-38588813D01*
X183687493Y-39358178D01*
X184133725Y-39358178D01*
X184133725Y-37976008D01*
X183766383Y-37976008D01*
X183766383Y-38854549D01*
X183247489Y-38252979D01*
X183143808Y-38149542D01*
X183088079Y-38105126D01*
X183027427Y-38066988D01*
X182961636Y-38036140D01*
X182887231Y-38012400D01*
X182807492Y-37997884D01*
X182714674Y-37992739D01*
X182571973Y-38005586D01*
X182453822Y-38041709D01*
X182350287Y-38100698D01*
X182267343Y-38177386D01*
X182202637Y-38270839D01*
X182155113Y-38381695D01*
X182126916Y-38502090D01*
X182117256Y-38633510D01*
X181895034Y-38633510D01*
X181895034Y-36391849D01*
X182156334Y-36391849D01*
X182156334Y-37589371D01*
X183245169Y-37611720D01*
X183192046Y-37408876D01*
X183177265Y-37303933D01*
X183172385Y-37200415D01*
X183186429Y-37038237D01*
X183206690Y-36960158D01*
X183238330Y-36891325D01*
X183282581Y-36831744D01*
X183339325Y-36784958D01*
X183408340Y-36755170D01*
X183500403Y-36744291D01*
X183583187Y-36753575D01*
X183653279Y-36780191D01*
X183713505Y-36824036D01*
X183759524Y-36882006D01*
X183787694Y-36952172D01*
X183797646Y-37038115D01*
X183790002Y-37108363D01*
X183768056Y-37168262D01*
X183731945Y-37220076D01*
X183684170Y-37261898D01*
X183627401Y-37291678D01*
X183559754Y-37309591D01*
X183660504Y-37748862D01*
X183784617Y-37707718D01*
X183887259Y-37654123D01*
X183971566Y-37588698D01*
X184039813Y-37511092D01*
X184093213Y-37421888D01*
X184132207Y-37321633D01*
X184156506Y-37208465D01*
X184164988Y-37080125D01*
X184152840Y-36921874D01*
X184117604Y-36779340D01*
X184058630Y-36649085D01*
X183979363Y-36540104D01*
X183879153Y-36450738D01*
X183757346Y-36382079D01*
X183668124Y-36350817D01*
X183569039Y-36331416D01*
X183458515Y-36324682D01*
X183312737Y-36337724D01*
X183186306Y-36375118D01*
X183073212Y-36436065D01*
X182979677Y-36516413D01*
X182905128Y-36615109D01*
X182849740Y-36733178D01*
X182816559Y-36863276D01*
X182805043Y-37010150D01*
X182811357Y-37115990D01*
X182827270Y-37186493D01*
X182523676Y-37178066D01*
X182523676Y-36391849D01*
X182156334Y-36391849D01*
X181895034Y-36391849D01*
X181895034Y-36102460D01*
X184402841Y-36102460D01*
X184402841Y-50351265D01*
G37*
D13*
X163228544Y-159535485D02*
X162228544Y-159535485D01*
X162228544Y-159535485D02*
X162228544Y-159297390D01*
X162228544Y-159297390D02*
X162276163Y-159154533D01*
X162276163Y-159154533D02*
X162371401Y-159059295D01*
X162371401Y-159059295D02*
X162466639Y-159011676D01*
X162466639Y-159011676D02*
X162657115Y-158964057D01*
X162657115Y-158964057D02*
X162799972Y-158964057D01*
X162799972Y-158964057D02*
X162990448Y-159011676D01*
X162990448Y-159011676D02*
X163085686Y-159059295D01*
X163085686Y-159059295D02*
X163180925Y-159154533D01*
X163180925Y-159154533D02*
X163228544Y-159297390D01*
X163228544Y-159297390D02*
X163228544Y-159535485D01*
X162561877Y-158106914D02*
X163228544Y-158106914D01*
X162180925Y-158345009D02*
X162895210Y-158583104D01*
X162895210Y-158583104D02*
X162895210Y-157964057D01*
X162228544Y-157678342D02*
X162228544Y-157011676D01*
X162228544Y-157011676D02*
X163228544Y-157440247D01*
X144178544Y-121435485D02*
X143178544Y-121435485D01*
X143178544Y-121435485D02*
X143178544Y-121197390D01*
X143178544Y-121197390D02*
X143226163Y-121054533D01*
X143226163Y-121054533D02*
X143321401Y-120959295D01*
X143321401Y-120959295D02*
X143416639Y-120911676D01*
X143416639Y-120911676D02*
X143607115Y-120864057D01*
X143607115Y-120864057D02*
X143749972Y-120864057D01*
X143749972Y-120864057D02*
X143940448Y-120911676D01*
X143940448Y-120911676D02*
X144035686Y-120959295D01*
X144035686Y-120959295D02*
X144130925Y-121054533D01*
X144130925Y-121054533D02*
X144178544Y-121197390D01*
X144178544Y-121197390D02*
X144178544Y-121435485D01*
X143178544Y-120530723D02*
X143178544Y-119911676D01*
X143178544Y-119911676D02*
X143559496Y-120245009D01*
X143559496Y-120245009D02*
X143559496Y-120102152D01*
X143559496Y-120102152D02*
X143607115Y-120006914D01*
X143607115Y-120006914D02*
X143654734Y-119959295D01*
X143654734Y-119959295D02*
X143749972Y-119911676D01*
X143749972Y-119911676D02*
X143988067Y-119911676D01*
X143988067Y-119911676D02*
X144083305Y-119959295D01*
X144083305Y-119959295D02*
X144130925Y-120006914D01*
X144130925Y-120006914D02*
X144178544Y-120102152D01*
X144178544Y-120102152D02*
X144178544Y-120387866D01*
X144178544Y-120387866D02*
X144130925Y-120483104D01*
X144130925Y-120483104D02*
X144083305Y-120530723D01*
X143178544Y-119292628D02*
X143178544Y-119197390D01*
X143178544Y-119197390D02*
X143226163Y-119102152D01*
X143226163Y-119102152D02*
X143273782Y-119054533D01*
X143273782Y-119054533D02*
X143369020Y-119006914D01*
X143369020Y-119006914D02*
X143559496Y-118959295D01*
X143559496Y-118959295D02*
X143797591Y-118959295D01*
X143797591Y-118959295D02*
X143988067Y-119006914D01*
X143988067Y-119006914D02*
X144083305Y-119054533D01*
X144083305Y-119054533D02*
X144130925Y-119102152D01*
X144130925Y-119102152D02*
X144178544Y-119197390D01*
X144178544Y-119197390D02*
X144178544Y-119292628D01*
X144178544Y-119292628D02*
X144130925Y-119387866D01*
X144130925Y-119387866D02*
X144083305Y-119435485D01*
X144083305Y-119435485D02*
X143988067Y-119483104D01*
X143988067Y-119483104D02*
X143797591Y-119530723D01*
X143797591Y-119530723D02*
X143559496Y-119530723D01*
X143559496Y-119530723D02*
X143369020Y-119483104D01*
X143369020Y-119483104D02*
X143273782Y-119435485D01*
X143273782Y-119435485D02*
X143226163Y-119387866D01*
X143226163Y-119387866D02*
X143178544Y-119292628D01*
X87028544Y-63809294D02*
X86028544Y-63809294D01*
X86028544Y-63809294D02*
X86028544Y-63571199D01*
X86028544Y-63571199D02*
X86076163Y-63428342D01*
X86076163Y-63428342D02*
X86171401Y-63333104D01*
X86171401Y-63333104D02*
X86266639Y-63285485D01*
X86266639Y-63285485D02*
X86457115Y-63237866D01*
X86457115Y-63237866D02*
X86599972Y-63237866D01*
X86599972Y-63237866D02*
X86790448Y-63285485D01*
X86790448Y-63285485D02*
X86885686Y-63333104D01*
X86885686Y-63333104D02*
X86980925Y-63428342D01*
X86980925Y-63428342D02*
X87028544Y-63571199D01*
X87028544Y-63571199D02*
X87028544Y-63809294D01*
X86028544Y-62904532D02*
X86028544Y-62285485D01*
X86028544Y-62285485D02*
X86409496Y-62618818D01*
X86409496Y-62618818D02*
X86409496Y-62475961D01*
X86409496Y-62475961D02*
X86457115Y-62380723D01*
X86457115Y-62380723D02*
X86504734Y-62333104D01*
X86504734Y-62333104D02*
X86599972Y-62285485D01*
X86599972Y-62285485D02*
X86838067Y-62285485D01*
X86838067Y-62285485D02*
X86933305Y-62333104D01*
X86933305Y-62333104D02*
X86980925Y-62380723D01*
X86980925Y-62380723D02*
X87028544Y-62475961D01*
X87028544Y-62475961D02*
X87028544Y-62761675D01*
X87028544Y-62761675D02*
X86980925Y-62856913D01*
X86980925Y-62856913D02*
X86933305Y-62904532D01*
X67978544Y-83335485D02*
X66978544Y-83335485D01*
X66978544Y-83335485D02*
X66978544Y-83097390D01*
X66978544Y-83097390D02*
X67026163Y-82954533D01*
X67026163Y-82954533D02*
X67121401Y-82859295D01*
X67121401Y-82859295D02*
X67216639Y-82811676D01*
X67216639Y-82811676D02*
X67407115Y-82764057D01*
X67407115Y-82764057D02*
X67549972Y-82764057D01*
X67549972Y-82764057D02*
X67740448Y-82811676D01*
X67740448Y-82811676D02*
X67835686Y-82859295D01*
X67835686Y-82859295D02*
X67930925Y-82954533D01*
X67930925Y-82954533D02*
X67978544Y-83097390D01*
X67978544Y-83097390D02*
X67978544Y-83335485D01*
X67978544Y-81811676D02*
X67978544Y-82383104D01*
X67978544Y-82097390D02*
X66978544Y-82097390D01*
X66978544Y-82097390D02*
X67121401Y-82192628D01*
X67121401Y-82192628D02*
X67216639Y-82287866D01*
X67216639Y-82287866D02*
X67264258Y-82383104D01*
X66978544Y-81192628D02*
X66978544Y-81097390D01*
X66978544Y-81097390D02*
X67026163Y-81002152D01*
X67026163Y-81002152D02*
X67073782Y-80954533D01*
X67073782Y-80954533D02*
X67169020Y-80906914D01*
X67169020Y-80906914D02*
X67359496Y-80859295D01*
X67359496Y-80859295D02*
X67597591Y-80859295D01*
X67597591Y-80859295D02*
X67788067Y-80906914D01*
X67788067Y-80906914D02*
X67883305Y-80954533D01*
X67883305Y-80954533D02*
X67930925Y-81002152D01*
X67930925Y-81002152D02*
X67978544Y-81097390D01*
X67978544Y-81097390D02*
X67978544Y-81192628D01*
X67978544Y-81192628D02*
X67930925Y-81287866D01*
X67930925Y-81287866D02*
X67883305Y-81335485D01*
X67883305Y-81335485D02*
X67788067Y-81383104D01*
X67788067Y-81383104D02*
X67597591Y-81430723D01*
X67597591Y-81430723D02*
X67359496Y-81430723D01*
X67359496Y-81430723D02*
X67169020Y-81383104D01*
X67169020Y-81383104D02*
X67073782Y-81335485D01*
X67073782Y-81335485D02*
X67026163Y-81287866D01*
X67026163Y-81287866D02*
X66978544Y-81192628D01*
X182278544Y-63809294D02*
X181278544Y-63809294D01*
X181278544Y-63809294D02*
X181278544Y-63571199D01*
X181278544Y-63571199D02*
X181326163Y-63428342D01*
X181326163Y-63428342D02*
X181421401Y-63333104D01*
X181421401Y-63333104D02*
X181516639Y-63285485D01*
X181516639Y-63285485D02*
X181707115Y-63237866D01*
X181707115Y-63237866D02*
X181849972Y-63237866D01*
X181849972Y-63237866D02*
X182040448Y-63285485D01*
X182040448Y-63285485D02*
X182135686Y-63333104D01*
X182135686Y-63333104D02*
X182230925Y-63428342D01*
X182230925Y-63428342D02*
X182278544Y-63571199D01*
X182278544Y-63571199D02*
X182278544Y-63809294D01*
X181707115Y-62666437D02*
X181659496Y-62761675D01*
X181659496Y-62761675D02*
X181611877Y-62809294D01*
X181611877Y-62809294D02*
X181516639Y-62856913D01*
X181516639Y-62856913D02*
X181469020Y-62856913D01*
X181469020Y-62856913D02*
X181373782Y-62809294D01*
X181373782Y-62809294D02*
X181326163Y-62761675D01*
X181326163Y-62761675D02*
X181278544Y-62666437D01*
X181278544Y-62666437D02*
X181278544Y-62475961D01*
X181278544Y-62475961D02*
X181326163Y-62380723D01*
X181326163Y-62380723D02*
X181373782Y-62333104D01*
X181373782Y-62333104D02*
X181469020Y-62285485D01*
X181469020Y-62285485D02*
X181516639Y-62285485D01*
X181516639Y-62285485D02*
X181611877Y-62333104D01*
X181611877Y-62333104D02*
X181659496Y-62380723D01*
X181659496Y-62380723D02*
X181707115Y-62475961D01*
X181707115Y-62475961D02*
X181707115Y-62666437D01*
X181707115Y-62666437D02*
X181754734Y-62761675D01*
X181754734Y-62761675D02*
X181802353Y-62809294D01*
X181802353Y-62809294D02*
X181897591Y-62856913D01*
X181897591Y-62856913D02*
X182088067Y-62856913D01*
X182088067Y-62856913D02*
X182183305Y-62809294D01*
X182183305Y-62809294D02*
X182230925Y-62761675D01*
X182230925Y-62761675D02*
X182278544Y-62666437D01*
X182278544Y-62666437D02*
X182278544Y-62475961D01*
X182278544Y-62475961D02*
X182230925Y-62380723D01*
X182230925Y-62380723D02*
X182183305Y-62333104D01*
X182183305Y-62333104D02*
X182088067Y-62285485D01*
X182088067Y-62285485D02*
X181897591Y-62285485D01*
X181897591Y-62285485D02*
X181802353Y-62333104D01*
X181802353Y-62333104D02*
X181754734Y-62380723D01*
X181754734Y-62380723D02*
X181707115Y-62475961D01*
X106078544Y-121435485D02*
X105078544Y-121435485D01*
X105078544Y-121435485D02*
X105078544Y-121197390D01*
X105078544Y-121197390D02*
X105126163Y-121054533D01*
X105126163Y-121054533D02*
X105221401Y-120959295D01*
X105221401Y-120959295D02*
X105316639Y-120911676D01*
X105316639Y-120911676D02*
X105507115Y-120864057D01*
X105507115Y-120864057D02*
X105649972Y-120864057D01*
X105649972Y-120864057D02*
X105840448Y-120911676D01*
X105840448Y-120911676D02*
X105935686Y-120959295D01*
X105935686Y-120959295D02*
X106030925Y-121054533D01*
X106030925Y-121054533D02*
X106078544Y-121197390D01*
X106078544Y-121197390D02*
X106078544Y-121435485D01*
X105173782Y-120483104D02*
X105126163Y-120435485D01*
X105126163Y-120435485D02*
X105078544Y-120340247D01*
X105078544Y-120340247D02*
X105078544Y-120102152D01*
X105078544Y-120102152D02*
X105126163Y-120006914D01*
X105126163Y-120006914D02*
X105173782Y-119959295D01*
X105173782Y-119959295D02*
X105269020Y-119911676D01*
X105269020Y-119911676D02*
X105364258Y-119911676D01*
X105364258Y-119911676D02*
X105507115Y-119959295D01*
X105507115Y-119959295D02*
X106078544Y-120530723D01*
X106078544Y-120530723D02*
X106078544Y-119911676D01*
X105507115Y-119340247D02*
X105459496Y-119435485D01*
X105459496Y-119435485D02*
X105411877Y-119483104D01*
X105411877Y-119483104D02*
X105316639Y-119530723D01*
X105316639Y-119530723D02*
X105269020Y-119530723D01*
X105269020Y-119530723D02*
X105173782Y-119483104D01*
X105173782Y-119483104D02*
X105126163Y-119435485D01*
X105126163Y-119435485D02*
X105078544Y-119340247D01*
X105078544Y-119340247D02*
X105078544Y-119149771D01*
X105078544Y-119149771D02*
X105126163Y-119054533D01*
X105126163Y-119054533D02*
X105173782Y-119006914D01*
X105173782Y-119006914D02*
X105269020Y-118959295D01*
X105269020Y-118959295D02*
X105316639Y-118959295D01*
X105316639Y-118959295D02*
X105411877Y-119006914D01*
X105411877Y-119006914D02*
X105459496Y-119054533D01*
X105459496Y-119054533D02*
X105507115Y-119149771D01*
X105507115Y-119149771D02*
X105507115Y-119340247D01*
X105507115Y-119340247D02*
X105554734Y-119435485D01*
X105554734Y-119435485D02*
X105602353Y-119483104D01*
X105602353Y-119483104D02*
X105697591Y-119530723D01*
X105697591Y-119530723D02*
X105888067Y-119530723D01*
X105888067Y-119530723D02*
X105983305Y-119483104D01*
X105983305Y-119483104D02*
X106030925Y-119435485D01*
X106030925Y-119435485D02*
X106078544Y-119340247D01*
X106078544Y-119340247D02*
X106078544Y-119149771D01*
X106078544Y-119149771D02*
X106030925Y-119054533D01*
X106030925Y-119054533D02*
X105983305Y-119006914D01*
X105983305Y-119006914D02*
X105888067Y-118959295D01*
X105888067Y-118959295D02*
X105697591Y-118959295D01*
X105697591Y-118959295D02*
X105602353Y-119006914D01*
X105602353Y-119006914D02*
X105554734Y-119054533D01*
X105554734Y-119054533D02*
X105507115Y-119149771D01*
X156916972Y-45634048D02*
X156955067Y-45519762D01*
X156955067Y-45519762D02*
X156993163Y-45481667D01*
X156993163Y-45481667D02*
X157069353Y-45443571D01*
X157069353Y-45443571D02*
X157183639Y-45443571D01*
X157183639Y-45443571D02*
X157259829Y-45481667D01*
X157259829Y-45481667D02*
X157297925Y-45519762D01*
X157297925Y-45519762D02*
X157336020Y-45595952D01*
X157336020Y-45595952D02*
X157336020Y-45900714D01*
X157336020Y-45900714D02*
X156536020Y-45900714D01*
X156536020Y-45900714D02*
X156536020Y-45634048D01*
X156536020Y-45634048D02*
X156574115Y-45557857D01*
X156574115Y-45557857D02*
X156612210Y-45519762D01*
X156612210Y-45519762D02*
X156688401Y-45481667D01*
X156688401Y-45481667D02*
X156764591Y-45481667D01*
X156764591Y-45481667D02*
X156840782Y-45519762D01*
X156840782Y-45519762D02*
X156878877Y-45557857D01*
X156878877Y-45557857D02*
X156916972Y-45634048D01*
X156916972Y-45634048D02*
X156916972Y-45900714D01*
X156802686Y-45215000D02*
X156802686Y-44910238D01*
X156536020Y-45100714D02*
X157221734Y-45100714D01*
X157221734Y-45100714D02*
X157297925Y-45062619D01*
X157297925Y-45062619D02*
X157336020Y-44986429D01*
X157336020Y-44986429D02*
X157336020Y-44910238D01*
X156802686Y-44643571D02*
X157336020Y-44643571D01*
X156878877Y-44643571D02*
X156840782Y-44605476D01*
X156840782Y-44605476D02*
X156802686Y-44529286D01*
X156802686Y-44529286D02*
X156802686Y-44415000D01*
X156802686Y-44415000D02*
X156840782Y-44338809D01*
X156840782Y-44338809D02*
X156916972Y-44300714D01*
X156916972Y-44300714D02*
X157336020Y-44300714D01*
X157412210Y-44110238D02*
X157412210Y-43500714D01*
X157336020Y-42853094D02*
X156955067Y-43119761D01*
X157336020Y-43310237D02*
X156536020Y-43310237D01*
X156536020Y-43310237D02*
X156536020Y-43005475D01*
X156536020Y-43005475D02*
X156574115Y-42929285D01*
X156574115Y-42929285D02*
X156612210Y-42891190D01*
X156612210Y-42891190D02*
X156688401Y-42853094D01*
X156688401Y-42853094D02*
X156802686Y-42853094D01*
X156802686Y-42853094D02*
X156878877Y-42891190D01*
X156878877Y-42891190D02*
X156916972Y-42929285D01*
X156916972Y-42929285D02*
X156955067Y-43005475D01*
X156955067Y-43005475D02*
X156955067Y-43310237D01*
X157336020Y-42395952D02*
X157297925Y-42472142D01*
X157297925Y-42472142D02*
X157259829Y-42510237D01*
X157259829Y-42510237D02*
X157183639Y-42548333D01*
X157183639Y-42548333D02*
X156955067Y-42548333D01*
X156955067Y-42548333D02*
X156878877Y-42510237D01*
X156878877Y-42510237D02*
X156840782Y-42472142D01*
X156840782Y-42472142D02*
X156802686Y-42395952D01*
X156802686Y-42395952D02*
X156802686Y-42281666D01*
X156802686Y-42281666D02*
X156840782Y-42205475D01*
X156840782Y-42205475D02*
X156878877Y-42167380D01*
X156878877Y-42167380D02*
X156955067Y-42129285D01*
X156955067Y-42129285D02*
X157183639Y-42129285D01*
X157183639Y-42129285D02*
X157259829Y-42167380D01*
X157259829Y-42167380D02*
X157297925Y-42205475D01*
X157297925Y-42205475D02*
X157336020Y-42281666D01*
X157336020Y-42281666D02*
X157336020Y-42395952D01*
X156802686Y-41862618D02*
X157336020Y-41710237D01*
X157336020Y-41710237D02*
X156955067Y-41557856D01*
X156955067Y-41557856D02*
X157336020Y-41405475D01*
X157336020Y-41405475D02*
X156802686Y-41253094D01*
X87028544Y-159535485D02*
X86028544Y-159535485D01*
X86028544Y-159535485D02*
X86028544Y-159297390D01*
X86028544Y-159297390D02*
X86076163Y-159154533D01*
X86076163Y-159154533D02*
X86171401Y-159059295D01*
X86171401Y-159059295D02*
X86266639Y-159011676D01*
X86266639Y-159011676D02*
X86457115Y-158964057D01*
X86457115Y-158964057D02*
X86599972Y-158964057D01*
X86599972Y-158964057D02*
X86790448Y-159011676D01*
X86790448Y-159011676D02*
X86885686Y-159059295D01*
X86885686Y-159059295D02*
X86980925Y-159154533D01*
X86980925Y-159154533D02*
X87028544Y-159297390D01*
X87028544Y-159297390D02*
X87028544Y-159535485D01*
X86361877Y-158106914D02*
X87028544Y-158106914D01*
X85980925Y-158345009D02*
X86695210Y-158583104D01*
X86695210Y-158583104D02*
X86695210Y-157964057D01*
X86028544Y-157678342D02*
X86028544Y-157059295D01*
X86028544Y-157059295D02*
X86409496Y-157392628D01*
X86409496Y-157392628D02*
X86409496Y-157249771D01*
X86409496Y-157249771D02*
X86457115Y-157154533D01*
X86457115Y-157154533D02*
X86504734Y-157106914D01*
X86504734Y-157106914D02*
X86599972Y-157059295D01*
X86599972Y-157059295D02*
X86838067Y-157059295D01*
X86838067Y-157059295D02*
X86933305Y-157106914D01*
X86933305Y-157106914D02*
X86980925Y-157154533D01*
X86980925Y-157154533D02*
X87028544Y-157249771D01*
X87028544Y-157249771D02*
X87028544Y-157535485D01*
X87028544Y-157535485D02*
X86980925Y-157630723D01*
X86980925Y-157630723D02*
X86933305Y-157678342D01*
X67978544Y-197635485D02*
X66978544Y-197635485D01*
X66978544Y-197635485D02*
X66978544Y-197397390D01*
X66978544Y-197397390D02*
X67026163Y-197254533D01*
X67026163Y-197254533D02*
X67121401Y-197159295D01*
X67121401Y-197159295D02*
X67216639Y-197111676D01*
X67216639Y-197111676D02*
X67407115Y-197064057D01*
X67407115Y-197064057D02*
X67549972Y-197064057D01*
X67549972Y-197064057D02*
X67740448Y-197111676D01*
X67740448Y-197111676D02*
X67835686Y-197159295D01*
X67835686Y-197159295D02*
X67930925Y-197254533D01*
X67930925Y-197254533D02*
X67978544Y-197397390D01*
X67978544Y-197397390D02*
X67978544Y-197635485D01*
X66978544Y-196159295D02*
X66978544Y-196635485D01*
X66978544Y-196635485D02*
X67454734Y-196683104D01*
X67454734Y-196683104D02*
X67407115Y-196635485D01*
X67407115Y-196635485D02*
X67359496Y-196540247D01*
X67359496Y-196540247D02*
X67359496Y-196302152D01*
X67359496Y-196302152D02*
X67407115Y-196206914D01*
X67407115Y-196206914D02*
X67454734Y-196159295D01*
X67454734Y-196159295D02*
X67549972Y-196111676D01*
X67549972Y-196111676D02*
X67788067Y-196111676D01*
X67788067Y-196111676D02*
X67883305Y-196159295D01*
X67883305Y-196159295D02*
X67930925Y-196206914D01*
X67930925Y-196206914D02*
X67978544Y-196302152D01*
X67978544Y-196302152D02*
X67978544Y-196540247D01*
X67978544Y-196540247D02*
X67930925Y-196635485D01*
X67930925Y-196635485D02*
X67883305Y-196683104D01*
X67407115Y-195540247D02*
X67359496Y-195635485D01*
X67359496Y-195635485D02*
X67311877Y-195683104D01*
X67311877Y-195683104D02*
X67216639Y-195730723D01*
X67216639Y-195730723D02*
X67169020Y-195730723D01*
X67169020Y-195730723D02*
X67073782Y-195683104D01*
X67073782Y-195683104D02*
X67026163Y-195635485D01*
X67026163Y-195635485D02*
X66978544Y-195540247D01*
X66978544Y-195540247D02*
X66978544Y-195349771D01*
X66978544Y-195349771D02*
X67026163Y-195254533D01*
X67026163Y-195254533D02*
X67073782Y-195206914D01*
X67073782Y-195206914D02*
X67169020Y-195159295D01*
X67169020Y-195159295D02*
X67216639Y-195159295D01*
X67216639Y-195159295D02*
X67311877Y-195206914D01*
X67311877Y-195206914D02*
X67359496Y-195254533D01*
X67359496Y-195254533D02*
X67407115Y-195349771D01*
X67407115Y-195349771D02*
X67407115Y-195540247D01*
X67407115Y-195540247D02*
X67454734Y-195635485D01*
X67454734Y-195635485D02*
X67502353Y-195683104D01*
X67502353Y-195683104D02*
X67597591Y-195730723D01*
X67597591Y-195730723D02*
X67788067Y-195730723D01*
X67788067Y-195730723D02*
X67883305Y-195683104D01*
X67883305Y-195683104D02*
X67930925Y-195635485D01*
X67930925Y-195635485D02*
X67978544Y-195540247D01*
X67978544Y-195540247D02*
X67978544Y-195349771D01*
X67978544Y-195349771D02*
X67930925Y-195254533D01*
X67930925Y-195254533D02*
X67883305Y-195206914D01*
X67883305Y-195206914D02*
X67788067Y-195159295D01*
X67788067Y-195159295D02*
X67597591Y-195159295D01*
X67597591Y-195159295D02*
X67502353Y-195206914D01*
X67502353Y-195206914D02*
X67454734Y-195254533D01*
X67454734Y-195254533D02*
X67407115Y-195349771D01*
X125128544Y-159535485D02*
X124128544Y-159535485D01*
X124128544Y-159535485D02*
X124128544Y-159297390D01*
X124128544Y-159297390D02*
X124176163Y-159154533D01*
X124176163Y-159154533D02*
X124271401Y-159059295D01*
X124271401Y-159059295D02*
X124366639Y-159011676D01*
X124366639Y-159011676D02*
X124557115Y-158964057D01*
X124557115Y-158964057D02*
X124699972Y-158964057D01*
X124699972Y-158964057D02*
X124890448Y-159011676D01*
X124890448Y-159011676D02*
X124985686Y-159059295D01*
X124985686Y-159059295D02*
X125080925Y-159154533D01*
X125080925Y-159154533D02*
X125128544Y-159297390D01*
X125128544Y-159297390D02*
X125128544Y-159535485D01*
X124461877Y-158106914D02*
X125128544Y-158106914D01*
X124080925Y-158345009D02*
X124795210Y-158583104D01*
X124795210Y-158583104D02*
X124795210Y-157964057D01*
X124128544Y-157106914D02*
X124128544Y-157583104D01*
X124128544Y-157583104D02*
X124604734Y-157630723D01*
X124604734Y-157630723D02*
X124557115Y-157583104D01*
X124557115Y-157583104D02*
X124509496Y-157487866D01*
X124509496Y-157487866D02*
X124509496Y-157249771D01*
X124509496Y-157249771D02*
X124557115Y-157154533D01*
X124557115Y-157154533D02*
X124604734Y-157106914D01*
X124604734Y-157106914D02*
X124699972Y-157059295D01*
X124699972Y-157059295D02*
X124938067Y-157059295D01*
X124938067Y-157059295D02*
X125033305Y-157106914D01*
X125033305Y-157106914D02*
X125080925Y-157154533D01*
X125080925Y-157154533D02*
X125128544Y-157249771D01*
X125128544Y-157249771D02*
X125128544Y-157487866D01*
X125128544Y-157487866D02*
X125080925Y-157583104D01*
X125080925Y-157583104D02*
X125033305Y-157630723D01*
X125128544Y-63809294D02*
X124128544Y-63809294D01*
X124128544Y-63809294D02*
X124128544Y-63571199D01*
X124128544Y-63571199D02*
X124176163Y-63428342D01*
X124176163Y-63428342D02*
X124271401Y-63333104D01*
X124271401Y-63333104D02*
X124366639Y-63285485D01*
X124366639Y-63285485D02*
X124557115Y-63237866D01*
X124557115Y-63237866D02*
X124699972Y-63237866D01*
X124699972Y-63237866D02*
X124890448Y-63285485D01*
X124890448Y-63285485D02*
X124985686Y-63333104D01*
X124985686Y-63333104D02*
X125080925Y-63428342D01*
X125080925Y-63428342D02*
X125128544Y-63571199D01*
X125128544Y-63571199D02*
X125128544Y-63809294D01*
X124128544Y-62333104D02*
X124128544Y-62809294D01*
X124128544Y-62809294D02*
X124604734Y-62856913D01*
X124604734Y-62856913D02*
X124557115Y-62809294D01*
X124557115Y-62809294D02*
X124509496Y-62714056D01*
X124509496Y-62714056D02*
X124509496Y-62475961D01*
X124509496Y-62475961D02*
X124557115Y-62380723D01*
X124557115Y-62380723D02*
X124604734Y-62333104D01*
X124604734Y-62333104D02*
X124699972Y-62285485D01*
X124699972Y-62285485D02*
X124938067Y-62285485D01*
X124938067Y-62285485D02*
X125033305Y-62333104D01*
X125033305Y-62333104D02*
X125080925Y-62380723D01*
X125080925Y-62380723D02*
X125128544Y-62475961D01*
X125128544Y-62475961D02*
X125128544Y-62714056D01*
X125128544Y-62714056D02*
X125080925Y-62809294D01*
X125080925Y-62809294D02*
X125033305Y-62856913D01*
X106078544Y-140485485D02*
X105078544Y-140485485D01*
X105078544Y-140485485D02*
X105078544Y-140247390D01*
X105078544Y-140247390D02*
X105126163Y-140104533D01*
X105126163Y-140104533D02*
X105221401Y-140009295D01*
X105221401Y-140009295D02*
X105316639Y-139961676D01*
X105316639Y-139961676D02*
X105507115Y-139914057D01*
X105507115Y-139914057D02*
X105649972Y-139914057D01*
X105649972Y-139914057D02*
X105840448Y-139961676D01*
X105840448Y-139961676D02*
X105935686Y-140009295D01*
X105935686Y-140009295D02*
X106030925Y-140104533D01*
X106030925Y-140104533D02*
X106078544Y-140247390D01*
X106078544Y-140247390D02*
X106078544Y-140485485D01*
X105078544Y-139580723D02*
X105078544Y-138961676D01*
X105078544Y-138961676D02*
X105459496Y-139295009D01*
X105459496Y-139295009D02*
X105459496Y-139152152D01*
X105459496Y-139152152D02*
X105507115Y-139056914D01*
X105507115Y-139056914D02*
X105554734Y-139009295D01*
X105554734Y-139009295D02*
X105649972Y-138961676D01*
X105649972Y-138961676D02*
X105888067Y-138961676D01*
X105888067Y-138961676D02*
X105983305Y-139009295D01*
X105983305Y-139009295D02*
X106030925Y-139056914D01*
X106030925Y-139056914D02*
X106078544Y-139152152D01*
X106078544Y-139152152D02*
X106078544Y-139437866D01*
X106078544Y-139437866D02*
X106030925Y-139533104D01*
X106030925Y-139533104D02*
X105983305Y-139580723D01*
X105078544Y-138104533D02*
X105078544Y-138295009D01*
X105078544Y-138295009D02*
X105126163Y-138390247D01*
X105126163Y-138390247D02*
X105173782Y-138437866D01*
X105173782Y-138437866D02*
X105316639Y-138533104D01*
X105316639Y-138533104D02*
X105507115Y-138580723D01*
X105507115Y-138580723D02*
X105888067Y-138580723D01*
X105888067Y-138580723D02*
X105983305Y-138533104D01*
X105983305Y-138533104D02*
X106030925Y-138485485D01*
X106030925Y-138485485D02*
X106078544Y-138390247D01*
X106078544Y-138390247D02*
X106078544Y-138199771D01*
X106078544Y-138199771D02*
X106030925Y-138104533D01*
X106030925Y-138104533D02*
X105983305Y-138056914D01*
X105983305Y-138056914D02*
X105888067Y-138009295D01*
X105888067Y-138009295D02*
X105649972Y-138009295D01*
X105649972Y-138009295D02*
X105554734Y-138056914D01*
X105554734Y-138056914D02*
X105507115Y-138104533D01*
X105507115Y-138104533D02*
X105459496Y-138199771D01*
X105459496Y-138199771D02*
X105459496Y-138390247D01*
X105459496Y-138390247D02*
X105507115Y-138485485D01*
X105507115Y-138485485D02*
X105554734Y-138533104D01*
X105554734Y-138533104D02*
X105649972Y-138580723D01*
X87028544Y-197635485D02*
X86028544Y-197635485D01*
X86028544Y-197635485D02*
X86028544Y-197397390D01*
X86028544Y-197397390D02*
X86076163Y-197254533D01*
X86076163Y-197254533D02*
X86171401Y-197159295D01*
X86171401Y-197159295D02*
X86266639Y-197111676D01*
X86266639Y-197111676D02*
X86457115Y-197064057D01*
X86457115Y-197064057D02*
X86599972Y-197064057D01*
X86599972Y-197064057D02*
X86790448Y-197111676D01*
X86790448Y-197111676D02*
X86885686Y-197159295D01*
X86885686Y-197159295D02*
X86980925Y-197254533D01*
X86980925Y-197254533D02*
X87028544Y-197397390D01*
X87028544Y-197397390D02*
X87028544Y-197635485D01*
X86028544Y-196159295D02*
X86028544Y-196635485D01*
X86028544Y-196635485D02*
X86504734Y-196683104D01*
X86504734Y-196683104D02*
X86457115Y-196635485D01*
X86457115Y-196635485D02*
X86409496Y-196540247D01*
X86409496Y-196540247D02*
X86409496Y-196302152D01*
X86409496Y-196302152D02*
X86457115Y-196206914D01*
X86457115Y-196206914D02*
X86504734Y-196159295D01*
X86504734Y-196159295D02*
X86599972Y-196111676D01*
X86599972Y-196111676D02*
X86838067Y-196111676D01*
X86838067Y-196111676D02*
X86933305Y-196159295D01*
X86933305Y-196159295D02*
X86980925Y-196206914D01*
X86980925Y-196206914D02*
X87028544Y-196302152D01*
X87028544Y-196302152D02*
X87028544Y-196540247D01*
X87028544Y-196540247D02*
X86980925Y-196635485D01*
X86980925Y-196635485D02*
X86933305Y-196683104D01*
X87028544Y-195635485D02*
X87028544Y-195445009D01*
X87028544Y-195445009D02*
X86980925Y-195349771D01*
X86980925Y-195349771D02*
X86933305Y-195302152D01*
X86933305Y-195302152D02*
X86790448Y-195206914D01*
X86790448Y-195206914D02*
X86599972Y-195159295D01*
X86599972Y-195159295D02*
X86219020Y-195159295D01*
X86219020Y-195159295D02*
X86123782Y-195206914D01*
X86123782Y-195206914D02*
X86076163Y-195254533D01*
X86076163Y-195254533D02*
X86028544Y-195349771D01*
X86028544Y-195349771D02*
X86028544Y-195540247D01*
X86028544Y-195540247D02*
X86076163Y-195635485D01*
X86076163Y-195635485D02*
X86123782Y-195683104D01*
X86123782Y-195683104D02*
X86219020Y-195730723D01*
X86219020Y-195730723D02*
X86457115Y-195730723D01*
X86457115Y-195730723D02*
X86552353Y-195683104D01*
X86552353Y-195683104D02*
X86599972Y-195635485D01*
X86599972Y-195635485D02*
X86647591Y-195540247D01*
X86647591Y-195540247D02*
X86647591Y-195349771D01*
X86647591Y-195349771D02*
X86599972Y-195254533D01*
X86599972Y-195254533D02*
X86552353Y-195206914D01*
X86552353Y-195206914D02*
X86457115Y-195159295D01*
X67978544Y-102385485D02*
X66978544Y-102385485D01*
X66978544Y-102385485D02*
X66978544Y-102147390D01*
X66978544Y-102147390D02*
X67026163Y-102004533D01*
X67026163Y-102004533D02*
X67121401Y-101909295D01*
X67121401Y-101909295D02*
X67216639Y-101861676D01*
X67216639Y-101861676D02*
X67407115Y-101814057D01*
X67407115Y-101814057D02*
X67549972Y-101814057D01*
X67549972Y-101814057D02*
X67740448Y-101861676D01*
X67740448Y-101861676D02*
X67835686Y-101909295D01*
X67835686Y-101909295D02*
X67930925Y-102004533D01*
X67930925Y-102004533D02*
X67978544Y-102147390D01*
X67978544Y-102147390D02*
X67978544Y-102385485D01*
X67978544Y-100861676D02*
X67978544Y-101433104D01*
X67978544Y-101147390D02*
X66978544Y-101147390D01*
X66978544Y-101147390D02*
X67121401Y-101242628D01*
X67121401Y-101242628D02*
X67216639Y-101337866D01*
X67216639Y-101337866D02*
X67264258Y-101433104D01*
X67407115Y-100290247D02*
X67359496Y-100385485D01*
X67359496Y-100385485D02*
X67311877Y-100433104D01*
X67311877Y-100433104D02*
X67216639Y-100480723D01*
X67216639Y-100480723D02*
X67169020Y-100480723D01*
X67169020Y-100480723D02*
X67073782Y-100433104D01*
X67073782Y-100433104D02*
X67026163Y-100385485D01*
X67026163Y-100385485D02*
X66978544Y-100290247D01*
X66978544Y-100290247D02*
X66978544Y-100099771D01*
X66978544Y-100099771D02*
X67026163Y-100004533D01*
X67026163Y-100004533D02*
X67073782Y-99956914D01*
X67073782Y-99956914D02*
X67169020Y-99909295D01*
X67169020Y-99909295D02*
X67216639Y-99909295D01*
X67216639Y-99909295D02*
X67311877Y-99956914D01*
X67311877Y-99956914D02*
X67359496Y-100004533D01*
X67359496Y-100004533D02*
X67407115Y-100099771D01*
X67407115Y-100099771D02*
X67407115Y-100290247D01*
X67407115Y-100290247D02*
X67454734Y-100385485D01*
X67454734Y-100385485D02*
X67502353Y-100433104D01*
X67502353Y-100433104D02*
X67597591Y-100480723D01*
X67597591Y-100480723D02*
X67788067Y-100480723D01*
X67788067Y-100480723D02*
X67883305Y-100433104D01*
X67883305Y-100433104D02*
X67930925Y-100385485D01*
X67930925Y-100385485D02*
X67978544Y-100290247D01*
X67978544Y-100290247D02*
X67978544Y-100099771D01*
X67978544Y-100099771D02*
X67930925Y-100004533D01*
X67930925Y-100004533D02*
X67883305Y-99956914D01*
X67883305Y-99956914D02*
X67788067Y-99909295D01*
X67788067Y-99909295D02*
X67597591Y-99909295D01*
X67597591Y-99909295D02*
X67502353Y-99956914D01*
X67502353Y-99956914D02*
X67454734Y-100004533D01*
X67454734Y-100004533D02*
X67407115Y-100099771D01*
X144178544Y-63809294D02*
X143178544Y-63809294D01*
X143178544Y-63809294D02*
X143178544Y-63571199D01*
X143178544Y-63571199D02*
X143226163Y-63428342D01*
X143226163Y-63428342D02*
X143321401Y-63333104D01*
X143321401Y-63333104D02*
X143416639Y-63285485D01*
X143416639Y-63285485D02*
X143607115Y-63237866D01*
X143607115Y-63237866D02*
X143749972Y-63237866D01*
X143749972Y-63237866D02*
X143940448Y-63285485D01*
X143940448Y-63285485D02*
X144035686Y-63333104D01*
X144035686Y-63333104D02*
X144130925Y-63428342D01*
X144130925Y-63428342D02*
X144178544Y-63571199D01*
X144178544Y-63571199D02*
X144178544Y-63809294D01*
X143178544Y-62380723D02*
X143178544Y-62571199D01*
X143178544Y-62571199D02*
X143226163Y-62666437D01*
X143226163Y-62666437D02*
X143273782Y-62714056D01*
X143273782Y-62714056D02*
X143416639Y-62809294D01*
X143416639Y-62809294D02*
X143607115Y-62856913D01*
X143607115Y-62856913D02*
X143988067Y-62856913D01*
X143988067Y-62856913D02*
X144083305Y-62809294D01*
X144083305Y-62809294D02*
X144130925Y-62761675D01*
X144130925Y-62761675D02*
X144178544Y-62666437D01*
X144178544Y-62666437D02*
X144178544Y-62475961D01*
X144178544Y-62475961D02*
X144130925Y-62380723D01*
X144130925Y-62380723D02*
X144083305Y-62333104D01*
X144083305Y-62333104D02*
X143988067Y-62285485D01*
X143988067Y-62285485D02*
X143749972Y-62285485D01*
X143749972Y-62285485D02*
X143654734Y-62333104D01*
X143654734Y-62333104D02*
X143607115Y-62380723D01*
X143607115Y-62380723D02*
X143559496Y-62475961D01*
X143559496Y-62475961D02*
X143559496Y-62666437D01*
X143559496Y-62666437D02*
X143607115Y-62761675D01*
X143607115Y-62761675D02*
X143654734Y-62809294D01*
X143654734Y-62809294D02*
X143749972Y-62856913D01*
X87028544Y-121435485D02*
X86028544Y-121435485D01*
X86028544Y-121435485D02*
X86028544Y-121197390D01*
X86028544Y-121197390D02*
X86076163Y-121054533D01*
X86076163Y-121054533D02*
X86171401Y-120959295D01*
X86171401Y-120959295D02*
X86266639Y-120911676D01*
X86266639Y-120911676D02*
X86457115Y-120864057D01*
X86457115Y-120864057D02*
X86599972Y-120864057D01*
X86599972Y-120864057D02*
X86790448Y-120911676D01*
X86790448Y-120911676D02*
X86885686Y-120959295D01*
X86885686Y-120959295D02*
X86980925Y-121054533D01*
X86980925Y-121054533D02*
X87028544Y-121197390D01*
X87028544Y-121197390D02*
X87028544Y-121435485D01*
X86123782Y-120483104D02*
X86076163Y-120435485D01*
X86076163Y-120435485D02*
X86028544Y-120340247D01*
X86028544Y-120340247D02*
X86028544Y-120102152D01*
X86028544Y-120102152D02*
X86076163Y-120006914D01*
X86076163Y-120006914D02*
X86123782Y-119959295D01*
X86123782Y-119959295D02*
X86219020Y-119911676D01*
X86219020Y-119911676D02*
X86314258Y-119911676D01*
X86314258Y-119911676D02*
X86457115Y-119959295D01*
X86457115Y-119959295D02*
X87028544Y-120530723D01*
X87028544Y-120530723D02*
X87028544Y-119911676D01*
X86028544Y-119578342D02*
X86028544Y-118911676D01*
X86028544Y-118911676D02*
X87028544Y-119340247D01*
X87028544Y-178585485D02*
X86028544Y-178585485D01*
X86028544Y-178585485D02*
X86028544Y-178347390D01*
X86028544Y-178347390D02*
X86076163Y-178204533D01*
X86076163Y-178204533D02*
X86171401Y-178109295D01*
X86171401Y-178109295D02*
X86266639Y-178061676D01*
X86266639Y-178061676D02*
X86457115Y-178014057D01*
X86457115Y-178014057D02*
X86599972Y-178014057D01*
X86599972Y-178014057D02*
X86790448Y-178061676D01*
X86790448Y-178061676D02*
X86885686Y-178109295D01*
X86885686Y-178109295D02*
X86980925Y-178204533D01*
X86980925Y-178204533D02*
X87028544Y-178347390D01*
X87028544Y-178347390D02*
X87028544Y-178585485D01*
X86028544Y-177109295D02*
X86028544Y-177585485D01*
X86028544Y-177585485D02*
X86504734Y-177633104D01*
X86504734Y-177633104D02*
X86457115Y-177585485D01*
X86457115Y-177585485D02*
X86409496Y-177490247D01*
X86409496Y-177490247D02*
X86409496Y-177252152D01*
X86409496Y-177252152D02*
X86457115Y-177156914D01*
X86457115Y-177156914D02*
X86504734Y-177109295D01*
X86504734Y-177109295D02*
X86599972Y-177061676D01*
X86599972Y-177061676D02*
X86838067Y-177061676D01*
X86838067Y-177061676D02*
X86933305Y-177109295D01*
X86933305Y-177109295D02*
X86980925Y-177156914D01*
X86980925Y-177156914D02*
X87028544Y-177252152D01*
X87028544Y-177252152D02*
X87028544Y-177490247D01*
X87028544Y-177490247D02*
X86980925Y-177585485D01*
X86980925Y-177585485D02*
X86933305Y-177633104D01*
X87028544Y-176109295D02*
X87028544Y-176680723D01*
X87028544Y-176395009D02*
X86028544Y-176395009D01*
X86028544Y-176395009D02*
X86171401Y-176490247D01*
X86171401Y-176490247D02*
X86266639Y-176585485D01*
X86266639Y-176585485D02*
X86314258Y-176680723D01*
X87028544Y-102385485D02*
X86028544Y-102385485D01*
X86028544Y-102385485D02*
X86028544Y-102147390D01*
X86028544Y-102147390D02*
X86076163Y-102004533D01*
X86076163Y-102004533D02*
X86171401Y-101909295D01*
X86171401Y-101909295D02*
X86266639Y-101861676D01*
X86266639Y-101861676D02*
X86457115Y-101814057D01*
X86457115Y-101814057D02*
X86599972Y-101814057D01*
X86599972Y-101814057D02*
X86790448Y-101861676D01*
X86790448Y-101861676D02*
X86885686Y-101909295D01*
X86885686Y-101909295D02*
X86980925Y-102004533D01*
X86980925Y-102004533D02*
X87028544Y-102147390D01*
X87028544Y-102147390D02*
X87028544Y-102385485D01*
X87028544Y-100861676D02*
X87028544Y-101433104D01*
X87028544Y-101147390D02*
X86028544Y-101147390D01*
X86028544Y-101147390D02*
X86171401Y-101242628D01*
X86171401Y-101242628D02*
X86266639Y-101337866D01*
X86266639Y-101337866D02*
X86314258Y-101433104D01*
X87028544Y-100385485D02*
X87028544Y-100195009D01*
X87028544Y-100195009D02*
X86980925Y-100099771D01*
X86980925Y-100099771D02*
X86933305Y-100052152D01*
X86933305Y-100052152D02*
X86790448Y-99956914D01*
X86790448Y-99956914D02*
X86599972Y-99909295D01*
X86599972Y-99909295D02*
X86219020Y-99909295D01*
X86219020Y-99909295D02*
X86123782Y-99956914D01*
X86123782Y-99956914D02*
X86076163Y-100004533D01*
X86076163Y-100004533D02*
X86028544Y-100099771D01*
X86028544Y-100099771D02*
X86028544Y-100290247D01*
X86028544Y-100290247D02*
X86076163Y-100385485D01*
X86076163Y-100385485D02*
X86123782Y-100433104D01*
X86123782Y-100433104D02*
X86219020Y-100480723D01*
X86219020Y-100480723D02*
X86457115Y-100480723D01*
X86457115Y-100480723D02*
X86552353Y-100433104D01*
X86552353Y-100433104D02*
X86599972Y-100385485D01*
X86599972Y-100385485D02*
X86647591Y-100290247D01*
X86647591Y-100290247D02*
X86647591Y-100099771D01*
X86647591Y-100099771D02*
X86599972Y-100004533D01*
X86599972Y-100004533D02*
X86552353Y-99956914D01*
X86552353Y-99956914D02*
X86457115Y-99909295D01*
X67978544Y-159535485D02*
X66978544Y-159535485D01*
X66978544Y-159535485D02*
X66978544Y-159297390D01*
X66978544Y-159297390D02*
X67026163Y-159154533D01*
X67026163Y-159154533D02*
X67121401Y-159059295D01*
X67121401Y-159059295D02*
X67216639Y-159011676D01*
X67216639Y-159011676D02*
X67407115Y-158964057D01*
X67407115Y-158964057D02*
X67549972Y-158964057D01*
X67549972Y-158964057D02*
X67740448Y-159011676D01*
X67740448Y-159011676D02*
X67835686Y-159059295D01*
X67835686Y-159059295D02*
X67930925Y-159154533D01*
X67930925Y-159154533D02*
X67978544Y-159297390D01*
X67978544Y-159297390D02*
X67978544Y-159535485D01*
X67311877Y-158106914D02*
X67978544Y-158106914D01*
X66930925Y-158345009D02*
X67645210Y-158583104D01*
X67645210Y-158583104D02*
X67645210Y-157964057D01*
X67073782Y-157630723D02*
X67026163Y-157583104D01*
X67026163Y-157583104D02*
X66978544Y-157487866D01*
X66978544Y-157487866D02*
X66978544Y-157249771D01*
X66978544Y-157249771D02*
X67026163Y-157154533D01*
X67026163Y-157154533D02*
X67073782Y-157106914D01*
X67073782Y-157106914D02*
X67169020Y-157059295D01*
X67169020Y-157059295D02*
X67264258Y-157059295D01*
X67264258Y-157059295D02*
X67407115Y-157106914D01*
X67407115Y-157106914D02*
X67978544Y-157678342D01*
X67978544Y-157678342D02*
X67978544Y-157059295D01*
X125128544Y-140485485D02*
X124128544Y-140485485D01*
X124128544Y-140485485D02*
X124128544Y-140247390D01*
X124128544Y-140247390D02*
X124176163Y-140104533D01*
X124176163Y-140104533D02*
X124271401Y-140009295D01*
X124271401Y-140009295D02*
X124366639Y-139961676D01*
X124366639Y-139961676D02*
X124557115Y-139914057D01*
X124557115Y-139914057D02*
X124699972Y-139914057D01*
X124699972Y-139914057D02*
X124890448Y-139961676D01*
X124890448Y-139961676D02*
X124985686Y-140009295D01*
X124985686Y-140009295D02*
X125080925Y-140104533D01*
X125080925Y-140104533D02*
X125128544Y-140247390D01*
X125128544Y-140247390D02*
X125128544Y-140485485D01*
X124128544Y-139580723D02*
X124128544Y-138961676D01*
X124128544Y-138961676D02*
X124509496Y-139295009D01*
X124509496Y-139295009D02*
X124509496Y-139152152D01*
X124509496Y-139152152D02*
X124557115Y-139056914D01*
X124557115Y-139056914D02*
X124604734Y-139009295D01*
X124604734Y-139009295D02*
X124699972Y-138961676D01*
X124699972Y-138961676D02*
X124938067Y-138961676D01*
X124938067Y-138961676D02*
X125033305Y-139009295D01*
X125033305Y-139009295D02*
X125080925Y-139056914D01*
X125080925Y-139056914D02*
X125128544Y-139152152D01*
X125128544Y-139152152D02*
X125128544Y-139437866D01*
X125128544Y-139437866D02*
X125080925Y-139533104D01*
X125080925Y-139533104D02*
X125033305Y-139580723D01*
X124128544Y-138628342D02*
X124128544Y-137961676D01*
X124128544Y-137961676D02*
X125128544Y-138390247D01*
X67978544Y-140485485D02*
X66978544Y-140485485D01*
X66978544Y-140485485D02*
X66978544Y-140247390D01*
X66978544Y-140247390D02*
X67026163Y-140104533D01*
X67026163Y-140104533D02*
X67121401Y-140009295D01*
X67121401Y-140009295D02*
X67216639Y-139961676D01*
X67216639Y-139961676D02*
X67407115Y-139914057D01*
X67407115Y-139914057D02*
X67549972Y-139914057D01*
X67549972Y-139914057D02*
X67740448Y-139961676D01*
X67740448Y-139961676D02*
X67835686Y-140009295D01*
X67835686Y-140009295D02*
X67930925Y-140104533D01*
X67930925Y-140104533D02*
X67978544Y-140247390D01*
X67978544Y-140247390D02*
X67978544Y-140485485D01*
X66978544Y-139580723D02*
X66978544Y-138961676D01*
X66978544Y-138961676D02*
X67359496Y-139295009D01*
X67359496Y-139295009D02*
X67359496Y-139152152D01*
X67359496Y-139152152D02*
X67407115Y-139056914D01*
X67407115Y-139056914D02*
X67454734Y-139009295D01*
X67454734Y-139009295D02*
X67549972Y-138961676D01*
X67549972Y-138961676D02*
X67788067Y-138961676D01*
X67788067Y-138961676D02*
X67883305Y-139009295D01*
X67883305Y-139009295D02*
X67930925Y-139056914D01*
X67930925Y-139056914D02*
X67978544Y-139152152D01*
X67978544Y-139152152D02*
X67978544Y-139437866D01*
X67978544Y-139437866D02*
X67930925Y-139533104D01*
X67930925Y-139533104D02*
X67883305Y-139580723D01*
X67311877Y-138104533D02*
X67978544Y-138104533D01*
X66930925Y-138342628D02*
X67645210Y-138580723D01*
X67645210Y-138580723D02*
X67645210Y-137961676D01*
X67978544Y-178585485D02*
X66978544Y-178585485D01*
X66978544Y-178585485D02*
X66978544Y-178347390D01*
X66978544Y-178347390D02*
X67026163Y-178204533D01*
X67026163Y-178204533D02*
X67121401Y-178109295D01*
X67121401Y-178109295D02*
X67216639Y-178061676D01*
X67216639Y-178061676D02*
X67407115Y-178014057D01*
X67407115Y-178014057D02*
X67549972Y-178014057D01*
X67549972Y-178014057D02*
X67740448Y-178061676D01*
X67740448Y-178061676D02*
X67835686Y-178109295D01*
X67835686Y-178109295D02*
X67930925Y-178204533D01*
X67930925Y-178204533D02*
X67978544Y-178347390D01*
X67978544Y-178347390D02*
X67978544Y-178585485D01*
X66978544Y-177109295D02*
X66978544Y-177585485D01*
X66978544Y-177585485D02*
X67454734Y-177633104D01*
X67454734Y-177633104D02*
X67407115Y-177585485D01*
X67407115Y-177585485D02*
X67359496Y-177490247D01*
X67359496Y-177490247D02*
X67359496Y-177252152D01*
X67359496Y-177252152D02*
X67407115Y-177156914D01*
X67407115Y-177156914D02*
X67454734Y-177109295D01*
X67454734Y-177109295D02*
X67549972Y-177061676D01*
X67549972Y-177061676D02*
X67788067Y-177061676D01*
X67788067Y-177061676D02*
X67883305Y-177109295D01*
X67883305Y-177109295D02*
X67930925Y-177156914D01*
X67930925Y-177156914D02*
X67978544Y-177252152D01*
X67978544Y-177252152D02*
X67978544Y-177490247D01*
X67978544Y-177490247D02*
X67930925Y-177585485D01*
X67930925Y-177585485D02*
X67883305Y-177633104D01*
X66978544Y-176442628D02*
X66978544Y-176347390D01*
X66978544Y-176347390D02*
X67026163Y-176252152D01*
X67026163Y-176252152D02*
X67073782Y-176204533D01*
X67073782Y-176204533D02*
X67169020Y-176156914D01*
X67169020Y-176156914D02*
X67359496Y-176109295D01*
X67359496Y-176109295D02*
X67597591Y-176109295D01*
X67597591Y-176109295D02*
X67788067Y-176156914D01*
X67788067Y-176156914D02*
X67883305Y-176204533D01*
X67883305Y-176204533D02*
X67930925Y-176252152D01*
X67930925Y-176252152D02*
X67978544Y-176347390D01*
X67978544Y-176347390D02*
X67978544Y-176442628D01*
X67978544Y-176442628D02*
X67930925Y-176537866D01*
X67930925Y-176537866D02*
X67883305Y-176585485D01*
X67883305Y-176585485D02*
X67788067Y-176633104D01*
X67788067Y-176633104D02*
X67597591Y-176680723D01*
X67597591Y-176680723D02*
X67359496Y-176680723D01*
X67359496Y-176680723D02*
X67169020Y-176633104D01*
X67169020Y-176633104D02*
X67073782Y-176585485D01*
X67073782Y-176585485D02*
X67026163Y-176537866D01*
X67026163Y-176537866D02*
X66978544Y-176442628D01*
X87028544Y-140485485D02*
X86028544Y-140485485D01*
X86028544Y-140485485D02*
X86028544Y-140247390D01*
X86028544Y-140247390D02*
X86076163Y-140104533D01*
X86076163Y-140104533D02*
X86171401Y-140009295D01*
X86171401Y-140009295D02*
X86266639Y-139961676D01*
X86266639Y-139961676D02*
X86457115Y-139914057D01*
X86457115Y-139914057D02*
X86599972Y-139914057D01*
X86599972Y-139914057D02*
X86790448Y-139961676D01*
X86790448Y-139961676D02*
X86885686Y-140009295D01*
X86885686Y-140009295D02*
X86980925Y-140104533D01*
X86980925Y-140104533D02*
X87028544Y-140247390D01*
X87028544Y-140247390D02*
X87028544Y-140485485D01*
X86028544Y-139580723D02*
X86028544Y-138961676D01*
X86028544Y-138961676D02*
X86409496Y-139295009D01*
X86409496Y-139295009D02*
X86409496Y-139152152D01*
X86409496Y-139152152D02*
X86457115Y-139056914D01*
X86457115Y-139056914D02*
X86504734Y-139009295D01*
X86504734Y-139009295D02*
X86599972Y-138961676D01*
X86599972Y-138961676D02*
X86838067Y-138961676D01*
X86838067Y-138961676D02*
X86933305Y-139009295D01*
X86933305Y-139009295D02*
X86980925Y-139056914D01*
X86980925Y-139056914D02*
X87028544Y-139152152D01*
X87028544Y-139152152D02*
X87028544Y-139437866D01*
X87028544Y-139437866D02*
X86980925Y-139533104D01*
X86980925Y-139533104D02*
X86933305Y-139580723D01*
X86028544Y-138056914D02*
X86028544Y-138533104D01*
X86028544Y-138533104D02*
X86504734Y-138580723D01*
X86504734Y-138580723D02*
X86457115Y-138533104D01*
X86457115Y-138533104D02*
X86409496Y-138437866D01*
X86409496Y-138437866D02*
X86409496Y-138199771D01*
X86409496Y-138199771D02*
X86457115Y-138104533D01*
X86457115Y-138104533D02*
X86504734Y-138056914D01*
X86504734Y-138056914D02*
X86599972Y-138009295D01*
X86599972Y-138009295D02*
X86838067Y-138009295D01*
X86838067Y-138009295D02*
X86933305Y-138056914D01*
X86933305Y-138056914D02*
X86980925Y-138104533D01*
X86980925Y-138104533D02*
X87028544Y-138199771D01*
X87028544Y-138199771D02*
X87028544Y-138437866D01*
X87028544Y-138437866D02*
X86980925Y-138533104D01*
X86980925Y-138533104D02*
X86933305Y-138580723D01*
X125128544Y-102385485D02*
X124128544Y-102385485D01*
X124128544Y-102385485D02*
X124128544Y-102147390D01*
X124128544Y-102147390D02*
X124176163Y-102004533D01*
X124176163Y-102004533D02*
X124271401Y-101909295D01*
X124271401Y-101909295D02*
X124366639Y-101861676D01*
X124366639Y-101861676D02*
X124557115Y-101814057D01*
X124557115Y-101814057D02*
X124699972Y-101814057D01*
X124699972Y-101814057D02*
X124890448Y-101861676D01*
X124890448Y-101861676D02*
X124985686Y-101909295D01*
X124985686Y-101909295D02*
X125080925Y-102004533D01*
X125080925Y-102004533D02*
X125128544Y-102147390D01*
X125128544Y-102147390D02*
X125128544Y-102385485D01*
X124223782Y-101433104D02*
X124176163Y-101385485D01*
X124176163Y-101385485D02*
X124128544Y-101290247D01*
X124128544Y-101290247D02*
X124128544Y-101052152D01*
X124128544Y-101052152D02*
X124176163Y-100956914D01*
X124176163Y-100956914D02*
X124223782Y-100909295D01*
X124223782Y-100909295D02*
X124319020Y-100861676D01*
X124319020Y-100861676D02*
X124414258Y-100861676D01*
X124414258Y-100861676D02*
X124557115Y-100909295D01*
X124557115Y-100909295D02*
X125128544Y-101480723D01*
X125128544Y-101480723D02*
X125128544Y-100861676D01*
X125128544Y-99909295D02*
X125128544Y-100480723D01*
X125128544Y-100195009D02*
X124128544Y-100195009D01*
X124128544Y-100195009D02*
X124271401Y-100290247D01*
X124271401Y-100290247D02*
X124366639Y-100385485D01*
X124366639Y-100385485D02*
X124414258Y-100480723D01*
X106078544Y-159535485D02*
X105078544Y-159535485D01*
X105078544Y-159535485D02*
X105078544Y-159297390D01*
X105078544Y-159297390D02*
X105126163Y-159154533D01*
X105126163Y-159154533D02*
X105221401Y-159059295D01*
X105221401Y-159059295D02*
X105316639Y-159011676D01*
X105316639Y-159011676D02*
X105507115Y-158964057D01*
X105507115Y-158964057D02*
X105649972Y-158964057D01*
X105649972Y-158964057D02*
X105840448Y-159011676D01*
X105840448Y-159011676D02*
X105935686Y-159059295D01*
X105935686Y-159059295D02*
X106030925Y-159154533D01*
X106030925Y-159154533D02*
X106078544Y-159297390D01*
X106078544Y-159297390D02*
X106078544Y-159535485D01*
X105411877Y-158106914D02*
X106078544Y-158106914D01*
X105030925Y-158345009D02*
X105745210Y-158583104D01*
X105745210Y-158583104D02*
X105745210Y-157964057D01*
X105411877Y-157154533D02*
X106078544Y-157154533D01*
X105030925Y-157392628D02*
X105745210Y-157630723D01*
X105745210Y-157630723D02*
X105745210Y-157011676D01*
X48928544Y-159535485D02*
X47928544Y-159535485D01*
X47928544Y-159535485D02*
X47928544Y-159297390D01*
X47928544Y-159297390D02*
X47976163Y-159154533D01*
X47976163Y-159154533D02*
X48071401Y-159059295D01*
X48071401Y-159059295D02*
X48166639Y-159011676D01*
X48166639Y-159011676D02*
X48357115Y-158964057D01*
X48357115Y-158964057D02*
X48499972Y-158964057D01*
X48499972Y-158964057D02*
X48690448Y-159011676D01*
X48690448Y-159011676D02*
X48785686Y-159059295D01*
X48785686Y-159059295D02*
X48880925Y-159154533D01*
X48880925Y-159154533D02*
X48928544Y-159297390D01*
X48928544Y-159297390D02*
X48928544Y-159535485D01*
X48261877Y-158106914D02*
X48928544Y-158106914D01*
X47880925Y-158345009D02*
X48595210Y-158583104D01*
X48595210Y-158583104D02*
X48595210Y-157964057D01*
X48928544Y-157059295D02*
X48928544Y-157630723D01*
X48928544Y-157345009D02*
X47928544Y-157345009D01*
X47928544Y-157345009D02*
X48071401Y-157440247D01*
X48071401Y-157440247D02*
X48166639Y-157535485D01*
X48166639Y-157535485D02*
X48214258Y-157630723D01*
X144178544Y-178585485D02*
X143178544Y-178585485D01*
X143178544Y-178585485D02*
X143178544Y-178347390D01*
X143178544Y-178347390D02*
X143226163Y-178204533D01*
X143226163Y-178204533D02*
X143321401Y-178109295D01*
X143321401Y-178109295D02*
X143416639Y-178061676D01*
X143416639Y-178061676D02*
X143607115Y-178014057D01*
X143607115Y-178014057D02*
X143749972Y-178014057D01*
X143749972Y-178014057D02*
X143940448Y-178061676D01*
X143940448Y-178061676D02*
X144035686Y-178109295D01*
X144035686Y-178109295D02*
X144130925Y-178204533D01*
X144130925Y-178204533D02*
X144178544Y-178347390D01*
X144178544Y-178347390D02*
X144178544Y-178585485D01*
X143178544Y-177109295D02*
X143178544Y-177585485D01*
X143178544Y-177585485D02*
X143654734Y-177633104D01*
X143654734Y-177633104D02*
X143607115Y-177585485D01*
X143607115Y-177585485D02*
X143559496Y-177490247D01*
X143559496Y-177490247D02*
X143559496Y-177252152D01*
X143559496Y-177252152D02*
X143607115Y-177156914D01*
X143607115Y-177156914D02*
X143654734Y-177109295D01*
X143654734Y-177109295D02*
X143749972Y-177061676D01*
X143749972Y-177061676D02*
X143988067Y-177061676D01*
X143988067Y-177061676D02*
X144083305Y-177109295D01*
X144083305Y-177109295D02*
X144130925Y-177156914D01*
X144130925Y-177156914D02*
X144178544Y-177252152D01*
X144178544Y-177252152D02*
X144178544Y-177490247D01*
X144178544Y-177490247D02*
X144130925Y-177585485D01*
X144130925Y-177585485D02*
X144083305Y-177633104D01*
X143511877Y-176204533D02*
X144178544Y-176204533D01*
X143130925Y-176442628D02*
X143845210Y-176680723D01*
X143845210Y-176680723D02*
X143845210Y-176061676D01*
X64354677Y-51569819D02*
X63878487Y-51569819D01*
X63878487Y-51569819D02*
X63878487Y-50569819D01*
X64688011Y-51046009D02*
X65021344Y-51046009D01*
X65164201Y-51569819D02*
X64688011Y-51569819D01*
X64688011Y-51569819D02*
X64688011Y-50569819D01*
X64688011Y-50569819D02*
X65164201Y-50569819D01*
X65592773Y-51569819D02*
X65592773Y-50569819D01*
X65592773Y-50569819D02*
X65830868Y-50569819D01*
X65830868Y-50569819D02*
X65973725Y-50617438D01*
X65973725Y-50617438D02*
X66068963Y-50712676D01*
X66068963Y-50712676D02*
X66116582Y-50807914D01*
X66116582Y-50807914D02*
X66164201Y-50998390D01*
X66164201Y-50998390D02*
X66164201Y-51141247D01*
X66164201Y-51141247D02*
X66116582Y-51331723D01*
X66116582Y-51331723D02*
X66068963Y-51426961D01*
X66068963Y-51426961D02*
X65973725Y-51522200D01*
X65973725Y-51522200D02*
X65830868Y-51569819D01*
X65830868Y-51569819D02*
X65592773Y-51569819D01*
X67116582Y-51569819D02*
X66545154Y-51569819D01*
X66830868Y-51569819D02*
X66830868Y-50569819D01*
X66830868Y-50569819D02*
X66735630Y-50712676D01*
X66735630Y-50712676D02*
X66640392Y-50807914D01*
X66640392Y-50807914D02*
X66545154Y-50855533D01*
X48928544Y-197635485D02*
X47928544Y-197635485D01*
X47928544Y-197635485D02*
X47928544Y-197397390D01*
X47928544Y-197397390D02*
X47976163Y-197254533D01*
X47976163Y-197254533D02*
X48071401Y-197159295D01*
X48071401Y-197159295D02*
X48166639Y-197111676D01*
X48166639Y-197111676D02*
X48357115Y-197064057D01*
X48357115Y-197064057D02*
X48499972Y-197064057D01*
X48499972Y-197064057D02*
X48690448Y-197111676D01*
X48690448Y-197111676D02*
X48785686Y-197159295D01*
X48785686Y-197159295D02*
X48880925Y-197254533D01*
X48880925Y-197254533D02*
X48928544Y-197397390D01*
X48928544Y-197397390D02*
X48928544Y-197635485D01*
X47928544Y-196159295D02*
X47928544Y-196635485D01*
X47928544Y-196635485D02*
X48404734Y-196683104D01*
X48404734Y-196683104D02*
X48357115Y-196635485D01*
X48357115Y-196635485D02*
X48309496Y-196540247D01*
X48309496Y-196540247D02*
X48309496Y-196302152D01*
X48309496Y-196302152D02*
X48357115Y-196206914D01*
X48357115Y-196206914D02*
X48404734Y-196159295D01*
X48404734Y-196159295D02*
X48499972Y-196111676D01*
X48499972Y-196111676D02*
X48738067Y-196111676D01*
X48738067Y-196111676D02*
X48833305Y-196159295D01*
X48833305Y-196159295D02*
X48880925Y-196206914D01*
X48880925Y-196206914D02*
X48928544Y-196302152D01*
X48928544Y-196302152D02*
X48928544Y-196540247D01*
X48928544Y-196540247D02*
X48880925Y-196635485D01*
X48880925Y-196635485D02*
X48833305Y-196683104D01*
X47928544Y-195778342D02*
X47928544Y-195111676D01*
X47928544Y-195111676D02*
X48928544Y-195540247D01*
X48928544Y-140485485D02*
X47928544Y-140485485D01*
X47928544Y-140485485D02*
X47928544Y-140247390D01*
X47928544Y-140247390D02*
X47976163Y-140104533D01*
X47976163Y-140104533D02*
X48071401Y-140009295D01*
X48071401Y-140009295D02*
X48166639Y-139961676D01*
X48166639Y-139961676D02*
X48357115Y-139914057D01*
X48357115Y-139914057D02*
X48499972Y-139914057D01*
X48499972Y-139914057D02*
X48690448Y-139961676D01*
X48690448Y-139961676D02*
X48785686Y-140009295D01*
X48785686Y-140009295D02*
X48880925Y-140104533D01*
X48880925Y-140104533D02*
X48928544Y-140247390D01*
X48928544Y-140247390D02*
X48928544Y-140485485D01*
X47928544Y-139580723D02*
X47928544Y-138961676D01*
X47928544Y-138961676D02*
X48309496Y-139295009D01*
X48309496Y-139295009D02*
X48309496Y-139152152D01*
X48309496Y-139152152D02*
X48357115Y-139056914D01*
X48357115Y-139056914D02*
X48404734Y-139009295D01*
X48404734Y-139009295D02*
X48499972Y-138961676D01*
X48499972Y-138961676D02*
X48738067Y-138961676D01*
X48738067Y-138961676D02*
X48833305Y-139009295D01*
X48833305Y-139009295D02*
X48880925Y-139056914D01*
X48880925Y-139056914D02*
X48928544Y-139152152D01*
X48928544Y-139152152D02*
X48928544Y-139437866D01*
X48928544Y-139437866D02*
X48880925Y-139533104D01*
X48880925Y-139533104D02*
X48833305Y-139580723D01*
X47928544Y-138628342D02*
X47928544Y-138009295D01*
X47928544Y-138009295D02*
X48309496Y-138342628D01*
X48309496Y-138342628D02*
X48309496Y-138199771D01*
X48309496Y-138199771D02*
X48357115Y-138104533D01*
X48357115Y-138104533D02*
X48404734Y-138056914D01*
X48404734Y-138056914D02*
X48499972Y-138009295D01*
X48499972Y-138009295D02*
X48738067Y-138009295D01*
X48738067Y-138009295D02*
X48833305Y-138056914D01*
X48833305Y-138056914D02*
X48880925Y-138104533D01*
X48880925Y-138104533D02*
X48928544Y-138199771D01*
X48928544Y-138199771D02*
X48928544Y-138485485D01*
X48928544Y-138485485D02*
X48880925Y-138580723D01*
X48880925Y-138580723D02*
X48833305Y-138628342D01*
X144178544Y-197635485D02*
X143178544Y-197635485D01*
X143178544Y-197635485D02*
X143178544Y-197397390D01*
X143178544Y-197397390D02*
X143226163Y-197254533D01*
X143226163Y-197254533D02*
X143321401Y-197159295D01*
X143321401Y-197159295D02*
X143416639Y-197111676D01*
X143416639Y-197111676D02*
X143607115Y-197064057D01*
X143607115Y-197064057D02*
X143749972Y-197064057D01*
X143749972Y-197064057D02*
X143940448Y-197111676D01*
X143940448Y-197111676D02*
X144035686Y-197159295D01*
X144035686Y-197159295D02*
X144130925Y-197254533D01*
X144130925Y-197254533D02*
X144178544Y-197397390D01*
X144178544Y-197397390D02*
X144178544Y-197635485D01*
X143178544Y-196206914D02*
X143178544Y-196397390D01*
X143178544Y-196397390D02*
X143226163Y-196492628D01*
X143226163Y-196492628D02*
X143273782Y-196540247D01*
X143273782Y-196540247D02*
X143416639Y-196635485D01*
X143416639Y-196635485D02*
X143607115Y-196683104D01*
X143607115Y-196683104D02*
X143988067Y-196683104D01*
X143988067Y-196683104D02*
X144083305Y-196635485D01*
X144083305Y-196635485D02*
X144130925Y-196587866D01*
X144130925Y-196587866D02*
X144178544Y-196492628D01*
X144178544Y-196492628D02*
X144178544Y-196302152D01*
X144178544Y-196302152D02*
X144130925Y-196206914D01*
X144130925Y-196206914D02*
X144083305Y-196159295D01*
X144083305Y-196159295D02*
X143988067Y-196111676D01*
X143988067Y-196111676D02*
X143749972Y-196111676D01*
X143749972Y-196111676D02*
X143654734Y-196159295D01*
X143654734Y-196159295D02*
X143607115Y-196206914D01*
X143607115Y-196206914D02*
X143559496Y-196302152D01*
X143559496Y-196302152D02*
X143559496Y-196492628D01*
X143559496Y-196492628D02*
X143607115Y-196587866D01*
X143607115Y-196587866D02*
X143654734Y-196635485D01*
X143654734Y-196635485D02*
X143749972Y-196683104D01*
X143273782Y-195730723D02*
X143226163Y-195683104D01*
X143226163Y-195683104D02*
X143178544Y-195587866D01*
X143178544Y-195587866D02*
X143178544Y-195349771D01*
X143178544Y-195349771D02*
X143226163Y-195254533D01*
X143226163Y-195254533D02*
X143273782Y-195206914D01*
X143273782Y-195206914D02*
X143369020Y-195159295D01*
X143369020Y-195159295D02*
X143464258Y-195159295D01*
X143464258Y-195159295D02*
X143607115Y-195206914D01*
X143607115Y-195206914D02*
X144178544Y-195778342D01*
X144178544Y-195778342D02*
X144178544Y-195159295D01*
X163228544Y-83335485D02*
X162228544Y-83335485D01*
X162228544Y-83335485D02*
X162228544Y-83097390D01*
X162228544Y-83097390D02*
X162276163Y-82954533D01*
X162276163Y-82954533D02*
X162371401Y-82859295D01*
X162371401Y-82859295D02*
X162466639Y-82811676D01*
X162466639Y-82811676D02*
X162657115Y-82764057D01*
X162657115Y-82764057D02*
X162799972Y-82764057D01*
X162799972Y-82764057D02*
X162990448Y-82811676D01*
X162990448Y-82811676D02*
X163085686Y-82859295D01*
X163085686Y-82859295D02*
X163180925Y-82954533D01*
X163180925Y-82954533D02*
X163228544Y-83097390D01*
X163228544Y-83097390D02*
X163228544Y-83335485D01*
X163228544Y-81811676D02*
X163228544Y-82383104D01*
X163228544Y-82097390D02*
X162228544Y-82097390D01*
X162228544Y-82097390D02*
X162371401Y-82192628D01*
X162371401Y-82192628D02*
X162466639Y-82287866D01*
X162466639Y-82287866D02*
X162514258Y-82383104D01*
X162228544Y-80906914D02*
X162228544Y-81383104D01*
X162228544Y-81383104D02*
X162704734Y-81430723D01*
X162704734Y-81430723D02*
X162657115Y-81383104D01*
X162657115Y-81383104D02*
X162609496Y-81287866D01*
X162609496Y-81287866D02*
X162609496Y-81049771D01*
X162609496Y-81049771D02*
X162657115Y-80954533D01*
X162657115Y-80954533D02*
X162704734Y-80906914D01*
X162704734Y-80906914D02*
X162799972Y-80859295D01*
X162799972Y-80859295D02*
X163038067Y-80859295D01*
X163038067Y-80859295D02*
X163133305Y-80906914D01*
X163133305Y-80906914D02*
X163180925Y-80954533D01*
X163180925Y-80954533D02*
X163228544Y-81049771D01*
X163228544Y-81049771D02*
X163228544Y-81287866D01*
X163228544Y-81287866D02*
X163180925Y-81383104D01*
X163180925Y-81383104D02*
X163133305Y-81430723D01*
X147664200Y-36058247D02*
X147778486Y-36096342D01*
X147778486Y-36096342D02*
X147816581Y-36134438D01*
X147816581Y-36134438D02*
X147854677Y-36210628D01*
X147854677Y-36210628D02*
X147854677Y-36324914D01*
X147854677Y-36324914D02*
X147816581Y-36401104D01*
X147816581Y-36401104D02*
X147778486Y-36439200D01*
X147778486Y-36439200D02*
X147702296Y-36477295D01*
X147702296Y-36477295D02*
X147397534Y-36477295D01*
X147397534Y-36477295D02*
X147397534Y-35677295D01*
X147397534Y-35677295D02*
X147664200Y-35677295D01*
X147664200Y-35677295D02*
X147740391Y-35715390D01*
X147740391Y-35715390D02*
X147778486Y-35753485D01*
X147778486Y-35753485D02*
X147816581Y-35829676D01*
X147816581Y-35829676D02*
X147816581Y-35905866D01*
X147816581Y-35905866D02*
X147778486Y-35982057D01*
X147778486Y-35982057D02*
X147740391Y-36020152D01*
X147740391Y-36020152D02*
X147664200Y-36058247D01*
X147664200Y-36058247D02*
X147397534Y-36058247D01*
X148083248Y-35943961D02*
X148388010Y-35943961D01*
X148197534Y-35677295D02*
X148197534Y-36363009D01*
X148197534Y-36363009D02*
X148235629Y-36439200D01*
X148235629Y-36439200D02*
X148311819Y-36477295D01*
X148311819Y-36477295D02*
X148388010Y-36477295D01*
X148654677Y-35943961D02*
X148654677Y-36477295D01*
X148654677Y-36020152D02*
X148692772Y-35982057D01*
X148692772Y-35982057D02*
X148768962Y-35943961D01*
X148768962Y-35943961D02*
X148883248Y-35943961D01*
X148883248Y-35943961D02*
X148959439Y-35982057D01*
X148959439Y-35982057D02*
X148997534Y-36058247D01*
X148997534Y-36058247D02*
X148997534Y-36477295D01*
X149188011Y-36553485D02*
X149797534Y-36553485D01*
X150445154Y-36401104D02*
X150407058Y-36439200D01*
X150407058Y-36439200D02*
X150292773Y-36477295D01*
X150292773Y-36477295D02*
X150216582Y-36477295D01*
X150216582Y-36477295D02*
X150102296Y-36439200D01*
X150102296Y-36439200D02*
X150026106Y-36363009D01*
X150026106Y-36363009D02*
X149988011Y-36286819D01*
X149988011Y-36286819D02*
X149949915Y-36134438D01*
X149949915Y-36134438D02*
X149949915Y-36020152D01*
X149949915Y-36020152D02*
X149988011Y-35867771D01*
X149988011Y-35867771D02*
X150026106Y-35791580D01*
X150026106Y-35791580D02*
X150102296Y-35715390D01*
X150102296Y-35715390D02*
X150216582Y-35677295D01*
X150216582Y-35677295D02*
X150292773Y-35677295D01*
X150292773Y-35677295D02*
X150407058Y-35715390D01*
X150407058Y-35715390D02*
X150445154Y-35753485D01*
X150902296Y-36477295D02*
X150826106Y-36439200D01*
X150826106Y-36439200D02*
X150788011Y-36401104D01*
X150788011Y-36401104D02*
X150749915Y-36324914D01*
X150749915Y-36324914D02*
X150749915Y-36096342D01*
X150749915Y-36096342D02*
X150788011Y-36020152D01*
X150788011Y-36020152D02*
X150826106Y-35982057D01*
X150826106Y-35982057D02*
X150902296Y-35943961D01*
X150902296Y-35943961D02*
X151016582Y-35943961D01*
X151016582Y-35943961D02*
X151092773Y-35982057D01*
X151092773Y-35982057D02*
X151130868Y-36020152D01*
X151130868Y-36020152D02*
X151168963Y-36096342D01*
X151168963Y-36096342D02*
X151168963Y-36324914D01*
X151168963Y-36324914D02*
X151130868Y-36401104D01*
X151130868Y-36401104D02*
X151092773Y-36439200D01*
X151092773Y-36439200D02*
X151016582Y-36477295D01*
X151016582Y-36477295D02*
X150902296Y-36477295D01*
X151626106Y-36477295D02*
X151549916Y-36439200D01*
X151549916Y-36439200D02*
X151511821Y-36363009D01*
X151511821Y-36363009D02*
X151511821Y-35677295D01*
X163228544Y-63809294D02*
X162228544Y-63809294D01*
X162228544Y-63809294D02*
X162228544Y-63571199D01*
X162228544Y-63571199D02*
X162276163Y-63428342D01*
X162276163Y-63428342D02*
X162371401Y-63333104D01*
X162371401Y-63333104D02*
X162466639Y-63285485D01*
X162466639Y-63285485D02*
X162657115Y-63237866D01*
X162657115Y-63237866D02*
X162799972Y-63237866D01*
X162799972Y-63237866D02*
X162990448Y-63285485D01*
X162990448Y-63285485D02*
X163085686Y-63333104D01*
X163085686Y-63333104D02*
X163180925Y-63428342D01*
X163180925Y-63428342D02*
X163228544Y-63571199D01*
X163228544Y-63571199D02*
X163228544Y-63809294D01*
X162228544Y-62904532D02*
X162228544Y-62237866D01*
X162228544Y-62237866D02*
X163228544Y-62666437D01*
X182278544Y-178585485D02*
X181278544Y-178585485D01*
X181278544Y-178585485D02*
X181278544Y-178347390D01*
X181278544Y-178347390D02*
X181326163Y-178204533D01*
X181326163Y-178204533D02*
X181421401Y-178109295D01*
X181421401Y-178109295D02*
X181516639Y-178061676D01*
X181516639Y-178061676D02*
X181707115Y-178014057D01*
X181707115Y-178014057D02*
X181849972Y-178014057D01*
X181849972Y-178014057D02*
X182040448Y-178061676D01*
X182040448Y-178061676D02*
X182135686Y-178109295D01*
X182135686Y-178109295D02*
X182230925Y-178204533D01*
X182230925Y-178204533D02*
X182278544Y-178347390D01*
X182278544Y-178347390D02*
X182278544Y-178585485D01*
X181278544Y-177109295D02*
X181278544Y-177585485D01*
X181278544Y-177585485D02*
X181754734Y-177633104D01*
X181754734Y-177633104D02*
X181707115Y-177585485D01*
X181707115Y-177585485D02*
X181659496Y-177490247D01*
X181659496Y-177490247D02*
X181659496Y-177252152D01*
X181659496Y-177252152D02*
X181707115Y-177156914D01*
X181707115Y-177156914D02*
X181754734Y-177109295D01*
X181754734Y-177109295D02*
X181849972Y-177061676D01*
X181849972Y-177061676D02*
X182088067Y-177061676D01*
X182088067Y-177061676D02*
X182183305Y-177109295D01*
X182183305Y-177109295D02*
X182230925Y-177156914D01*
X182230925Y-177156914D02*
X182278544Y-177252152D01*
X182278544Y-177252152D02*
X182278544Y-177490247D01*
X182278544Y-177490247D02*
X182230925Y-177585485D01*
X182230925Y-177585485D02*
X182183305Y-177633104D01*
X181278544Y-176204533D02*
X181278544Y-176395009D01*
X181278544Y-176395009D02*
X181326163Y-176490247D01*
X181326163Y-176490247D02*
X181373782Y-176537866D01*
X181373782Y-176537866D02*
X181516639Y-176633104D01*
X181516639Y-176633104D02*
X181707115Y-176680723D01*
X181707115Y-176680723D02*
X182088067Y-176680723D01*
X182088067Y-176680723D02*
X182183305Y-176633104D01*
X182183305Y-176633104D02*
X182230925Y-176585485D01*
X182230925Y-176585485D02*
X182278544Y-176490247D01*
X182278544Y-176490247D02*
X182278544Y-176299771D01*
X182278544Y-176299771D02*
X182230925Y-176204533D01*
X182230925Y-176204533D02*
X182183305Y-176156914D01*
X182183305Y-176156914D02*
X182088067Y-176109295D01*
X182088067Y-176109295D02*
X181849972Y-176109295D01*
X181849972Y-176109295D02*
X181754734Y-176156914D01*
X181754734Y-176156914D02*
X181707115Y-176204533D01*
X181707115Y-176204533D02*
X181659496Y-176299771D01*
X181659496Y-176299771D02*
X181659496Y-176490247D01*
X181659496Y-176490247D02*
X181707115Y-176585485D01*
X181707115Y-176585485D02*
X181754734Y-176633104D01*
X181754734Y-176633104D02*
X181849972Y-176680723D01*
X106078544Y-63809294D02*
X105078544Y-63809294D01*
X105078544Y-63809294D02*
X105078544Y-63571199D01*
X105078544Y-63571199D02*
X105126163Y-63428342D01*
X105126163Y-63428342D02*
X105221401Y-63333104D01*
X105221401Y-63333104D02*
X105316639Y-63285485D01*
X105316639Y-63285485D02*
X105507115Y-63237866D01*
X105507115Y-63237866D02*
X105649972Y-63237866D01*
X105649972Y-63237866D02*
X105840448Y-63285485D01*
X105840448Y-63285485D02*
X105935686Y-63333104D01*
X105935686Y-63333104D02*
X106030925Y-63428342D01*
X106030925Y-63428342D02*
X106078544Y-63571199D01*
X106078544Y-63571199D02*
X106078544Y-63809294D01*
X105411877Y-62380723D02*
X106078544Y-62380723D01*
X105030925Y-62618818D02*
X105745210Y-62856913D01*
X105745210Y-62856913D02*
X105745210Y-62237866D01*
X182278544Y-121435485D02*
X181278544Y-121435485D01*
X181278544Y-121435485D02*
X181278544Y-121197390D01*
X181278544Y-121197390D02*
X181326163Y-121054533D01*
X181326163Y-121054533D02*
X181421401Y-120959295D01*
X181421401Y-120959295D02*
X181516639Y-120911676D01*
X181516639Y-120911676D02*
X181707115Y-120864057D01*
X181707115Y-120864057D02*
X181849972Y-120864057D01*
X181849972Y-120864057D02*
X182040448Y-120911676D01*
X182040448Y-120911676D02*
X182135686Y-120959295D01*
X182135686Y-120959295D02*
X182230925Y-121054533D01*
X182230925Y-121054533D02*
X182278544Y-121197390D01*
X182278544Y-121197390D02*
X182278544Y-121435485D01*
X181278544Y-120530723D02*
X181278544Y-119911676D01*
X181278544Y-119911676D02*
X181659496Y-120245009D01*
X181659496Y-120245009D02*
X181659496Y-120102152D01*
X181659496Y-120102152D02*
X181707115Y-120006914D01*
X181707115Y-120006914D02*
X181754734Y-119959295D01*
X181754734Y-119959295D02*
X181849972Y-119911676D01*
X181849972Y-119911676D02*
X182088067Y-119911676D01*
X182088067Y-119911676D02*
X182183305Y-119959295D01*
X182183305Y-119959295D02*
X182230925Y-120006914D01*
X182230925Y-120006914D02*
X182278544Y-120102152D01*
X182278544Y-120102152D02*
X182278544Y-120387866D01*
X182278544Y-120387866D02*
X182230925Y-120483104D01*
X182230925Y-120483104D02*
X182183305Y-120530723D01*
X181373782Y-119530723D02*
X181326163Y-119483104D01*
X181326163Y-119483104D02*
X181278544Y-119387866D01*
X181278544Y-119387866D02*
X181278544Y-119149771D01*
X181278544Y-119149771D02*
X181326163Y-119054533D01*
X181326163Y-119054533D02*
X181373782Y-119006914D01*
X181373782Y-119006914D02*
X181469020Y-118959295D01*
X181469020Y-118959295D02*
X181564258Y-118959295D01*
X181564258Y-118959295D02*
X181707115Y-119006914D01*
X181707115Y-119006914D02*
X182278544Y-119578342D01*
X182278544Y-119578342D02*
X182278544Y-118959295D01*
X125128544Y-121435485D02*
X124128544Y-121435485D01*
X124128544Y-121435485D02*
X124128544Y-121197390D01*
X124128544Y-121197390D02*
X124176163Y-121054533D01*
X124176163Y-121054533D02*
X124271401Y-120959295D01*
X124271401Y-120959295D02*
X124366639Y-120911676D01*
X124366639Y-120911676D02*
X124557115Y-120864057D01*
X124557115Y-120864057D02*
X124699972Y-120864057D01*
X124699972Y-120864057D02*
X124890448Y-120911676D01*
X124890448Y-120911676D02*
X124985686Y-120959295D01*
X124985686Y-120959295D02*
X125080925Y-121054533D01*
X125080925Y-121054533D02*
X125128544Y-121197390D01*
X125128544Y-121197390D02*
X125128544Y-121435485D01*
X124223782Y-120483104D02*
X124176163Y-120435485D01*
X124176163Y-120435485D02*
X124128544Y-120340247D01*
X124128544Y-120340247D02*
X124128544Y-120102152D01*
X124128544Y-120102152D02*
X124176163Y-120006914D01*
X124176163Y-120006914D02*
X124223782Y-119959295D01*
X124223782Y-119959295D02*
X124319020Y-119911676D01*
X124319020Y-119911676D02*
X124414258Y-119911676D01*
X124414258Y-119911676D02*
X124557115Y-119959295D01*
X124557115Y-119959295D02*
X125128544Y-120530723D01*
X125128544Y-120530723D02*
X125128544Y-119911676D01*
X125128544Y-119435485D02*
X125128544Y-119245009D01*
X125128544Y-119245009D02*
X125080925Y-119149771D01*
X125080925Y-119149771D02*
X125033305Y-119102152D01*
X125033305Y-119102152D02*
X124890448Y-119006914D01*
X124890448Y-119006914D02*
X124699972Y-118959295D01*
X124699972Y-118959295D02*
X124319020Y-118959295D01*
X124319020Y-118959295D02*
X124223782Y-119006914D01*
X124223782Y-119006914D02*
X124176163Y-119054533D01*
X124176163Y-119054533D02*
X124128544Y-119149771D01*
X124128544Y-119149771D02*
X124128544Y-119340247D01*
X124128544Y-119340247D02*
X124176163Y-119435485D01*
X124176163Y-119435485D02*
X124223782Y-119483104D01*
X124223782Y-119483104D02*
X124319020Y-119530723D01*
X124319020Y-119530723D02*
X124557115Y-119530723D01*
X124557115Y-119530723D02*
X124652353Y-119483104D01*
X124652353Y-119483104D02*
X124699972Y-119435485D01*
X124699972Y-119435485D02*
X124747591Y-119340247D01*
X124747591Y-119340247D02*
X124747591Y-119149771D01*
X124747591Y-119149771D02*
X124699972Y-119054533D01*
X124699972Y-119054533D02*
X124652353Y-119006914D01*
X124652353Y-119006914D02*
X124557115Y-118959295D01*
X48928544Y-82859294D02*
X47928544Y-82859294D01*
X47928544Y-82859294D02*
X47928544Y-82621199D01*
X47928544Y-82621199D02*
X47976163Y-82478342D01*
X47976163Y-82478342D02*
X48071401Y-82383104D01*
X48071401Y-82383104D02*
X48166639Y-82335485D01*
X48166639Y-82335485D02*
X48357115Y-82287866D01*
X48357115Y-82287866D02*
X48499972Y-82287866D01*
X48499972Y-82287866D02*
X48690448Y-82335485D01*
X48690448Y-82335485D02*
X48785686Y-82383104D01*
X48785686Y-82383104D02*
X48880925Y-82478342D01*
X48880925Y-82478342D02*
X48928544Y-82621199D01*
X48928544Y-82621199D02*
X48928544Y-82859294D01*
X48928544Y-81811675D02*
X48928544Y-81621199D01*
X48928544Y-81621199D02*
X48880925Y-81525961D01*
X48880925Y-81525961D02*
X48833305Y-81478342D01*
X48833305Y-81478342D02*
X48690448Y-81383104D01*
X48690448Y-81383104D02*
X48499972Y-81335485D01*
X48499972Y-81335485D02*
X48119020Y-81335485D01*
X48119020Y-81335485D02*
X48023782Y-81383104D01*
X48023782Y-81383104D02*
X47976163Y-81430723D01*
X47976163Y-81430723D02*
X47928544Y-81525961D01*
X47928544Y-81525961D02*
X47928544Y-81716437D01*
X47928544Y-81716437D02*
X47976163Y-81811675D01*
X47976163Y-81811675D02*
X48023782Y-81859294D01*
X48023782Y-81859294D02*
X48119020Y-81906913D01*
X48119020Y-81906913D02*
X48357115Y-81906913D01*
X48357115Y-81906913D02*
X48452353Y-81859294D01*
X48452353Y-81859294D02*
X48499972Y-81811675D01*
X48499972Y-81811675D02*
X48547591Y-81716437D01*
X48547591Y-81716437D02*
X48547591Y-81525961D01*
X48547591Y-81525961D02*
X48499972Y-81430723D01*
X48499972Y-81430723D02*
X48452353Y-81383104D01*
X48452353Y-81383104D02*
X48357115Y-81335485D01*
X106078544Y-102385485D02*
X105078544Y-102385485D01*
X105078544Y-102385485D02*
X105078544Y-102147390D01*
X105078544Y-102147390D02*
X105126163Y-102004533D01*
X105126163Y-102004533D02*
X105221401Y-101909295D01*
X105221401Y-101909295D02*
X105316639Y-101861676D01*
X105316639Y-101861676D02*
X105507115Y-101814057D01*
X105507115Y-101814057D02*
X105649972Y-101814057D01*
X105649972Y-101814057D02*
X105840448Y-101861676D01*
X105840448Y-101861676D02*
X105935686Y-101909295D01*
X105935686Y-101909295D02*
X106030925Y-102004533D01*
X106030925Y-102004533D02*
X106078544Y-102147390D01*
X106078544Y-102147390D02*
X106078544Y-102385485D01*
X105173782Y-101433104D02*
X105126163Y-101385485D01*
X105126163Y-101385485D02*
X105078544Y-101290247D01*
X105078544Y-101290247D02*
X105078544Y-101052152D01*
X105078544Y-101052152D02*
X105126163Y-100956914D01*
X105126163Y-100956914D02*
X105173782Y-100909295D01*
X105173782Y-100909295D02*
X105269020Y-100861676D01*
X105269020Y-100861676D02*
X105364258Y-100861676D01*
X105364258Y-100861676D02*
X105507115Y-100909295D01*
X105507115Y-100909295D02*
X106078544Y-101480723D01*
X106078544Y-101480723D02*
X106078544Y-100861676D01*
X105078544Y-100242628D02*
X105078544Y-100147390D01*
X105078544Y-100147390D02*
X105126163Y-100052152D01*
X105126163Y-100052152D02*
X105173782Y-100004533D01*
X105173782Y-100004533D02*
X105269020Y-99956914D01*
X105269020Y-99956914D02*
X105459496Y-99909295D01*
X105459496Y-99909295D02*
X105697591Y-99909295D01*
X105697591Y-99909295D02*
X105888067Y-99956914D01*
X105888067Y-99956914D02*
X105983305Y-100004533D01*
X105983305Y-100004533D02*
X106030925Y-100052152D01*
X106030925Y-100052152D02*
X106078544Y-100147390D01*
X106078544Y-100147390D02*
X106078544Y-100242628D01*
X106078544Y-100242628D02*
X106030925Y-100337866D01*
X106030925Y-100337866D02*
X105983305Y-100385485D01*
X105983305Y-100385485D02*
X105888067Y-100433104D01*
X105888067Y-100433104D02*
X105697591Y-100480723D01*
X105697591Y-100480723D02*
X105459496Y-100480723D01*
X105459496Y-100480723D02*
X105269020Y-100433104D01*
X105269020Y-100433104D02*
X105173782Y-100385485D01*
X105173782Y-100385485D02*
X105126163Y-100337866D01*
X105126163Y-100337866D02*
X105078544Y-100242628D01*
X48928544Y-121435485D02*
X47928544Y-121435485D01*
X47928544Y-121435485D02*
X47928544Y-121197390D01*
X47928544Y-121197390D02*
X47976163Y-121054533D01*
X47976163Y-121054533D02*
X48071401Y-120959295D01*
X48071401Y-120959295D02*
X48166639Y-120911676D01*
X48166639Y-120911676D02*
X48357115Y-120864057D01*
X48357115Y-120864057D02*
X48499972Y-120864057D01*
X48499972Y-120864057D02*
X48690448Y-120911676D01*
X48690448Y-120911676D02*
X48785686Y-120959295D01*
X48785686Y-120959295D02*
X48880925Y-121054533D01*
X48880925Y-121054533D02*
X48928544Y-121197390D01*
X48928544Y-121197390D02*
X48928544Y-121435485D01*
X48023782Y-120483104D02*
X47976163Y-120435485D01*
X47976163Y-120435485D02*
X47928544Y-120340247D01*
X47928544Y-120340247D02*
X47928544Y-120102152D01*
X47928544Y-120102152D02*
X47976163Y-120006914D01*
X47976163Y-120006914D02*
X48023782Y-119959295D01*
X48023782Y-119959295D02*
X48119020Y-119911676D01*
X48119020Y-119911676D02*
X48214258Y-119911676D01*
X48214258Y-119911676D02*
X48357115Y-119959295D01*
X48357115Y-119959295D02*
X48928544Y-120530723D01*
X48928544Y-120530723D02*
X48928544Y-119911676D01*
X47928544Y-119006914D02*
X47928544Y-119483104D01*
X47928544Y-119483104D02*
X48404734Y-119530723D01*
X48404734Y-119530723D02*
X48357115Y-119483104D01*
X48357115Y-119483104D02*
X48309496Y-119387866D01*
X48309496Y-119387866D02*
X48309496Y-119149771D01*
X48309496Y-119149771D02*
X48357115Y-119054533D01*
X48357115Y-119054533D02*
X48404734Y-119006914D01*
X48404734Y-119006914D02*
X48499972Y-118959295D01*
X48499972Y-118959295D02*
X48738067Y-118959295D01*
X48738067Y-118959295D02*
X48833305Y-119006914D01*
X48833305Y-119006914D02*
X48880925Y-119054533D01*
X48880925Y-119054533D02*
X48928544Y-119149771D01*
X48928544Y-119149771D02*
X48928544Y-119387866D01*
X48928544Y-119387866D02*
X48880925Y-119483104D01*
X48880925Y-119483104D02*
X48833305Y-119530723D01*
X128472535Y-37014819D02*
X128472535Y-36014819D01*
X128472535Y-36014819D02*
X128853487Y-36014819D01*
X128853487Y-36014819D02*
X128948725Y-36062438D01*
X128948725Y-36062438D02*
X128996344Y-36110057D01*
X128996344Y-36110057D02*
X129043963Y-36205295D01*
X129043963Y-36205295D02*
X129043963Y-36348152D01*
X129043963Y-36348152D02*
X128996344Y-36443390D01*
X128996344Y-36443390D02*
X128948725Y-36491009D01*
X128948725Y-36491009D02*
X128853487Y-36538628D01*
X128853487Y-36538628D02*
X128472535Y-36538628D01*
X129472535Y-37014819D02*
X129472535Y-36014819D01*
X129901106Y-36967200D02*
X130043963Y-37014819D01*
X130043963Y-37014819D02*
X130282058Y-37014819D01*
X130282058Y-37014819D02*
X130377296Y-36967200D01*
X130377296Y-36967200D02*
X130424915Y-36919580D01*
X130424915Y-36919580D02*
X130472534Y-36824342D01*
X130472534Y-36824342D02*
X130472534Y-36729104D01*
X130472534Y-36729104D02*
X130424915Y-36633866D01*
X130424915Y-36633866D02*
X130377296Y-36586247D01*
X130377296Y-36586247D02*
X130282058Y-36538628D01*
X130282058Y-36538628D02*
X130091582Y-36491009D01*
X130091582Y-36491009D02*
X129996344Y-36443390D01*
X129996344Y-36443390D02*
X129948725Y-36395771D01*
X129948725Y-36395771D02*
X129901106Y-36300533D01*
X129901106Y-36300533D02*
X129901106Y-36205295D01*
X129901106Y-36205295D02*
X129948725Y-36110057D01*
X129948725Y-36110057D02*
X129996344Y-36062438D01*
X129996344Y-36062438D02*
X130091582Y-36014819D01*
X130091582Y-36014819D02*
X130329677Y-36014819D01*
X130329677Y-36014819D02*
X130472534Y-36062438D01*
X131091582Y-36014819D02*
X131282058Y-36014819D01*
X131282058Y-36014819D02*
X131377296Y-36062438D01*
X131377296Y-36062438D02*
X131472534Y-36157676D01*
X131472534Y-36157676D02*
X131520153Y-36348152D01*
X131520153Y-36348152D02*
X131520153Y-36681485D01*
X131520153Y-36681485D02*
X131472534Y-36871961D01*
X131472534Y-36871961D02*
X131377296Y-36967200D01*
X131377296Y-36967200D02*
X131282058Y-37014819D01*
X131282058Y-37014819D02*
X131091582Y-37014819D01*
X131091582Y-37014819D02*
X130996344Y-36967200D01*
X130996344Y-36967200D02*
X130901106Y-36871961D01*
X130901106Y-36871961D02*
X130853487Y-36681485D01*
X130853487Y-36681485D02*
X130853487Y-36348152D01*
X130853487Y-36348152D02*
X130901106Y-36157676D01*
X130901106Y-36157676D02*
X130996344Y-36062438D01*
X130996344Y-36062438D02*
X131091582Y-36014819D01*
X132472534Y-37014819D02*
X131901106Y-37014819D01*
X132186820Y-37014819D02*
X132186820Y-36014819D01*
X132186820Y-36014819D02*
X132091582Y-36157676D01*
X132091582Y-36157676D02*
X131996344Y-36252914D01*
X131996344Y-36252914D02*
X131901106Y-36300533D01*
X163228544Y-140485485D02*
X162228544Y-140485485D01*
X162228544Y-140485485D02*
X162228544Y-140247390D01*
X162228544Y-140247390D02*
X162276163Y-140104533D01*
X162276163Y-140104533D02*
X162371401Y-140009295D01*
X162371401Y-140009295D02*
X162466639Y-139961676D01*
X162466639Y-139961676D02*
X162657115Y-139914057D01*
X162657115Y-139914057D02*
X162799972Y-139914057D01*
X162799972Y-139914057D02*
X162990448Y-139961676D01*
X162990448Y-139961676D02*
X163085686Y-140009295D01*
X163085686Y-140009295D02*
X163180925Y-140104533D01*
X163180925Y-140104533D02*
X163228544Y-140247390D01*
X163228544Y-140247390D02*
X163228544Y-140485485D01*
X162228544Y-139580723D02*
X162228544Y-138961676D01*
X162228544Y-138961676D02*
X162609496Y-139295009D01*
X162609496Y-139295009D02*
X162609496Y-139152152D01*
X162609496Y-139152152D02*
X162657115Y-139056914D01*
X162657115Y-139056914D02*
X162704734Y-139009295D01*
X162704734Y-139009295D02*
X162799972Y-138961676D01*
X162799972Y-138961676D02*
X163038067Y-138961676D01*
X163038067Y-138961676D02*
X163133305Y-139009295D01*
X163133305Y-139009295D02*
X163180925Y-139056914D01*
X163180925Y-139056914D02*
X163228544Y-139152152D01*
X163228544Y-139152152D02*
X163228544Y-139437866D01*
X163228544Y-139437866D02*
X163180925Y-139533104D01*
X163180925Y-139533104D02*
X163133305Y-139580723D01*
X163228544Y-138485485D02*
X163228544Y-138295009D01*
X163228544Y-138295009D02*
X163180925Y-138199771D01*
X163180925Y-138199771D02*
X163133305Y-138152152D01*
X163133305Y-138152152D02*
X162990448Y-138056914D01*
X162990448Y-138056914D02*
X162799972Y-138009295D01*
X162799972Y-138009295D02*
X162419020Y-138009295D01*
X162419020Y-138009295D02*
X162323782Y-138056914D01*
X162323782Y-138056914D02*
X162276163Y-138104533D01*
X162276163Y-138104533D02*
X162228544Y-138199771D01*
X162228544Y-138199771D02*
X162228544Y-138390247D01*
X162228544Y-138390247D02*
X162276163Y-138485485D01*
X162276163Y-138485485D02*
X162323782Y-138533104D01*
X162323782Y-138533104D02*
X162419020Y-138580723D01*
X162419020Y-138580723D02*
X162657115Y-138580723D01*
X162657115Y-138580723D02*
X162752353Y-138533104D01*
X162752353Y-138533104D02*
X162799972Y-138485485D01*
X162799972Y-138485485D02*
X162847591Y-138390247D01*
X162847591Y-138390247D02*
X162847591Y-138199771D01*
X162847591Y-138199771D02*
X162799972Y-138104533D01*
X162799972Y-138104533D02*
X162752353Y-138056914D01*
X162752353Y-138056914D02*
X162657115Y-138009295D01*
X144178544Y-102385485D02*
X143178544Y-102385485D01*
X143178544Y-102385485D02*
X143178544Y-102147390D01*
X143178544Y-102147390D02*
X143226163Y-102004533D01*
X143226163Y-102004533D02*
X143321401Y-101909295D01*
X143321401Y-101909295D02*
X143416639Y-101861676D01*
X143416639Y-101861676D02*
X143607115Y-101814057D01*
X143607115Y-101814057D02*
X143749972Y-101814057D01*
X143749972Y-101814057D02*
X143940448Y-101861676D01*
X143940448Y-101861676D02*
X144035686Y-101909295D01*
X144035686Y-101909295D02*
X144130925Y-102004533D01*
X144130925Y-102004533D02*
X144178544Y-102147390D01*
X144178544Y-102147390D02*
X144178544Y-102385485D01*
X143273782Y-101433104D02*
X143226163Y-101385485D01*
X143226163Y-101385485D02*
X143178544Y-101290247D01*
X143178544Y-101290247D02*
X143178544Y-101052152D01*
X143178544Y-101052152D02*
X143226163Y-100956914D01*
X143226163Y-100956914D02*
X143273782Y-100909295D01*
X143273782Y-100909295D02*
X143369020Y-100861676D01*
X143369020Y-100861676D02*
X143464258Y-100861676D01*
X143464258Y-100861676D02*
X143607115Y-100909295D01*
X143607115Y-100909295D02*
X144178544Y-101480723D01*
X144178544Y-101480723D02*
X144178544Y-100861676D01*
X143273782Y-100480723D02*
X143226163Y-100433104D01*
X143226163Y-100433104D02*
X143178544Y-100337866D01*
X143178544Y-100337866D02*
X143178544Y-100099771D01*
X143178544Y-100099771D02*
X143226163Y-100004533D01*
X143226163Y-100004533D02*
X143273782Y-99956914D01*
X143273782Y-99956914D02*
X143369020Y-99909295D01*
X143369020Y-99909295D02*
X143464258Y-99909295D01*
X143464258Y-99909295D02*
X143607115Y-99956914D01*
X143607115Y-99956914D02*
X144178544Y-100528342D01*
X144178544Y-100528342D02*
X144178544Y-99909295D01*
X182278544Y-159535485D02*
X181278544Y-159535485D01*
X181278544Y-159535485D02*
X181278544Y-159297390D01*
X181278544Y-159297390D02*
X181326163Y-159154533D01*
X181326163Y-159154533D02*
X181421401Y-159059295D01*
X181421401Y-159059295D02*
X181516639Y-159011676D01*
X181516639Y-159011676D02*
X181707115Y-158964057D01*
X181707115Y-158964057D02*
X181849972Y-158964057D01*
X181849972Y-158964057D02*
X182040448Y-159011676D01*
X182040448Y-159011676D02*
X182135686Y-159059295D01*
X182135686Y-159059295D02*
X182230925Y-159154533D01*
X182230925Y-159154533D02*
X182278544Y-159297390D01*
X182278544Y-159297390D02*
X182278544Y-159535485D01*
X181611877Y-158106914D02*
X182278544Y-158106914D01*
X181230925Y-158345009D02*
X181945210Y-158583104D01*
X181945210Y-158583104D02*
X181945210Y-157964057D01*
X181707115Y-157440247D02*
X181659496Y-157535485D01*
X181659496Y-157535485D02*
X181611877Y-157583104D01*
X181611877Y-157583104D02*
X181516639Y-157630723D01*
X181516639Y-157630723D02*
X181469020Y-157630723D01*
X181469020Y-157630723D02*
X181373782Y-157583104D01*
X181373782Y-157583104D02*
X181326163Y-157535485D01*
X181326163Y-157535485D02*
X181278544Y-157440247D01*
X181278544Y-157440247D02*
X181278544Y-157249771D01*
X181278544Y-157249771D02*
X181326163Y-157154533D01*
X181326163Y-157154533D02*
X181373782Y-157106914D01*
X181373782Y-157106914D02*
X181469020Y-157059295D01*
X181469020Y-157059295D02*
X181516639Y-157059295D01*
X181516639Y-157059295D02*
X181611877Y-157106914D01*
X181611877Y-157106914D02*
X181659496Y-157154533D01*
X181659496Y-157154533D02*
X181707115Y-157249771D01*
X181707115Y-157249771D02*
X181707115Y-157440247D01*
X181707115Y-157440247D02*
X181754734Y-157535485D01*
X181754734Y-157535485D02*
X181802353Y-157583104D01*
X181802353Y-157583104D02*
X181897591Y-157630723D01*
X181897591Y-157630723D02*
X182088067Y-157630723D01*
X182088067Y-157630723D02*
X182183305Y-157583104D01*
X182183305Y-157583104D02*
X182230925Y-157535485D01*
X182230925Y-157535485D02*
X182278544Y-157440247D01*
X182278544Y-157440247D02*
X182278544Y-157249771D01*
X182278544Y-157249771D02*
X182230925Y-157154533D01*
X182230925Y-157154533D02*
X182183305Y-157106914D01*
X182183305Y-157106914D02*
X182088067Y-157059295D01*
X182088067Y-157059295D02*
X181897591Y-157059295D01*
X181897591Y-157059295D02*
X181802353Y-157106914D01*
X181802353Y-157106914D02*
X181754734Y-157154533D01*
X181754734Y-157154533D02*
X181707115Y-157249771D01*
X106078544Y-83335485D02*
X105078544Y-83335485D01*
X105078544Y-83335485D02*
X105078544Y-83097390D01*
X105078544Y-83097390D02*
X105126163Y-82954533D01*
X105126163Y-82954533D02*
X105221401Y-82859295D01*
X105221401Y-82859295D02*
X105316639Y-82811676D01*
X105316639Y-82811676D02*
X105507115Y-82764057D01*
X105507115Y-82764057D02*
X105649972Y-82764057D01*
X105649972Y-82764057D02*
X105840448Y-82811676D01*
X105840448Y-82811676D02*
X105935686Y-82859295D01*
X105935686Y-82859295D02*
X106030925Y-82954533D01*
X106030925Y-82954533D02*
X106078544Y-83097390D01*
X106078544Y-83097390D02*
X106078544Y-83335485D01*
X106078544Y-81811676D02*
X106078544Y-82383104D01*
X106078544Y-82097390D02*
X105078544Y-82097390D01*
X105078544Y-82097390D02*
X105221401Y-82192628D01*
X105221401Y-82192628D02*
X105316639Y-82287866D01*
X105316639Y-82287866D02*
X105364258Y-82383104D01*
X105173782Y-81430723D02*
X105126163Y-81383104D01*
X105126163Y-81383104D02*
X105078544Y-81287866D01*
X105078544Y-81287866D02*
X105078544Y-81049771D01*
X105078544Y-81049771D02*
X105126163Y-80954533D01*
X105126163Y-80954533D02*
X105173782Y-80906914D01*
X105173782Y-80906914D02*
X105269020Y-80859295D01*
X105269020Y-80859295D02*
X105364258Y-80859295D01*
X105364258Y-80859295D02*
X105507115Y-80906914D01*
X105507115Y-80906914D02*
X106078544Y-81478342D01*
X106078544Y-81478342D02*
X106078544Y-80859295D01*
X182278544Y-140485485D02*
X181278544Y-140485485D01*
X181278544Y-140485485D02*
X181278544Y-140247390D01*
X181278544Y-140247390D02*
X181326163Y-140104533D01*
X181326163Y-140104533D02*
X181421401Y-140009295D01*
X181421401Y-140009295D02*
X181516639Y-139961676D01*
X181516639Y-139961676D02*
X181707115Y-139914057D01*
X181707115Y-139914057D02*
X181849972Y-139914057D01*
X181849972Y-139914057D02*
X182040448Y-139961676D01*
X182040448Y-139961676D02*
X182135686Y-140009295D01*
X182135686Y-140009295D02*
X182230925Y-140104533D01*
X182230925Y-140104533D02*
X182278544Y-140247390D01*
X182278544Y-140247390D02*
X182278544Y-140485485D01*
X181611877Y-139056914D02*
X182278544Y-139056914D01*
X181230925Y-139295009D02*
X181945210Y-139533104D01*
X181945210Y-139533104D02*
X181945210Y-138914057D01*
X181278544Y-138342628D02*
X181278544Y-138247390D01*
X181278544Y-138247390D02*
X181326163Y-138152152D01*
X181326163Y-138152152D02*
X181373782Y-138104533D01*
X181373782Y-138104533D02*
X181469020Y-138056914D01*
X181469020Y-138056914D02*
X181659496Y-138009295D01*
X181659496Y-138009295D02*
X181897591Y-138009295D01*
X181897591Y-138009295D02*
X182088067Y-138056914D01*
X182088067Y-138056914D02*
X182183305Y-138104533D01*
X182183305Y-138104533D02*
X182230925Y-138152152D01*
X182230925Y-138152152D02*
X182278544Y-138247390D01*
X182278544Y-138247390D02*
X182278544Y-138342628D01*
X182278544Y-138342628D02*
X182230925Y-138437866D01*
X182230925Y-138437866D02*
X182183305Y-138485485D01*
X182183305Y-138485485D02*
X182088067Y-138533104D01*
X182088067Y-138533104D02*
X181897591Y-138580723D01*
X181897591Y-138580723D02*
X181659496Y-138580723D01*
X181659496Y-138580723D02*
X181469020Y-138533104D01*
X181469020Y-138533104D02*
X181373782Y-138485485D01*
X181373782Y-138485485D02*
X181326163Y-138437866D01*
X181326163Y-138437866D02*
X181278544Y-138342628D01*
X67978544Y-63809294D02*
X66978544Y-63809294D01*
X66978544Y-63809294D02*
X66978544Y-63571199D01*
X66978544Y-63571199D02*
X67026163Y-63428342D01*
X67026163Y-63428342D02*
X67121401Y-63333104D01*
X67121401Y-63333104D02*
X67216639Y-63285485D01*
X67216639Y-63285485D02*
X67407115Y-63237866D01*
X67407115Y-63237866D02*
X67549972Y-63237866D01*
X67549972Y-63237866D02*
X67740448Y-63285485D01*
X67740448Y-63285485D02*
X67835686Y-63333104D01*
X67835686Y-63333104D02*
X67930925Y-63428342D01*
X67930925Y-63428342D02*
X67978544Y-63571199D01*
X67978544Y-63571199D02*
X67978544Y-63809294D01*
X67073782Y-62856913D02*
X67026163Y-62809294D01*
X67026163Y-62809294D02*
X66978544Y-62714056D01*
X66978544Y-62714056D02*
X66978544Y-62475961D01*
X66978544Y-62475961D02*
X67026163Y-62380723D01*
X67026163Y-62380723D02*
X67073782Y-62333104D01*
X67073782Y-62333104D02*
X67169020Y-62285485D01*
X67169020Y-62285485D02*
X67264258Y-62285485D01*
X67264258Y-62285485D02*
X67407115Y-62333104D01*
X67407115Y-62333104D02*
X67978544Y-62904532D01*
X67978544Y-62904532D02*
X67978544Y-62285485D01*
X125128544Y-178585485D02*
X124128544Y-178585485D01*
X124128544Y-178585485D02*
X124128544Y-178347390D01*
X124128544Y-178347390D02*
X124176163Y-178204533D01*
X124176163Y-178204533D02*
X124271401Y-178109295D01*
X124271401Y-178109295D02*
X124366639Y-178061676D01*
X124366639Y-178061676D02*
X124557115Y-178014057D01*
X124557115Y-178014057D02*
X124699972Y-178014057D01*
X124699972Y-178014057D02*
X124890448Y-178061676D01*
X124890448Y-178061676D02*
X124985686Y-178109295D01*
X124985686Y-178109295D02*
X125080925Y-178204533D01*
X125080925Y-178204533D02*
X125128544Y-178347390D01*
X125128544Y-178347390D02*
X125128544Y-178585485D01*
X124128544Y-177109295D02*
X124128544Y-177585485D01*
X124128544Y-177585485D02*
X124604734Y-177633104D01*
X124604734Y-177633104D02*
X124557115Y-177585485D01*
X124557115Y-177585485D02*
X124509496Y-177490247D01*
X124509496Y-177490247D02*
X124509496Y-177252152D01*
X124509496Y-177252152D02*
X124557115Y-177156914D01*
X124557115Y-177156914D02*
X124604734Y-177109295D01*
X124604734Y-177109295D02*
X124699972Y-177061676D01*
X124699972Y-177061676D02*
X124938067Y-177061676D01*
X124938067Y-177061676D02*
X125033305Y-177109295D01*
X125033305Y-177109295D02*
X125080925Y-177156914D01*
X125080925Y-177156914D02*
X125128544Y-177252152D01*
X125128544Y-177252152D02*
X125128544Y-177490247D01*
X125128544Y-177490247D02*
X125080925Y-177585485D01*
X125080925Y-177585485D02*
X125033305Y-177633104D01*
X124128544Y-176728342D02*
X124128544Y-176109295D01*
X124128544Y-176109295D02*
X124509496Y-176442628D01*
X124509496Y-176442628D02*
X124509496Y-176299771D01*
X124509496Y-176299771D02*
X124557115Y-176204533D01*
X124557115Y-176204533D02*
X124604734Y-176156914D01*
X124604734Y-176156914D02*
X124699972Y-176109295D01*
X124699972Y-176109295D02*
X124938067Y-176109295D01*
X124938067Y-176109295D02*
X125033305Y-176156914D01*
X125033305Y-176156914D02*
X125080925Y-176204533D01*
X125080925Y-176204533D02*
X125128544Y-176299771D01*
X125128544Y-176299771D02*
X125128544Y-176585485D01*
X125128544Y-176585485D02*
X125080925Y-176680723D01*
X125080925Y-176680723D02*
X125033305Y-176728342D01*
X177880925Y-46138808D02*
X177928544Y-45995951D01*
X177928544Y-45995951D02*
X177928544Y-45757856D01*
X177928544Y-45757856D02*
X177880925Y-45662618D01*
X177880925Y-45662618D02*
X177833305Y-45614999D01*
X177833305Y-45614999D02*
X177738067Y-45567380D01*
X177738067Y-45567380D02*
X177642829Y-45567380D01*
X177642829Y-45567380D02*
X177547591Y-45614999D01*
X177547591Y-45614999D02*
X177499972Y-45662618D01*
X177499972Y-45662618D02*
X177452353Y-45757856D01*
X177452353Y-45757856D02*
X177404734Y-45948332D01*
X177404734Y-45948332D02*
X177357115Y-46043570D01*
X177357115Y-46043570D02*
X177309496Y-46091189D01*
X177309496Y-46091189D02*
X177214258Y-46138808D01*
X177214258Y-46138808D02*
X177119020Y-46138808D01*
X177119020Y-46138808D02*
X177023782Y-46091189D01*
X177023782Y-46091189D02*
X176976163Y-46043570D01*
X176976163Y-46043570D02*
X176928544Y-45948332D01*
X176928544Y-45948332D02*
X176928544Y-45710237D01*
X176928544Y-45710237D02*
X176976163Y-45567380D01*
X177928544Y-45138808D02*
X176928544Y-45138808D01*
X177928544Y-44662618D02*
X176928544Y-44662618D01*
X176928544Y-44662618D02*
X176928544Y-44281666D01*
X176928544Y-44281666D02*
X176976163Y-44186428D01*
X176976163Y-44186428D02*
X177023782Y-44138809D01*
X177023782Y-44138809D02*
X177119020Y-44091190D01*
X177119020Y-44091190D02*
X177261877Y-44091190D01*
X177261877Y-44091190D02*
X177357115Y-44138809D01*
X177357115Y-44138809D02*
X177404734Y-44186428D01*
X177404734Y-44186428D02*
X177452353Y-44281666D01*
X177452353Y-44281666D02*
X177452353Y-44662618D01*
X176928544Y-43472142D02*
X176928544Y-43281666D01*
X176928544Y-43281666D02*
X176976163Y-43186428D01*
X176976163Y-43186428D02*
X177071401Y-43091190D01*
X177071401Y-43091190D02*
X177261877Y-43043571D01*
X177261877Y-43043571D02*
X177595210Y-43043571D01*
X177595210Y-43043571D02*
X177785686Y-43091190D01*
X177785686Y-43091190D02*
X177880925Y-43186428D01*
X177880925Y-43186428D02*
X177928544Y-43281666D01*
X177928544Y-43281666D02*
X177928544Y-43472142D01*
X177928544Y-43472142D02*
X177880925Y-43567380D01*
X177880925Y-43567380D02*
X177785686Y-43662618D01*
X177785686Y-43662618D02*
X177595210Y-43710237D01*
X177595210Y-43710237D02*
X177261877Y-43710237D01*
X177261877Y-43710237D02*
X177071401Y-43662618D01*
X177071401Y-43662618D02*
X176976163Y-43567380D01*
X176976163Y-43567380D02*
X176928544Y-43472142D01*
X177928544Y-42091190D02*
X177928544Y-42662618D01*
X177928544Y-42376904D02*
X176928544Y-42376904D01*
X176928544Y-42376904D02*
X177071401Y-42472142D01*
X177071401Y-42472142D02*
X177166639Y-42567380D01*
X177166639Y-42567380D02*
X177214258Y-42662618D01*
X163228544Y-121435485D02*
X162228544Y-121435485D01*
X162228544Y-121435485D02*
X162228544Y-121197390D01*
X162228544Y-121197390D02*
X162276163Y-121054533D01*
X162276163Y-121054533D02*
X162371401Y-120959295D01*
X162371401Y-120959295D02*
X162466639Y-120911676D01*
X162466639Y-120911676D02*
X162657115Y-120864057D01*
X162657115Y-120864057D02*
X162799972Y-120864057D01*
X162799972Y-120864057D02*
X162990448Y-120911676D01*
X162990448Y-120911676D02*
X163085686Y-120959295D01*
X163085686Y-120959295D02*
X163180925Y-121054533D01*
X163180925Y-121054533D02*
X163228544Y-121197390D01*
X163228544Y-121197390D02*
X163228544Y-121435485D01*
X162228544Y-120530723D02*
X162228544Y-119911676D01*
X162228544Y-119911676D02*
X162609496Y-120245009D01*
X162609496Y-120245009D02*
X162609496Y-120102152D01*
X162609496Y-120102152D02*
X162657115Y-120006914D01*
X162657115Y-120006914D02*
X162704734Y-119959295D01*
X162704734Y-119959295D02*
X162799972Y-119911676D01*
X162799972Y-119911676D02*
X163038067Y-119911676D01*
X163038067Y-119911676D02*
X163133305Y-119959295D01*
X163133305Y-119959295D02*
X163180925Y-120006914D01*
X163180925Y-120006914D02*
X163228544Y-120102152D01*
X163228544Y-120102152D02*
X163228544Y-120387866D01*
X163228544Y-120387866D02*
X163180925Y-120483104D01*
X163180925Y-120483104D02*
X163133305Y-120530723D01*
X163228544Y-118959295D02*
X163228544Y-119530723D01*
X163228544Y-119245009D02*
X162228544Y-119245009D01*
X162228544Y-119245009D02*
X162371401Y-119340247D01*
X162371401Y-119340247D02*
X162466639Y-119435485D01*
X162466639Y-119435485D02*
X162514258Y-119530723D01*
X144178544Y-83335485D02*
X143178544Y-83335485D01*
X143178544Y-83335485D02*
X143178544Y-83097390D01*
X143178544Y-83097390D02*
X143226163Y-82954533D01*
X143226163Y-82954533D02*
X143321401Y-82859295D01*
X143321401Y-82859295D02*
X143416639Y-82811676D01*
X143416639Y-82811676D02*
X143607115Y-82764057D01*
X143607115Y-82764057D02*
X143749972Y-82764057D01*
X143749972Y-82764057D02*
X143940448Y-82811676D01*
X143940448Y-82811676D02*
X144035686Y-82859295D01*
X144035686Y-82859295D02*
X144130925Y-82954533D01*
X144130925Y-82954533D02*
X144178544Y-83097390D01*
X144178544Y-83097390D02*
X144178544Y-83335485D01*
X144178544Y-81811676D02*
X144178544Y-82383104D01*
X144178544Y-82097390D02*
X143178544Y-82097390D01*
X143178544Y-82097390D02*
X143321401Y-82192628D01*
X143321401Y-82192628D02*
X143416639Y-82287866D01*
X143416639Y-82287866D02*
X143464258Y-82383104D01*
X143511877Y-80954533D02*
X144178544Y-80954533D01*
X143130925Y-81192628D02*
X143845210Y-81430723D01*
X143845210Y-81430723D02*
X143845210Y-80811676D01*
X182278544Y-197635485D02*
X181278544Y-197635485D01*
X181278544Y-197635485D02*
X181278544Y-197397390D01*
X181278544Y-197397390D02*
X181326163Y-197254533D01*
X181326163Y-197254533D02*
X181421401Y-197159295D01*
X181421401Y-197159295D02*
X181516639Y-197111676D01*
X181516639Y-197111676D02*
X181707115Y-197064057D01*
X181707115Y-197064057D02*
X181849972Y-197064057D01*
X181849972Y-197064057D02*
X182040448Y-197111676D01*
X182040448Y-197111676D02*
X182135686Y-197159295D01*
X182135686Y-197159295D02*
X182230925Y-197254533D01*
X182230925Y-197254533D02*
X182278544Y-197397390D01*
X182278544Y-197397390D02*
X182278544Y-197635485D01*
X181278544Y-196206914D02*
X181278544Y-196397390D01*
X181278544Y-196397390D02*
X181326163Y-196492628D01*
X181326163Y-196492628D02*
X181373782Y-196540247D01*
X181373782Y-196540247D02*
X181516639Y-196635485D01*
X181516639Y-196635485D02*
X181707115Y-196683104D01*
X181707115Y-196683104D02*
X182088067Y-196683104D01*
X182088067Y-196683104D02*
X182183305Y-196635485D01*
X182183305Y-196635485D02*
X182230925Y-196587866D01*
X182230925Y-196587866D02*
X182278544Y-196492628D01*
X182278544Y-196492628D02*
X182278544Y-196302152D01*
X182278544Y-196302152D02*
X182230925Y-196206914D01*
X182230925Y-196206914D02*
X182183305Y-196159295D01*
X182183305Y-196159295D02*
X182088067Y-196111676D01*
X182088067Y-196111676D02*
X181849972Y-196111676D01*
X181849972Y-196111676D02*
X181754734Y-196159295D01*
X181754734Y-196159295D02*
X181707115Y-196206914D01*
X181707115Y-196206914D02*
X181659496Y-196302152D01*
X181659496Y-196302152D02*
X181659496Y-196492628D01*
X181659496Y-196492628D02*
X181707115Y-196587866D01*
X181707115Y-196587866D02*
X181754734Y-196635485D01*
X181754734Y-196635485D02*
X181849972Y-196683104D01*
X181611877Y-195254533D02*
X182278544Y-195254533D01*
X181230925Y-195492628D02*
X181945210Y-195730723D01*
X181945210Y-195730723D02*
X181945210Y-195111676D01*
X106078544Y-197635485D02*
X105078544Y-197635485D01*
X105078544Y-197635485D02*
X105078544Y-197397390D01*
X105078544Y-197397390D02*
X105126163Y-197254533D01*
X105126163Y-197254533D02*
X105221401Y-197159295D01*
X105221401Y-197159295D02*
X105316639Y-197111676D01*
X105316639Y-197111676D02*
X105507115Y-197064057D01*
X105507115Y-197064057D02*
X105649972Y-197064057D01*
X105649972Y-197064057D02*
X105840448Y-197111676D01*
X105840448Y-197111676D02*
X105935686Y-197159295D01*
X105935686Y-197159295D02*
X106030925Y-197254533D01*
X106030925Y-197254533D02*
X106078544Y-197397390D01*
X106078544Y-197397390D02*
X106078544Y-197635485D01*
X105078544Y-196206914D02*
X105078544Y-196397390D01*
X105078544Y-196397390D02*
X105126163Y-196492628D01*
X105126163Y-196492628D02*
X105173782Y-196540247D01*
X105173782Y-196540247D02*
X105316639Y-196635485D01*
X105316639Y-196635485D02*
X105507115Y-196683104D01*
X105507115Y-196683104D02*
X105888067Y-196683104D01*
X105888067Y-196683104D02*
X105983305Y-196635485D01*
X105983305Y-196635485D02*
X106030925Y-196587866D01*
X106030925Y-196587866D02*
X106078544Y-196492628D01*
X106078544Y-196492628D02*
X106078544Y-196302152D01*
X106078544Y-196302152D02*
X106030925Y-196206914D01*
X106030925Y-196206914D02*
X105983305Y-196159295D01*
X105983305Y-196159295D02*
X105888067Y-196111676D01*
X105888067Y-196111676D02*
X105649972Y-196111676D01*
X105649972Y-196111676D02*
X105554734Y-196159295D01*
X105554734Y-196159295D02*
X105507115Y-196206914D01*
X105507115Y-196206914D02*
X105459496Y-196302152D01*
X105459496Y-196302152D02*
X105459496Y-196492628D01*
X105459496Y-196492628D02*
X105507115Y-196587866D01*
X105507115Y-196587866D02*
X105554734Y-196635485D01*
X105554734Y-196635485D02*
X105649972Y-196683104D01*
X105078544Y-195492628D02*
X105078544Y-195397390D01*
X105078544Y-195397390D02*
X105126163Y-195302152D01*
X105126163Y-195302152D02*
X105173782Y-195254533D01*
X105173782Y-195254533D02*
X105269020Y-195206914D01*
X105269020Y-195206914D02*
X105459496Y-195159295D01*
X105459496Y-195159295D02*
X105697591Y-195159295D01*
X105697591Y-195159295D02*
X105888067Y-195206914D01*
X105888067Y-195206914D02*
X105983305Y-195254533D01*
X105983305Y-195254533D02*
X106030925Y-195302152D01*
X106030925Y-195302152D02*
X106078544Y-195397390D01*
X106078544Y-195397390D02*
X106078544Y-195492628D01*
X106078544Y-195492628D02*
X106030925Y-195587866D01*
X106030925Y-195587866D02*
X105983305Y-195635485D01*
X105983305Y-195635485D02*
X105888067Y-195683104D01*
X105888067Y-195683104D02*
X105697591Y-195730723D01*
X105697591Y-195730723D02*
X105459496Y-195730723D01*
X105459496Y-195730723D02*
X105269020Y-195683104D01*
X105269020Y-195683104D02*
X105173782Y-195635485D01*
X105173782Y-195635485D02*
X105126163Y-195587866D01*
X105126163Y-195587866D02*
X105078544Y-195492628D01*
X163228544Y-197635485D02*
X162228544Y-197635485D01*
X162228544Y-197635485D02*
X162228544Y-197397390D01*
X162228544Y-197397390D02*
X162276163Y-197254533D01*
X162276163Y-197254533D02*
X162371401Y-197159295D01*
X162371401Y-197159295D02*
X162466639Y-197111676D01*
X162466639Y-197111676D02*
X162657115Y-197064057D01*
X162657115Y-197064057D02*
X162799972Y-197064057D01*
X162799972Y-197064057D02*
X162990448Y-197111676D01*
X162990448Y-197111676D02*
X163085686Y-197159295D01*
X163085686Y-197159295D02*
X163180925Y-197254533D01*
X163180925Y-197254533D02*
X163228544Y-197397390D01*
X163228544Y-197397390D02*
X163228544Y-197635485D01*
X162228544Y-196206914D02*
X162228544Y-196397390D01*
X162228544Y-196397390D02*
X162276163Y-196492628D01*
X162276163Y-196492628D02*
X162323782Y-196540247D01*
X162323782Y-196540247D02*
X162466639Y-196635485D01*
X162466639Y-196635485D02*
X162657115Y-196683104D01*
X162657115Y-196683104D02*
X163038067Y-196683104D01*
X163038067Y-196683104D02*
X163133305Y-196635485D01*
X163133305Y-196635485D02*
X163180925Y-196587866D01*
X163180925Y-196587866D02*
X163228544Y-196492628D01*
X163228544Y-196492628D02*
X163228544Y-196302152D01*
X163228544Y-196302152D02*
X163180925Y-196206914D01*
X163180925Y-196206914D02*
X163133305Y-196159295D01*
X163133305Y-196159295D02*
X163038067Y-196111676D01*
X163038067Y-196111676D02*
X162799972Y-196111676D01*
X162799972Y-196111676D02*
X162704734Y-196159295D01*
X162704734Y-196159295D02*
X162657115Y-196206914D01*
X162657115Y-196206914D02*
X162609496Y-196302152D01*
X162609496Y-196302152D02*
X162609496Y-196492628D01*
X162609496Y-196492628D02*
X162657115Y-196587866D01*
X162657115Y-196587866D02*
X162704734Y-196635485D01*
X162704734Y-196635485D02*
X162799972Y-196683104D01*
X162228544Y-195778342D02*
X162228544Y-195159295D01*
X162228544Y-195159295D02*
X162609496Y-195492628D01*
X162609496Y-195492628D02*
X162609496Y-195349771D01*
X162609496Y-195349771D02*
X162657115Y-195254533D01*
X162657115Y-195254533D02*
X162704734Y-195206914D01*
X162704734Y-195206914D02*
X162799972Y-195159295D01*
X162799972Y-195159295D02*
X163038067Y-195159295D01*
X163038067Y-195159295D02*
X163133305Y-195206914D01*
X163133305Y-195206914D02*
X163180925Y-195254533D01*
X163180925Y-195254533D02*
X163228544Y-195349771D01*
X163228544Y-195349771D02*
X163228544Y-195635485D01*
X163228544Y-195635485D02*
X163180925Y-195730723D01*
X163180925Y-195730723D02*
X163133305Y-195778342D01*
X48928544Y-102385485D02*
X47928544Y-102385485D01*
X47928544Y-102385485D02*
X47928544Y-102147390D01*
X47928544Y-102147390D02*
X47976163Y-102004533D01*
X47976163Y-102004533D02*
X48071401Y-101909295D01*
X48071401Y-101909295D02*
X48166639Y-101861676D01*
X48166639Y-101861676D02*
X48357115Y-101814057D01*
X48357115Y-101814057D02*
X48499972Y-101814057D01*
X48499972Y-101814057D02*
X48690448Y-101861676D01*
X48690448Y-101861676D02*
X48785686Y-101909295D01*
X48785686Y-101909295D02*
X48880925Y-102004533D01*
X48880925Y-102004533D02*
X48928544Y-102147390D01*
X48928544Y-102147390D02*
X48928544Y-102385485D01*
X48928544Y-100861676D02*
X48928544Y-101433104D01*
X48928544Y-101147390D02*
X47928544Y-101147390D01*
X47928544Y-101147390D02*
X48071401Y-101242628D01*
X48071401Y-101242628D02*
X48166639Y-101337866D01*
X48166639Y-101337866D02*
X48214258Y-101433104D01*
X47928544Y-100528342D02*
X47928544Y-99861676D01*
X47928544Y-99861676D02*
X48928544Y-100290247D01*
X182278544Y-102385485D02*
X181278544Y-102385485D01*
X181278544Y-102385485D02*
X181278544Y-102147390D01*
X181278544Y-102147390D02*
X181326163Y-102004533D01*
X181326163Y-102004533D02*
X181421401Y-101909295D01*
X181421401Y-101909295D02*
X181516639Y-101861676D01*
X181516639Y-101861676D02*
X181707115Y-101814057D01*
X181707115Y-101814057D02*
X181849972Y-101814057D01*
X181849972Y-101814057D02*
X182040448Y-101861676D01*
X182040448Y-101861676D02*
X182135686Y-101909295D01*
X182135686Y-101909295D02*
X182230925Y-102004533D01*
X182230925Y-102004533D02*
X182278544Y-102147390D01*
X182278544Y-102147390D02*
X182278544Y-102385485D01*
X181373782Y-101433104D02*
X181326163Y-101385485D01*
X181326163Y-101385485D02*
X181278544Y-101290247D01*
X181278544Y-101290247D02*
X181278544Y-101052152D01*
X181278544Y-101052152D02*
X181326163Y-100956914D01*
X181326163Y-100956914D02*
X181373782Y-100909295D01*
X181373782Y-100909295D02*
X181469020Y-100861676D01*
X181469020Y-100861676D02*
X181564258Y-100861676D01*
X181564258Y-100861676D02*
X181707115Y-100909295D01*
X181707115Y-100909295D02*
X182278544Y-101480723D01*
X182278544Y-101480723D02*
X182278544Y-100861676D01*
X181611877Y-100004533D02*
X182278544Y-100004533D01*
X181230925Y-100242628D02*
X181945210Y-100480723D01*
X181945210Y-100480723D02*
X181945210Y-99861676D01*
X125128544Y-197635485D02*
X124128544Y-197635485D01*
X124128544Y-197635485D02*
X124128544Y-197397390D01*
X124128544Y-197397390D02*
X124176163Y-197254533D01*
X124176163Y-197254533D02*
X124271401Y-197159295D01*
X124271401Y-197159295D02*
X124366639Y-197111676D01*
X124366639Y-197111676D02*
X124557115Y-197064057D01*
X124557115Y-197064057D02*
X124699972Y-197064057D01*
X124699972Y-197064057D02*
X124890448Y-197111676D01*
X124890448Y-197111676D02*
X124985686Y-197159295D01*
X124985686Y-197159295D02*
X125080925Y-197254533D01*
X125080925Y-197254533D02*
X125128544Y-197397390D01*
X125128544Y-197397390D02*
X125128544Y-197635485D01*
X124128544Y-196206914D02*
X124128544Y-196397390D01*
X124128544Y-196397390D02*
X124176163Y-196492628D01*
X124176163Y-196492628D02*
X124223782Y-196540247D01*
X124223782Y-196540247D02*
X124366639Y-196635485D01*
X124366639Y-196635485D02*
X124557115Y-196683104D01*
X124557115Y-196683104D02*
X124938067Y-196683104D01*
X124938067Y-196683104D02*
X125033305Y-196635485D01*
X125033305Y-196635485D02*
X125080925Y-196587866D01*
X125080925Y-196587866D02*
X125128544Y-196492628D01*
X125128544Y-196492628D02*
X125128544Y-196302152D01*
X125128544Y-196302152D02*
X125080925Y-196206914D01*
X125080925Y-196206914D02*
X125033305Y-196159295D01*
X125033305Y-196159295D02*
X124938067Y-196111676D01*
X124938067Y-196111676D02*
X124699972Y-196111676D01*
X124699972Y-196111676D02*
X124604734Y-196159295D01*
X124604734Y-196159295D02*
X124557115Y-196206914D01*
X124557115Y-196206914D02*
X124509496Y-196302152D01*
X124509496Y-196302152D02*
X124509496Y-196492628D01*
X124509496Y-196492628D02*
X124557115Y-196587866D01*
X124557115Y-196587866D02*
X124604734Y-196635485D01*
X124604734Y-196635485D02*
X124699972Y-196683104D01*
X125128544Y-195159295D02*
X125128544Y-195730723D01*
X125128544Y-195445009D02*
X124128544Y-195445009D01*
X124128544Y-195445009D02*
X124271401Y-195540247D01*
X124271401Y-195540247D02*
X124366639Y-195635485D01*
X124366639Y-195635485D02*
X124414258Y-195730723D01*
X67978544Y-121435485D02*
X66978544Y-121435485D01*
X66978544Y-121435485D02*
X66978544Y-121197390D01*
X66978544Y-121197390D02*
X67026163Y-121054533D01*
X67026163Y-121054533D02*
X67121401Y-120959295D01*
X67121401Y-120959295D02*
X67216639Y-120911676D01*
X67216639Y-120911676D02*
X67407115Y-120864057D01*
X67407115Y-120864057D02*
X67549972Y-120864057D01*
X67549972Y-120864057D02*
X67740448Y-120911676D01*
X67740448Y-120911676D02*
X67835686Y-120959295D01*
X67835686Y-120959295D02*
X67930925Y-121054533D01*
X67930925Y-121054533D02*
X67978544Y-121197390D01*
X67978544Y-121197390D02*
X67978544Y-121435485D01*
X67073782Y-120483104D02*
X67026163Y-120435485D01*
X67026163Y-120435485D02*
X66978544Y-120340247D01*
X66978544Y-120340247D02*
X66978544Y-120102152D01*
X66978544Y-120102152D02*
X67026163Y-120006914D01*
X67026163Y-120006914D02*
X67073782Y-119959295D01*
X67073782Y-119959295D02*
X67169020Y-119911676D01*
X67169020Y-119911676D02*
X67264258Y-119911676D01*
X67264258Y-119911676D02*
X67407115Y-119959295D01*
X67407115Y-119959295D02*
X67978544Y-120530723D01*
X67978544Y-120530723D02*
X67978544Y-119911676D01*
X66978544Y-119054533D02*
X66978544Y-119245009D01*
X66978544Y-119245009D02*
X67026163Y-119340247D01*
X67026163Y-119340247D02*
X67073782Y-119387866D01*
X67073782Y-119387866D02*
X67216639Y-119483104D01*
X67216639Y-119483104D02*
X67407115Y-119530723D01*
X67407115Y-119530723D02*
X67788067Y-119530723D01*
X67788067Y-119530723D02*
X67883305Y-119483104D01*
X67883305Y-119483104D02*
X67930925Y-119435485D01*
X67930925Y-119435485D02*
X67978544Y-119340247D01*
X67978544Y-119340247D02*
X67978544Y-119149771D01*
X67978544Y-119149771D02*
X67930925Y-119054533D01*
X67930925Y-119054533D02*
X67883305Y-119006914D01*
X67883305Y-119006914D02*
X67788067Y-118959295D01*
X67788067Y-118959295D02*
X67549972Y-118959295D01*
X67549972Y-118959295D02*
X67454734Y-119006914D01*
X67454734Y-119006914D02*
X67407115Y-119054533D01*
X67407115Y-119054533D02*
X67359496Y-119149771D01*
X67359496Y-119149771D02*
X67359496Y-119340247D01*
X67359496Y-119340247D02*
X67407115Y-119435485D01*
X67407115Y-119435485D02*
X67454734Y-119483104D01*
X67454734Y-119483104D02*
X67549972Y-119530723D01*
X163228544Y-102385485D02*
X162228544Y-102385485D01*
X162228544Y-102385485D02*
X162228544Y-102147390D01*
X162228544Y-102147390D02*
X162276163Y-102004533D01*
X162276163Y-102004533D02*
X162371401Y-101909295D01*
X162371401Y-101909295D02*
X162466639Y-101861676D01*
X162466639Y-101861676D02*
X162657115Y-101814057D01*
X162657115Y-101814057D02*
X162799972Y-101814057D01*
X162799972Y-101814057D02*
X162990448Y-101861676D01*
X162990448Y-101861676D02*
X163085686Y-101909295D01*
X163085686Y-101909295D02*
X163180925Y-102004533D01*
X163180925Y-102004533D02*
X163228544Y-102147390D01*
X163228544Y-102147390D02*
X163228544Y-102385485D01*
X162323782Y-101433104D02*
X162276163Y-101385485D01*
X162276163Y-101385485D02*
X162228544Y-101290247D01*
X162228544Y-101290247D02*
X162228544Y-101052152D01*
X162228544Y-101052152D02*
X162276163Y-100956914D01*
X162276163Y-100956914D02*
X162323782Y-100909295D01*
X162323782Y-100909295D02*
X162419020Y-100861676D01*
X162419020Y-100861676D02*
X162514258Y-100861676D01*
X162514258Y-100861676D02*
X162657115Y-100909295D01*
X162657115Y-100909295D02*
X163228544Y-101480723D01*
X163228544Y-101480723D02*
X163228544Y-100861676D01*
X162228544Y-100528342D02*
X162228544Y-99909295D01*
X162228544Y-99909295D02*
X162609496Y-100242628D01*
X162609496Y-100242628D02*
X162609496Y-100099771D01*
X162609496Y-100099771D02*
X162657115Y-100004533D01*
X162657115Y-100004533D02*
X162704734Y-99956914D01*
X162704734Y-99956914D02*
X162799972Y-99909295D01*
X162799972Y-99909295D02*
X163038067Y-99909295D01*
X163038067Y-99909295D02*
X163133305Y-99956914D01*
X163133305Y-99956914D02*
X163180925Y-100004533D01*
X163180925Y-100004533D02*
X163228544Y-100099771D01*
X163228544Y-100099771D02*
X163228544Y-100385485D01*
X163228544Y-100385485D02*
X163180925Y-100480723D01*
X163180925Y-100480723D02*
X163133305Y-100528342D01*
X144178544Y-159535485D02*
X143178544Y-159535485D01*
X143178544Y-159535485D02*
X143178544Y-159297390D01*
X143178544Y-159297390D02*
X143226163Y-159154533D01*
X143226163Y-159154533D02*
X143321401Y-159059295D01*
X143321401Y-159059295D02*
X143416639Y-159011676D01*
X143416639Y-159011676D02*
X143607115Y-158964057D01*
X143607115Y-158964057D02*
X143749972Y-158964057D01*
X143749972Y-158964057D02*
X143940448Y-159011676D01*
X143940448Y-159011676D02*
X144035686Y-159059295D01*
X144035686Y-159059295D02*
X144130925Y-159154533D01*
X144130925Y-159154533D02*
X144178544Y-159297390D01*
X144178544Y-159297390D02*
X144178544Y-159535485D01*
X143511877Y-158106914D02*
X144178544Y-158106914D01*
X143130925Y-158345009D02*
X143845210Y-158583104D01*
X143845210Y-158583104D02*
X143845210Y-157964057D01*
X143178544Y-157154533D02*
X143178544Y-157345009D01*
X143178544Y-157345009D02*
X143226163Y-157440247D01*
X143226163Y-157440247D02*
X143273782Y-157487866D01*
X143273782Y-157487866D02*
X143416639Y-157583104D01*
X143416639Y-157583104D02*
X143607115Y-157630723D01*
X143607115Y-157630723D02*
X143988067Y-157630723D01*
X143988067Y-157630723D02*
X144083305Y-157583104D01*
X144083305Y-157583104D02*
X144130925Y-157535485D01*
X144130925Y-157535485D02*
X144178544Y-157440247D01*
X144178544Y-157440247D02*
X144178544Y-157249771D01*
X144178544Y-157249771D02*
X144130925Y-157154533D01*
X144130925Y-157154533D02*
X144083305Y-157106914D01*
X144083305Y-157106914D02*
X143988067Y-157059295D01*
X143988067Y-157059295D02*
X143749972Y-157059295D01*
X143749972Y-157059295D02*
X143654734Y-157106914D01*
X143654734Y-157106914D02*
X143607115Y-157154533D01*
X143607115Y-157154533D02*
X143559496Y-157249771D01*
X143559496Y-157249771D02*
X143559496Y-157440247D01*
X143559496Y-157440247D02*
X143607115Y-157535485D01*
X143607115Y-157535485D02*
X143654734Y-157583104D01*
X143654734Y-157583104D02*
X143749972Y-157630723D01*
X163228544Y-178585485D02*
X162228544Y-178585485D01*
X162228544Y-178585485D02*
X162228544Y-178347390D01*
X162228544Y-178347390D02*
X162276163Y-178204533D01*
X162276163Y-178204533D02*
X162371401Y-178109295D01*
X162371401Y-178109295D02*
X162466639Y-178061676D01*
X162466639Y-178061676D02*
X162657115Y-178014057D01*
X162657115Y-178014057D02*
X162799972Y-178014057D01*
X162799972Y-178014057D02*
X162990448Y-178061676D01*
X162990448Y-178061676D02*
X163085686Y-178109295D01*
X163085686Y-178109295D02*
X163180925Y-178204533D01*
X163180925Y-178204533D02*
X163228544Y-178347390D01*
X163228544Y-178347390D02*
X163228544Y-178585485D01*
X162228544Y-177109295D02*
X162228544Y-177585485D01*
X162228544Y-177585485D02*
X162704734Y-177633104D01*
X162704734Y-177633104D02*
X162657115Y-177585485D01*
X162657115Y-177585485D02*
X162609496Y-177490247D01*
X162609496Y-177490247D02*
X162609496Y-177252152D01*
X162609496Y-177252152D02*
X162657115Y-177156914D01*
X162657115Y-177156914D02*
X162704734Y-177109295D01*
X162704734Y-177109295D02*
X162799972Y-177061676D01*
X162799972Y-177061676D02*
X163038067Y-177061676D01*
X163038067Y-177061676D02*
X163133305Y-177109295D01*
X163133305Y-177109295D02*
X163180925Y-177156914D01*
X163180925Y-177156914D02*
X163228544Y-177252152D01*
X163228544Y-177252152D02*
X163228544Y-177490247D01*
X163228544Y-177490247D02*
X163180925Y-177585485D01*
X163180925Y-177585485D02*
X163133305Y-177633104D01*
X162228544Y-176156914D02*
X162228544Y-176633104D01*
X162228544Y-176633104D02*
X162704734Y-176680723D01*
X162704734Y-176680723D02*
X162657115Y-176633104D01*
X162657115Y-176633104D02*
X162609496Y-176537866D01*
X162609496Y-176537866D02*
X162609496Y-176299771D01*
X162609496Y-176299771D02*
X162657115Y-176204533D01*
X162657115Y-176204533D02*
X162704734Y-176156914D01*
X162704734Y-176156914D02*
X162799972Y-176109295D01*
X162799972Y-176109295D02*
X163038067Y-176109295D01*
X163038067Y-176109295D02*
X163133305Y-176156914D01*
X163133305Y-176156914D02*
X163180925Y-176204533D01*
X163180925Y-176204533D02*
X163228544Y-176299771D01*
X163228544Y-176299771D02*
X163228544Y-176537866D01*
X163228544Y-176537866D02*
X163180925Y-176633104D01*
X163180925Y-176633104D02*
X163133305Y-176680723D01*
X48928544Y-178585485D02*
X47928544Y-178585485D01*
X47928544Y-178585485D02*
X47928544Y-178347390D01*
X47928544Y-178347390D02*
X47976163Y-178204533D01*
X47976163Y-178204533D02*
X48071401Y-178109295D01*
X48071401Y-178109295D02*
X48166639Y-178061676D01*
X48166639Y-178061676D02*
X48357115Y-178014057D01*
X48357115Y-178014057D02*
X48499972Y-178014057D01*
X48499972Y-178014057D02*
X48690448Y-178061676D01*
X48690448Y-178061676D02*
X48785686Y-178109295D01*
X48785686Y-178109295D02*
X48880925Y-178204533D01*
X48880925Y-178204533D02*
X48928544Y-178347390D01*
X48928544Y-178347390D02*
X48928544Y-178585485D01*
X48261877Y-177156914D02*
X48928544Y-177156914D01*
X47880925Y-177395009D02*
X48595210Y-177633104D01*
X48595210Y-177633104D02*
X48595210Y-177014057D01*
X48928544Y-176585485D02*
X48928544Y-176395009D01*
X48928544Y-176395009D02*
X48880925Y-176299771D01*
X48880925Y-176299771D02*
X48833305Y-176252152D01*
X48833305Y-176252152D02*
X48690448Y-176156914D01*
X48690448Y-176156914D02*
X48499972Y-176109295D01*
X48499972Y-176109295D02*
X48119020Y-176109295D01*
X48119020Y-176109295D02*
X48023782Y-176156914D01*
X48023782Y-176156914D02*
X47976163Y-176204533D01*
X47976163Y-176204533D02*
X47928544Y-176299771D01*
X47928544Y-176299771D02*
X47928544Y-176490247D01*
X47928544Y-176490247D02*
X47976163Y-176585485D01*
X47976163Y-176585485D02*
X48023782Y-176633104D01*
X48023782Y-176633104D02*
X48119020Y-176680723D01*
X48119020Y-176680723D02*
X48357115Y-176680723D01*
X48357115Y-176680723D02*
X48452353Y-176633104D01*
X48452353Y-176633104D02*
X48499972Y-176585485D01*
X48499972Y-176585485D02*
X48547591Y-176490247D01*
X48547591Y-176490247D02*
X48547591Y-176299771D01*
X48547591Y-176299771D02*
X48499972Y-176204533D01*
X48499972Y-176204533D02*
X48452353Y-176156914D01*
X48452353Y-176156914D02*
X48357115Y-176109295D01*
X87028544Y-83335485D02*
X86028544Y-83335485D01*
X86028544Y-83335485D02*
X86028544Y-83097390D01*
X86028544Y-83097390D02*
X86076163Y-82954533D01*
X86076163Y-82954533D02*
X86171401Y-82859295D01*
X86171401Y-82859295D02*
X86266639Y-82811676D01*
X86266639Y-82811676D02*
X86457115Y-82764057D01*
X86457115Y-82764057D02*
X86599972Y-82764057D01*
X86599972Y-82764057D02*
X86790448Y-82811676D01*
X86790448Y-82811676D02*
X86885686Y-82859295D01*
X86885686Y-82859295D02*
X86980925Y-82954533D01*
X86980925Y-82954533D02*
X87028544Y-83097390D01*
X87028544Y-83097390D02*
X87028544Y-83335485D01*
X87028544Y-81811676D02*
X87028544Y-82383104D01*
X87028544Y-82097390D02*
X86028544Y-82097390D01*
X86028544Y-82097390D02*
X86171401Y-82192628D01*
X86171401Y-82192628D02*
X86266639Y-82287866D01*
X86266639Y-82287866D02*
X86314258Y-82383104D01*
X87028544Y-80859295D02*
X87028544Y-81430723D01*
X87028544Y-81145009D02*
X86028544Y-81145009D01*
X86028544Y-81145009D02*
X86171401Y-81240247D01*
X86171401Y-81240247D02*
X86266639Y-81335485D01*
X86266639Y-81335485D02*
X86314258Y-81430723D01*
X125128544Y-83335485D02*
X124128544Y-83335485D01*
X124128544Y-83335485D02*
X124128544Y-83097390D01*
X124128544Y-83097390D02*
X124176163Y-82954533D01*
X124176163Y-82954533D02*
X124271401Y-82859295D01*
X124271401Y-82859295D02*
X124366639Y-82811676D01*
X124366639Y-82811676D02*
X124557115Y-82764057D01*
X124557115Y-82764057D02*
X124699972Y-82764057D01*
X124699972Y-82764057D02*
X124890448Y-82811676D01*
X124890448Y-82811676D02*
X124985686Y-82859295D01*
X124985686Y-82859295D02*
X125080925Y-82954533D01*
X125080925Y-82954533D02*
X125128544Y-83097390D01*
X125128544Y-83097390D02*
X125128544Y-83335485D01*
X125128544Y-81811676D02*
X125128544Y-82383104D01*
X125128544Y-82097390D02*
X124128544Y-82097390D01*
X124128544Y-82097390D02*
X124271401Y-82192628D01*
X124271401Y-82192628D02*
X124366639Y-82287866D01*
X124366639Y-82287866D02*
X124414258Y-82383104D01*
X124128544Y-81478342D02*
X124128544Y-80859295D01*
X124128544Y-80859295D02*
X124509496Y-81192628D01*
X124509496Y-81192628D02*
X124509496Y-81049771D01*
X124509496Y-81049771D02*
X124557115Y-80954533D01*
X124557115Y-80954533D02*
X124604734Y-80906914D01*
X124604734Y-80906914D02*
X124699972Y-80859295D01*
X124699972Y-80859295D02*
X124938067Y-80859295D01*
X124938067Y-80859295D02*
X125033305Y-80906914D01*
X125033305Y-80906914D02*
X125080925Y-80954533D01*
X125080925Y-80954533D02*
X125128544Y-81049771D01*
X125128544Y-81049771D02*
X125128544Y-81335485D01*
X125128544Y-81335485D02*
X125080925Y-81430723D01*
X125080925Y-81430723D02*
X125033305Y-81478342D01*
X48928544Y-63809294D02*
X47928544Y-63809294D01*
X47928544Y-63809294D02*
X47928544Y-63571199D01*
X47928544Y-63571199D02*
X47976163Y-63428342D01*
X47976163Y-63428342D02*
X48071401Y-63333104D01*
X48071401Y-63333104D02*
X48166639Y-63285485D01*
X48166639Y-63285485D02*
X48357115Y-63237866D01*
X48357115Y-63237866D02*
X48499972Y-63237866D01*
X48499972Y-63237866D02*
X48690448Y-63285485D01*
X48690448Y-63285485D02*
X48785686Y-63333104D01*
X48785686Y-63333104D02*
X48880925Y-63428342D01*
X48880925Y-63428342D02*
X48928544Y-63571199D01*
X48928544Y-63571199D02*
X48928544Y-63809294D01*
X48928544Y-62285485D02*
X48928544Y-62856913D01*
X48928544Y-62571199D02*
X47928544Y-62571199D01*
X47928544Y-62571199D02*
X48071401Y-62666437D01*
X48071401Y-62666437D02*
X48166639Y-62761675D01*
X48166639Y-62761675D02*
X48214258Y-62856913D01*
X182278544Y-83335485D02*
X181278544Y-83335485D01*
X181278544Y-83335485D02*
X181278544Y-83097390D01*
X181278544Y-83097390D02*
X181326163Y-82954533D01*
X181326163Y-82954533D02*
X181421401Y-82859295D01*
X181421401Y-82859295D02*
X181516639Y-82811676D01*
X181516639Y-82811676D02*
X181707115Y-82764057D01*
X181707115Y-82764057D02*
X181849972Y-82764057D01*
X181849972Y-82764057D02*
X182040448Y-82811676D01*
X182040448Y-82811676D02*
X182135686Y-82859295D01*
X182135686Y-82859295D02*
X182230925Y-82954533D01*
X182230925Y-82954533D02*
X182278544Y-83097390D01*
X182278544Y-83097390D02*
X182278544Y-83335485D01*
X182278544Y-81811676D02*
X182278544Y-82383104D01*
X182278544Y-82097390D02*
X181278544Y-82097390D01*
X181278544Y-82097390D02*
X181421401Y-82192628D01*
X181421401Y-82192628D02*
X181516639Y-82287866D01*
X181516639Y-82287866D02*
X181564258Y-82383104D01*
X181278544Y-80954533D02*
X181278544Y-81145009D01*
X181278544Y-81145009D02*
X181326163Y-81240247D01*
X181326163Y-81240247D02*
X181373782Y-81287866D01*
X181373782Y-81287866D02*
X181516639Y-81383104D01*
X181516639Y-81383104D02*
X181707115Y-81430723D01*
X181707115Y-81430723D02*
X182088067Y-81430723D01*
X182088067Y-81430723D02*
X182183305Y-81383104D01*
X182183305Y-81383104D02*
X182230925Y-81335485D01*
X182230925Y-81335485D02*
X182278544Y-81240247D01*
X182278544Y-81240247D02*
X182278544Y-81049771D01*
X182278544Y-81049771D02*
X182230925Y-80954533D01*
X182230925Y-80954533D02*
X182183305Y-80906914D01*
X182183305Y-80906914D02*
X182088067Y-80859295D01*
X182088067Y-80859295D02*
X181849972Y-80859295D01*
X181849972Y-80859295D02*
X181754734Y-80906914D01*
X181754734Y-80906914D02*
X181707115Y-80954533D01*
X181707115Y-80954533D02*
X181659496Y-81049771D01*
X181659496Y-81049771D02*
X181659496Y-81240247D01*
X181659496Y-81240247D02*
X181707115Y-81335485D01*
X181707115Y-81335485D02*
X181754734Y-81383104D01*
X181754734Y-81383104D02*
X181849972Y-81430723D01*
X106078544Y-178585485D02*
X105078544Y-178585485D01*
X105078544Y-178585485D02*
X105078544Y-178347390D01*
X105078544Y-178347390D02*
X105126163Y-178204533D01*
X105126163Y-178204533D02*
X105221401Y-178109295D01*
X105221401Y-178109295D02*
X105316639Y-178061676D01*
X105316639Y-178061676D02*
X105507115Y-178014057D01*
X105507115Y-178014057D02*
X105649972Y-178014057D01*
X105649972Y-178014057D02*
X105840448Y-178061676D01*
X105840448Y-178061676D02*
X105935686Y-178109295D01*
X105935686Y-178109295D02*
X106030925Y-178204533D01*
X106030925Y-178204533D02*
X106078544Y-178347390D01*
X106078544Y-178347390D02*
X106078544Y-178585485D01*
X105078544Y-177109295D02*
X105078544Y-177585485D01*
X105078544Y-177585485D02*
X105554734Y-177633104D01*
X105554734Y-177633104D02*
X105507115Y-177585485D01*
X105507115Y-177585485D02*
X105459496Y-177490247D01*
X105459496Y-177490247D02*
X105459496Y-177252152D01*
X105459496Y-177252152D02*
X105507115Y-177156914D01*
X105507115Y-177156914D02*
X105554734Y-177109295D01*
X105554734Y-177109295D02*
X105649972Y-177061676D01*
X105649972Y-177061676D02*
X105888067Y-177061676D01*
X105888067Y-177061676D02*
X105983305Y-177109295D01*
X105983305Y-177109295D02*
X106030925Y-177156914D01*
X106030925Y-177156914D02*
X106078544Y-177252152D01*
X106078544Y-177252152D02*
X106078544Y-177490247D01*
X106078544Y-177490247D02*
X106030925Y-177585485D01*
X106030925Y-177585485D02*
X105983305Y-177633104D01*
X105173782Y-176680723D02*
X105126163Y-176633104D01*
X105126163Y-176633104D02*
X105078544Y-176537866D01*
X105078544Y-176537866D02*
X105078544Y-176299771D01*
X105078544Y-176299771D02*
X105126163Y-176204533D01*
X105126163Y-176204533D02*
X105173782Y-176156914D01*
X105173782Y-176156914D02*
X105269020Y-176109295D01*
X105269020Y-176109295D02*
X105364258Y-176109295D01*
X105364258Y-176109295D02*
X105507115Y-176156914D01*
X105507115Y-176156914D02*
X106078544Y-176728342D01*
X106078544Y-176728342D02*
X106078544Y-176109295D01*
X144178544Y-140485485D02*
X143178544Y-140485485D01*
X143178544Y-140485485D02*
X143178544Y-140247390D01*
X143178544Y-140247390D02*
X143226163Y-140104533D01*
X143226163Y-140104533D02*
X143321401Y-140009295D01*
X143321401Y-140009295D02*
X143416639Y-139961676D01*
X143416639Y-139961676D02*
X143607115Y-139914057D01*
X143607115Y-139914057D02*
X143749972Y-139914057D01*
X143749972Y-139914057D02*
X143940448Y-139961676D01*
X143940448Y-139961676D02*
X144035686Y-140009295D01*
X144035686Y-140009295D02*
X144130925Y-140104533D01*
X144130925Y-140104533D02*
X144178544Y-140247390D01*
X144178544Y-140247390D02*
X144178544Y-140485485D01*
X143178544Y-139580723D02*
X143178544Y-138961676D01*
X143178544Y-138961676D02*
X143559496Y-139295009D01*
X143559496Y-139295009D02*
X143559496Y-139152152D01*
X143559496Y-139152152D02*
X143607115Y-139056914D01*
X143607115Y-139056914D02*
X143654734Y-139009295D01*
X143654734Y-139009295D02*
X143749972Y-138961676D01*
X143749972Y-138961676D02*
X143988067Y-138961676D01*
X143988067Y-138961676D02*
X144083305Y-139009295D01*
X144083305Y-139009295D02*
X144130925Y-139056914D01*
X144130925Y-139056914D02*
X144178544Y-139152152D01*
X144178544Y-139152152D02*
X144178544Y-139437866D01*
X144178544Y-139437866D02*
X144130925Y-139533104D01*
X144130925Y-139533104D02*
X144083305Y-139580723D01*
X143607115Y-138390247D02*
X143559496Y-138485485D01*
X143559496Y-138485485D02*
X143511877Y-138533104D01*
X143511877Y-138533104D02*
X143416639Y-138580723D01*
X143416639Y-138580723D02*
X143369020Y-138580723D01*
X143369020Y-138580723D02*
X143273782Y-138533104D01*
X143273782Y-138533104D02*
X143226163Y-138485485D01*
X143226163Y-138485485D02*
X143178544Y-138390247D01*
X143178544Y-138390247D02*
X143178544Y-138199771D01*
X143178544Y-138199771D02*
X143226163Y-138104533D01*
X143226163Y-138104533D02*
X143273782Y-138056914D01*
X143273782Y-138056914D02*
X143369020Y-138009295D01*
X143369020Y-138009295D02*
X143416639Y-138009295D01*
X143416639Y-138009295D02*
X143511877Y-138056914D01*
X143511877Y-138056914D02*
X143559496Y-138104533D01*
X143559496Y-138104533D02*
X143607115Y-138199771D01*
X143607115Y-138199771D02*
X143607115Y-138390247D01*
X143607115Y-138390247D02*
X143654734Y-138485485D01*
X143654734Y-138485485D02*
X143702353Y-138533104D01*
X143702353Y-138533104D02*
X143797591Y-138580723D01*
X143797591Y-138580723D02*
X143988067Y-138580723D01*
X143988067Y-138580723D02*
X144083305Y-138533104D01*
X144083305Y-138533104D02*
X144130925Y-138485485D01*
X144130925Y-138485485D02*
X144178544Y-138390247D01*
X144178544Y-138390247D02*
X144178544Y-138199771D01*
X144178544Y-138199771D02*
X144130925Y-138104533D01*
X144130925Y-138104533D02*
X144083305Y-138056914D01*
X144083305Y-138056914D02*
X143988067Y-138009295D01*
X143988067Y-138009295D02*
X143797591Y-138009295D01*
X143797591Y-138009295D02*
X143702353Y-138056914D01*
X143702353Y-138056914D02*
X143654734Y-138104533D01*
X143654734Y-138104533D02*
X143607115Y-138199771D01*
D14*
%TO.C,D47*%
X163623800Y-155961200D02*
X163623800Y-159971200D01*
X165623800Y-155961200D02*
X163623800Y-155961200D01*
X165623800Y-155961200D02*
X165623800Y-159971200D01*
%TO.C,D30*%
X144573800Y-117861200D02*
X144573800Y-121871200D01*
X146573800Y-117861200D02*
X144573800Y-117861200D01*
X146573800Y-117861200D02*
X146573800Y-121871200D01*
%TO.C,D3*%
X87423800Y-60711200D02*
X87423800Y-64721200D01*
X89423800Y-60711200D02*
X87423800Y-60711200D01*
X89423800Y-60711200D02*
X89423800Y-64721200D01*
%TO.C,D10*%
X68373800Y-79761200D02*
X68373800Y-83771200D01*
X70373800Y-79761200D02*
X68373800Y-79761200D01*
X70373800Y-79761200D02*
X70373800Y-83771200D01*
%TO.C,R2*%
X89346661Y-38880000D02*
X89800789Y-38880000D01*
X89346661Y-40350000D02*
X89800789Y-40350000D01*
%TO.C,D8*%
X182673800Y-60711200D02*
X182673800Y-64721200D01*
X184673800Y-60711200D02*
X182673800Y-60711200D01*
X184673800Y-60711200D02*
X184673800Y-64721200D01*
%TO.C,D28*%
X106473800Y-117861200D02*
X106473800Y-121871200D01*
X108473800Y-117861200D02*
X106473800Y-117861200D01*
X108473800Y-117861200D02*
X108473800Y-121871200D01*
%TO.C,J3*%
X154728725Y-39380000D02*
X155473725Y-39380000D01*
X154728725Y-40115000D02*
X154728725Y-39380000D01*
X154728725Y-40850000D02*
X154728725Y-47725000D01*
X154728725Y-40850000D02*
X154788160Y-40850000D01*
X154728725Y-47725000D02*
X155063695Y-47725000D01*
X155883755Y-47725000D02*
X156218725Y-47725000D01*
X156159290Y-40850000D02*
X156218725Y-40850000D01*
X156218725Y-40850000D02*
X156218725Y-47725000D01*
%TO.C,D43*%
X87423800Y-155961200D02*
X87423800Y-159971200D01*
X89423800Y-155961200D02*
X87423800Y-155961200D01*
X89423800Y-155961200D02*
X89423800Y-159971200D01*
%TO.C,R7*%
X161700789Y-46380000D02*
X161246661Y-46380000D01*
X161700789Y-47850000D02*
X161246661Y-47850000D01*
%TO.C,C2*%
X84738725Y-47853748D02*
X84738725Y-48376252D01*
X86208725Y-47853748D02*
X86208725Y-48376252D01*
%TO.C,D58*%
X68373800Y-194061200D02*
X68373800Y-198071200D01*
X70373800Y-194061200D02*
X68373800Y-194061200D01*
X70373800Y-194061200D02*
X70373800Y-198071200D01*
%TO.C,R1*%
X80200789Y-41880000D02*
X79746661Y-41880000D01*
X80200789Y-43350000D02*
X79746661Y-43350000D01*
%TO.C,U3*%
X89573725Y-46880000D02*
X88423725Y-46880000D01*
X89573725Y-46880000D02*
X90723725Y-46880000D01*
X89573725Y-49250000D02*
X88423725Y-49250000D01*
X89573725Y-49250000D02*
X90723725Y-49250000D01*
X92188725Y-49055000D02*
X91858725Y-48815000D01*
X92188725Y-48575000D01*
X92188725Y-49055000D01*
G36*
X92188725Y-49055000D02*
G01*
X91858725Y-48815000D01*
X92188725Y-48575000D01*
X92188725Y-49055000D01*
G37*
%TO.C,D45*%
X125523800Y-155961200D02*
X125523800Y-159971200D01*
X127523800Y-155961200D02*
X125523800Y-155961200D01*
X127523800Y-155961200D02*
X127523800Y-159971200D01*
%TO.C,D5*%
X125523800Y-60711200D02*
X125523800Y-64721200D01*
X127523800Y-60711200D02*
X125523800Y-60711200D01*
X127523800Y-60711200D02*
X127523800Y-64721200D01*
%TO.C,C1*%
X94708725Y-48326252D02*
X94708725Y-47803748D01*
X93238725Y-48326252D02*
X93238725Y-47803748D01*
%TO.C,D36*%
X106473800Y-136911200D02*
X106473800Y-140921200D01*
X108473800Y-136911200D02*
X106473800Y-136911200D01*
X108473800Y-136911200D02*
X108473800Y-140921200D01*
%TO.C,D59*%
X87423800Y-194061200D02*
X87423800Y-198071200D01*
X89423800Y-194061200D02*
X87423800Y-194061200D01*
X89423800Y-194061200D02*
X89423800Y-198071200D01*
%TO.C,D18*%
X68373800Y-98811200D02*
X68373800Y-102821200D01*
X70373800Y-98811200D02*
X68373800Y-98811200D01*
X70373800Y-98811200D02*
X70373800Y-102821200D01*
%TO.C,D6*%
X144573800Y-60711200D02*
X144573800Y-64721200D01*
X146573800Y-60711200D02*
X144573800Y-60711200D01*
X146573800Y-60711200D02*
X146573800Y-64721200D01*
%TO.C,D27*%
X87423800Y-117861200D02*
X87423800Y-121871200D01*
X89423800Y-117861200D02*
X87423800Y-117861200D01*
X89423800Y-117861200D02*
X89423800Y-121871200D01*
%TO.C,C7*%
X84738725Y-42376252D02*
X84738725Y-41853748D01*
X86208725Y-42376252D02*
X86208725Y-41853748D01*
%TO.C,D51*%
X87423800Y-175011200D02*
X87423800Y-179021200D01*
X89423800Y-175011200D02*
X87423800Y-175011200D01*
X89423800Y-175011200D02*
X89423800Y-179021200D01*
%TO.C,D19*%
X87423800Y-98811200D02*
X87423800Y-102821200D01*
X89423800Y-98811200D02*
X87423800Y-98811200D01*
X89423800Y-98811200D02*
X89423800Y-102821200D01*
%TO.C,D42*%
X68373800Y-155961200D02*
X68373800Y-159971200D01*
X70373800Y-155961200D02*
X68373800Y-155961200D01*
X70373800Y-155961200D02*
X70373800Y-159971200D01*
%TO.C,D37*%
X125523800Y-136911200D02*
X125523800Y-140921200D01*
X127523800Y-136911200D02*
X125523800Y-136911200D01*
X127523800Y-136911200D02*
X127523800Y-140921200D01*
%TO.C,R5*%
X161700789Y-42380000D02*
X161246661Y-42380000D01*
X161700789Y-43850000D02*
X161246661Y-43850000D01*
%TO.C,D34*%
X68373800Y-136911200D02*
X68373800Y-140921200D01*
X70373800Y-136911200D02*
X68373800Y-136911200D01*
X70373800Y-136911200D02*
X70373800Y-140921200D01*
%TO.C,D50*%
X68373800Y-175011200D02*
X68373800Y-179021200D01*
X70373800Y-175011200D02*
X68373800Y-175011200D01*
X70373800Y-175011200D02*
X70373800Y-179021200D01*
%TO.C,D35*%
X87423800Y-136911200D02*
X87423800Y-140921200D01*
X89423800Y-136911200D02*
X87423800Y-136911200D01*
X89423800Y-136911200D02*
X89423800Y-140921200D01*
%TO.C,C9*%
X119213725Y-35855000D02*
X120413725Y-35855000D01*
X119213725Y-39310563D02*
X119213725Y-35855000D01*
X119663725Y-40865000D02*
X120163725Y-40865000D01*
X119913725Y-41115000D02*
X119913725Y-40615000D01*
X120278162Y-40375000D02*
X119213725Y-39310563D01*
X120278162Y-40375000D02*
X120413725Y-40375000D01*
X122669288Y-40375000D02*
X122533725Y-40375000D01*
X122669288Y-40375000D02*
X123733725Y-39310563D01*
X123733725Y-35855000D02*
X122533725Y-35855000D01*
X123733725Y-39310563D02*
X123733725Y-35855000D01*
%TO.C,C5*%
X71738725Y-40876252D02*
X71738725Y-40353748D01*
X73208725Y-40876252D02*
X73208725Y-40353748D01*
%TO.C,D21*%
X125523800Y-98811200D02*
X125523800Y-102821200D01*
X127523800Y-98811200D02*
X125523800Y-98811200D01*
X127523800Y-98811200D02*
X127523800Y-102821200D01*
%TO.C,R3*%
X89346661Y-44830000D02*
X89800789Y-44830000D01*
X89346661Y-46300000D02*
X89800789Y-46300000D01*
%TO.C,D44*%
X106473800Y-155961200D02*
X106473800Y-159971200D01*
X108473800Y-155961200D02*
X106473800Y-155961200D01*
X108473800Y-155961200D02*
X108473800Y-159971200D01*
%TO.C,D41*%
X49323800Y-155961200D02*
X49323800Y-159971200D01*
X51323800Y-155961200D02*
X49323800Y-155961200D01*
X51323800Y-155961200D02*
X51323800Y-159971200D01*
%TO.C,D54*%
X144573800Y-175011200D02*
X144573800Y-179021200D01*
X146573800Y-175011200D02*
X144573800Y-175011200D01*
X146573800Y-175011200D02*
X146573800Y-179021200D01*
%TO.C,LED1*%
X61613725Y-34305000D02*
X61613725Y-34570000D01*
X61613725Y-49925000D02*
X61613725Y-49660000D01*
X65473725Y-34305000D02*
X61613725Y-34305000D01*
X65473725Y-34305000D02*
X69333725Y-34305000D01*
X65473725Y-49925000D02*
X61613725Y-49925000D01*
X65473725Y-49925000D02*
X69333725Y-49925000D01*
X69333725Y-34305000D02*
X69333725Y-34570000D01*
X69333725Y-49925000D02*
X69333725Y-49660000D01*
X60761225Y-34570000D02*
X60421225Y-34100000D01*
X61101225Y-34100000D01*
X60761225Y-34570000D01*
G36*
X60761225Y-34570000D02*
G01*
X60421225Y-34100000D01*
X61101225Y-34100000D01*
X60761225Y-34570000D01*
G37*
%TO.C,R6*%
X161700789Y-44380000D02*
X161246661Y-44380000D01*
X161700789Y-45850000D02*
X161246661Y-45850000D01*
%TO.C,D57*%
X49323800Y-194061200D02*
X49323800Y-198071200D01*
X51323800Y-194061200D02*
X49323800Y-194061200D01*
X51323800Y-194061200D02*
X51323800Y-198071200D01*
%TO.C,D33*%
X49323800Y-136911200D02*
X49323800Y-140921200D01*
X51323800Y-136911200D02*
X49323800Y-136911200D01*
X51323800Y-136911200D02*
X51323800Y-140921200D01*
%TO.C,D62*%
X144573800Y-194061200D02*
X144573800Y-198071200D01*
X146573800Y-194061200D02*
X144573800Y-194061200D01*
X146573800Y-194061200D02*
X146573800Y-198071200D01*
%TO.C,D15*%
X163623800Y-79761200D02*
X163623800Y-83771200D01*
X165623800Y-79761200D02*
X163623800Y-79761200D01*
X165623800Y-79761200D02*
X165623800Y-83771200D01*
%TO.C,J4*%
X145238725Y-38360000D02*
X145238725Y-37615000D01*
X145973725Y-38360000D02*
X145238725Y-38360000D01*
X146708725Y-36870000D02*
X153583725Y-36870000D01*
X146708725Y-36929435D02*
X146708725Y-36870000D01*
X146708725Y-38360000D02*
X146708725Y-38300565D01*
X146708725Y-38360000D02*
X153583725Y-38360000D01*
X153583725Y-37204970D02*
X153583725Y-36870000D01*
X153583725Y-38360000D02*
X153583725Y-38025030D01*
%TO.C,D7*%
X163623800Y-60711200D02*
X163623800Y-64721200D01*
X165623800Y-60711200D02*
X163623800Y-60711200D01*
X165623800Y-60711200D02*
X165623800Y-64721200D01*
%TO.C,C8*%
X73713725Y-37355000D02*
X74913725Y-37355000D01*
X73713725Y-40810563D02*
X73713725Y-37355000D01*
X74163725Y-42365000D02*
X74663725Y-42365000D01*
X74413725Y-42615000D02*
X74413725Y-42115000D01*
X74778162Y-41875000D02*
X73713725Y-40810563D01*
X74778162Y-41875000D02*
X74913725Y-41875000D01*
X77169288Y-41875000D02*
X77033725Y-41875000D01*
X77169288Y-41875000D02*
X78233725Y-40810563D01*
X78233725Y-37355000D02*
X77033725Y-37355000D01*
X78233725Y-40810563D02*
X78233725Y-37355000D01*
%TO.C,D56*%
X182673800Y-175011200D02*
X182673800Y-179021200D01*
X184673800Y-175011200D02*
X182673800Y-175011200D01*
X184673800Y-175011200D02*
X184673800Y-179021200D01*
%TO.C,R10*%
X139746661Y-44380000D02*
X140200789Y-44380000D01*
X139746661Y-45850000D02*
X140200789Y-45850000D01*
%TO.C,D4*%
X106473800Y-60711200D02*
X106473800Y-64721200D01*
X108473800Y-60711200D02*
X106473800Y-60711200D01*
X108473800Y-60711200D02*
X108473800Y-64721200D01*
%TO.C,D32*%
X182673800Y-117861200D02*
X182673800Y-121871200D01*
X184673800Y-117861200D02*
X182673800Y-117861200D01*
X184673800Y-117861200D02*
X184673800Y-121871200D01*
%TO.C,D29*%
X125523800Y-117861200D02*
X125523800Y-121871200D01*
X127523800Y-117861200D02*
X125523800Y-117861200D01*
X127523800Y-117861200D02*
X127523800Y-121871200D01*
%TO.C,C3*%
X134713725Y-38853748D02*
X134713725Y-39376252D01*
X136183725Y-38853748D02*
X136183725Y-39376252D01*
%TO.C,D9*%
X49323800Y-79761200D02*
X49323800Y-83771200D01*
X51323800Y-79761200D02*
X49323800Y-79761200D01*
X51323800Y-79761200D02*
X51323800Y-83771200D01*
%TO.C,D20*%
X106473800Y-98811200D02*
X106473800Y-102821200D01*
X108473800Y-98811200D02*
X106473800Y-98811200D01*
X108473800Y-98811200D02*
X108473800Y-102821200D01*
%TO.C,D25*%
X49323800Y-117861200D02*
X49323800Y-121871200D01*
X51323800Y-117861200D02*
X49323800Y-117861200D01*
X51323800Y-117861200D02*
X51323800Y-121871200D01*
%TO.C,PISO1*%
X130448725Y-37500000D02*
X128498725Y-37500000D01*
X130448725Y-37500000D02*
X132398725Y-37500000D01*
X130448725Y-47620000D02*
X128498725Y-47620000D01*
X130448725Y-47620000D02*
X132398725Y-47620000D01*
X127748725Y-37555000D02*
X127508725Y-37225000D01*
X127988725Y-37225000D01*
X127748725Y-37555000D01*
G36*
X127748725Y-37555000D02*
G01*
X127508725Y-37225000D01*
X127988725Y-37225000D01*
X127748725Y-37555000D01*
G37*
%TO.C,C6*%
X94708725Y-42376252D02*
X94708725Y-41853748D01*
X93238725Y-42376252D02*
X93238725Y-41853748D01*
%TO.C,D39*%
X163623800Y-136911200D02*
X163623800Y-140921200D01*
X165623800Y-136911200D02*
X163623800Y-136911200D01*
X165623800Y-136911200D02*
X165623800Y-140921200D01*
%TO.C,D22*%
X144573800Y-98811200D02*
X144573800Y-102821200D01*
X146573800Y-98811200D02*
X144573800Y-98811200D01*
X146573800Y-98811200D02*
X146573800Y-102821200D01*
%TO.C,D48*%
X182673800Y-155961200D02*
X182673800Y-159971200D01*
X184673800Y-155961200D02*
X182673800Y-155961200D01*
X184673800Y-155961200D02*
X184673800Y-159971200D01*
%TO.C,R4*%
X161700789Y-40380000D02*
X161246661Y-40380000D01*
X161700789Y-41850000D02*
X161246661Y-41850000D01*
%TO.C,D12*%
X106473800Y-79761200D02*
X106473800Y-83771200D01*
X108473800Y-79761200D02*
X106473800Y-79761200D01*
X108473800Y-79761200D02*
X108473800Y-83771200D01*
%TO.C,D40*%
X182673800Y-136911200D02*
X182673800Y-140921200D01*
X184673800Y-136911200D02*
X182673800Y-136911200D01*
X184673800Y-136911200D02*
X184673800Y-140921200D01*
%TO.C,D2*%
X68373800Y-60711200D02*
X68373800Y-64721200D01*
X70373800Y-60711200D02*
X68373800Y-60711200D01*
X70373800Y-60711200D02*
X70373800Y-64721200D01*
%TO.C,D53*%
X125523800Y-175011200D02*
X125523800Y-179021200D01*
X127523800Y-175011200D02*
X125523800Y-175011200D01*
X127523800Y-175011200D02*
X127523800Y-179021200D01*
%TO.C,SIPO1*%
X167538725Y-44115000D02*
X167538725Y-42165000D01*
X167538725Y-44115000D02*
X167538725Y-46065000D01*
X176408725Y-44115000D02*
X176408725Y-42165000D01*
X176408725Y-44115000D02*
X176408725Y-46065000D01*
X167603725Y-46815000D02*
X167273725Y-47055000D01*
X167273725Y-46575000D01*
X167603725Y-46815000D01*
G36*
X167603725Y-46815000D02*
G01*
X167273725Y-47055000D01*
X167273725Y-46575000D01*
X167603725Y-46815000D01*
G37*
%TO.C,D31*%
X163623800Y-117861200D02*
X163623800Y-121871200D01*
X165623800Y-117861200D02*
X163623800Y-117861200D01*
X165623800Y-117861200D02*
X165623800Y-121871200D01*
%TO.C,D14*%
X144573800Y-79761200D02*
X144573800Y-83771200D01*
X146573800Y-79761200D02*
X144573800Y-79761200D01*
X146573800Y-79761200D02*
X146573800Y-83771200D01*
%TO.C,R11*%
X139746661Y-46380000D02*
X140200789Y-46380000D01*
X139746661Y-47850000D02*
X140200789Y-47850000D01*
%TO.C,R8*%
X139746661Y-40380000D02*
X140200789Y-40380000D01*
X139746661Y-41850000D02*
X140200789Y-41850000D01*
%TO.C,D64*%
X182673800Y-194061200D02*
X182673800Y-198071200D01*
X184673800Y-194061200D02*
X182673800Y-194061200D01*
X184673800Y-194061200D02*
X184673800Y-198071200D01*
%TO.C,D60*%
X106473800Y-194061200D02*
X106473800Y-198071200D01*
X108473800Y-194061200D02*
X106473800Y-194061200D01*
X108473800Y-194061200D02*
X108473800Y-198071200D01*
%TO.C,D63*%
X163623800Y-194061200D02*
X163623800Y-198071200D01*
X165623800Y-194061200D02*
X163623800Y-194061200D01*
X165623800Y-194061200D02*
X165623800Y-198071200D01*
%TO.C,D17*%
X49323800Y-98811200D02*
X49323800Y-102821200D01*
X51323800Y-98811200D02*
X49323800Y-98811200D01*
X51323800Y-98811200D02*
X51323800Y-102821200D01*
%TO.C,D24*%
X182673800Y-98811200D02*
X182673800Y-102821200D01*
X184673800Y-98811200D02*
X182673800Y-98811200D01*
X184673800Y-98811200D02*
X184673800Y-102821200D01*
%TO.C,D61*%
X125523800Y-194061200D02*
X125523800Y-198071200D01*
X127523800Y-194061200D02*
X125523800Y-194061200D01*
X127523800Y-194061200D02*
X127523800Y-198071200D01*
%TO.C,R9*%
X139746661Y-42380000D02*
X140200789Y-42380000D01*
X139746661Y-43850000D02*
X140200789Y-43850000D01*
%TO.C,D26*%
X68373800Y-117861200D02*
X68373800Y-121871200D01*
X70373800Y-117861200D02*
X68373800Y-117861200D01*
X70373800Y-117861200D02*
X70373800Y-121871200D01*
%TO.C,D23*%
X163623800Y-98811200D02*
X163623800Y-102821200D01*
X165623800Y-98811200D02*
X163623800Y-98811200D01*
X165623800Y-98811200D02*
X165623800Y-102821200D01*
%TO.C,D46*%
X144573800Y-155961200D02*
X144573800Y-159971200D01*
X146573800Y-155961200D02*
X144573800Y-155961200D01*
X146573800Y-155961200D02*
X146573800Y-159971200D01*
%TO.C,D55*%
X163623800Y-175011200D02*
X163623800Y-179021200D01*
X165623800Y-175011200D02*
X163623800Y-175011200D01*
X165623800Y-175011200D02*
X165623800Y-179021200D01*
%TO.C,D49*%
X49323800Y-175011200D02*
X49323800Y-179021200D01*
X51323800Y-175011200D02*
X49323800Y-175011200D01*
X51323800Y-175011200D02*
X51323800Y-179021200D01*
%TO.C,D11*%
X87423800Y-79761200D02*
X87423800Y-83771200D01*
X89423800Y-79761200D02*
X87423800Y-79761200D01*
X89423800Y-79761200D02*
X89423800Y-83771200D01*
%TO.C,D13*%
X125523800Y-79761200D02*
X125523800Y-83771200D01*
X127523800Y-79761200D02*
X125523800Y-79761200D01*
X127523800Y-79761200D02*
X127523800Y-83771200D01*
%TO.C,D1*%
X49323800Y-60711200D02*
X49323800Y-64721200D01*
X51323800Y-60711200D02*
X49323800Y-60711200D01*
X51323800Y-60711200D02*
X51323800Y-64721200D01*
%TO.C,U2*%
X89573725Y-40930000D02*
X88423725Y-40930000D01*
X89573725Y-40930000D02*
X90723725Y-40930000D01*
X89573725Y-43300000D02*
X88423725Y-43300000D01*
X89573725Y-43300000D02*
X90723725Y-43300000D01*
X92188725Y-43105000D02*
X91858725Y-42865000D01*
X92188725Y-42625000D01*
X92188725Y-43105000D01*
G36*
X92188725Y-43105000D02*
G01*
X91858725Y-42865000D01*
X92188725Y-42625000D01*
X92188725Y-43105000D01*
G37*
D15*
%TO.C,U1*%
X98583725Y-51124000D02*
X98583725Y-33979000D01*
X100488725Y-53029000D02*
X114458725Y-53029000D01*
X102978725Y-32074000D02*
X102982453Y-31063728D01*
X103482453Y-30564000D02*
X111477725Y-30564000D01*
X111977725Y-31064000D02*
X111977725Y-32074000D01*
D10*
X114458725Y-32074000D02*
X100488725Y-32074000D01*
D15*
X114458725Y-32074000D02*
X100488725Y-32074000D01*
X116363725Y-51124000D02*
X116363725Y-33979000D01*
X98583725Y-33979000D02*
G75*
G02*
X100488725Y-32074000I1905001J-1D01*
G01*
X100488725Y-53029000D02*
G75*
G02*
X98583725Y-51124000I1J1905001D01*
G01*
X102982453Y-31063728D02*
G75*
G02*
X103482453Y-30564001I500018J-291D01*
G01*
X111477725Y-30564000D02*
G75*
G02*
X111977725Y-31064000I0J-500000D01*
G01*
X114458725Y-32074000D02*
G75*
G02*
X116363725Y-33979000I0J-1905000D01*
G01*
X116363725Y-51124000D02*
G75*
G02*
X114458725Y-53029000I-1905000J0D01*
G01*
D16*
X98725725Y-32365000D02*
G75*
G02*
X98221725Y-32365000I-252000J0D01*
G01*
X98221725Y-32365000D02*
G75*
G02*
X98725725Y-32365000I252000J0D01*
G01*
X99868725Y-33245000D02*
G75*
G02*
X99364725Y-33245000I-252000J0D01*
G01*
X99364725Y-33245000D02*
G75*
G02*
X99868725Y-33245000I252000J0D01*
G01*
D14*
%TO.C,D16*%
X182673800Y-79761200D02*
X182673800Y-83771200D01*
X184673800Y-79761200D02*
X182673800Y-79761200D01*
X184673800Y-79761200D02*
X184673800Y-83771200D01*
%TO.C,D52*%
X106473800Y-175011200D02*
X106473800Y-179021200D01*
X108473800Y-175011200D02*
X106473800Y-175011200D01*
X108473800Y-175011200D02*
X108473800Y-179021200D01*
%TO.C,C4*%
X168712473Y-38380000D02*
X169234977Y-38380000D01*
X168712473Y-39850000D02*
X169234977Y-39850000D01*
%TO.C,D38*%
X144573800Y-136911200D02*
X144573800Y-140921200D01*
X146573800Y-136911200D02*
X144573800Y-136911200D01*
X146573800Y-136911200D02*
X146573800Y-140921200D01*
%TD*%
D17*
X134778800Y-86201200D03*
X137318800Y-86201200D03*
X92868800Y-195421200D03*
X97948800Y-195421200D03*
X103028800Y-195421200D03*
X94138800Y-192881200D03*
X100488800Y-190341200D03*
X130968800Y-100171200D03*
X136048800Y-100171200D03*
X141128800Y-100171200D03*
X132238800Y-97631200D03*
X138588800Y-95091200D03*
X130968800Y-138271200D03*
X136048800Y-138271200D03*
X141128800Y-138271200D03*
X132238800Y-135731200D03*
X138588800Y-133191200D03*
X96678800Y-181451200D03*
X99218800Y-181451200D03*
X73818800Y-157321200D03*
X78898800Y-157321200D03*
X83978800Y-157321200D03*
X75088800Y-154781200D03*
X81438800Y-152241200D03*
X134778800Y-105251200D03*
X137318800Y-105251200D03*
X169068800Y-62071200D03*
X174148800Y-62071200D03*
X179228800Y-62071200D03*
X170338800Y-59531200D03*
X176688800Y-56991200D03*
X73818800Y-138271200D03*
X78898800Y-138271200D03*
X83978800Y-138271200D03*
X75088800Y-135731200D03*
X81438800Y-133191200D03*
X35718800Y-176371200D03*
X40798800Y-176371200D03*
X45878800Y-176371200D03*
X36988800Y-173831200D03*
X43338800Y-171291200D03*
X172878800Y-200501200D03*
X175418800Y-200501200D03*
X35718800Y-81121200D03*
X40798800Y-81121200D03*
X45878800Y-81121200D03*
X36988800Y-78581200D03*
X43338800Y-76041200D03*
X155473725Y-40115000D03*
X155473725Y-41115000D03*
X155473725Y-42115000D03*
X155473725Y-43115000D03*
X155473725Y-44115000D03*
X155473725Y-45115000D03*
X155473725Y-46115000D03*
X155473725Y-47115000D03*
X58578800Y-124301200D03*
X61118800Y-124301200D03*
X96678800Y-162401200D03*
X99218800Y-162401200D03*
X111918800Y-62071200D03*
X116998800Y-62071200D03*
X122078800Y-62071200D03*
X113188800Y-59531200D03*
X119538800Y-56991200D03*
X107473800Y-128746200D03*
X153828800Y-67151200D03*
X156368800Y-67151200D03*
X50323800Y-71596200D03*
X134778800Y-67151200D03*
X137318800Y-67151200D03*
X164623800Y-71596200D03*
X77628800Y-181451200D03*
X80168800Y-181451200D03*
X73818800Y-119221200D03*
X78898800Y-119221200D03*
X83978800Y-119221200D03*
X75088800Y-116681200D03*
X81438800Y-114141200D03*
X92868800Y-81121200D03*
X97948800Y-81121200D03*
X103028800Y-81121200D03*
X94138800Y-78581200D03*
X100488800Y-76041200D03*
X153828800Y-124301200D03*
X156368800Y-124301200D03*
X153828800Y-181451200D03*
X156368800Y-181451200D03*
X96678800Y-200501200D03*
X99218800Y-200501200D03*
X169068800Y-138271200D03*
X174148800Y-138271200D03*
X179228800Y-138271200D03*
X170338800Y-135731200D03*
X176688800Y-133191200D03*
X115728800Y-200501200D03*
X118268800Y-200501200D03*
X35718800Y-100171200D03*
X40798800Y-100171200D03*
X45878800Y-100171200D03*
X36988800Y-97631200D03*
X43338800Y-95091200D03*
X58578800Y-200501200D03*
X61118800Y-200501200D03*
X54768800Y-100171200D03*
X59848800Y-100171200D03*
X64928800Y-100171200D03*
X56038800Y-97631200D03*
X62388800Y-95091200D03*
X169068800Y-81121200D03*
X174148800Y-81121200D03*
X179228800Y-81121200D03*
X170338800Y-78581200D03*
X176688800Y-76041200D03*
X77628800Y-67151200D03*
X80168800Y-67151200D03*
X35718800Y-119221200D03*
X40798800Y-119221200D03*
X45878800Y-119221200D03*
X36988800Y-116681200D03*
X43338800Y-114141200D03*
X111918800Y-195421200D03*
X116998800Y-195421200D03*
X122078800Y-195421200D03*
X113188800Y-192881200D03*
X119538800Y-190341200D03*
X54768800Y-195421200D03*
X59848800Y-195421200D03*
X64928800Y-195421200D03*
X56038800Y-192881200D03*
X62388800Y-190341200D03*
X150018800Y-119221200D03*
X155098800Y-119221200D03*
X160178800Y-119221200D03*
X151288800Y-116681200D03*
X157638800Y-114141200D03*
X39528800Y-67151200D03*
X42068800Y-67151200D03*
X172878800Y-67151200D03*
X175418800Y-67151200D03*
X134778800Y-181451200D03*
X137318800Y-181451200D03*
X169068800Y-119221200D03*
X174148800Y-119221200D03*
X179228800Y-119221200D03*
X170338800Y-116681200D03*
X176688800Y-114141200D03*
X35718800Y-157321200D03*
X40798800Y-157321200D03*
X45878800Y-157321200D03*
X36988800Y-154781200D03*
X43338800Y-152241200D03*
X134778800Y-124301200D03*
X137318800Y-124301200D03*
X58578800Y-105251200D03*
X61118800Y-105251200D03*
X107473800Y-71596200D03*
X50323800Y-128746200D03*
X39528800Y-86201200D03*
X42068800Y-86201200D03*
X50323800Y-185896200D03*
X96678800Y-105251200D03*
X99218800Y-105251200D03*
X58578800Y-143351200D03*
X61118800Y-143351200D03*
X172878800Y-124301200D03*
X175418800Y-124301200D03*
X77628800Y-124301200D03*
X80168800Y-124301200D03*
X73818800Y-176371200D03*
X78898800Y-176371200D03*
X83978800Y-176371200D03*
X75088800Y-173831200D03*
X81438800Y-171291200D03*
X39528800Y-200501200D03*
X42068800Y-200501200D03*
X150018800Y-62071200D03*
X155098800Y-62071200D03*
X160178800Y-62071200D03*
X151288800Y-59531200D03*
X157638800Y-56991200D03*
X111918800Y-138271200D03*
X116998800Y-138271200D03*
X122078800Y-138271200D03*
X113188800Y-135731200D03*
X119538800Y-133191200D03*
X77628800Y-162401200D03*
X80168800Y-162401200D03*
X130968800Y-81121200D03*
X136048800Y-81121200D03*
X141128800Y-81121200D03*
X132238800Y-78581200D03*
X138588800Y-76041200D03*
X58578800Y-67151200D03*
X61118800Y-67151200D03*
X35718800Y-62071200D03*
X40798800Y-62071200D03*
X45878800Y-62071200D03*
X36988800Y-59531200D03*
X43338800Y-56991200D03*
X39528800Y-143351200D03*
X42068800Y-143351200D03*
X134778800Y-200501200D03*
X137318800Y-200501200D03*
X54768800Y-138271200D03*
X59848800Y-138271200D03*
X64928800Y-138271200D03*
X56038800Y-135731200D03*
X62388800Y-133191200D03*
X54768800Y-62071200D03*
X59848800Y-62071200D03*
X64928800Y-62071200D03*
X56038800Y-59531200D03*
X62388800Y-56991200D03*
X150018800Y-195421200D03*
X155098800Y-195421200D03*
X160178800Y-195421200D03*
X151288800Y-192881200D03*
X157638800Y-190341200D03*
X92868800Y-100171200D03*
X97948800Y-100171200D03*
X103028800Y-100171200D03*
X94138800Y-97631200D03*
X100488800Y-95091200D03*
X111918800Y-81121200D03*
X116998800Y-81121200D03*
X122078800Y-81121200D03*
X113188800Y-78581200D03*
X119538800Y-76041200D03*
X39528800Y-162401200D03*
X42068800Y-162401200D03*
X77628800Y-105251200D03*
X80168800Y-105251200D03*
X58578800Y-162401200D03*
X61118800Y-162401200D03*
X73818800Y-62071200D03*
X78898800Y-62071200D03*
X83978800Y-62071200D03*
X75088800Y-59531200D03*
X81438800Y-56991200D03*
X115728800Y-67151200D03*
X118268800Y-67151200D03*
X77628800Y-86201200D03*
X80168800Y-86201200D03*
X39528800Y-181451200D03*
X42068800Y-181451200D03*
X172878800Y-86201200D03*
X175418800Y-86201200D03*
X145973725Y-37615000D03*
X146973725Y-37615000D03*
X147973725Y-37615000D03*
X148973725Y-37615000D03*
X149973725Y-37615000D03*
X150973725Y-37615000D03*
X151973725Y-37615000D03*
X152973725Y-37615000D03*
X172878800Y-105251200D03*
X175418800Y-105251200D03*
X169068800Y-176371200D03*
X174148800Y-176371200D03*
X179228800Y-176371200D03*
X170338800Y-173831200D03*
X176688800Y-171291200D03*
X92868800Y-176371200D03*
X97948800Y-176371200D03*
X103028800Y-176371200D03*
X94138800Y-173831200D03*
X100488800Y-171291200D03*
X150018800Y-100171200D03*
X155098800Y-100171200D03*
X160178800Y-100171200D03*
X151288800Y-97631200D03*
X157638800Y-95091200D03*
X58578800Y-181451200D03*
X61118800Y-181451200D03*
X58578800Y-86201200D03*
X61118800Y-86201200D03*
X115728800Y-124301200D03*
X118268800Y-124301200D03*
X150018800Y-176371200D03*
X155098800Y-176371200D03*
X160178800Y-176371200D03*
X151288800Y-173831200D03*
X157638800Y-171291200D03*
X115728800Y-162401200D03*
X118268800Y-162401200D03*
X92868800Y-138271200D03*
X97948800Y-138271200D03*
X103028800Y-138271200D03*
X94138800Y-135731200D03*
X100488800Y-133191200D03*
X169068800Y-195421200D03*
X174148800Y-195421200D03*
X179228800Y-195421200D03*
X170338800Y-192881200D03*
X176688800Y-190341200D03*
X150018800Y-138271200D03*
X155098800Y-138271200D03*
X160178800Y-138271200D03*
X151288800Y-135731200D03*
X157638800Y-133191200D03*
X111918800Y-119221200D03*
X116998800Y-119221200D03*
X122078800Y-119221200D03*
X113188800Y-116681200D03*
X119538800Y-114141200D03*
X35718800Y-195421200D03*
X40798800Y-195421200D03*
X45878800Y-195421200D03*
X36988800Y-192881200D03*
X43338800Y-190341200D03*
X115728800Y-143351200D03*
X118268800Y-143351200D03*
X73818800Y-100171200D03*
X78898800Y-100171200D03*
X83978800Y-100171200D03*
X75088800Y-97631200D03*
X81438800Y-95091200D03*
X172878800Y-162401200D03*
X175418800Y-162401200D03*
X115728800Y-86201200D03*
X118268800Y-86201200D03*
X107473800Y-185896200D03*
X130968800Y-119221200D03*
X136048800Y-119221200D03*
X141128800Y-119221200D03*
X132238800Y-116681200D03*
X138588800Y-114141200D03*
X169068800Y-100171200D03*
X174148800Y-100171200D03*
X179228800Y-100171200D03*
X170338800Y-97631200D03*
X176688800Y-95091200D03*
X153828800Y-86201200D03*
X156368800Y-86201200D03*
X150018800Y-157321200D03*
X155098800Y-157321200D03*
X160178800Y-157321200D03*
X151288800Y-154781200D03*
X157638800Y-152241200D03*
X153828800Y-143351200D03*
X156368800Y-143351200D03*
X77628800Y-143351200D03*
X80168800Y-143351200D03*
X73818800Y-195421200D03*
X78898800Y-195421200D03*
X83978800Y-195421200D03*
X75088800Y-192881200D03*
X81438800Y-190341200D03*
X130968800Y-195421200D03*
X136048800Y-195421200D03*
X141128800Y-195421200D03*
X132238800Y-192881200D03*
X138588800Y-190341200D03*
X150018800Y-81121200D03*
X155098800Y-81121200D03*
X160178800Y-81121200D03*
X151288800Y-78581200D03*
X157638800Y-76041200D03*
X130968800Y-157321200D03*
X136048800Y-157321200D03*
X141128800Y-157321200D03*
X132238800Y-154781200D03*
X138588800Y-152241200D03*
X164623800Y-128746200D03*
X92868800Y-62071200D03*
X97948800Y-62071200D03*
X103028800Y-62071200D03*
X94138800Y-59531200D03*
X100488800Y-56991200D03*
X111918800Y-100171200D03*
X116998800Y-100171200D03*
X122078800Y-100171200D03*
X113188800Y-97631200D03*
X119538800Y-95091200D03*
X92868800Y-119221200D03*
X97948800Y-119221200D03*
X103028800Y-119221200D03*
X94138800Y-116681200D03*
X100488800Y-114141200D03*
X92868800Y-157321200D03*
X97948800Y-157321200D03*
X103028800Y-157321200D03*
X94138800Y-154781200D03*
X100488800Y-152241200D03*
X77628800Y-200501200D03*
X80168800Y-200501200D03*
X153828800Y-162401200D03*
X156368800Y-162401200D03*
X172878800Y-143351200D03*
X175418800Y-143351200D03*
X169068800Y-157321200D03*
X174148800Y-157321200D03*
X179228800Y-157321200D03*
X170338800Y-154781200D03*
X176688800Y-152241200D03*
X35718800Y-138271200D03*
X40798800Y-138271200D03*
X45878800Y-138271200D03*
X36988800Y-135731200D03*
X43338800Y-133191200D03*
X96678800Y-124301200D03*
X99218800Y-124301200D03*
X39528800Y-124301200D03*
X42068800Y-124301200D03*
X96678800Y-86201200D03*
X99218800Y-86201200D03*
X54768800Y-81121200D03*
X59848800Y-81121200D03*
X64928800Y-81121200D03*
X56038800Y-78581200D03*
X62388800Y-76041200D03*
X111918800Y-157321200D03*
X116998800Y-157321200D03*
X122078800Y-157321200D03*
X113188800Y-154781200D03*
X119538800Y-152241200D03*
X111918800Y-176371200D03*
X116998800Y-176371200D03*
X122078800Y-176371200D03*
X113188800Y-173831200D03*
X119538800Y-171291200D03*
X115728800Y-181451200D03*
X118268800Y-181451200D03*
X130968800Y-176371200D03*
X136048800Y-176371200D03*
X141128800Y-176371200D03*
X132238800Y-173831200D03*
X138588800Y-171291200D03*
X172878800Y-181451200D03*
X175418800Y-181451200D03*
X73818800Y-81121200D03*
X78898800Y-81121200D03*
X83978800Y-81121200D03*
X75088800Y-78581200D03*
X81438800Y-76041200D03*
X134778800Y-162401200D03*
X137318800Y-162401200D03*
X54768800Y-157321200D03*
X59848800Y-157321200D03*
X64928800Y-157321200D03*
X56038800Y-154781200D03*
X62388800Y-152241200D03*
X54768800Y-119221200D03*
X59848800Y-119221200D03*
X64928800Y-119221200D03*
X56038800Y-116681200D03*
X62388800Y-114141200D03*
X153828800Y-105251200D03*
X156368800Y-105251200D03*
X164623800Y-185896200D03*
X115728800Y-105251200D03*
X118268800Y-105251200D03*
X153828800Y-200501200D03*
X156368800Y-200501200D03*
X96678800Y-143351200D03*
X99218800Y-143351200D03*
X39528800Y-105251200D03*
X42068800Y-105251200D03*
X99853725Y-34995000D03*
X99853725Y-37535000D03*
X99853725Y-40075000D03*
X99853725Y-42615000D03*
X99853725Y-45155000D03*
X99853725Y-47695000D03*
X99853725Y-50235000D03*
X115093725Y-50235000D03*
X115093725Y-47695000D03*
X115093725Y-45155000D03*
X115093725Y-42615000D03*
X115093725Y-40075000D03*
X115093725Y-37535000D03*
X115093725Y-34995000D03*
X134778800Y-143351200D03*
X137318800Y-143351200D03*
X130968800Y-62071200D03*
X136048800Y-62071200D03*
X141128800Y-62071200D03*
X132238800Y-59531200D03*
X138588800Y-56991200D03*
X54768800Y-176371200D03*
X59848800Y-176371200D03*
X64928800Y-176371200D03*
X56038800Y-173831200D03*
X62388800Y-171291200D03*
X96678800Y-67151200D03*
X99218800Y-67151200D03*
M02*
