%TF.GenerationSoftware,KiCad,Pcbnew,9.0.2*%
%TF.CreationDate,2025-06-29T11:42:18-07:00*%
%TF.ProjectId,Grid64_v3,47726964-3634-45f7-9633-2e6b69636164,rev?*%
%TF.SameCoordinates,Original*%
%TF.FileFunction,Soldermask,Bot*%
%TF.FilePolarity,Negative*%
%FSLAX46Y46*%
G04 Gerber Fmt 4.6, Leading zero omitted, Abs format (unit mm)*
G04 Created by KiCad (PCBNEW 9.0.2) date 2025-06-29 11:42:18*
%MOMM*%
%LPD*%
G01*
G04 APERTURE LIST*
%ADD10R,1.905000X1.905000*%
%ADD11C,1.905000*%
%ADD12C,1.701800*%
%ADD13C,3.987800*%
%ADD14C,2.300000*%
%ADD15R,0.850000X0.850000*%
%ADD16C,0.850000*%
%ADD17C,2.200000*%
%ADD18C,1.524000*%
G04 APERTURE END LIST*
D10*
%TO.C,L14*%
X134778800Y-86201200D03*
D11*
X137318800Y-86201200D03*
%TD*%
D12*
%TO.C,S60*%
X92868800Y-195421200D03*
D13*
X97948800Y-195421200D03*
D12*
X103028800Y-195421200D03*
D14*
X94138800Y-192881200D03*
X100488800Y-190341200D03*
%TD*%
D12*
%TO.C,S22*%
X130968800Y-100171200D03*
D13*
X136048800Y-100171200D03*
D12*
X141128800Y-100171200D03*
D14*
X132238800Y-97631200D03*
X138588800Y-95091200D03*
%TD*%
D12*
%TO.C,S38*%
X130968800Y-138271200D03*
D13*
X136048800Y-138271200D03*
D12*
X141128800Y-138271200D03*
D14*
X132238800Y-135731200D03*
X138588800Y-133191200D03*
%TD*%
D10*
%TO.C,L52*%
X96678800Y-181451200D03*
D11*
X99218800Y-181451200D03*
%TD*%
D12*
%TO.C,S43*%
X73818800Y-157321200D03*
D13*
X78898800Y-157321200D03*
D12*
X83978800Y-157321200D03*
D14*
X75088800Y-154781200D03*
X81438800Y-152241200D03*
%TD*%
D10*
%TO.C,L22*%
X134778800Y-105251200D03*
D11*
X137318800Y-105251200D03*
%TD*%
D12*
%TO.C,S8*%
X169068800Y-62071200D03*
D13*
X174148800Y-62071200D03*
D12*
X179228800Y-62071200D03*
D14*
X170338800Y-59531200D03*
X176688800Y-56991200D03*
%TD*%
D12*
%TO.C,S35*%
X73818800Y-138271200D03*
D13*
X78898800Y-138271200D03*
D12*
X83978800Y-138271200D03*
D14*
X75088800Y-135731200D03*
X81438800Y-133191200D03*
%TD*%
D12*
%TO.C,S49*%
X35718800Y-176371200D03*
D13*
X40798800Y-176371200D03*
D12*
X45878800Y-176371200D03*
D14*
X36988800Y-173831200D03*
X43338800Y-171291200D03*
%TD*%
D10*
%TO.C,L64*%
X172878800Y-200501200D03*
D11*
X175418800Y-200501200D03*
%TD*%
D12*
%TO.C,S9*%
X35718800Y-81121200D03*
D13*
X40798800Y-81121200D03*
D12*
X45878800Y-81121200D03*
D14*
X36988800Y-78581200D03*
X43338800Y-76041200D03*
%TD*%
D15*
%TO.C,J3*%
X155473725Y-40115000D03*
D16*
X155473725Y-41115000D03*
X155473725Y-42115000D03*
X155473725Y-43115000D03*
X155473725Y-44115000D03*
X155473725Y-45115000D03*
X155473725Y-46115000D03*
X155473725Y-47115000D03*
%TD*%
D10*
%TO.C,L26*%
X58578800Y-124301200D03*
D11*
X61118800Y-124301200D03*
%TD*%
D10*
%TO.C,L44*%
X96678800Y-162401200D03*
D11*
X99218800Y-162401200D03*
%TD*%
D12*
%TO.C,S5*%
X111918800Y-62071200D03*
D13*
X116998800Y-62071200D03*
D12*
X122078800Y-62071200D03*
D14*
X113188800Y-59531200D03*
X119538800Y-56991200D03*
%TD*%
D17*
%TO.C,H5*%
X107473800Y-128746200D03*
%TD*%
D10*
%TO.C,L7*%
X153828800Y-67151200D03*
D11*
X156368800Y-67151200D03*
%TD*%
D17*
%TO.C,H1*%
X50323800Y-71596200D03*
%TD*%
D10*
%TO.C,L6*%
X134778800Y-67151200D03*
D11*
X137318800Y-67151200D03*
%TD*%
D17*
%TO.C,H3*%
X164623800Y-71596200D03*
%TD*%
D10*
%TO.C,L51*%
X77628800Y-181451200D03*
D11*
X80168800Y-181451200D03*
%TD*%
D12*
%TO.C,S27*%
X73818800Y-119221200D03*
D13*
X78898800Y-119221200D03*
D12*
X83978800Y-119221200D03*
D14*
X75088800Y-116681200D03*
X81438800Y-114141200D03*
%TD*%
D12*
%TO.C,S12*%
X92868800Y-81121200D03*
D13*
X97948800Y-81121200D03*
D12*
X103028800Y-81121200D03*
D14*
X94138800Y-78581200D03*
X100488800Y-76041200D03*
%TD*%
D10*
%TO.C,L31*%
X153828800Y-124301200D03*
D11*
X156368800Y-124301200D03*
%TD*%
D10*
%TO.C,L55*%
X153828800Y-181451200D03*
D11*
X156368800Y-181451200D03*
%TD*%
D10*
%TO.C,L60*%
X96678800Y-200501200D03*
D11*
X99218800Y-200501200D03*
%TD*%
D12*
%TO.C,S40*%
X169068800Y-138271200D03*
D13*
X174148800Y-138271200D03*
D12*
X179228800Y-138271200D03*
D14*
X170338800Y-135731200D03*
X176688800Y-133191200D03*
%TD*%
D10*
%TO.C,L61*%
X115728800Y-200501200D03*
D11*
X118268800Y-200501200D03*
%TD*%
D12*
%TO.C,S17*%
X35718800Y-100171200D03*
D13*
X40798800Y-100171200D03*
D12*
X45878800Y-100171200D03*
D14*
X36988800Y-97631200D03*
X43338800Y-95091200D03*
%TD*%
D10*
%TO.C,L58*%
X58578800Y-200501200D03*
D11*
X61118800Y-200501200D03*
%TD*%
D12*
%TO.C,S18*%
X54768800Y-100171200D03*
D13*
X59848800Y-100171200D03*
D12*
X64928800Y-100171200D03*
D14*
X56038800Y-97631200D03*
X62388800Y-95091200D03*
%TD*%
D12*
%TO.C,S16*%
X169068800Y-81121200D03*
D13*
X174148800Y-81121200D03*
D12*
X179228800Y-81121200D03*
D14*
X170338800Y-78581200D03*
X176688800Y-76041200D03*
%TD*%
D10*
%TO.C,L3*%
X77628800Y-67151200D03*
D11*
X80168800Y-67151200D03*
%TD*%
D12*
%TO.C,S25*%
X35718800Y-119221200D03*
D13*
X40798800Y-119221200D03*
D12*
X45878800Y-119221200D03*
D14*
X36988800Y-116681200D03*
X43338800Y-114141200D03*
%TD*%
D12*
%TO.C,S61*%
X111918800Y-195421200D03*
D13*
X116998800Y-195421200D03*
D12*
X122078800Y-195421200D03*
D14*
X113188800Y-192881200D03*
X119538800Y-190341200D03*
%TD*%
D12*
%TO.C,S58*%
X54768800Y-195421200D03*
D13*
X59848800Y-195421200D03*
D12*
X64928800Y-195421200D03*
D14*
X56038800Y-192881200D03*
X62388800Y-190341200D03*
%TD*%
D12*
%TO.C,S31*%
X150018800Y-119221200D03*
D13*
X155098800Y-119221200D03*
D12*
X160178800Y-119221200D03*
D14*
X151288800Y-116681200D03*
X157638800Y-114141200D03*
%TD*%
D10*
%TO.C,L1*%
X39528800Y-67151200D03*
D11*
X42068800Y-67151200D03*
%TD*%
D10*
%TO.C,L8*%
X172878800Y-67151200D03*
D11*
X175418800Y-67151200D03*
%TD*%
D10*
%TO.C,L54*%
X134778800Y-181451200D03*
D11*
X137318800Y-181451200D03*
%TD*%
D12*
%TO.C,S32*%
X169068800Y-119221200D03*
D13*
X174148800Y-119221200D03*
D12*
X179228800Y-119221200D03*
D14*
X170338800Y-116681200D03*
X176688800Y-114141200D03*
%TD*%
D12*
%TO.C,S41*%
X35718800Y-157321200D03*
D13*
X40798800Y-157321200D03*
D12*
X45878800Y-157321200D03*
D14*
X36988800Y-154781200D03*
X43338800Y-152241200D03*
%TD*%
D10*
%TO.C,L30*%
X134778800Y-124301200D03*
D11*
X137318800Y-124301200D03*
%TD*%
D10*
%TO.C,L18*%
X58578800Y-105251200D03*
D11*
X61118800Y-105251200D03*
%TD*%
D17*
%TO.C,H2*%
X107473800Y-71596200D03*
%TD*%
%TO.C,H4*%
X50323800Y-128746200D03*
%TD*%
D10*
%TO.C,L9*%
X39528800Y-86201200D03*
D11*
X42068800Y-86201200D03*
%TD*%
D17*
%TO.C,H7*%
X50323800Y-185896200D03*
%TD*%
D10*
%TO.C,L20*%
X96678800Y-105251200D03*
D11*
X99218800Y-105251200D03*
%TD*%
D10*
%TO.C,L34*%
X58578800Y-143351200D03*
D11*
X61118800Y-143351200D03*
%TD*%
D10*
%TO.C,L32*%
X172878800Y-124301200D03*
D11*
X175418800Y-124301200D03*
%TD*%
D10*
%TO.C,L27*%
X77628800Y-124301200D03*
D11*
X80168800Y-124301200D03*
%TD*%
D12*
%TO.C,S51*%
X73818800Y-176371200D03*
D13*
X78898800Y-176371200D03*
D12*
X83978800Y-176371200D03*
D14*
X75088800Y-173831200D03*
X81438800Y-171291200D03*
%TD*%
D10*
%TO.C,L57*%
X39528800Y-200501200D03*
D11*
X42068800Y-200501200D03*
%TD*%
D12*
%TO.C,S7*%
X150018800Y-62071200D03*
D13*
X155098800Y-62071200D03*
D12*
X160178800Y-62071200D03*
D14*
X151288800Y-59531200D03*
X157638800Y-56991200D03*
%TD*%
D12*
%TO.C,S37*%
X111918800Y-138271200D03*
D13*
X116998800Y-138271200D03*
D12*
X122078800Y-138271200D03*
D14*
X113188800Y-135731200D03*
X119538800Y-133191200D03*
%TD*%
D10*
%TO.C,L43*%
X77628800Y-162401200D03*
D11*
X80168800Y-162401200D03*
%TD*%
D12*
%TO.C,S14*%
X130968800Y-81121200D03*
D13*
X136048800Y-81121200D03*
D12*
X141128800Y-81121200D03*
D14*
X132238800Y-78581200D03*
X138588800Y-76041200D03*
%TD*%
D10*
%TO.C,L2*%
X58578800Y-67151200D03*
D11*
X61118800Y-67151200D03*
%TD*%
D12*
%TO.C,S1*%
X35718800Y-62071200D03*
D13*
X40798800Y-62071200D03*
D12*
X45878800Y-62071200D03*
D14*
X36988800Y-59531200D03*
X43338800Y-56991200D03*
%TD*%
D10*
%TO.C,L33*%
X39528800Y-143351200D03*
D11*
X42068800Y-143351200D03*
%TD*%
D10*
%TO.C,L62*%
X134778800Y-200501200D03*
D11*
X137318800Y-200501200D03*
%TD*%
D12*
%TO.C,S34*%
X54768800Y-138271200D03*
D13*
X59848800Y-138271200D03*
D12*
X64928800Y-138271200D03*
D14*
X56038800Y-135731200D03*
X62388800Y-133191200D03*
%TD*%
D12*
%TO.C,S2*%
X54768800Y-62071200D03*
D13*
X59848800Y-62071200D03*
D12*
X64928800Y-62071200D03*
D14*
X56038800Y-59531200D03*
X62388800Y-56991200D03*
%TD*%
D12*
%TO.C,S63*%
X150018800Y-195421200D03*
D13*
X155098800Y-195421200D03*
D12*
X160178800Y-195421200D03*
D14*
X151288800Y-192881200D03*
X157638800Y-190341200D03*
%TD*%
D12*
%TO.C,S20*%
X92868800Y-100171200D03*
D13*
X97948800Y-100171200D03*
D12*
X103028800Y-100171200D03*
D14*
X94138800Y-97631200D03*
X100488800Y-95091200D03*
%TD*%
D12*
%TO.C,S13*%
X111918800Y-81121200D03*
D13*
X116998800Y-81121200D03*
D12*
X122078800Y-81121200D03*
D14*
X113188800Y-78581200D03*
X119538800Y-76041200D03*
%TD*%
D10*
%TO.C,L41*%
X39528800Y-162401200D03*
D11*
X42068800Y-162401200D03*
%TD*%
D10*
%TO.C,L19*%
X77628800Y-105251200D03*
D11*
X80168800Y-105251200D03*
%TD*%
D10*
%TO.C,L42*%
X58578800Y-162401200D03*
D11*
X61118800Y-162401200D03*
%TD*%
D12*
%TO.C,S3*%
X73818800Y-62071200D03*
D13*
X78898800Y-62071200D03*
D12*
X83978800Y-62071200D03*
D14*
X75088800Y-59531200D03*
X81438800Y-56991200D03*
%TD*%
D10*
%TO.C,L5*%
X115728800Y-67151200D03*
D11*
X118268800Y-67151200D03*
%TD*%
D10*
%TO.C,L11*%
X77628800Y-86201200D03*
D11*
X80168800Y-86201200D03*
%TD*%
D10*
%TO.C,L49*%
X39528800Y-181451200D03*
D11*
X42068800Y-181451200D03*
%TD*%
D10*
%TO.C,L16*%
X172878800Y-86201200D03*
D11*
X175418800Y-86201200D03*
%TD*%
D15*
%TO.C,J4*%
X145973725Y-37615000D03*
D16*
X146973725Y-37615000D03*
X147973725Y-37615000D03*
X148973725Y-37615000D03*
X149973725Y-37615000D03*
X150973725Y-37615000D03*
X151973725Y-37615000D03*
X152973725Y-37615000D03*
%TD*%
D10*
%TO.C,L24*%
X172878800Y-105251200D03*
D11*
X175418800Y-105251200D03*
%TD*%
D12*
%TO.C,S56*%
X169068800Y-176371200D03*
D13*
X174148800Y-176371200D03*
D12*
X179228800Y-176371200D03*
D14*
X170338800Y-173831200D03*
X176688800Y-171291200D03*
%TD*%
D12*
%TO.C,S52*%
X92868800Y-176371200D03*
D13*
X97948800Y-176371200D03*
D12*
X103028800Y-176371200D03*
D14*
X94138800Y-173831200D03*
X100488800Y-171291200D03*
%TD*%
D12*
%TO.C,S23*%
X150018800Y-100171200D03*
D13*
X155098800Y-100171200D03*
D12*
X160178800Y-100171200D03*
D14*
X151288800Y-97631200D03*
X157638800Y-95091200D03*
%TD*%
D10*
%TO.C,L50*%
X58578800Y-181451200D03*
D11*
X61118800Y-181451200D03*
%TD*%
D10*
%TO.C,L10*%
X58578800Y-86201200D03*
D11*
X61118800Y-86201200D03*
%TD*%
D10*
%TO.C,L29*%
X115728800Y-124301200D03*
D11*
X118268800Y-124301200D03*
%TD*%
D12*
%TO.C,S55*%
X150018800Y-176371200D03*
D13*
X155098800Y-176371200D03*
D12*
X160178800Y-176371200D03*
D14*
X151288800Y-173831200D03*
X157638800Y-171291200D03*
%TD*%
D10*
%TO.C,L45*%
X115728800Y-162401200D03*
D11*
X118268800Y-162401200D03*
%TD*%
D12*
%TO.C,S36*%
X92868800Y-138271200D03*
D13*
X97948800Y-138271200D03*
D12*
X103028800Y-138271200D03*
D14*
X94138800Y-135731200D03*
X100488800Y-133191200D03*
%TD*%
D12*
%TO.C,S64*%
X169068800Y-195421200D03*
D13*
X174148800Y-195421200D03*
D12*
X179228800Y-195421200D03*
D14*
X170338800Y-192881200D03*
X176688800Y-190341200D03*
%TD*%
D12*
%TO.C,S39*%
X150018800Y-138271200D03*
D13*
X155098800Y-138271200D03*
D12*
X160178800Y-138271200D03*
D14*
X151288800Y-135731200D03*
X157638800Y-133191200D03*
%TD*%
D12*
%TO.C,S29*%
X111918800Y-119221200D03*
D13*
X116998800Y-119221200D03*
D12*
X122078800Y-119221200D03*
D14*
X113188800Y-116681200D03*
X119538800Y-114141200D03*
%TD*%
D12*
%TO.C,S57*%
X35718800Y-195421200D03*
D13*
X40798800Y-195421200D03*
D12*
X45878800Y-195421200D03*
D14*
X36988800Y-192881200D03*
X43338800Y-190341200D03*
%TD*%
D10*
%TO.C,L37*%
X115728800Y-143351200D03*
D11*
X118268800Y-143351200D03*
%TD*%
D12*
%TO.C,S19*%
X73818800Y-100171200D03*
D13*
X78898800Y-100171200D03*
D12*
X83978800Y-100171200D03*
D14*
X75088800Y-97631200D03*
X81438800Y-95091200D03*
%TD*%
D10*
%TO.C,L48*%
X172878800Y-162401200D03*
D11*
X175418800Y-162401200D03*
%TD*%
D10*
%TO.C,L13*%
X115728800Y-86201200D03*
D11*
X118268800Y-86201200D03*
%TD*%
D17*
%TO.C,H8*%
X107473800Y-185896200D03*
%TD*%
D12*
%TO.C,S30*%
X130968800Y-119221200D03*
D13*
X136048800Y-119221200D03*
D12*
X141128800Y-119221200D03*
D14*
X132238800Y-116681200D03*
X138588800Y-114141200D03*
%TD*%
D12*
%TO.C,S24*%
X169068800Y-100171200D03*
D13*
X174148800Y-100171200D03*
D12*
X179228800Y-100171200D03*
D14*
X170338800Y-97631200D03*
X176688800Y-95091200D03*
%TD*%
D10*
%TO.C,L15*%
X153828800Y-86201200D03*
D11*
X156368800Y-86201200D03*
%TD*%
D12*
%TO.C,S47*%
X150018800Y-157321200D03*
D13*
X155098800Y-157321200D03*
D12*
X160178800Y-157321200D03*
D14*
X151288800Y-154781200D03*
X157638800Y-152241200D03*
%TD*%
D10*
%TO.C,L39*%
X153828800Y-143351200D03*
D11*
X156368800Y-143351200D03*
%TD*%
D10*
%TO.C,L35*%
X77628800Y-143351200D03*
D11*
X80168800Y-143351200D03*
%TD*%
D12*
%TO.C,S59*%
X73818800Y-195421200D03*
D13*
X78898800Y-195421200D03*
D12*
X83978800Y-195421200D03*
D14*
X75088800Y-192881200D03*
X81438800Y-190341200D03*
%TD*%
D12*
%TO.C,S62*%
X130968800Y-195421200D03*
D13*
X136048800Y-195421200D03*
D12*
X141128800Y-195421200D03*
D14*
X132238800Y-192881200D03*
X138588800Y-190341200D03*
%TD*%
D12*
%TO.C,S15*%
X150018800Y-81121200D03*
D13*
X155098800Y-81121200D03*
D12*
X160178800Y-81121200D03*
D14*
X151288800Y-78581200D03*
X157638800Y-76041200D03*
%TD*%
D12*
%TO.C,S46*%
X130968800Y-157321200D03*
D13*
X136048800Y-157321200D03*
D12*
X141128800Y-157321200D03*
D14*
X132238800Y-154781200D03*
X138588800Y-152241200D03*
%TD*%
D17*
%TO.C,H6*%
X164623800Y-128746200D03*
%TD*%
D12*
%TO.C,S4*%
X92868800Y-62071200D03*
D13*
X97948800Y-62071200D03*
D12*
X103028800Y-62071200D03*
D14*
X94138800Y-59531200D03*
X100488800Y-56991200D03*
%TD*%
D12*
%TO.C,S21*%
X111918800Y-100171200D03*
D13*
X116998800Y-100171200D03*
D12*
X122078800Y-100171200D03*
D14*
X113188800Y-97631200D03*
X119538800Y-95091200D03*
%TD*%
D12*
%TO.C,S28*%
X92868800Y-119221200D03*
D13*
X97948800Y-119221200D03*
D12*
X103028800Y-119221200D03*
D14*
X94138800Y-116681200D03*
X100488800Y-114141200D03*
%TD*%
D12*
%TO.C,S44*%
X92868800Y-157321200D03*
D13*
X97948800Y-157321200D03*
D12*
X103028800Y-157321200D03*
D14*
X94138800Y-154781200D03*
X100488800Y-152241200D03*
%TD*%
D10*
%TO.C,L59*%
X77628800Y-200501200D03*
D11*
X80168800Y-200501200D03*
%TD*%
D10*
%TO.C,L47*%
X153828800Y-162401200D03*
D11*
X156368800Y-162401200D03*
%TD*%
D10*
%TO.C,L40*%
X172878800Y-143351200D03*
D11*
X175418800Y-143351200D03*
%TD*%
D12*
%TO.C,S48*%
X169068800Y-157321200D03*
D13*
X174148800Y-157321200D03*
D12*
X179228800Y-157321200D03*
D14*
X170338800Y-154781200D03*
X176688800Y-152241200D03*
%TD*%
D12*
%TO.C,S33*%
X35718800Y-138271200D03*
D13*
X40798800Y-138271200D03*
D12*
X45878800Y-138271200D03*
D14*
X36988800Y-135731200D03*
X43338800Y-133191200D03*
%TD*%
D10*
%TO.C,L28*%
X96678800Y-124301200D03*
D11*
X99218800Y-124301200D03*
%TD*%
D10*
%TO.C,L25*%
X39528800Y-124301200D03*
D11*
X42068800Y-124301200D03*
%TD*%
D10*
%TO.C,L12*%
X96678800Y-86201200D03*
D11*
X99218800Y-86201200D03*
%TD*%
D12*
%TO.C,S10*%
X54768800Y-81121200D03*
D13*
X59848800Y-81121200D03*
D12*
X64928800Y-81121200D03*
D14*
X56038800Y-78581200D03*
X62388800Y-76041200D03*
%TD*%
D12*
%TO.C,S45*%
X111918800Y-157321200D03*
D13*
X116998800Y-157321200D03*
D12*
X122078800Y-157321200D03*
D14*
X113188800Y-154781200D03*
X119538800Y-152241200D03*
%TD*%
D12*
%TO.C,S53*%
X111918800Y-176371200D03*
D13*
X116998800Y-176371200D03*
D12*
X122078800Y-176371200D03*
D14*
X113188800Y-173831200D03*
X119538800Y-171291200D03*
%TD*%
D10*
%TO.C,L53*%
X115728800Y-181451200D03*
D11*
X118268800Y-181451200D03*
%TD*%
D12*
%TO.C,S54*%
X130968800Y-176371200D03*
D13*
X136048800Y-176371200D03*
D12*
X141128800Y-176371200D03*
D14*
X132238800Y-173831200D03*
X138588800Y-171291200D03*
%TD*%
D10*
%TO.C,L56*%
X172878800Y-181451200D03*
D11*
X175418800Y-181451200D03*
%TD*%
D12*
%TO.C,S11*%
X73818800Y-81121200D03*
D13*
X78898800Y-81121200D03*
D12*
X83978800Y-81121200D03*
D14*
X75088800Y-78581200D03*
X81438800Y-76041200D03*
%TD*%
D10*
%TO.C,L46*%
X134778800Y-162401200D03*
D11*
X137318800Y-162401200D03*
%TD*%
D12*
%TO.C,S42*%
X54768800Y-157321200D03*
D13*
X59848800Y-157321200D03*
D12*
X64928800Y-157321200D03*
D14*
X56038800Y-154781200D03*
X62388800Y-152241200D03*
%TD*%
D12*
%TO.C,S26*%
X54768800Y-119221200D03*
D13*
X59848800Y-119221200D03*
D12*
X64928800Y-119221200D03*
D14*
X56038800Y-116681200D03*
X62388800Y-114141200D03*
%TD*%
D10*
%TO.C,L23*%
X153828800Y-105251200D03*
D11*
X156368800Y-105251200D03*
%TD*%
D17*
%TO.C,H9*%
X164623800Y-185896200D03*
%TD*%
D10*
%TO.C,L21*%
X115728800Y-105251200D03*
D11*
X118268800Y-105251200D03*
%TD*%
D10*
%TO.C,L63*%
X153828800Y-200501200D03*
D11*
X156368800Y-200501200D03*
%TD*%
D10*
%TO.C,L36*%
X96678800Y-143351200D03*
D11*
X99218800Y-143351200D03*
%TD*%
D10*
%TO.C,L17*%
X39528800Y-105251200D03*
D11*
X42068800Y-105251200D03*
%TD*%
D18*
%TO.C,U1*%
X99853725Y-34995000D03*
X99853725Y-37535000D03*
X99853725Y-40075000D03*
X99853725Y-42615000D03*
X99853725Y-45155000D03*
X99853725Y-47695000D03*
X99853725Y-50235000D03*
X115093725Y-50235000D03*
X115093725Y-47695000D03*
X115093725Y-45155000D03*
X115093725Y-42615000D03*
X115093725Y-40075000D03*
X115093725Y-37535000D03*
X115093725Y-34995000D03*
%TD*%
D10*
%TO.C,L38*%
X134778800Y-143351200D03*
D11*
X137318800Y-143351200D03*
%TD*%
D12*
%TO.C,S6*%
X130968800Y-62071200D03*
D13*
X136048800Y-62071200D03*
D12*
X141128800Y-62071200D03*
D14*
X132238800Y-59531200D03*
X138588800Y-56991200D03*
%TD*%
D12*
%TO.C,S50*%
X54768800Y-176371200D03*
D13*
X59848800Y-176371200D03*
D12*
X64928800Y-176371200D03*
D14*
X56038800Y-173831200D03*
X62388800Y-171291200D03*
%TD*%
D10*
%TO.C,L4*%
X96678800Y-67151200D03*
D11*
X99218800Y-67151200D03*
%TD*%
M02*
