%TF.GenerationSoftware,KiCad,Pcbnew,9.0.2*%
%TF.CreationDate,2025-06-29T11:42:18-07:00*%
%TF.ProjectId,Grid64_v3,47726964-3634-45f7-9633-2e6b69636164,rev?*%
%TF.SameCoordinates,Original*%
%TF.FileFunction,Soldermask,Top*%
%TF.FilePolarity,Negative*%
%FSLAX46Y46*%
G04 Gerber Fmt 4.6, Leading zero omitted, Abs format (unit mm)*
G04 Created by KiCad (PCBNEW 9.0.2) date 2025-06-29 11:42:18*
%MOMM*%
%LPD*%
G01*
G04 APERTURE LIST*
G04 Aperture macros list*
%AMRoundRect*
0 Rectangle with rounded corners*
0 $1 Rounding radius*
0 $2 $3 $4 $5 $6 $7 $8 $9 X,Y pos of 4 corners*
0 Add a 4 corners polygon primitive as box body*
4,1,4,$2,$3,$4,$5,$6,$7,$8,$9,$2,$3,0*
0 Add four circle primitives for the rounded corners*
1,1,$1+$1,$2,$3*
1,1,$1+$1,$4,$5*
1,1,$1+$1,$6,$7*
1,1,$1+$1,$8,$9*
0 Add four rect primitives between the rounded corners*
20,1,$1+$1,$2,$3,$4,$5,0*
20,1,$1+$1,$4,$5,$6,$7,0*
20,1,$1+$1,$6,$7,$8,$9,0*
20,1,$1+$1,$8,$9,$2,$3,0*%
G04 Aperture macros list end*
%ADD10RoundRect,0.225000X-0.375000X0.225000X-0.375000X-0.225000X0.375000X-0.225000X0.375000X0.225000X0*%
%ADD11C,1.701800*%
%ADD12C,3.987800*%
%ADD13RoundRect,0.250000X-0.262500X-0.450000X0.262500X-0.450000X0.262500X0.450000X-0.262500X0.450000X0*%
%ADD14R,0.850000X0.850000*%
%ADD15C,0.850000*%
%ADD16RoundRect,0.250000X0.262500X0.450000X-0.262500X0.450000X-0.262500X-0.450000X0.262500X-0.450000X0*%
%ADD17RoundRect,0.250000X-0.475000X0.250000X-0.475000X-0.250000X0.475000X-0.250000X0.475000X0.250000X0*%
%ADD18C,2.200000*%
%ADD19RoundRect,0.087500X0.537500X0.087500X-0.537500X0.087500X-0.537500X-0.087500X0.537500X-0.087500X0*%
%ADD20RoundRect,0.250000X0.475000X-0.250000X0.475000X0.250000X-0.475000X0.250000X-0.475000X-0.250000X0*%
%ADD21RoundRect,0.250000X0.550000X-1.050000X0.550000X1.050000X-0.550000X1.050000X-0.550000X-1.050000X0*%
%ADD22RoundRect,0.150000X-0.875000X-0.150000X0.875000X-0.150000X0.875000X0.150000X-0.875000X0.150000X0*%
%ADD23RoundRect,0.150000X-0.825000X-0.150000X0.825000X-0.150000X0.825000X0.150000X-0.825000X0.150000X0*%
%ADD24RoundRect,0.150000X0.150000X-0.825000X0.150000X0.825000X-0.150000X0.825000X-0.150000X-0.825000X0*%
%ADD25RoundRect,0.152400X1.063600X0.609600X-1.063600X0.609600X-1.063600X-0.609600X1.063600X-0.609600X0*%
%ADD26C,1.524000*%
%ADD27RoundRect,0.152400X-1.063600X-0.609600X1.063600X-0.609600X1.063600X0.609600X-1.063600X0.609600X0*%
%ADD28RoundRect,0.250000X-0.250000X-0.475000X0.250000X-0.475000X0.250000X0.475000X-0.250000X0.475000X0*%
G04 APERTURE END LIST*
D10*
%TO.C,D47*%
X164623800Y-156671200D03*
X164623800Y-159971200D03*
%TD*%
%TO.C,D30*%
X145573800Y-118571200D03*
X145573800Y-121871200D03*
%TD*%
D11*
%TO.C,S60*%
X92868800Y-195421200D03*
D12*
X97948800Y-195421200D03*
D11*
X103028800Y-195421200D03*
%TD*%
%TO.C,S22*%
X130968800Y-100171200D03*
D12*
X136048800Y-100171200D03*
D11*
X141128800Y-100171200D03*
%TD*%
%TO.C,S38*%
X130968800Y-138271200D03*
D12*
X136048800Y-138271200D03*
D11*
X141128800Y-138271200D03*
%TD*%
%TO.C,S43*%
X73818800Y-157321200D03*
D12*
X78898800Y-157321200D03*
D11*
X83978800Y-157321200D03*
%TD*%
D10*
%TO.C,D3*%
X88423800Y-61421200D03*
X88423800Y-64721200D03*
%TD*%
D11*
%TO.C,S8*%
X169068800Y-62071200D03*
D12*
X174148800Y-62071200D03*
D11*
X179228800Y-62071200D03*
%TD*%
D10*
%TO.C,D10*%
X69373800Y-80471200D03*
X69373800Y-83771200D03*
%TD*%
D13*
%TO.C,R2*%
X88661225Y-39615000D03*
X90486225Y-39615000D03*
%TD*%
D10*
%TO.C,D8*%
X183673800Y-61421200D03*
X183673800Y-64721200D03*
%TD*%
%TO.C,D28*%
X107473800Y-118571200D03*
X107473800Y-121871200D03*
%TD*%
D11*
%TO.C,S35*%
X73818800Y-138271200D03*
D12*
X78898800Y-138271200D03*
D11*
X83978800Y-138271200D03*
%TD*%
%TO.C,S49*%
X35718800Y-176371200D03*
D12*
X40798800Y-176371200D03*
D11*
X45878800Y-176371200D03*
%TD*%
%TO.C,S9*%
X35718800Y-81121200D03*
D12*
X40798800Y-81121200D03*
D11*
X45878800Y-81121200D03*
%TD*%
D14*
%TO.C,J3*%
X155473725Y-40115000D03*
D15*
X155473725Y-41115000D03*
X155473725Y-42115000D03*
X155473725Y-43115000D03*
X155473725Y-44115000D03*
X155473725Y-45115000D03*
X155473725Y-46115000D03*
X155473725Y-47115000D03*
%TD*%
D10*
%TO.C,D43*%
X88423800Y-156671200D03*
X88423800Y-159971200D03*
%TD*%
D16*
%TO.C,R7*%
X162386225Y-47115000D03*
X160561225Y-47115000D03*
%TD*%
D11*
%TO.C,S5*%
X111918800Y-62071200D03*
D12*
X116998800Y-62071200D03*
D11*
X122078800Y-62071200D03*
%TD*%
D17*
%TO.C,C2*%
X85473725Y-47165000D03*
X85473725Y-49065000D03*
%TD*%
D18*
%TO.C,H5*%
X107473800Y-128746200D03*
%TD*%
%TO.C,H1*%
X50323800Y-71596200D03*
%TD*%
D10*
%TO.C,D58*%
X69373800Y-194771200D03*
X69373800Y-198071200D03*
%TD*%
D16*
%TO.C,R1*%
X80886225Y-42615000D03*
X79061225Y-42615000D03*
%TD*%
D19*
%TO.C,U3*%
X90973725Y-48815000D03*
X90973725Y-48315000D03*
X90973725Y-47815000D03*
X90973725Y-47315000D03*
X88173725Y-47315000D03*
X88173725Y-47815000D03*
X88173725Y-48315000D03*
X88173725Y-48815000D03*
%TD*%
D10*
%TO.C,D45*%
X126523800Y-156671200D03*
X126523800Y-159971200D03*
%TD*%
D18*
%TO.C,H3*%
X164623800Y-71596200D03*
%TD*%
D10*
%TO.C,D5*%
X126523800Y-61421200D03*
X126523800Y-64721200D03*
%TD*%
D11*
%TO.C,S27*%
X73818800Y-119221200D03*
D12*
X78898800Y-119221200D03*
D11*
X83978800Y-119221200D03*
%TD*%
D20*
%TO.C,C1*%
X93973725Y-47115000D03*
X93973725Y-49015000D03*
%TD*%
D10*
%TO.C,D36*%
X107473800Y-137621200D03*
X107473800Y-140921200D03*
%TD*%
D11*
%TO.C,S12*%
X92868800Y-81121200D03*
D12*
X97948800Y-81121200D03*
D11*
X103028800Y-81121200D03*
%TD*%
D10*
%TO.C,D59*%
X88423800Y-194771200D03*
X88423800Y-198071200D03*
%TD*%
D11*
%TO.C,S40*%
X169068800Y-138271200D03*
D12*
X174148800Y-138271200D03*
D11*
X179228800Y-138271200D03*
%TD*%
%TO.C,S17*%
X35718800Y-100171200D03*
D12*
X40798800Y-100171200D03*
D11*
X45878800Y-100171200D03*
%TD*%
%TO.C,S18*%
X54768800Y-100171200D03*
D12*
X59848800Y-100171200D03*
D11*
X64928800Y-100171200D03*
%TD*%
%TO.C,S16*%
X169068800Y-81121200D03*
D12*
X174148800Y-81121200D03*
D11*
X179228800Y-81121200D03*
%TD*%
D10*
%TO.C,D18*%
X69373800Y-99521200D03*
X69373800Y-102821200D03*
%TD*%
%TO.C,D6*%
X145573800Y-61421200D03*
X145573800Y-64721200D03*
%TD*%
D11*
%TO.C,S25*%
X35718800Y-119221200D03*
D12*
X40798800Y-119221200D03*
D11*
X45878800Y-119221200D03*
%TD*%
%TO.C,S61*%
X111918800Y-195421200D03*
D12*
X116998800Y-195421200D03*
D11*
X122078800Y-195421200D03*
%TD*%
%TO.C,S58*%
X54768800Y-195421200D03*
D12*
X59848800Y-195421200D03*
D11*
X64928800Y-195421200D03*
%TD*%
%TO.C,S31*%
X150018800Y-119221200D03*
D12*
X155098800Y-119221200D03*
D11*
X160178800Y-119221200D03*
%TD*%
D10*
%TO.C,D27*%
X88423800Y-118571200D03*
X88423800Y-121871200D03*
%TD*%
D11*
%TO.C,S32*%
X169068800Y-119221200D03*
D12*
X174148800Y-119221200D03*
D11*
X179228800Y-119221200D03*
%TD*%
%TO.C,S41*%
X35718800Y-157321200D03*
D12*
X40798800Y-157321200D03*
D11*
X45878800Y-157321200D03*
%TD*%
D20*
%TO.C,C7*%
X85473725Y-43065000D03*
X85473725Y-41165000D03*
%TD*%
D10*
%TO.C,D51*%
X88423800Y-175721200D03*
X88423800Y-179021200D03*
%TD*%
D18*
%TO.C,H2*%
X107473800Y-71596200D03*
%TD*%
%TO.C,H4*%
X50323800Y-128746200D03*
%TD*%
D10*
%TO.C,D19*%
X88423800Y-99521200D03*
X88423800Y-102821200D03*
%TD*%
%TO.C,D42*%
X69373800Y-156671200D03*
X69373800Y-159971200D03*
%TD*%
D18*
%TO.C,H7*%
X50323800Y-185896200D03*
%TD*%
D10*
%TO.C,D37*%
X126523800Y-137621200D03*
X126523800Y-140921200D03*
%TD*%
D16*
%TO.C,R5*%
X162386225Y-43115000D03*
X160561225Y-43115000D03*
%TD*%
D10*
%TO.C,D34*%
X69373800Y-137621200D03*
X69373800Y-140921200D03*
%TD*%
%TO.C,D50*%
X69373800Y-175721200D03*
X69373800Y-179021200D03*
%TD*%
%TO.C,D35*%
X88423800Y-137621200D03*
X88423800Y-140921200D03*
%TD*%
D21*
%TO.C,C9*%
X121473725Y-39915000D03*
X121473725Y-36315000D03*
%TD*%
D11*
%TO.C,S51*%
X73818800Y-176371200D03*
D12*
X78898800Y-176371200D03*
D11*
X83978800Y-176371200D03*
%TD*%
%TO.C,S7*%
X150018800Y-62071200D03*
D12*
X155098800Y-62071200D03*
D11*
X160178800Y-62071200D03*
%TD*%
%TO.C,S37*%
X111918800Y-138271200D03*
D12*
X116998800Y-138271200D03*
D11*
X122078800Y-138271200D03*
%TD*%
D20*
%TO.C,C5*%
X72473725Y-41565000D03*
X72473725Y-39665000D03*
%TD*%
D10*
%TO.C,D21*%
X126523800Y-99521200D03*
X126523800Y-102821200D03*
%TD*%
D11*
%TO.C,S14*%
X130968800Y-81121200D03*
D12*
X136048800Y-81121200D03*
D11*
X141128800Y-81121200D03*
%TD*%
D13*
%TO.C,R3*%
X88661225Y-45565000D03*
X90486225Y-45565000D03*
%TD*%
D11*
%TO.C,S1*%
X35718800Y-62071200D03*
D12*
X40798800Y-62071200D03*
D11*
X45878800Y-62071200D03*
%TD*%
D10*
%TO.C,D44*%
X107473800Y-156671200D03*
X107473800Y-159971200D03*
%TD*%
%TO.C,D41*%
X50323800Y-156671200D03*
X50323800Y-159971200D03*
%TD*%
D11*
%TO.C,S34*%
X54768800Y-138271200D03*
D12*
X59848800Y-138271200D03*
D11*
X64928800Y-138271200D03*
%TD*%
D10*
%TO.C,D54*%
X145573800Y-175721200D03*
X145573800Y-179021200D03*
%TD*%
D11*
%TO.C,S2*%
X54768800Y-62071200D03*
D12*
X59848800Y-62071200D03*
D11*
X64928800Y-62071200D03*
%TD*%
%TO.C,S63*%
X150018800Y-195421200D03*
D12*
X155098800Y-195421200D03*
D11*
X160178800Y-195421200D03*
%TD*%
%TO.C,S20*%
X92868800Y-100171200D03*
D12*
X97948800Y-100171200D03*
D11*
X103028800Y-100171200D03*
%TD*%
%TO.C,S13*%
X111918800Y-81121200D03*
D12*
X116998800Y-81121200D03*
D11*
X122078800Y-81121200D03*
%TD*%
D22*
%TO.C,LED1*%
X60823725Y-35130000D03*
X60823725Y-36400000D03*
X60823725Y-37670000D03*
X60823725Y-38940000D03*
X60823725Y-40210000D03*
X60823725Y-41480000D03*
X60823725Y-42750000D03*
X60823725Y-44020000D03*
X60823725Y-45290000D03*
X60823725Y-46560000D03*
X60823725Y-47830000D03*
X60823725Y-49100000D03*
X70123725Y-49100000D03*
X70123725Y-47830000D03*
X70123725Y-46560000D03*
X70123725Y-45290000D03*
X70123725Y-44020000D03*
X70123725Y-42750000D03*
X70123725Y-41480000D03*
X70123725Y-40210000D03*
X70123725Y-38940000D03*
X70123725Y-37670000D03*
X70123725Y-36400000D03*
X70123725Y-35130000D03*
%TD*%
D16*
%TO.C,R6*%
X162386225Y-45115000D03*
X160561225Y-45115000D03*
%TD*%
D10*
%TO.C,D57*%
X50323800Y-194771200D03*
X50323800Y-198071200D03*
%TD*%
%TO.C,D33*%
X50323800Y-137621200D03*
X50323800Y-140921200D03*
%TD*%
D11*
%TO.C,S3*%
X73818800Y-62071200D03*
D12*
X78898800Y-62071200D03*
D11*
X83978800Y-62071200D03*
%TD*%
D10*
%TO.C,D62*%
X145573800Y-194771200D03*
X145573800Y-198071200D03*
%TD*%
%TO.C,D15*%
X164623800Y-80471200D03*
X164623800Y-83771200D03*
%TD*%
D14*
%TO.C,J4*%
X145973725Y-37615000D03*
D15*
X146973725Y-37615000D03*
X147973725Y-37615000D03*
X148973725Y-37615000D03*
X149973725Y-37615000D03*
X150973725Y-37615000D03*
X151973725Y-37615000D03*
X152973725Y-37615000D03*
%TD*%
D11*
%TO.C,S56*%
X169068800Y-176371200D03*
D12*
X174148800Y-176371200D03*
D11*
X179228800Y-176371200D03*
%TD*%
%TO.C,S52*%
X92868800Y-176371200D03*
D12*
X97948800Y-176371200D03*
D11*
X103028800Y-176371200D03*
%TD*%
D10*
%TO.C,D7*%
X164623800Y-61421200D03*
X164623800Y-64721200D03*
%TD*%
D11*
%TO.C,S23*%
X150018800Y-100171200D03*
D12*
X155098800Y-100171200D03*
D11*
X160178800Y-100171200D03*
%TD*%
D21*
%TO.C,C8*%
X75973725Y-41415000D03*
X75973725Y-37815000D03*
%TD*%
D11*
%TO.C,S55*%
X150018800Y-176371200D03*
D12*
X155098800Y-176371200D03*
D11*
X160178800Y-176371200D03*
%TD*%
D10*
%TO.C,D56*%
X183673800Y-175721200D03*
X183673800Y-179021200D03*
%TD*%
D13*
%TO.C,R10*%
X139061225Y-45115000D03*
X140886225Y-45115000D03*
%TD*%
D11*
%TO.C,S36*%
X92868800Y-138271200D03*
D12*
X97948800Y-138271200D03*
D11*
X103028800Y-138271200D03*
%TD*%
%TO.C,S64*%
X169068800Y-195421200D03*
D12*
X174148800Y-195421200D03*
D11*
X179228800Y-195421200D03*
%TD*%
%TO.C,S39*%
X150018800Y-138271200D03*
D12*
X155098800Y-138271200D03*
D11*
X160178800Y-138271200D03*
%TD*%
D10*
%TO.C,D4*%
X107473800Y-61421200D03*
X107473800Y-64721200D03*
%TD*%
%TO.C,D32*%
X183673800Y-118571200D03*
X183673800Y-121871200D03*
%TD*%
D11*
%TO.C,S29*%
X111918800Y-119221200D03*
D12*
X116998800Y-119221200D03*
D11*
X122078800Y-119221200D03*
%TD*%
%TO.C,S57*%
X35718800Y-195421200D03*
D12*
X40798800Y-195421200D03*
D11*
X45878800Y-195421200D03*
%TD*%
%TO.C,S19*%
X73818800Y-100171200D03*
D12*
X78898800Y-100171200D03*
D11*
X83978800Y-100171200D03*
%TD*%
D10*
%TO.C,D29*%
X126523800Y-118571200D03*
X126523800Y-121871200D03*
%TD*%
D17*
%TO.C,C3*%
X135448725Y-38165000D03*
X135448725Y-40065000D03*
%TD*%
D10*
%TO.C,D9*%
X50323800Y-80471200D03*
X50323800Y-83771200D03*
%TD*%
D18*
%TO.C,H8*%
X107473800Y-185896200D03*
%TD*%
D11*
%TO.C,S30*%
X130968800Y-119221200D03*
D12*
X136048800Y-119221200D03*
D11*
X141128800Y-119221200D03*
%TD*%
D10*
%TO.C,D20*%
X107473800Y-99521200D03*
X107473800Y-102821200D03*
%TD*%
D11*
%TO.C,S24*%
X169068800Y-100171200D03*
D12*
X174148800Y-100171200D03*
D11*
X179228800Y-100171200D03*
%TD*%
%TO.C,S47*%
X150018800Y-157321200D03*
D12*
X155098800Y-157321200D03*
D11*
X160178800Y-157321200D03*
%TD*%
D10*
%TO.C,D25*%
X50323800Y-118571200D03*
X50323800Y-121871200D03*
%TD*%
D23*
%TO.C,PISO1*%
X127973725Y-38115000D03*
X127973725Y-39385000D03*
X127973725Y-40655000D03*
X127973725Y-41925000D03*
X127973725Y-43195000D03*
X127973725Y-44465000D03*
X127973725Y-45735000D03*
X127973725Y-47005000D03*
X132923725Y-47005000D03*
X132923725Y-45735000D03*
X132923725Y-44465000D03*
X132923725Y-43195000D03*
X132923725Y-41925000D03*
X132923725Y-40655000D03*
X132923725Y-39385000D03*
X132923725Y-38115000D03*
%TD*%
D20*
%TO.C,C6*%
X93973725Y-41165000D03*
X93973725Y-43065000D03*
%TD*%
D10*
%TO.C,D39*%
X164623800Y-137621200D03*
X164623800Y-140921200D03*
%TD*%
%TO.C,D22*%
X145573800Y-99521200D03*
X145573800Y-102821200D03*
%TD*%
D11*
%TO.C,S59*%
X73818800Y-195421200D03*
D12*
X78898800Y-195421200D03*
D11*
X83978800Y-195421200D03*
%TD*%
%TO.C,S62*%
X130968800Y-195421200D03*
D12*
X136048800Y-195421200D03*
D11*
X141128800Y-195421200D03*
%TD*%
D10*
%TO.C,D48*%
X183673800Y-156671200D03*
X183673800Y-159971200D03*
%TD*%
D16*
%TO.C,R4*%
X162386225Y-41115000D03*
X160561225Y-41115000D03*
%TD*%
D10*
%TO.C,D12*%
X107473800Y-80471200D03*
X107473800Y-83771200D03*
%TD*%
D11*
%TO.C,S15*%
X150018800Y-81121200D03*
D12*
X155098800Y-81121200D03*
D11*
X160178800Y-81121200D03*
%TD*%
D10*
%TO.C,D40*%
X183673800Y-137621200D03*
X183673800Y-140921200D03*
%TD*%
%TO.C,D2*%
X69373800Y-61421200D03*
X69373800Y-64721200D03*
%TD*%
%TO.C,D53*%
X126523800Y-175721200D03*
X126523800Y-179021200D03*
%TD*%
D11*
%TO.C,S46*%
X130968800Y-157321200D03*
D12*
X136048800Y-157321200D03*
D11*
X141128800Y-157321200D03*
%TD*%
D24*
%TO.C,SIPO1*%
X168163725Y-46590000D03*
X169433725Y-46590000D03*
X170703725Y-46590000D03*
X171973725Y-46590000D03*
X173243725Y-46590000D03*
X174513725Y-46590000D03*
X175783725Y-46590000D03*
X175783725Y-41640000D03*
X174513725Y-41640000D03*
X173243725Y-41640000D03*
X171973725Y-41640000D03*
X170703725Y-41640000D03*
X169433725Y-41640000D03*
X168163725Y-41640000D03*
%TD*%
D18*
%TO.C,H6*%
X164623800Y-128746200D03*
%TD*%
D10*
%TO.C,D31*%
X164623800Y-118571200D03*
X164623800Y-121871200D03*
%TD*%
D11*
%TO.C,S4*%
X92868800Y-62071200D03*
D12*
X97948800Y-62071200D03*
D11*
X103028800Y-62071200D03*
%TD*%
%TO.C,S21*%
X111918800Y-100171200D03*
D12*
X116998800Y-100171200D03*
D11*
X122078800Y-100171200D03*
%TD*%
%TO.C,S28*%
X92868800Y-119221200D03*
D12*
X97948800Y-119221200D03*
D11*
X103028800Y-119221200D03*
%TD*%
D10*
%TO.C,D14*%
X145573800Y-80471200D03*
X145573800Y-83771200D03*
%TD*%
D11*
%TO.C,S44*%
X92868800Y-157321200D03*
D12*
X97948800Y-157321200D03*
D11*
X103028800Y-157321200D03*
%TD*%
D13*
%TO.C,R11*%
X139061225Y-47115000D03*
X140886225Y-47115000D03*
%TD*%
%TO.C,R8*%
X139061225Y-41115000D03*
X140886225Y-41115000D03*
%TD*%
D10*
%TO.C,D64*%
X183673800Y-194771200D03*
X183673800Y-198071200D03*
%TD*%
%TO.C,D60*%
X107473800Y-194771200D03*
X107473800Y-198071200D03*
%TD*%
%TO.C,D63*%
X164623800Y-194771200D03*
X164623800Y-198071200D03*
%TD*%
D11*
%TO.C,S48*%
X169068800Y-157321200D03*
D12*
X174148800Y-157321200D03*
D11*
X179228800Y-157321200D03*
%TD*%
D10*
%TO.C,D17*%
X50323800Y-99521200D03*
X50323800Y-102821200D03*
%TD*%
D11*
%TO.C,S33*%
X35718800Y-138271200D03*
D12*
X40798800Y-138271200D03*
D11*
X45878800Y-138271200D03*
%TD*%
D10*
%TO.C,D24*%
X183673800Y-99521200D03*
X183673800Y-102821200D03*
%TD*%
D11*
%TO.C,S10*%
X54768800Y-81121200D03*
D12*
X59848800Y-81121200D03*
D11*
X64928800Y-81121200D03*
%TD*%
%TO.C,S45*%
X111918800Y-157321200D03*
D12*
X116998800Y-157321200D03*
D11*
X122078800Y-157321200D03*
%TD*%
D10*
%TO.C,D61*%
X126523800Y-194771200D03*
X126523800Y-198071200D03*
%TD*%
D13*
%TO.C,R9*%
X139061225Y-43115000D03*
X140886225Y-43115000D03*
%TD*%
D10*
%TO.C,D26*%
X69373800Y-118571200D03*
X69373800Y-121871200D03*
%TD*%
%TO.C,D23*%
X164623800Y-99521200D03*
X164623800Y-102821200D03*
%TD*%
D11*
%TO.C,S53*%
X111918800Y-176371200D03*
D12*
X116998800Y-176371200D03*
D11*
X122078800Y-176371200D03*
%TD*%
D10*
%TO.C,D46*%
X145573800Y-156671200D03*
X145573800Y-159971200D03*
%TD*%
D11*
%TO.C,S54*%
X130968800Y-176371200D03*
D12*
X136048800Y-176371200D03*
D11*
X141128800Y-176371200D03*
%TD*%
D10*
%TO.C,D55*%
X164623800Y-175721200D03*
X164623800Y-179021200D03*
%TD*%
%TO.C,D49*%
X50323800Y-175721200D03*
X50323800Y-179021200D03*
%TD*%
D11*
%TO.C,S11*%
X73818800Y-81121200D03*
D12*
X78898800Y-81121200D03*
D11*
X83978800Y-81121200D03*
%TD*%
%TO.C,S42*%
X54768800Y-157321200D03*
D12*
X59848800Y-157321200D03*
D11*
X64928800Y-157321200D03*
%TD*%
D10*
%TO.C,D11*%
X88423800Y-80471200D03*
X88423800Y-83771200D03*
%TD*%
D11*
%TO.C,S26*%
X54768800Y-119221200D03*
D12*
X59848800Y-119221200D03*
D11*
X64928800Y-119221200D03*
%TD*%
D18*
%TO.C,H9*%
X164623800Y-185896200D03*
%TD*%
D10*
%TO.C,D13*%
X126523800Y-80471200D03*
X126523800Y-83771200D03*
%TD*%
%TO.C,D1*%
X50323800Y-61421200D03*
X50323800Y-64721200D03*
%TD*%
D19*
%TO.C,U2*%
X90973725Y-42865000D03*
X90973725Y-42365000D03*
X90973725Y-41865000D03*
X90973725Y-41365000D03*
X88173725Y-41365000D03*
X88173725Y-41865000D03*
X88173725Y-42365000D03*
X88173725Y-42865000D03*
%TD*%
D25*
%TO.C,U1*%
X99018725Y-34995000D03*
D26*
X99853725Y-34995000D03*
D25*
X99018725Y-37535000D03*
D26*
X99853725Y-37535000D03*
D25*
X99018725Y-40075000D03*
D26*
X99853725Y-40075000D03*
D25*
X99018725Y-42615000D03*
D26*
X99853725Y-42615000D03*
D25*
X99018725Y-45155000D03*
D26*
X99853725Y-45155000D03*
D25*
X99018725Y-47695000D03*
D26*
X99853725Y-47695000D03*
D25*
X99018725Y-50235000D03*
D26*
X99853725Y-50235000D03*
X115093725Y-50235000D03*
D27*
X115928725Y-50235000D03*
D26*
X115093725Y-47695000D03*
D27*
X115928725Y-47695000D03*
D26*
X115093725Y-45155000D03*
D27*
X115928725Y-45155000D03*
D26*
X115093725Y-42615000D03*
D27*
X115928725Y-42615000D03*
D26*
X115093725Y-40075000D03*
D27*
X115928725Y-40075000D03*
D26*
X115093725Y-37535000D03*
D27*
X115928725Y-37535000D03*
D26*
X115093725Y-34995000D03*
D27*
X115928725Y-34995000D03*
%TD*%
D10*
%TO.C,D16*%
X183673800Y-80471200D03*
X183673800Y-83771200D03*
%TD*%
%TO.C,D52*%
X107473800Y-175721200D03*
X107473800Y-179021200D03*
%TD*%
D28*
%TO.C,C4*%
X168023725Y-39115000D03*
X169923725Y-39115000D03*
%TD*%
D10*
%TO.C,D38*%
X145573800Y-137621200D03*
X145573800Y-140921200D03*
%TD*%
D11*
%TO.C,S6*%
X130968800Y-62071200D03*
D12*
X136048800Y-62071200D03*
D11*
X141128800Y-62071200D03*
%TD*%
%TO.C,S50*%
X54768800Y-176371200D03*
D12*
X59848800Y-176371200D03*
D11*
X64928800Y-176371200D03*
%TD*%
M02*
