M48
; DRILL file {KiCad 9.0.2} date 2025-06-29T11:42:18-0700
; FORMAT={-:-/ absolute / metric / decimal}
; #@! TF.CreationDate,2025-06-29T11:42:18-07:00
; #@! TF.GenerationSoftware,Kicad,Pcbnew,9.0.2
; #@! TF.FileFunction,NonPlated,1,2,NPTH
FMAT,2
METRIC
; #@! TA.AperFunction,NonPlated,NPTH,ComponentDrill
T1C1.702
; #@! TA.AperFunction,NonPlated,NPTH,ComponentDrill
T2C2.200
; #@! TA.AperFunction,NonPlated,NPTH,ComponentDrill
T3C3.988
%
G90
G05
T1
X35.719Y-62.071
X35.719Y-81.121
X35.719Y-100.171
X35.719Y-119.221
X35.719Y-138.271
X35.719Y-157.321
X35.719Y-176.371
X35.719Y-195.421
X45.879Y-62.071
X45.879Y-81.121
X45.879Y-100.171
X45.879Y-119.221
X45.879Y-138.271
X45.879Y-157.321
X45.879Y-176.371
X45.879Y-195.421
X54.769Y-62.071
X54.769Y-81.121
X54.769Y-100.171
X54.769Y-119.221
X54.769Y-138.271
X54.769Y-157.321
X54.769Y-176.371
X54.769Y-195.421
X64.929Y-62.071
X64.929Y-81.121
X64.929Y-100.171
X64.929Y-119.221
X64.929Y-138.271
X64.929Y-157.321
X64.929Y-176.371
X64.929Y-195.421
X73.819Y-62.071
X73.819Y-81.121
X73.819Y-100.171
X73.819Y-119.221
X73.819Y-138.271
X73.819Y-157.321
X73.819Y-176.371
X73.819Y-195.421
X83.979Y-62.071
X83.979Y-81.121
X83.979Y-100.171
X83.979Y-119.221
X83.979Y-138.271
X83.979Y-157.321
X83.979Y-176.371
X83.979Y-195.421
X92.869Y-62.071
X92.869Y-81.121
X92.869Y-100.171
X92.869Y-119.221
X92.869Y-138.271
X92.869Y-157.321
X92.869Y-176.371
X92.869Y-195.421
X103.029Y-62.071
X103.029Y-81.121
X103.029Y-100.171
X103.029Y-119.221
X103.029Y-138.271
X103.029Y-157.321
X103.029Y-176.371
X103.029Y-195.421
X111.919Y-62.071
X111.919Y-81.121
X111.919Y-100.171
X111.919Y-119.221
X111.919Y-138.271
X111.919Y-157.321
X111.919Y-176.371
X111.919Y-195.421
X122.079Y-62.071
X122.079Y-81.121
X122.079Y-100.171
X122.079Y-119.221
X122.079Y-138.271
X122.079Y-157.321
X122.079Y-176.371
X122.079Y-195.421
X130.969Y-62.071
X130.969Y-81.121
X130.969Y-100.171
X130.969Y-119.221
X130.969Y-138.271
X130.969Y-157.321
X130.969Y-176.371
X130.969Y-195.421
X141.129Y-62.071
X141.129Y-81.121
X141.129Y-100.171
X141.129Y-119.221
X141.129Y-138.271
X141.129Y-157.321
X141.129Y-176.371
X141.129Y-195.421
X150.019Y-62.071
X150.019Y-81.121
X150.019Y-100.171
X150.019Y-119.221
X150.019Y-138.271
X150.019Y-157.321
X150.019Y-176.371
X150.019Y-195.421
X160.179Y-62.071
X160.179Y-81.121
X160.179Y-100.171
X160.179Y-119.221
X160.179Y-138.271
X160.179Y-157.321
X160.179Y-176.371
X160.179Y-195.421
X169.069Y-62.071
X169.069Y-81.121
X169.069Y-100.171
X169.069Y-119.221
X169.069Y-138.271
X169.069Y-157.321
X169.069Y-176.371
X169.069Y-195.421
X179.229Y-62.071
X179.229Y-81.121
X179.229Y-100.171
X179.229Y-119.221
X179.229Y-138.271
X179.229Y-157.321
X179.229Y-176.371
X179.229Y-195.421
T2
X50.324Y-71.596
X50.324Y-128.746
X50.324Y-185.896
X107.474Y-71.596
X107.474Y-128.746
X107.474Y-185.896
X164.624Y-71.596
X164.624Y-128.746
X164.624Y-185.896
T3
X40.799Y-62.071
X40.799Y-81.121
X40.799Y-100.171
X40.799Y-119.221
X40.799Y-138.271
X40.799Y-157.321
X40.799Y-176.371
X40.799Y-195.421
X59.849Y-62.071
X59.849Y-81.121
X59.849Y-100.171
X59.849Y-119.221
X59.849Y-138.271
X59.849Y-157.321
X59.849Y-176.371
X59.849Y-195.421
X78.899Y-62.071
X78.899Y-81.121
X78.899Y-100.171
X78.899Y-119.221
X78.899Y-138.271
X78.899Y-157.321
X78.899Y-176.371
X78.899Y-195.421
X97.949Y-62.071
X97.949Y-81.121
X97.949Y-100.171
X97.949Y-119.221
X97.949Y-138.271
X97.949Y-157.321
X97.949Y-176.371
X97.949Y-195.421
X116.999Y-62.071
X116.999Y-81.121
X116.999Y-100.171
X116.999Y-119.221
X116.999Y-138.271
X116.999Y-157.321
X116.999Y-176.371
X116.999Y-195.421
X136.049Y-62.071
X136.049Y-81.121
X136.049Y-100.171
X136.049Y-119.221
X136.049Y-138.271
X136.049Y-157.321
X136.049Y-176.371
X136.049Y-195.421
X155.099Y-62.071
X155.099Y-81.121
X155.099Y-100.171
X155.099Y-119.221
X155.099Y-138.271
X155.099Y-157.321
X155.099Y-176.371
X155.099Y-195.421
X174.149Y-62.071
X174.149Y-81.121
X174.149Y-100.171
X174.149Y-119.221
X174.149Y-138.271
X174.149Y-157.321
X174.149Y-176.371
X174.149Y-195.421
M30
